<?xml version="1.0" ?>
<svg xmlns="http://www.w3.org/2000/svg" version="1.1" width="224" height="224">
  <defs/>
  <g>
    <path d="M 13.723085403442383 230.7852783203125 C 11.243197441101074 229.57244873046875 16.319116592407227 227.28126525878906 13.29404067993164 225.8972930908203" stroke-width="3.0" fill="none" stroke="rgb(0, 0, 0)" stroke-opacity="0.72903514" stroke-linecap="round" stroke-linejoin="round"/>
    <path d="M 131.78334045410156 168.2572021484375 C 39.85155487060547 159.41140747070312 32.626399993896484 173.9586181640625 184.39035034179688 182.55555725097656" stroke-width="3.0" fill="none" stroke="rgb(3, 1, -5)" stroke-opacity="0.32981354" stroke-linecap="round" stroke-linejoin="round"/>
    <path d="M 74.03351593017578 98.34458923339844 C 80.26307678222656 131.97711181640625 64.92003631591797 104.22051239013672 133.4414825439453 126.72322845458984" stroke-width="3.0" fill="none" stroke="rgb(0, -2, 1)" stroke-opacity="0.3015992" stroke-linecap="round" stroke-linejoin="round"/>
    <path d="M 24.33782386779785 78.42254638671875 C 4.732179164886475 54.231353759765625 35.52497863769531 144.98468017578125 29.448936462402344 44.84297180175781" stroke-width="3.0" fill="none" stroke="rgb(-2, 0, 3)" stroke-opacity="0.14638501" stroke-linecap="round" stroke-linejoin="round"/>
    <path d="M 116.74366760253906 177.998291015625 C 62.3473014831543 184.232177734375 -49.2332763671875 181.5467529296875 96.98760223388672 169.55491638183594" stroke-width="3.0" fill="none" stroke="rgb(-2, 0, 0)" stroke-opacity="0.14111517" stroke-linecap="round" stroke-linejoin="round"/>
    <path d="M 33.626922607421875 154.45291137695312 C 33.66511154174805 220.9499969482422 40.31934356689453 228.27598571777344 23.624753952026367 168.0343017578125" stroke-width="3.0" fill="none" stroke="rgb(-1, 2, 0)" stroke-opacity="0.13162062" stroke-linecap="round" stroke-linejoin="round"/>
    <path d="M 41.57108688354492 198.60215759277344 C 89.97637939453125 199.12503051757812 64.0391616821289 200.49163818359375 87.0616683959961 200.09359741210938" stroke-width="3.0" fill="none" stroke="rgb(-2, 0, 1)" stroke-opacity="0.3489654" stroke-linecap="round" stroke-linejoin="round"/>
    <path d="M 110.14349365234375 159.006591796875 C 48.2180061340332 192.112548828125 56.58826446533203 154.74192810058594 101.02490234375 157.63059997558594" stroke-width="3.0" fill="none" stroke="rgb(0, 0, 0)" stroke-opacity="0.14943822" stroke-linecap="round" stroke-linejoin="round"/>
    <path d="M 110.13626861572266 181.5569305419922 C 19.559606552124023 186.5816650390625 16.93082046508789 190.01153564453125 190.4315185546875 188.55519104003906" stroke-width="3.0" fill="none" stroke="rgb(4, -3, 0)" stroke-opacity="0.2637396" stroke-linecap="round" stroke-linejoin="round"/>
    <path d="M 130.9392547607422 234.60525512695312 C 123.36478424072266 220.03790283203125 149.6861114501953 208.64089965820312 109.33299255371094 216.9818115234375" stroke-width="3.0" fill="none" stroke="rgb(0, 0, 1)" stroke-opacity="0.07793255" stroke-linecap="round" stroke-linejoin="round"/>
    <path d="M 52.91756820678711 75.1014404296875 C 30.892427444458008 -69.72749328613281 41.12955856323242 -12.408864974975586 54.98151779174805 154.54612731933594" stroke-width="3.0" fill="none" stroke="rgb(0, -5, 4)" stroke-opacity="0.18232737" stroke-linecap="round" stroke-linejoin="round"/>
    <path d="M 60.395751953125 181.9639434814453 C 151.32009887695312 181.18048095703125 131.1094970703125 189.43350219726562 58.317420959472656 179.7458953857422" stroke-width="3.0" fill="none" stroke="rgb(0, 0, 0)" stroke-opacity="0.057257038" stroke-linecap="round" stroke-linejoin="round"/>
    <path d="M 170.0331268310547 203.49920654296875 C 221.81080627441406 239.62420654296875 244.58932495117188 231.43328857421875 258.8531799316406 226.6685791015625" stroke-width="3.0" fill="none" stroke="rgb(0, 0, 0)" stroke-opacity="0.117022276" stroke-linecap="round" stroke-linejoin="round"/>
    <path d="M 167.70550537109375 213.52963256835938 C 2.422755718231201 209.58749389648438 -25.050058364868164 204.99859619140625 152.01016235351562 207.5690460205078" stroke-width="3.0" fill="none" stroke="rgb(-2, -2, 3)" stroke-opacity="0.1869883" stroke-linecap="round" stroke-linejoin="round"/>
    <path d="M 98.0918197631836 123.97980499267578 C 61.43906021118164 166.19381713867188 63.78403091430664 138.94338989257812 63.946590423583984 91.97955322265625" stroke-width="3.0" fill="none" stroke="rgb(0, 0, 2)" stroke-opacity="0.145603" stroke-linecap="round" stroke-linejoin="round"/>
    <path d="M 135.67738342285156 113.8938980102539 C 128.36248779296875 33.348548889160156 151.78683471679688 185.4569854736328 131.0488739013672 103.353515625" stroke-width="3.0" fill="none" stroke="rgb(0, 0, 0)" stroke-opacity="0.23248012" stroke-linecap="round" stroke-linejoin="round"/>
    <path d="M 50.39374542236328 9.313325881958008 C 4.931571960449219 4.90699577331543 14.333062171936035 -14.664814949035645 15.453197479248047 50.412906646728516" stroke-width="3.0" fill="none" stroke="rgb(-1, -2, 2)" stroke-opacity="0.1846164" stroke-linecap="round" stroke-linejoin="round"/>
    <path d="M 115.89571380615234 173.38182067871094 C 229.4674530029297 165.7028045654297 180.43881225585938 216.93011474609375 160.60296630859375 135.60015869140625" stroke-width="3.0" fill="none" stroke="rgb(-1, -1, 1)" stroke-opacity="0.19736896" stroke-linecap="round" stroke-linejoin="round"/>
    <path d="M 50.66451644897461 58.32139587402344 C -1.5993311405181885 14.952543258666992 13.77780818939209 99.21398162841797 22.744173049926758 49.47792053222656" stroke-width="3.0" fill="none" stroke="rgb(1, -2, 2)" stroke-opacity="0.15821023" stroke-linecap="round" stroke-linejoin="round"/>
    <path d="M 75.04186248779297 139.4642333984375 C -14.919038772583008 129.5771484375 72.0479507446289 122.78520202636719 17.818483352661133 160.28636169433594" stroke-width="3.0" fill="none" stroke="rgb(-2, 0, 2)" stroke-opacity="0.10182504" stroke-linecap="round" stroke-linejoin="round"/>
    <path d="M 80.12340545654297 143.60841369628906 C 64.162109375 194.18606567382812 64.48109436035156 182.6111602783203 67.28559112548828 134.04132080078125" stroke-width="3.0" fill="none" stroke="rgb(-1, 1, 0)" stroke-opacity="0.48184058" stroke-linecap="round" stroke-linejoin="round"/>
    <path d="M 33.17580032348633 103.36833190917969 C -4.963271141052246 99.0993881225586 14.40561294555664 84.35649108886719 39.58468246459961 86.56189727783203" stroke-width="3.0" fill="none" stroke="rgb(0, -1, 1)" stroke-opacity="0.114621975" stroke-linecap="round" stroke-linejoin="round"/>
    <path d="M 142.5458526611328 86.9574203491211 C 117.6164321899414 124.9876480102539 218.7179718017578 112.70245361328125 95.4903793334961 116.88272094726562" stroke-width="3.0" fill="none" stroke="rgb(-2, 3, 0)" stroke-opacity="0.14254169" stroke-linecap="round" stroke-linejoin="round"/>
    <path d="M 40.188087463378906 210.60235595703125 C 98.31892395019531 209.52059936523438 146.27163696289062 212.4622344970703 81.8844985961914 216.39675903320312" stroke-width="3.0" fill="none" stroke="rgb(-4, -1, 2)" stroke-opacity="0.24495195" stroke-linecap="round" stroke-linejoin="round"/>
    <path d="M 195.35150146484375 -5.9618706703186035 C 144.3170928955078 26.00923728942871 183.01522827148438 -0.48836615681648254 168.3568878173828 16.992942810058594" stroke-width="3.0" fill="none" stroke="rgb(-3, 2, 1)" stroke-opacity="0.54389507" stroke-linecap="round" stroke-linejoin="round"/>
    <path d="M 188.62197875976562 14.500467300415039 C 185.20933532714844 114.31024169921875 180.70416259765625 11.260407447814941 181.88348388671875 25.41275405883789" stroke-width="3.0" fill="none" stroke="rgb(3, -2, 2)" stroke-opacity="0.46489015" stroke-linecap="round" stroke-linejoin="round"/>
    <path d="M 97.9871826171875 54.775390625 C 75.86731719970703 46.02012252807617 75.17858123779297 121.0140151977539 106.81522369384766 87.81737518310547" stroke-width="3.0" fill="none" stroke="rgb(-2, 0, 2)" stroke-opacity="0.19831464" stroke-linecap="round" stroke-linejoin="round"/>
    <path d="M 83.84798431396484 206.31922912597656 C 38.483211517333984 200.4281005859375 46.76380157470703 207.36883544921875 122.99103546142578 201.1438446044922" stroke-width="3.0" fill="none" stroke="rgb(0, -2, 1)" stroke-opacity="0.15532729" stroke-linecap="round" stroke-linejoin="round"/>
    <path d="M 73.65068054199219 109.04056549072266 C 127.11917877197266 118.41900634765625 122.09819030761719 122.54730224609375 75.08280944824219 128.656494140625" stroke-width="3.0" fill="none" stroke="rgb(0, -1, 2)" stroke-opacity="0.16157304" stroke-linecap="round" stroke-linejoin="round"/>
    <path d="M 47.612369537353516 -11.487504005432129 C 75.12154388427734 -32.158042907714844 89.60459899902344 -25.928224563598633 80.9268798828125 42.61149215698242" stroke-width="3.0" fill="none" stroke="rgb(2, -1, 0)" stroke-opacity="0.50107986" stroke-linecap="round" stroke-linejoin="round"/>
    <path d="M 203.67808532714844 154.18544006347656 C 224.09298706054688 200.649658203125 245.42091369628906 221.49859619140625 211.95864868164062 181.0006561279297" stroke-width="3.0" fill="none" stroke="rgb(0, -1, 2)" stroke-opacity="0.14585201" stroke-linecap="round" stroke-linejoin="round"/>
    <path d="M 226.01568603515625 217.18666076660156 C 208.1797332763672 199.0864715576172 224.1840362548828 212.59982299804688 227.59909057617188 214.71109008789062" stroke-width="3.0" fill="none" stroke="rgb(0, 0, -1)" stroke-opacity="0.22890359" stroke-linecap="round" stroke-linejoin="round"/>
    <path d="M 40.368446350097656 94.13410949707031 C 36.79664993286133 -47.6987190246582 41.27730178833008 -62.216224670410156 43.72955322265625 62.133216857910156" stroke-width="3.0" fill="none" stroke="rgb(1, -2, 0)" stroke-opacity="0.23157856" stroke-linecap="round" stroke-linejoin="round"/>
    <path d="M 81.76603698730469 90.78728485107422 C 106.31517791748047 142.47837829589844 110.4540023803711 138.2490234375 89.7825927734375 85.84407043457031" stroke-width="3.0" fill="none" stroke="rgb(-1, -1, 1)" stroke-opacity="0.29686418" stroke-linecap="round" stroke-linejoin="round"/>
    <path d="M 156.6917266845703 129.2014923095703 C 86.61946105957031 121.0169677734375 155.34246826171875 120.47518920898438 100.03910827636719 112.30626678466797" stroke-width="3.0" fill="none" stroke="rgb(1, -1, 1)" stroke-opacity="0.5502215" stroke-linecap="round" stroke-linejoin="round"/>
    <path d="M 219.13986206054688 102.53086853027344 C 110.06633758544922 134.93629455566406 165.94740295410156 43.859649658203125 153.7205047607422 127.57212829589844" stroke-width="3.0" fill="none" stroke="rgb(0, 1, 0)" stroke-opacity="0.1615694" stroke-linecap="round" stroke-linejoin="round"/>
    <path d="M 88.26251220703125 140.3334503173828 C 101.7992935180664 86.1297836303711 96.91738891601562 147.4073486328125 100.95077514648438 89.34130096435547" stroke-width="3.0" fill="none" stroke="rgb(-1, 0, 1)" stroke-opacity="0.33881626" stroke-linecap="round" stroke-linejoin="round"/>
    <path d="M 162.51402282714844 114.72331237792969 C 290.31732177734375 156.54818725585938 262.6033935546875 160.63401794433594 159.048095703125 124.6435317993164" stroke-width="3.0" fill="none" stroke="rgb(-2, 2, 2)" stroke-opacity="0.47004026" stroke-linecap="round" stroke-linejoin="round"/>
    <path d="M 34.9752082824707 136.85455322265625 C -13.833215713500977 116.20671844482422 22.007413864135742 172.28140258789062 19.425188064575195 148.46360778808594" stroke-width="3.0" fill="none" stroke="rgb(-2, -2, 3)" stroke-opacity="0.09352626" stroke-linecap="round" stroke-linejoin="round"/>
    <path d="M 37.28269958496094 93.273193359375 C -9.328595161437988 103.36335754394531 7.241330623626709 101.23982238769531 52.97663116455078 109.03150177001953" stroke-width="3.0" fill="none" stroke="rgb(-2, -1, 2)" stroke-opacity="0.127706" stroke-linecap="round" stroke-linejoin="round"/>
    <path d="M 82.5436019897461 188.80764770507812 C 149.39964294433594 181.64773559570312 134.0102996826172 185.4865264892578 108.44072723388672 183.08477783203125" stroke-width="3.0" fill="none" stroke="rgb(0, 0, 0)" stroke-opacity="-0.0038880992" stroke-linecap="round" stroke-linejoin="round"/>
    <path d="M 66.68285369873047 122.59174346923828 C 60.98240661621094 142.22564697265625 107.39413452148438 103.5694351196289 105.75292205810547 133.67166137695312" stroke-width="3.0" fill="none" stroke="rgb(0, 0, 1)" stroke-opacity="0.18798901" stroke-linecap="round" stroke-linejoin="round"/>
    <path d="M 197.0898895263672 45.69394302368164 C 198.2001190185547 151.81199645996094 197.12631225585938 137.45790100097656 201.7244415283203 137.50108337402344" stroke-width="3.0" fill="none" stroke="rgb(0, 3, -3)" stroke-opacity="0.5292136" stroke-linecap="round" stroke-linejoin="round"/>
    <path d="M 55.74635696411133 72.97472381591797 C 87.280029296875 93.63835906982422 67.7652359008789 102.56083679199219 60.37142562866211 91.02349090576172" stroke-width="3.0" fill="none" stroke="rgb(0, 1, 0)" stroke-opacity="0.16813701" stroke-linecap="round" stroke-linejoin="round"/>
    <path d="M 159.86502075195312 84.4487075805664 C 144.7417449951172 57.336830139160156 170.04798889160156 9.612034797668457 167.26333618164062 64.73857116699219" stroke-width="3.0" fill="none" stroke="rgb(-2, -1, 2)" stroke-opacity="0.40093687" stroke-linecap="round" stroke-linejoin="round"/>
    <path d="M 172.6073455810547 123.11051940917969 C 251.69570922851562 147.33718872070312 256.2627258300781 150.8354034423828 231.79849243164062 141.25355529785156" stroke-width="3.0" fill="none" stroke="rgb(-1, 0, 3)" stroke-opacity="0.40637964" stroke-linecap="round" stroke-linejoin="round"/>
    <path d="M 28.24778938293457 -17.692359924316406 C 30.26929473876953 80.1454086303711 31.93622398376465 81.135986328125 34.488895416259766 13.33093547821045" stroke-width="3.0" fill="none" stroke="rgb(-1, -1, 1)" stroke-opacity="0.3056427" stroke-linecap="round" stroke-linejoin="round"/>
    <path d="M 215.87916564941406 75.30010223388672 C 221.2084503173828 -52.743743896484375 222.3647918701172 -28.292823791503906 213.6907196044922 28.29769515991211" stroke-width="3.0" fill="none" stroke="rgb(0, 3, -3)" stroke-opacity="0.2557964" stroke-linecap="round" stroke-linejoin="round"/>
    <path d="M 55.30250930786133 191.72483825683594 C 23.798181533813477 196.9881591796875 65.21109771728516 204.0454559326172 53.809425354003906 183.17141723632812" stroke-width="3.0" fill="none" stroke="rgb(0, 3, -2)" stroke-opacity="0.26797432" stroke-linecap="round" stroke-linejoin="round"/>
    <path d="M -2.9353175163269043 23.776823043823242 C -7.513782024383545 22.662761688232422 -1.0596790313720703 23.29759979248047 -7.073502540588379 21.83680534362793" stroke-width="3.0" fill="none" stroke="rgb(0, 0, 0)" stroke-opacity="0.64721334" stroke-linecap="round" stroke-linejoin="round"/>
    <path d="M 16.184480667114258 227.07215881347656 C 20.625411987304688 237.22714233398438 16.426620483398438 226.50930786132812 17.551227569580078 227.14646911621094" stroke-width="3.0" fill="none" stroke="rgb(0, 0, 0)" stroke-opacity="0.65687084" stroke-linecap="round" stroke-linejoin="round"/>
    <path d="M 65.6708984375 193.79164123535156 C 252.2352294921875 193.16232299804688 247.3916015625 194.2645263671875 86.41836547851562 198.7941131591797" stroke-width="3.0" fill="none" stroke="rgb(0, -1, 1)" stroke-opacity="0.19686332" stroke-linecap="round" stroke-linejoin="round"/>
    <path d="M 25.578161239624023 85.9574203491211 C 15.559898376464844 7.940288543701172 16.204795837402344 36.343055725097656 21.801631927490234 85.39496612548828" stroke-width="3.0" fill="none" stroke="rgb(0, 0, 0)" stroke-opacity="0.19274673" stroke-linecap="round" stroke-linejoin="round"/>
    <path d="M 135.19615173339844 73.1789321899414 C 62.14333724975586 102.6046142578125 113.67401123046875 73.13831329345703 103.19068145751953 103.59907531738281" stroke-width="3.0" fill="none" stroke="rgb(0, 0, -1)" stroke-opacity="0.44413522" stroke-linecap="round" stroke-linejoin="round"/>
    <path d="M 22.896045684814453 125.0843505859375 C 19.14789390563965 194.60008239746094 45.526084899902344 169.44091796875 15.507610321044922 129.25852966308594" stroke-width="3.0" fill="none" stroke="rgb(1, -1, 0)" stroke-opacity="0.08639284" stroke-linecap="round" stroke-linejoin="round"/>
    <path d="M 158.93968200683594 144.6119842529297 C 22.830455780029297 138.17063903808594 53.33858108520508 143.29046630859375 101.60368347167969 141.67816162109375" stroke-width="3.0" fill="none" stroke="rgb(1, 0, 0)" stroke-opacity="0.3152036" stroke-linecap="round" stroke-linejoin="round"/>
    <path d="M 186.4512176513672 101.34941101074219 C 178.17031860351562 160.3632049560547 189.68247985839844 -3.2008163928985596 186.68373107910156 133.91461181640625" stroke-width="3.0" fill="none" stroke="rgb(1, 0, -2)" stroke-opacity="0.3570677" stroke-linecap="round" stroke-linejoin="round"/>
    <path d="M 80.63117980957031 43.6702995300293 C 46.352294921875 10.556798934936523 67.50748443603516 44.20237350463867 49.4235725402832 -7.3469672203063965" stroke-width="3.0" fill="none" stroke="rgb(2, -1, 0)" stroke-opacity="0.2678652" stroke-linecap="round" stroke-linejoin="round"/>
    <path d="M 226.76910400390625 -8.810187339782715 C 220.63279724121094 3.8792498111724854 224.8812713623047 89.62547302246094 212.86619567871094 4.428834915161133" stroke-width="3.0" fill="none" stroke="rgb(0, 3, -2)" stroke-opacity="0.19770928" stroke-linecap="round" stroke-linejoin="round"/>
    <path d="M 74.29608154296875 88.34953308105469 C 78.64415740966797 -25.227739334106445 98.02488708496094 39.02755355834961 79.15276336669922 109.10607147216797" stroke-width="3.0" fill="none" stroke="rgb(2, -2, 1)" stroke-opacity="0.37819356" stroke-linecap="round" stroke-linejoin="round"/>
    <path d="M 146.37940979003906 44.32615280151367 C 121.25914001464844 63.5798454284668 137.69302368164062 44.435054779052734 134.08981323242188 66.23746490478516" stroke-width="3.0" fill="none" stroke="rgb(-1, 1, 0)" stroke-opacity="0.6064818" stroke-linecap="round" stroke-linejoin="round"/>
    <path d="M 75.84312438964844 145.6991729736328 C 66.3045883178711 213.0525665283203 28.192821502685547 185.95884704589844 91.13540649414062 189.89744567871094" stroke-width="3.0" fill="none" stroke="rgb(-1, 0, 1)" stroke-opacity="0.2929659" stroke-linecap="round" stroke-linejoin="round"/>
    <path d="M 176.47488403320312 134.2865447998047 C 176.81719970703125 67.72814178466797 181.17633056640625 59.09093475341797 180.77053833007812 120.35803985595703" stroke-width="3.0" fill="none" stroke="rgb(-2, 1, -2)" stroke-opacity="0.22544774" stroke-linecap="round" stroke-linejoin="round"/>
    <path d="M 16.125812530517578 147.5918731689453 C 32.897579193115234 205.89952087402344 51.46537780761719 140.37850952148438 48.213356018066406 200.03530883789062" stroke-width="3.0" fill="none" stroke="rgb(-1, 0, 0)" stroke-opacity="0.07981588" stroke-linecap="round" stroke-linejoin="round"/>
    <path d="M 6.6656904220581055 231.3769073486328 C 11.245011329650879 228.7586669921875 9.47181510925293 213.44573974609375 9.689244270324707 144.2633819580078" stroke-width="3.0" fill="none" stroke="rgb(-2, 1, 2)" stroke-opacity="0.0858857" stroke-linecap="round" stroke-linejoin="round"/>
    <path d="M 123.38306427001953 192.20242309570312 C 104.49200439453125 194.43186950683594 207.6005096435547 200.35169982910156 189.91184997558594 189.73406982421875" stroke-width="3.0" fill="none" stroke="rgb(3, -2, 0)" stroke-opacity="0.33083463" stroke-linecap="round" stroke-linejoin="round"/>
    <path d="M 78.21980285644531 157.59934997558594 C -12.799341201782227 187.36013793945312 17.299571990966797 143.59918212890625 66.02155303955078 155.84024047851562" stroke-width="3.0" fill="none" stroke="rgb(0, 0, 1)" stroke-opacity="0.12560685" stroke-linecap="round" stroke-linejoin="round"/>
    <path d="M 151.2894744873047 167.2056121826172 C 34.11029815673828 171.2127227783203 3.065378189086914 189.08448791503906 97.67706298828125 172.69131469726562" stroke-width="3.0" fill="none" stroke="rgb(0, 1, -1)" stroke-opacity="0.13584125" stroke-linecap="round" stroke-linejoin="round"/>
    <path d="M 92.72943115234375 114.4073715209961 C 60.2080078125 111.09672546386719 71.75807189941406 137.0146026611328 72.78015899658203 -18.847944259643555" stroke-width="3.0" fill="none" stroke="rgb(3, 1, -3)" stroke-opacity="0.27927038" stroke-linecap="round" stroke-linejoin="round"/>
    <path d="M 51.6646614074707 141.0306854248047 C 43.41053009033203 225.48658752441406 53.26577377319336 29.293190002441406 51.035587310791016 151.60092163085938" stroke-width="3.0" fill="none" stroke="rgb(-1, -4, 3)" stroke-opacity="0.1757537" stroke-linecap="round" stroke-linejoin="round"/>
    <path d="M 40.0704231262207 210.01123046875 C 46.60048294067383 150.86663818359375 32.45048522949219 203.29849243164062 43.00209045410156 177.32916259765625" stroke-width="3.0" fill="none" stroke="rgb(-1, 1, -1)" stroke-opacity="0.27682692" stroke-linecap="round" stroke-linejoin="round"/>
    <path d="M 66.27178192138672 103.20309448242188 C 72.31279754638672 172.3699951171875 41.069026947021484 113.15910339355469 96.9244384765625 145.9972686767578" stroke-width="3.0" fill="none" stroke="rgb(2, -1, 0)" stroke-opacity="0.17650075" stroke-linecap="round" stroke-linejoin="round"/>
    <path d="M 35.163516998291016 209.6410369873047 C 97.66165924072266 212.96517944335938 67.45668029785156 219.97706604003906 127.99542999267578 221.21597290039062" stroke-width="3.0" fill="none" stroke="rgb(-1, -3, 3)" stroke-opacity="0.4083395" stroke-linecap="round" stroke-linejoin="round"/>
    <path d="M 145.8616180419922 129.1502685546875 C 48.359458923339844 106.1993637084961 63.077667236328125 147.6210479736328 82.61751556396484 81.14356231689453" stroke-width="3.0" fill="none" stroke="rgb(1, -3, 3)" stroke-opacity="0.27973288" stroke-linecap="round" stroke-linejoin="round"/>
    <path d="M 131.18431091308594 71.98812103271484 C 101.599609375 57.99747848510742 77.36740112304688 122.61448669433594 141.71749877929688 111.13175964355469" stroke-width="3.0" fill="none" stroke="rgb(-2, 1, 0)" stroke-opacity="0.24360038" stroke-linecap="round" stroke-linejoin="round"/>
    <path d="M 128.5927734375 101.10264587402344 C 123.62332916259766 118.09440612792969 100.10458374023438 83.17157745361328 146.9392547607422 55.780029296875" stroke-width="3.0" fill="none" stroke="rgb(-1, 2, -2)" stroke-opacity="0.3285853" stroke-linecap="round" stroke-linejoin="round"/>
    <path d="M 217.83128356933594 207.16802978515625 C 175.5567169189453 163.92774963378906 177.11988830566406 154.90025329589844 163.14369201660156 144.49114990234375" stroke-width="3.0" fill="none" stroke="rgb(-2, 0, 2)" stroke-opacity="0.32622433" stroke-linecap="round" stroke-linejoin="round"/>
    <path d="M 38.13029479980469 173.61026000976562 C 35.29856491088867 211.20790100097656 48.710636138916016 200.3015899658203 5.508810997009277 227.7203826904297" stroke-width="3.0" fill="none" stroke="rgb(0, 2, -2)" stroke-opacity="0.10004473" stroke-linecap="round" stroke-linejoin="round"/>
    <path d="M 42.015869140625 188.42446899414062 C 2.815680742263794 180.7261505126953 62.100067138671875 217.55935668945312 36.79264831542969 144.5597381591797" stroke-width="3.0" fill="none" stroke="rgb(-2, 2, -1)" stroke-opacity="0.08984641" stroke-linecap="round" stroke-linejoin="round"/>
    <path d="M 47.20795440673828 98.64915466308594 C 70.73764038085938 115.60860443115234 53.91258239746094 38.89308547973633 57.933467864990234 192.4423065185547" stroke-width="3.0" fill="none" stroke="rgb(-1, 0, 2)" stroke-opacity="0.15208326" stroke-linecap="round" stroke-linejoin="round"/>
    <path d="M 60.86699295043945 19.072887420654297 C 63.739994049072266 139.48753356933594 74.75553894042969 104.11803436279297 65.10835266113281 20.03166389465332" stroke-width="3.0" fill="none" stroke="rgb(-1, 0, 2)" stroke-opacity="0.23450924" stroke-linecap="round" stroke-linejoin="round"/>
    <path d="M 177.94512939453125 209.26478576660156 C 33.009098052978516 190.1631622314453 57.18746566772461 223.6017608642578 180.29759216308594 223.09397888183594" stroke-width="3.0" fill="none" stroke="rgb(3, -2, 0)" stroke-opacity="0.17786182" stroke-linecap="round" stroke-linejoin="round"/>
    <path d="M 17.068349838256836 26.350475311279297 C 47.3387336730957 12.046239852905273 7.538908004760742 43.47132110595703 32.34933090209961 35.10978317260742" stroke-width="3.0" fill="none" stroke="rgb(0, 0, 0)" stroke-opacity="0.057533596" stroke-linecap="round" stroke-linejoin="round"/>
    <path d="M 101.9448013305664 195.16725158691406 C 112.39064025878906 235.92572021484375 8.041495323181152 202.2989044189453 174.81153869628906 201.0143585205078" stroke-width="3.0" fill="none" stroke="rgb(1, -1, 0)" stroke-opacity="0.16211122" stroke-linecap="round" stroke-linejoin="round"/>
    <path d="M 118.59166717529297 150.06358337402344 C 39.257266998291016 147.06443786621094 46.40293884277344 156.62925720214844 168.28753662109375 161.7967529296875" stroke-width="3.0" fill="none" stroke="rgb(0, 3, -2)" stroke-opacity="0.29658037" stroke-linecap="round" stroke-linejoin="round"/>
    <path d="M 59.45271682739258 147.33241271972656 C -5.139470100402832 133.78248596191406 12.673788070678711 155.85073852539062 9.394716262817383 130.19927978515625" stroke-width="3.0" fill="none" stroke="rgb(-1, -2, 3)" stroke-opacity="0.18511507" stroke-linecap="round" stroke-linejoin="round"/>
    <path d="M 13.042900085449219 152.68902587890625 C 8.084254264831543 61.1336784362793 18.31563949584961 57.59139633178711 12.458803176879883 150.0234832763672" stroke-width="3.0" fill="none" stroke="rgb(1, -3, 1)" stroke-opacity="0.17233324" stroke-linecap="round" stroke-linejoin="round"/>
    <path d="M 174.05398559570312 127.28857421875 C 224.7687530517578 137.5828094482422 216.64984130859375 162.79461669921875 216.6013641357422 73.56156158447266" stroke-width="3.0" fill="none" stroke="rgb(-3, 5, 0)" stroke-opacity="0.40683472" stroke-linecap="round" stroke-linejoin="round"/>
    <path d="M 211.66835021972656 227.86663818359375 C 241.27392578125 229.3089141845703 169.2013702392578 226.05194091796875 205.6371612548828 231.73553466796875" stroke-width="3.0" fill="none" stroke="rgb(0, 0, 0)" stroke-opacity="0.27787915" stroke-linecap="round" stroke-linejoin="round"/>
    <path d="M 9.354694366455078 -3.9760892391204834 C 12.488409042358398 79.38150024414062 20.75712013244629 74.69631958007812 23.825298309326172 -2.8785157203674316" stroke-width="3.0" fill="none" stroke="rgb(-1, 0, 2)" stroke-opacity="0.09292163" stroke-linecap="round" stroke-linejoin="round"/>
    <path d="M 201.83856201171875 37.48377990722656 C 206.10501098632812 -11.031094551086426 196.6930389404297 0.3247474431991577 151.48043823242188 36.831787109375" stroke-width="3.0" fill="none" stroke="rgb(-3, -1, 2)" stroke-opacity="0.3660188" stroke-linecap="round" stroke-linejoin="round"/>
    <path d="M 148.3834228515625 124.6392593383789 C 127.0832290649414 144.6422119140625 161.7308349609375 63.866432189941406 143.99752807617188 127.34815216064453" stroke-width="3.0" fill="none" stroke="rgb(0, 1, 0)" stroke-opacity="0.30269274" stroke-linecap="round" stroke-linejoin="round"/>
    <path d="M 96.66301727294922 76.39945220947266 C 60.02235794067383 74.51732635498047 135.60806274414062 53.14755630493164 75.06978607177734 99.94781494140625" stroke-width="3.0" fill="none" stroke="rgb(0, 0, 0)" stroke-opacity="0.20722431" stroke-linecap="round" stroke-linejoin="round"/>
    <path d="M 157.72996520996094 127.52539825439453 C 159.68833923339844 58.160057067871094 155.49183654785156 81.20648193359375 198.75083923339844 56.2360954284668" stroke-width="3.0" fill="none" stroke="rgb(2, 0, -3)" stroke-opacity="0.30456463" stroke-linecap="round" stroke-linejoin="round"/>
    <path d="M 151.15328979492188 63.3830680847168 C 160.06700134277344 8.811572074890137 134.43370056152344 48.85567092895508 169.65457153320312 15.477086067199707" stroke-width="3.0" fill="none" stroke="rgb(0, 0, 1)" stroke-opacity="0.5554342" stroke-linecap="round" stroke-linejoin="round"/>
    <path d="M 156.61941528320312 132.89109802246094 C 234.9768524169922 175.51486206054688 158.16098022460938 152.3602752685547 204.81234741210938 155.4659881591797" stroke-width="3.0" fill="none" stroke="rgb(-1, 0, 2)" stroke-opacity="0.077570364" stroke-linecap="round" stroke-linejoin="round"/>
    <path d="M 120.9659652709961 122.40911865234375 C 108.55069732666016 100.97029876708984 118.63818359375 143.90411376953125 121.98792266845703 97.26560974121094" stroke-width="3.0" fill="none" stroke="rgb(0, 0, 0)" stroke-opacity="0.44372028" stroke-linecap="round" stroke-linejoin="round"/>
    <path d="M 204.30638122558594 163.7004852294922 C 264.6087646484375 232.37852478027344 270.94256591796875 167.73248291015625 203.6671142578125 146.28494262695312" stroke-width="3.0" fill="none" stroke="rgb(0, 0, 0)" stroke-opacity="0.22917892" stroke-linecap="round" stroke-linejoin="round"/>
    <path d="M 235.0109100341797 229.4676971435547 C 209.37216186523438 220.8438720703125 248.9708709716797 215.51702880859375 190.18338012695312 212.22775268554688" stroke-width="3.0" fill="none" stroke="rgb(-1, 0, 1)" stroke-opacity="0.5183684" stroke-linecap="round" stroke-linejoin="round"/>
    <path d="M 34.3042106628418 49.57655334472656 C 9.18248462677002 62.59849548339844 18.807270050048828 55.02909469604492 25.579757690429688 65.57440948486328" stroke-width="3.0" fill="none" stroke="rgb(0, -3, 2)" stroke-opacity="0.1563255" stroke-linecap="round" stroke-linejoin="round"/>
    <path d="M 161.757568359375 90.4705581665039 C 163.72642517089844 124.25599670410156 169.67041015625 149.55767822265625 173.433837890625 106.10072326660156" stroke-width="3.0" fill="none" stroke="rgb(-2, 3, 0)" stroke-opacity="0.2793364" stroke-linecap="round" stroke-linejoin="round"/>
    <path d="M 204.93707275390625 212.9102783203125 C 169.19264221191406 212.9750518798828 182.23915100097656 211.80455017089844 125.86973571777344 212.68812561035156" stroke-width="3.0" fill="none" stroke="rgb(-1, 0, 1)" stroke-opacity="0.2927583" stroke-linecap="round" stroke-linejoin="round"/>
    <path d="M 206.45913696289062 4.3989787101745605 C 119.61292266845703 53.01015853881836 149.7912139892578 27.045642852783203 204.65704345703125 -7.265793323516846" stroke-width="3.0" fill="none" stroke="rgb(-3, -3, 4)" stroke-opacity="0.19813919" stroke-linecap="round" stroke-linejoin="round"/>
    <path d="M 206.82693481445312 56.53953170776367 C 208.42198181152344 159.3469696044922 194.9441680908203 114.1871109008789 188.58456420898438 73.51993560791016" stroke-width="3.0" fill="none" stroke="rgb(0, -1, 1)" stroke-opacity="0.26948473" stroke-linecap="round" stroke-linejoin="round"/>
    <path d="M 199.0753936767578 200.15260314941406 C 126.09033203125 201.3011016845703 216.6376953125 207.7016143798828 195.87847900390625 199.07411193847656" stroke-width="3.0" fill="none" stroke="rgb(0, 0, -1)" stroke-opacity="0.3181022" stroke-linecap="round" stroke-linejoin="round"/>
    <path d="M 9.040700912475586 117.80923461914062 C 11.48160171508789 33.59258270263672 10.257877349853516 -62.91923904418945 14.614946365356445 78.79862976074219" stroke-width="3.0" fill="none" stroke="rgb(-4, 1, 4)" stroke-opacity="0.16066408" stroke-linecap="round" stroke-linejoin="round"/>
    <path d="M 187.59422302246094 139.88644409179688 C 270.5352783203125 200.4086151123047 204.2743682861328 211.9318389892578 212.92799377441406 143.12188720703125" stroke-width="3.0" fill="none" stroke="rgb(-2, 1, 0)" stroke-opacity="0.134454" stroke-linecap="round" stroke-linejoin="round"/>
    <path d="M 23.815654754638672 175.210205078125 C 7.400387287139893 134.691650390625 17.29373550415039 172.27186584472656 16.564502716064453 119.75785827636719" stroke-width="3.0" fill="none" stroke="rgb(-1, -2, 2)" stroke-opacity="0.16091818" stroke-linecap="round" stroke-linejoin="round"/>
    <path d="M 110.85565948486328 103.39795684814453 C 79.77733612060547 108.77693939208984 117.806884765625 92.63936614990234 84.77310180664062 -13.622042655944824" stroke-width="3.0" fill="none" stroke="rgb(0, 0, 0)" stroke-opacity="0.42929846" stroke-linecap="round" stroke-linejoin="round"/>
    <path d="M 26.432828903198242 61.045623779296875 C -2.124652862548828 -10.03978443145752 57.18518829345703 4.003814220428467 12.837507247924805 83.67986297607422" stroke-width="3.0" fill="none" stroke="rgb(-1, -1, 2)" stroke-opacity="0.11404237" stroke-linecap="round" stroke-linejoin="round"/>
    <path d="M 139.0413055419922 62.66870880126953 C 175.50830078125 68.88160705566406 141.59063720703125 177.52505493164062 130.37796020507812 91.32855987548828" stroke-width="3.0" fill="none" stroke="rgb(-3, 1, 1)" stroke-opacity="0.13328364" stroke-linecap="round" stroke-linejoin="round"/>
    <path d="M 228.22837829589844 34.70609664916992 C 153.9600830078125 62.088104248046875 180.83743286132812 73.04669189453125 172.0049591064453 17.985637664794922" stroke-width="3.0" fill="none" stroke="rgb(-1, -1, 1)" stroke-opacity="0.33729926" stroke-linecap="round" stroke-linejoin="round"/>
    <path d="M 76.21986389160156 84.1817855834961 C 111.75950622558594 120.39081573486328 93.25184631347656 132.88401794433594 87.36518859863281 81.52074432373047" stroke-width="3.0" fill="none" stroke="rgb(-2, 0, 1)" stroke-opacity="0.35415998" stroke-linecap="round" stroke-linejoin="round"/>
    <path d="M 29.591148376464844 6.881688594818115 C -10.91624927520752 -3.6721160411834717 20.355789184570312 7.717347145080566 35.80169677734375 -7.860818862915039" stroke-width="3.0" fill="none" stroke="rgb(-1, -2, 2)" stroke-opacity="0.23073684" stroke-linecap="round" stroke-linejoin="round"/>
    <path d="M 57.23066329956055 229.41680908203125 C 24.684865951538086 202.31991577148438 18.362009048461914 205.96096801757812 69.03604888916016 217.17681884765625" stroke-width="3.0" fill="none" stroke="rgb(0, 0, 0)" stroke-opacity="0.110338606" stroke-linecap="round" stroke-linejoin="round"/>
    <path d="M 156.9878387451172 215.52867126464844 C 172.08847045898438 209.51028442382812 165.28636169433594 208.97503662109375 175.55763244628906 236.86920166015625" stroke-width="3.0" fill="none" stroke="rgb(0, 1, -1)" stroke-opacity="0.15856606" stroke-linecap="round" stroke-linejoin="round"/>
    <path d="M 23.978425979614258 228.47689819335938 C 24.413848876953125 226.35601806640625 20.876768112182617 228.5753173828125 18.071300506591797 229.915283203125" stroke-width="3.0" fill="none" stroke="rgb(0, 0, 0)" stroke-opacity="0.5437434" stroke-linecap="round" stroke-linejoin="round"/>
    <path d="M 114.12459564208984 187.34637451171875 C 10.978716850280762 177.00938415527344 20.769594192504883 191.14630126953125 122.23348999023438 199.70896911621094" stroke-width="3.0" fill="none" stroke="rgb(0, 0, 0)" stroke-opacity="0.12006691" stroke-linecap="round" stroke-linejoin="round"/>
    <path d="M 57.97401428222656 122.12376403808594 C 72.48735809326172 209.93878173828125 32.63560104370117 188.60531616210938 125.37934875488281 190.74044799804688" stroke-width="3.0" fill="none" stroke="rgb(2, -2, 1)" stroke-opacity="0.17917831" stroke-linecap="round" stroke-linejoin="round"/>
    <path d="M 162.6519317626953 154.6063690185547 C -17.697195053100586 157.28765869140625 15.641529083251953 162.7433624267578 178.5729522705078 169.61416625976562" stroke-width="3.0" fill="none" stroke="rgb(2, -2, 0)" stroke-opacity="0.21071179" stroke-linecap="round" stroke-linejoin="round"/>
  </g>
</svg>
