<?xml version="1.0" ?>
<svg xmlns="http://www.w3.org/2000/svg" version="1.1" width="224" height="224">
  <defs/>
  <g>
    <path d="M 13.170744895935059 52.48112487792969 C -16.427696228027344 52.54505157470703 29.643308639526367 56.940372467041016 -2.046780824661255 57.72174835205078" stroke-width="3.0" fill="none" stroke="rgb(3, -1, -1)" stroke-opacity="0.30775517" stroke-linecap="round" stroke-linejoin="round"/>
    <path d="M 55.66749954223633 205.64419555664062 C 116.69343566894531 193.80789184570312 115.98853302001953 161.79698181152344 60.95463562011719 205.48025512695312" stroke-width="3.0" fill="none" stroke="rgb(-2, 1, 3)" stroke-opacity="0.04162078" stroke-linecap="round" stroke-linejoin="round"/>
    <path d="M 7.419498443603516 75.10009002685547 C -1.96341872215271 33.97661590576172 57.3873291015625 60.07894515991211 7.738766670227051 97.93023681640625" stroke-width="3.0" fill="none" stroke="rgb(-2, 1, 1)" stroke-opacity="0.2826299" stroke-linecap="round" stroke-linejoin="round"/>
    <path d="M 55.46840286254883 177.94192504882812 C 99.82774353027344 147.91400146484375 82.04627990722656 114.52802276611328 61.568382263183594 122.13232421875" stroke-width="3.0" fill="none" stroke="rgb(-1, -1, 2)" stroke-opacity="0.2664121" stroke-linecap="round" stroke-linejoin="round"/>
    <path d="M 184.7483673095703 207.72052001953125 C 195.96994018554688 210.90789794921875 181.7386474609375 189.19259643554688 217.22738647460938 205.7804412841797" stroke-width="3.0" fill="none" stroke="rgb(-2, 1, 2)" stroke-opacity="0.08914551" stroke-linecap="round" stroke-linejoin="round"/>
    <path d="M 51.37752914428711 121.42640686035156 C 42.79412078857422 119.46722412109375 69.62901306152344 116.28421783447266 71.98583984375 124.57707977294922" stroke-width="3.0" fill="none" stroke="rgb(-2, 2, 1)" stroke-opacity="0.45982224" stroke-linecap="round" stroke-linejoin="round"/>
    <path d="M 140.1202392578125 228.6978759765625 C 111.18456268310547 215.7557373046875 127.28287506103516 206.56704711914062 134.50180053710938 227.82485961914062" stroke-width="3.0" fill="none" stroke="rgb(-2, 2, 1)" stroke-opacity="0.104767494" stroke-linecap="round" stroke-linejoin="round"/>
    <path d="M 152.9437255859375 13.402179718017578 C 165.16632080078125 14.183086395263672 160.55783081054688 15.176515579223633 164.4806671142578 16.207609176635742" stroke-width="3.0" fill="none" stroke="rgb(0, 0, 0)" stroke-opacity="0.002999955" stroke-linecap="round" stroke-linejoin="round"/>
    <path d="M 149.3418731689453 -5.430445671081543 C 148.06056213378906 -4.455257415771484 149.7684783935547 -4.327994346618652 149.47933959960938 -4.126219272613525" stroke-width="3.0" fill="none" stroke="rgb(0, 0, 0)" stroke-opacity="0.77624553" stroke-linecap="round" stroke-linejoin="round"/>
    <path d="M 231.2513427734375 186.3037109375 C 228.39761352539062 179.43936157226562 230.76219177246094 183.57774353027344 231.11770629882812 185.80177307128906" stroke-width="3.0" fill="none" stroke="rgb(0, 0, 0)" stroke-opacity="0.8478277" stroke-linecap="round" stroke-linejoin="round"/>
    <path d="M 206.87889099121094 158.9971923828125 C 131.40736389160156 185.9043731689453 200.0560760498047 186.02255249023438 120.2199478149414 160.73777770996094" stroke-width="3.0" fill="none" stroke="rgb(-1, 2, 1)" stroke-opacity="0.12618206" stroke-linecap="round" stroke-linejoin="round"/>
    <path d="M 115.90875244140625 0.6113854050636292 C 120.46033477783203 1.2626218795776367 121.00279998779297 3.5616588592529297 108.91502380371094 1.8495458364486694" stroke-width="3.0" fill="none" stroke="rgb(0, 0, 0)" stroke-opacity="0.010549956" stroke-linecap="round" stroke-linejoin="round"/>
    <path d="M 151.761962890625 28.254606246948242 C 153.34312438964844 46.30632019042969 151.62820434570312 24.09345054626465 139.88525390625 26.353498458862305" stroke-width="3.0" fill="none" stroke="rgb(0, 0, 0)" stroke-opacity="0.00425523" stroke-linecap="round" stroke-linejoin="round"/>
    <path d="M 75.20149230957031 40.96343994140625 C 119.86443328857422 54.17728805541992 59.04050827026367 89.50965118408203 75.31682586669922 87.4642105102539" stroke-width="3.0" fill="none" stroke="rgb(-2, 1, 2)" stroke-opacity="0.2630574" stroke-linecap="round" stroke-linejoin="round"/>
    <path d="M 51.66901779174805 227.09580993652344 C 123.09908294677734 168.44931030273438 73.88350677490234 196.14871215820312 77.8329849243164 198.5919952392578" stroke-width="3.0" fill="none" stroke="rgb(-2, 2, 2)" stroke-opacity="0.058331553" stroke-linecap="round" stroke-linejoin="round"/>
    <path d="M 185.2843475341797 11.343798637390137 C 179.31382751464844 17.52509880065918 162.4204864501953 12.684615135192871 182.41615295410156 10.685173034667969" stroke-width="3.0" fill="none" stroke="rgb(0, 0, 0)" stroke-opacity="0.004674564" stroke-linecap="round" stroke-linejoin="round"/>
    <path d="M 79.56538391113281 187.35580444335938 C 126.6773910522461 171.95700073242188 81.92843627929688 181.02145385742188 127.81700134277344 161.08636474609375" stroke-width="3.0" fill="none" stroke="rgb(-2, 2, 2)" stroke-opacity="0.14620344" stroke-linecap="round" stroke-linejoin="round"/>
    <path d="M 163.486572265625 -9.090078353881836 C 159.39060974121094 -3.8158791065216064 160.13143920898438 2.106955051422119 164.6624298095703 -5.071800231933594" stroke-width="3.0" fill="none" stroke="rgb(0, 0, 0)" stroke-opacity="0.8752658" stroke-linecap="round" stroke-linejoin="round"/>
    <path d="M 64.16924285888672 120.89693450927734 C 74.98521423339844 144.15402221679688 64.79652404785156 148.7203826904297 61.587425231933594 178.61045837402344" stroke-width="3.0" fill="none" stroke="rgb(-1, 1, -1)" stroke-opacity="0.045065872" stroke-linecap="round" stroke-linejoin="round"/>
    <path d="M 31.749731063842773 142.54745483398438 C 34.18785858154297 163.541259765625 70.03977966308594 182.0082550048828 56.12839889526367 182.42349243164062" stroke-width="3.0" fill="none" stroke="rgb(2, -2, -1)" stroke-opacity="0.27676547" stroke-linecap="round" stroke-linejoin="round"/>
    <path d="M 57.72978973388672 63.75044631958008 C 46.9411735534668 45.5536003112793 92.14836883544922 14.455970764160156 76.18262481689453 82.63170623779297" stroke-width="3.0" fill="none" stroke="rgb(0, 1, -1)" stroke-opacity="0.15546459" stroke-linecap="round" stroke-linejoin="round"/>
    <path d="M 70.47663879394531 81.67362976074219 C 48.087398529052734 26.782032012939453 54.24199676513672 68.05182647705078 71.84156036376953 81.56365966796875" stroke-width="3.0" fill="none" stroke="rgb(3, 0, -2)" stroke-opacity="0.35077122" stroke-linecap="round" stroke-linejoin="round"/>
    <path d="M 34.67950439453125 133.23907470703125 C 38.235260009765625 180.49777221679688 15.410222053527832 115.90679931640625 57.10244369506836 119.96267700195312" stroke-width="3.0" fill="none" stroke="rgb(-1, 1, -1)" stroke-opacity="0.1915889" stroke-linecap="round" stroke-linejoin="round"/>
    <path d="M -10.00684928894043 -6.351877689361572 C -9.407329559326172 -0.543732225894928 -6.641749382019043 -0.5803470015525818 -6.603695392608643 3.080965757369995" stroke-width="3.0" fill="none" stroke="rgb(0, 0, 0)" stroke-opacity="0.9125864" stroke-linecap="round" stroke-linejoin="round"/>
    <path d="M 8.836746215820312 103.65972137451172 C -9.964613914489746 -26.095413208007812 4.46512508392334 185.251220703125 18.812217712402344 55.752037048339844" stroke-width="3.0" fill="none" stroke="rgb(0, 0, 0)" stroke-opacity="0.23301423" stroke-linecap="round" stroke-linejoin="round"/>
    <path d="M 177.99713134765625 231.1504364013672 C 177.2872314453125 231.4289093017578 177.91290283203125 232.26336669921875 178.47288513183594 230.7388916015625" stroke-width="3.0" fill="none" stroke="rgb(0, 0, 0)" stroke-opacity="0.8494099" stroke-linecap="round" stroke-linejoin="round"/>
    <path d="M 75.67276000976562 233.0655517578125 C 81.4516830444336 228.5249786376953 84.23941802978516 228.92037963867188 85.18938446044922 228.6337432861328" stroke-width="3.0" fill="none" stroke="rgb(0, 0, 0)" stroke-opacity="0.90350753" stroke-linecap="round" stroke-linejoin="round"/>
    <path d="M 83.12821960449219 186.19737243652344 C 44.68977355957031 209.59652709960938 110.16670227050781 178.39483642578125 -9.076095581054688 206.73980712890625" stroke-width="3.0" fill="none" stroke="rgb(-2, 0, 3)" stroke-opacity="0.13214138" stroke-linecap="round" stroke-linejoin="round"/>
    <path d="M 48.664791107177734 119.2204818725586 C 32.027748107910156 117.19818115234375 61.35538864135742 233.48623657226562 54.221073150634766 117.8482437133789" stroke-width="3.0" fill="none" stroke="rgb(-2, 1, -1)" stroke-opacity="0.056611285" stroke-linecap="round" stroke-linejoin="round"/>
    <path d="M 83.21380615234375 215.37892150878906 C 199.71336364746094 153.4589385986328 -0.7529318332672119 290.7693786621094 127.47639465332031 174.56597900390625" stroke-width="3.0" fill="none" stroke="rgb(-2, 2, 2)" stroke-opacity="0.042932745" stroke-linecap="round" stroke-linejoin="round"/>
    <path d="M -6.990575313568115 87.73920440673828 C 2.5177226066589355 94.2957992553711 -9.044207572937012 84.00463104248047 -10.564005851745605 81.0675277709961" stroke-width="3.0" fill="none" stroke="rgb(0, 0, 0)" stroke-opacity="0.9328406" stroke-linecap="round" stroke-linejoin="round"/>
    <path d="M 38.930137634277344 27.08901023864746 C 16.50569725036621 23.03583335876465 27.665973663330078 19.009315490722656 41.32033157348633 25.061172485351562" stroke-width="3.0" fill="none" stroke="rgb(0, 0, 0)" stroke-opacity="0.0069060354" stroke-linecap="round" stroke-linejoin="round"/>
  </g>
</svg>
