<?xml version="1.0" ?>
<svg xmlns="http://www.w3.org/2000/svg" version="1.1" width="224" height="224">
  <defs/>
  <g>
    <path d="M 16.939525604248047 72.43819427490234 C 21.72681427001953 47.54938507080078 -34.62736892700195 80.04422760009766 -18.61087417602539 68.2715835571289" stroke-width="3.0" fill="none" stroke="rgb(0, 0, 0)" stroke-opacity="0.029794555" stroke-linecap="round" stroke-linejoin="round"/>
    <path d="M 135.6396484375 182.73597717285156 C 68.81021881103516 187.47726440429688 116.0208969116211 172.63870239257812 84.49482727050781 190.84149169921875" stroke-width="3.0" fill="none" stroke="rgb(-1, 0, 1)" stroke-opacity="0.056708965" stroke-linecap="round" stroke-linejoin="round"/>
    <path d="M 17.46489143371582 56.912010192871094 C 9.851977348327637 121.3663558959961 60.5234489440918 41.0557746887207 -7.969783782958984 52.867286682128906" stroke-width="3.0" fill="none" stroke="rgb(1, 0, -1)" stroke-opacity="0.39178437" stroke-linecap="round" stroke-linejoin="round"/>
    <path d="M 76.68058776855469 124.54496765136719 C 80.00145721435547 128.54641723632812 73.53351593017578 120.9981460571289 64.65009307861328 119.20529174804688" stroke-width="3.0" fill="none" stroke="rgb(-1, 0, 0)" stroke-opacity="0.15440449" stroke-linecap="round" stroke-linejoin="round"/>
    <path d="M 206.21507263183594 233.5294952392578 C 222.34912109375 169.39755249023438 250.44256591796875 160.10694885253906 167.89324951171875 223.1329345703125" stroke-width="3.0" fill="none" stroke="rgb(-3, 3, 2)" stroke-opacity="0.10078901" stroke-linecap="round" stroke-linejoin="round"/>
    <path d="M 45.732696533203125 120.95417022705078 C 47.07901382446289 180.109375 81.9747085571289 181.5295867919922 73.97655487060547 118.88801574707031" stroke-width="3.0" fill="none" stroke="rgb(0, 1, -1)" stroke-opacity="0.017158672" stroke-linecap="round" stroke-linejoin="round"/>
    <path d="M 140.73214721679688 233.33518981933594 C 113.03070831298828 206.99827575683594 149.7768096923828 209.26644897460938 61.30796432495117 197.76756286621094" stroke-width="3.0" fill="none" stroke="rgb(-1, 1, 0)" stroke-opacity="0.05556552" stroke-linecap="round" stroke-linejoin="round"/>
    <path d="M 175.4138641357422 15.864044189453125 C 135.27491760253906 -1.6645750999450684 122.13583374023438 0.7989667654037476 173.1848907470703 18.613203048706055" stroke-width="3.0" fill="none" stroke="rgb(0, 0, 1)" stroke-opacity="0.0069483467" stroke-linecap="round" stroke-linejoin="round"/>
    <path d="M 149.4027862548828 -2.879605293273926 C 151.54669189453125 -5.077942371368408 150.5211944580078 -1.0553332567214966 150.95278930664062 -6.805677890777588" stroke-width="3.0" fill="none" stroke="rgb(0, 0, 0)" stroke-opacity="0.7253089" stroke-linecap="round" stroke-linejoin="round"/>
    <path d="M 227.9763641357422 185.83462524414062 C 230.70379638671875 177.6227569580078 233.17892456054688 178.0885467529297 230.26345825195312 190.82569885253906" stroke-width="3.0" fill="none" stroke="rgb(0, 0, 0)" stroke-opacity="0.868737" stroke-linecap="round" stroke-linejoin="round"/>
    <path d="M 192.4357452392578 172.80848693847656 C 82.17366790771484 228.61903381347656 137.2284698486328 211.67562866210938 224.97886657714844 161.70741271972656" stroke-width="3.0" fill="none" stroke="rgb(-2, 1, 3)" stroke-opacity="0.04452864" stroke-linecap="round" stroke-linejoin="round"/>
    <path d="M 102.54544830322266 6.0981292724609375 C 115.3363037109375 4.39686918258667 133.31199645996094 -3.476919412612915 105.15515899658203 2.6801371574401855" stroke-width="3.0" fill="none" stroke="rgb(0, 0, 0)" stroke-opacity="0.011931138" stroke-linecap="round" stroke-linejoin="round"/>
    <path d="M 148.74195861816406 15.58220100402832 C 163.0294952392578 30.1840877532959 155.9420166015625 11.66028881072998 147.764404296875 12.859153747558594" stroke-width="3.0" fill="none" stroke="rgb(0, 0, 0)" stroke-opacity="0.004194888" stroke-linecap="round" stroke-linejoin="round"/>
    <path d="M 73.13372039794922 88.05430603027344 C 101.57684326171875 50.33091354370117 93.11772155761719 53.22501754760742 77.4990005493164 80.5597915649414" stroke-width="3.0" fill="none" stroke="rgb(0, 0, 0)" stroke-opacity="0.20564352" stroke-linecap="round" stroke-linejoin="round"/>
    <path d="M -3.743708372116089 212.02182006835938 C 34.29995346069336 186.09010314941406 108.7237319946289 196.8518524169922 1.2091150283813477 202.54373168945312" stroke-width="3.0" fill="none" stroke="rgb(-2, -1, 3)" stroke-opacity="0.120676704" stroke-linecap="round" stroke-linejoin="round"/>
    <path d="M 183.3708038330078 14.900790214538574 C 146.5561065673828 5.111843585968018 157.20350646972656 0.4103448987007141 183.96139526367188 12.575629234313965" stroke-width="3.0" fill="none" stroke="rgb(0, 0, 1)" stroke-opacity="0.005958746" stroke-linecap="round" stroke-linejoin="round"/>
    <path d="M 102.59307861328125 175.17529296875 C 107.43888854980469 161.42581176757812 156.09165954589844 161.34088134765625 117.54814910888672 161.8589630126953" stroke-width="3.0" fill="none" stroke="rgb(-3, 3, 3)" stroke-opacity="0.10456063" stroke-linecap="round" stroke-linejoin="round"/>
    <path d="M 164.01051330566406 -8.981952667236328 C 163.0594024658203 -8.47221851348877 160.0952606201172 -2.6440927982330322 160.4208221435547 -4.258628845214844" stroke-width="3.0" fill="none" stroke="rgb(0, 0, 0)" stroke-opacity="0.8568977" stroke-linecap="round" stroke-linejoin="round"/>
    <path d="M 59.806236267089844 157.69349670410156 C 40.027748107910156 98.0767593383789 37.65907669067383 115.67447662353516 54.20034408569336 174.17552185058594" stroke-width="3.0" fill="none" stroke="rgb(0, 0, -1)" stroke-opacity="0.028486744" stroke-linecap="round" stroke-linejoin="round"/>
    <path d="M 35.05833435058594 129.81455993652344 C 19.441387176513672 157.56358337402344 67.77561950683594 177.65489196777344 57.279441833496094 183.26077270507812" stroke-width="3.0" fill="none" stroke="rgb(1, -2, 3)" stroke-opacity="0.28029704" stroke-linecap="round" stroke-linejoin="round"/>
    <path d="M 70.35155487060547 81.14411926269531 C 45.13389205932617 38.38058853149414 73.49187469482422 43.1217041015625 64.82510375976562 43.0322151184082" stroke-width="3.0" fill="none" stroke="rgb(2, 0, -2)" stroke-opacity="0.16531487" stroke-linecap="round" stroke-linejoin="round"/>
    <path d="M 72.07262420654297 79.54837799072266 C 68.11104583740234 40.25904083251953 71.64814758300781 24.252666473388672 56.43154525756836 62.340877532958984" stroke-width="3.0" fill="none" stroke="rgb(1, 0, -2)" stroke-opacity="0.05835633" stroke-linecap="round" stroke-linejoin="round"/>
    <path d="M 63.33696365356445 120.33145141601562 C 71.6745834350586 189.72442626953125 47.96931076049805 161.98678588867188 46.722904205322266 124.01629638671875" stroke-width="3.0" fill="none" stroke="rgb(0, 2, -1)" stroke-opacity="0.018954186" stroke-linecap="round" stroke-linejoin="round"/>
    <path d="M -9.75634765625 -2.7862792015075684 C -11.206772804260254 -2.4994821548461914 -6.901919364929199 -1.2187576293945312 -7.5077595710754395 1.3430243730545044" stroke-width="3.0" fill="none" stroke="rgb(0, 0, 0)" stroke-opacity="0.9133548" stroke-linecap="round" stroke-linejoin="round"/>
    <path d="M -21.109861373901367 74.16854095458984 C 46.48020553588867 97.80577087402344 20.674440383911133 73.7155532836914 -24.260053634643555 78.79813385009766" stroke-width="3.0" fill="none" stroke="rgb(4, -2, -2)" stroke-opacity="0.33794534" stroke-linecap="round" stroke-linejoin="round"/>
    <path d="M 91.28701782226562 223.98619079589844 C 254.8470916748047 216.93580627441406 283.80694580078125 195.2205047607422 144.15501403808594 218.81787109375" stroke-width="3.0" fill="none" stroke="rgb(-3, 3, -1)" stroke-opacity="0.08545356" stroke-linecap="round" stroke-linejoin="round"/>
    <path d="M 76.25189208984375 230.93739318847656 C 79.02664184570312 229.45785522460938 78.32783508300781 232.4143829345703 78.6517105102539 233.02767944335938" stroke-width="3.0" fill="none" stroke="rgb(0, 0, 0)" stroke-opacity="0.8688713" stroke-linecap="round" stroke-linejoin="round"/>
    <path d="M 22.83737564086914 209.7076416015625 C 103.93990325927734 207.0132598876953 112.16142272949219 180.68942260742188 21.446041107177734 209.75047302246094" stroke-width="3.0" fill="none" stroke="rgb(0, 2, 0)" stroke-opacity="0.05899471" stroke-linecap="round" stroke-linejoin="round"/>
    <path d="M 58.672359466552734 120.8031005859375 C 63.488712310791016 223.17959594726562 24.921859741210938 125.98231506347656 39.365657806396484 123.77262115478516" stroke-width="3.0" fill="none" stroke="rgb(1, 0, -1)" stroke-opacity="0.028984735" stroke-linecap="round" stroke-linejoin="round"/>
    <path d="M 172.76327514648438 181.13075256347656 C 59.64763259887695 197.0218505859375 122.1888656616211 243.87094116210938 127.1167984008789 167.05691528320312" stroke-width="3.0" fill="none" stroke="rgb(-2, 2, -1)" stroke-opacity="0.05670214" stroke-linecap="round" stroke-linejoin="round"/>
    <path d="M -8.053309440612793 79.15946197509766 C -10.38232135772705 81.5171890258789 -13.357728004455566 77.93535614013672 -10.793251037597656 80.459716796875" stroke-width="3.0" fill="none" stroke="rgb(0, 0, 0)" stroke-opacity="0.90654916" stroke-linecap="round" stroke-linejoin="round"/>
    <path d="M 38.13149642944336 24.340253829956055 C -22.382247924804688 16.2564640045166 18.283170700073242 29.738895416259766 40.35792541503906 26.007431030273438" stroke-width="3.0" fill="none" stroke="rgb(0, 0, 0)" stroke-opacity="0.0059733023" stroke-linecap="round" stroke-linejoin="round"/>
    <path d="M 87.44378662109375 47.22758865356445 C 79.21102905273438 96.94609069824219 111.50635528564453 36.376041412353516 67.95733642578125 41.376220703125" stroke-width="3.0" fill="none" stroke="rgb(-2, 2, 0)" stroke-opacity="0.18592995" stroke-linecap="round" stroke-linejoin="round"/>
    <path d="M 92.34607696533203 0.7056311368942261 C 51.136592864990234 23.10085678100586 40.36902618408203 14.98964786529541 72.19454193115234 7.3375773429870605" stroke-width="3.0" fill="none" stroke="rgb(0, 0, 0)" stroke-opacity="0.007205094" stroke-linecap="round" stroke-linejoin="round"/>
    <path d="M 66.75076293945312 77.71630859375 C 51.04446029663086 55.98594665527344 54.354454040527344 30.125394821166992 68.7476577758789 78.59709167480469" stroke-width="3.0" fill="none" stroke="rgb(2, 0, -2)" stroke-opacity="0.20146638" stroke-linecap="round" stroke-linejoin="round"/>
    <path d="M 74.34976196289062 87.0294418334961 C 63.1689453125 69.10218811035156 46.375244140625 59.71524429321289 62.8277473449707 42.42389678955078" stroke-width="3.0" fill="none" stroke="rgb(-2, 2, 0)" stroke-opacity="0.32501268" stroke-linecap="round" stroke-linejoin="round"/>
    <path d="M 52.95864486694336 119.392333984375 C 55.766788482666016 155.75918579101562 47.93748092651367 210.89967346191406 81.44425964355469 138.6173858642578" stroke-width="3.0" fill="none" stroke="rgb(2, 3, -4)" stroke-opacity="0.0738143" stroke-linecap="round" stroke-linejoin="round"/>
    <path d="M 81.12529754638672 231.75938415527344 C 86.77547454833984 231.34201049804688 78.41728210449219 230.7493133544922 79.73033142089844 231.2759246826172" stroke-width="3.0" fill="none" stroke="rgb(0, 0, 0)" stroke-opacity="0.8018729" stroke-linecap="round" stroke-linejoin="round"/>
    <path d="M 66.07301330566406 2.046297073364258 C -22.531587600708008 -4.006925582885742 -10.99952507019043 -6.835232734680176 50.14043045043945 1.9363771677017212" stroke-width="3.0" fill="none" stroke="rgb(0, 0, 0)" stroke-opacity="0.016225882" stroke-linecap="round" stroke-linejoin="round"/>
    <path d="M 34.31123352050781 150.12939453125 C 42.15938949584961 101.79126739501953 28.234846115112305 132.92344665527344 56.9967155456543 177.82008361816406" stroke-width="3.0" fill="none" stroke="rgb(3, 0, -3)" stroke-opacity="0.08050194" stroke-linecap="round" stroke-linejoin="round"/>
    <path d="M 186.27322387695312 12.784757614135742 C 186.06851196289062 22.442249298095703 184.78704833984375 17.8691349029541 177.94613647460938 16.75008201599121" stroke-width="3.0" fill="none" stroke="rgb(0, 0, 0)" stroke-opacity="0.0030502677" stroke-linecap="round" stroke-linejoin="round"/>
    <path d="M 123.15302276611328 165.41773986816406 C 97.45629119873047 202.58326721191406 81.88020324707031 205.40806579589844 126.98259735107422 159.35975646972656" stroke-width="3.0" fill="none" stroke="rgb(-3, 3, 2)" stroke-opacity="0.0808944" stroke-linecap="round" stroke-linejoin="round"/>
    <path d="M 188.8201446533203 203.7930145263672 C 229.15367126464844 275.79510498046875 166.87786865234375 171.1964569091797 248.25979614257812 186.11660766601562" stroke-width="3.0" fill="none" stroke="rgb(-1, 1, 1)" stroke-opacity="0.07483151" stroke-linecap="round" stroke-linejoin="round"/>
    <path d="M 145.20086669921875 215.48831176757812 C 232.04132080078125 241.9383087158203 189.62124633789062 223.50877380371094 99.17081451416016 222.355224609375" stroke-width="3.0" fill="none" stroke="rgb(-1, 1, 0)" stroke-opacity="0.09396548" stroke-linecap="round" stroke-linejoin="round"/>
    <path d="M 24.75055694580078 225.35963439941406 C -89.26180267333984 209.66722106933594 120.70841979980469 232.7286834716797 19.50095558166504 218.7328643798828" stroke-width="3.0" fill="none" stroke="rgb(-1, 2, -2)" stroke-opacity="0.37902907" stroke-linecap="round" stroke-linejoin="round"/>
    <path d="M 75.56727600097656 190.7842559814453 C 77.33601379394531 195.23919677734375 22.225753784179688 209.9480438232422 89.43605041503906 183.45098876953125" stroke-width="3.0" fill="none" stroke="rgb(0, 0, 0)" stroke-opacity="0.10011054" stroke-linecap="round" stroke-linejoin="round"/>
    <path d="M 32.6192626953125 133.49697875976562 C 65.61810302734375 200.121826171875 34.78062057495117 147.0326690673828 45.7878303527832 122.32817077636719" stroke-width="3.0" fill="none" stroke="rgb(2, 0, -3)" stroke-opacity="0.068175614" stroke-linecap="round" stroke-linejoin="round"/>
    <path d="M 172.51290893554688 204.2802734375 C 202.56236267089844 247.19650268554688 74.48369598388672 211.72988891601562 223.98049926757812 202.3729248046875" stroke-width="3.0" fill="none" stroke="rgb(-3, 4, 1)" stroke-opacity="0.07586764" stroke-linecap="round" stroke-linejoin="round"/>
    <path d="M -1.6163320541381836 89.71183776855469 C 37.65510940551758 97.30445098876953 37.62369918823242 45.92842483520508 -2.692915201187134 96.10408020019531" stroke-width="3.0" fill="none" stroke="rgb(0, 0, 0)" stroke-opacity="0.2303149" stroke-linecap="round" stroke-linejoin="round"/>
    <path d="M 21.149351119995117 72.3929443359375 C 14.43561840057373 74.97483825683594 44.8858757019043 54.60601806640625 -3.8631772994995117 55.087791442871094" stroke-width="3.0" fill="none" stroke="rgb(3, 0, -3)" stroke-opacity="0.27734253" stroke-linecap="round" stroke-linejoin="round"/>
    <path d="M 151.8108367919922 103.56133270263672 C 170.92726135253906 83.50129699707031 173.41348266601562 89.24691772460938 151.21743774414062 104.75794219970703" stroke-width="3.0" fill="none" stroke="rgb(1, -1, 0)" stroke-opacity="0.033194244" stroke-linecap="round" stroke-linejoin="round"/>
    <path d="M 48.5120735168457 125.9835433959961 C 33.81429672241211 120.13849639892578 41.822078704833984 146.4157257080078 58.17609786987305 177.190185546875" stroke-width="3.0" fill="none" stroke="rgb(1, 0, -1)" stroke-opacity="0.05240591" stroke-linecap="round" stroke-linejoin="round"/>
    <path d="M 222.1085968017578 156.1034393310547 C 226.5258331298828 191.96615600585938 198.4290313720703 173.76702880859375 223.34585571289062 201.85552978515625" stroke-width="3.0" fill="none" stroke="rgb(-3, 2, 1)" stroke-opacity="0.0698711" stroke-linecap="round" stroke-linejoin="round"/>
    <path d="M 156.0982208251953 230.74911499023438 C 185.92735290527344 233.44593811035156 226.63739013671875 237.90931701660156 182.21714782714844 231.1983184814453" stroke-width="3.0" fill="none" stroke="rgb(0, 0, 0)" stroke-opacity="0.39210713" stroke-linecap="round" stroke-linejoin="round"/>
    <path d="M 58.63518142700195 121.67827606201172 C 65.0247802734375 118.28646850585938 40.37216567993164 116.62835693359375 36.05159378051758 127.9673843383789" stroke-width="3.0" fill="none" stroke="rgb(-2, 1, 2)" stroke-opacity="0.19598189" stroke-linecap="round" stroke-linejoin="round"/>
    <path d="M 117.50676727294922 201.71041870117188 C 30.933303833007812 244.7341766357422 231.33680725097656 157.5092010498047 75.57976531982422 215.198974609375" stroke-width="3.0" fill="none" stroke="rgb(-1, 1, -1)" stroke-opacity="0.059449207" stroke-linecap="round" stroke-linejoin="round"/>
    <path d="M 72.58506774902344 76.35646057128906 C 78.50798034667969 52.25961685180664 78.37958526611328 31.66798210144043 76.70123291015625 43.252838134765625" stroke-width="3.0" fill="none" stroke="rgb(3, 0, -2)" stroke-opacity="0.06660375" stroke-linecap="round" stroke-linejoin="round"/>
    <path d="M 45.21421432495117 13.783072471618652 C 47.8105583190918 -14.09302043914795 51.10868835449219 14.38366413116455 47.28792190551758 13.93784236907959" stroke-width="3.0" fill="none" stroke="rgb(0, 0, 0)" stroke-opacity="0.009053139" stroke-linecap="round" stroke-linejoin="round"/>
    <path d="M 155.10789489746094 108.37687683105469 C 177.2374725341797 83.06803131103516 176.2036895751953 105.302490234375 162.70565795898438 112.53240203857422" stroke-width="3.0" fill="none" stroke="rgb(0, -1, 1)" stroke-opacity="0.02417163" stroke-linecap="round" stroke-linejoin="round"/>
    <path d="M 90.3302993774414 52.43373489379883 C 75.16209411621094 83.60951232910156 74.02642059326172 96.4701156616211 55.51127243041992 54.965660095214844" stroke-width="3.0" fill="none" stroke="rgb(0, 5, -4)" stroke-opacity="0.148544" stroke-linecap="round" stroke-linejoin="round"/>
    <path d="M -9.007981300354004 219.5301513671875 C 71.27691650390625 207.02890014648438 -23.05914878845215 211.64862060546875 40.08528137207031 218.419677734375" stroke-width="3.0" fill="none" stroke="rgb(-2, 2, -3)" stroke-opacity="0.20778832" stroke-linecap="round" stroke-linejoin="round"/>
    <path d="M 126.86511993408203 203.06527709960938 C 113.78247833251953 177.9734649658203 102.01338195800781 213.1880340576172 75.37677764892578 224.2754669189453" stroke-width="3.0" fill="none" stroke="rgb(-3, 3, 2)" stroke-opacity="0.09856009" stroke-linecap="round" stroke-linejoin="round"/>
    <path d="M 9.991822242736816 93.55597686767578 C 20.094568252563477 53.69381332397461 7.733954906463623 148.47703552246094 8.287084579467773 53.20803451538086" stroke-width="3.0" fill="none" stroke="rgb(3, -1, -1)" stroke-opacity="0.4793936" stroke-linecap="round" stroke-linejoin="round"/>
    <path d="M 217.3677215576172 -3.571909189224243 C 217.7205352783203 -4.237893581390381 215.16204833984375 -4.901670455932617 212.98916625976562 -8.620233535766602" stroke-width="3.0" fill="none" stroke="rgb(0, 0, 0)" stroke-opacity="0.716948" stroke-linecap="round" stroke-linejoin="round"/>
    <path d="M 73.52306365966797 226.14498901367188 C 198.98342895507812 203.9794464111328 192.1064453125 175.59776306152344 232.1227569580078 165.93377685546875" stroke-width="3.0" fill="none" stroke="rgb(0, 1, -4)" stroke-opacity="0.046899118" stroke-linecap="round" stroke-linejoin="round"/>
    <path d="M 57.531944274902344 173.76002502441406 C 57.9894905090332 180.36294555664062 82.27406311035156 157.5127716064453 83.81028747558594 139.52191162109375" stroke-width="3.0" fill="none" stroke="rgb(3, -6, 4)" stroke-opacity="0.30156726" stroke-linecap="round" stroke-linejoin="round"/>
    <path d="M -24.66392707824707 75.31454467773438 C 14.34096622467041 70.41336822509766 39.29954147338867 72.63146209716797 9.6211519241333 97.91817474365234" stroke-width="3.0" fill="none" stroke="rgb(0, 1, -1)" stroke-opacity="0.33930132" stroke-linecap="round" stroke-linejoin="round"/>
    <path d="M 50.524444580078125 171.54946899414062 C 53.32854461669922 171.24462890625 70.937744140625 180.2211456298828 52.59151840209961 173.29315185546875" stroke-width="3.0" fill="none" stroke="rgb(3, -3, 1)" stroke-opacity="0.40448168" stroke-linecap="round" stroke-linejoin="round"/>
    <path d="M -15.38506031036377 66.45211791992188 C 60.73765563964844 76.93072509765625 10.333662986755371 63.97516632080078 5.828269004821777 97.0653076171875" stroke-width="3.0" fill="none" stroke="rgb(0, 0, 0)" stroke-opacity="0.18821254" stroke-linecap="round" stroke-linejoin="round"/>
    <path d="M 150.15036010742188 100.06586456298828 C 161.35873413085938 88.10326385498047 168.90194702148438 89.12564086914062 155.5961151123047 91.37470245361328" stroke-width="3.0" fill="none" stroke="rgb(0, -1, 1)" stroke-opacity="0.036316294" stroke-linecap="round" stroke-linejoin="round"/>
    <path d="M 51.7109260559082 14.831643104553223 C 52.92367172241211 -11.339153289794922 51.73397445678711 2.389254331588745 62.7515869140625 10.896127700805664" stroke-width="3.0" fill="none" stroke="rgb(0, 0, 0)" stroke-opacity="0.0059590447" stroke-linecap="round" stroke-linejoin="round"/>
    <path d="M 77.85673522949219 126.8192138671875 C 100.8107681274414 151.6947479248047 37.44710159301758 179.3025360107422 58.6596565246582 182.6045379638672" stroke-width="3.0" fill="none" stroke="rgb(0, 0, 0)" stroke-opacity="0.111049786" stroke-linecap="round" stroke-linejoin="round"/>
    <path d="M 169.1988525390625 52.71137237548828 C 200.2772216796875 82.51535034179688 208.4231719970703 79.05298614501953 171.6864776611328 52.01429748535156" stroke-width="3.0" fill="none" stroke="rgb(0, 0, 0)" stroke-opacity="0.0050854064" stroke-linecap="round" stroke-linejoin="round"/>
    <path d="M 157.5782928466797 89.54025268554688 C 144.76185607910156 103.00740051269531 146.98622131347656 95.6180648803711 159.95172119140625 90.75847625732422" stroke-width="3.0" fill="none" stroke="rgb(0, 0, 0)" stroke-opacity="0.013864335" stroke-linecap="round" stroke-linejoin="round"/>
    <path d="M 211.24758911132812 86.58741760253906 C 196.8677978515625 110.23445129394531 202.0396728515625 113.71778106689453 213.69076538085938 88.11357116699219" stroke-width="3.0" fill="none" stroke="rgb(0, 0, 0)" stroke-opacity="0.004383643" stroke-linecap="round" stroke-linejoin="round"/>
    <path d="M 123.82386779785156 169.62908935546875 C 64.29436492919922 259.3040466308594 42.047725677490234 211.40719604492188 119.33194732666016 198.16163635253906" stroke-width="3.0" fill="none" stroke="rgb(0, 2, -2)" stroke-opacity="0.05597352" stroke-linecap="round" stroke-linejoin="round"/>
    <path d="M 126.89644622802734 186.06040954589844 C 240.2137451171875 191.95408630371094 48.36919403076172 200.6770782470703 164.6088104248047 189.35154724121094" stroke-width="3.0" fill="none" stroke="rgb(-2, 1, 0)" stroke-opacity="0.061732564" stroke-linecap="round" stroke-linejoin="round"/>
    <path d="M 61.48741149902344 173.94883728027344 C 55.266754150390625 166.27621459960938 48.67412185668945 183.937255859375 42.588111877441406 136.6133270263672" stroke-width="3.0" fill="none" stroke="rgb(1, 0, -1)" stroke-opacity="0.044534184" stroke-linecap="round" stroke-linejoin="round"/>
    <path d="M 30.53089714050293 1.4289240837097168 C -37.904876708984375 1.4460747241973877 8.428108215332031 7.149785041809082 39.039180755615234 1.8657066822052002" stroke-width="3.0" fill="none" stroke="rgb(0, 0, 1)" stroke-opacity="0.009781251" stroke-linecap="round" stroke-linejoin="round"/>
    <path d="M 61.38917922973633 18.549480438232422 C 8.660320281982422 11.554977416992188 17.41087532043457 18.464420318603516 42.054656982421875 12.408682823181152" stroke-width="3.0" fill="none" stroke="rgb(0, 0, 0)" stroke-opacity="0.007473774" stroke-linecap="round" stroke-linejoin="round"/>
    <path d="M 233.4534149169922 83.25028228759766 C 227.1339111328125 75.77214050292969 228.79953002929688 81.90426635742188 232.58892822265625 84.80034637451172" stroke-width="3.0" fill="none" stroke="rgb(0, 0, 0)" stroke-opacity="0.89261425" stroke-linecap="round" stroke-linejoin="round"/>
    <path d="M 59.538265228271484 175.23228454589844 C 74.26982116699219 123.57179260253906 51.845699310302734 169.4468231201172 60.38444900512695 174.58306884765625" stroke-width="3.0" fill="none" stroke="rgb(1, 0, -3)" stroke-opacity="0.05238847" stroke-linecap="round" stroke-linejoin="round"/>
    <path d="M 75.45012664794922 -9.154090881347656 C 70.46231079101562 -7.922463417053223 67.23454284667969 -8.506612777709961 64.54718017578125 -6.723372459411621" stroke-width="3.0" fill="none" stroke="rgb(0, 0, 0)" stroke-opacity="0.8194553" stroke-linecap="round" stroke-linejoin="round"/>
    <path d="M 67.12389373779297 62.35141372680664 C 78.65835571289062 136.9601287841797 69.89144897460938 73.4867935180664 68.9083023071289 42.828834533691406" stroke-width="3.0" fill="none" stroke="rgb(0, 0, 0)" stroke-opacity="0.006484285" stroke-linecap="round" stroke-linejoin="round"/>
    <path d="M 74.9180679321289 81.9410629272461 C 84.54544067382812 52.42637634277344 76.9030990600586 20.84549331665039 90.57516479492188 64.50825500488281" stroke-width="3.0" fill="none" stroke="rgb(-2, 3, -2)" stroke-opacity="0.17215112" stroke-linecap="round" stroke-linejoin="round"/>
    <path d="M 147.20257568359375 171.33306884765625 C 176.57818603515625 180.4491424560547 116.87200164794922 165.83053588867188 165.4163360595703 179.92767333984375" stroke-width="3.0" fill="none" stroke="rgb(0, 1, -1)" stroke-opacity="0.18261774" stroke-linecap="round" stroke-linejoin="round"/>
    <path d="M 14.58375072479248 207.47052001953125 C 80.09705352783203 195.70321655273438 76.53582000732422 188.0672607421875 -2.633772373199463 190.19943237304688" stroke-width="3.0" fill="none" stroke="rgb(0, 0, 0)" stroke-opacity="0.009315138" stroke-linecap="round" stroke-linejoin="round"/>
    <path d="M 183.03173828125 170.74957275390625 C 151.70358276367188 178.19427490234375 194.91546630859375 165.44984436035156 201.98843383789062 158.67694091796875" stroke-width="3.0" fill="none" stroke="rgb(-2, 1, 2)" stroke-opacity="0.13819522" stroke-linecap="round" stroke-linejoin="round"/>
    <path d="M 80.73892974853516 42.262603759765625 C 90.65718078613281 59.4548454284668 66.74830627441406 99.53913116455078 91.22930145263672 57.5481071472168" stroke-width="3.0" fill="none" stroke="rgb(-2, 2, -1)" stroke-opacity="0.15491557" stroke-linecap="round" stroke-linejoin="round"/>
    <path d="M 62.879207611083984 135.58616638183594 C 67.58065032958984 172.5297393798828 31.906024932861328 192.43606567382812 63.42975997924805 142.99464416503906" stroke-width="3.0" fill="none" stroke="rgb(0, 0, -1)" stroke-opacity="0.02338712" stroke-linecap="round" stroke-linejoin="round"/>
    <path d="M 103.63328552246094 179.1187286376953 C 57.90425109863281 194.26043701171875 90.5389633178711 208.0619354248047 117.73888397216797 162.6013641357422" stroke-width="3.0" fill="none" stroke="rgb(-4, 3, 3)" stroke-opacity="0.09156963" stroke-linecap="round" stroke-linejoin="round"/>
    <path d="M -8.065061569213867 223.0359649658203 C -7.137405872344971 212.61863708496094 -8.834975242614746 218.63958740234375 -12.614835739135742 226.17538452148438" stroke-width="3.0" fill="none" stroke="rgb(0, 0, 0)" stroke-opacity="0.8455919" stroke-linecap="round" stroke-linejoin="round"/>
    <path d="M 77.93604278564453 63.07455825805664 C 97.46733093261719 59.74525451660156 102.39068603515625 33.5921630859375 76.88778686523438 78.23654174804688" stroke-width="3.0" fill="none" stroke="rgb(0, 0, 0)" stroke-opacity="0.02553157" stroke-linecap="round" stroke-linejoin="round"/>
    <path d="M 26.01230812072754 67.00029754638672 C -29.979782104492188 59.91554260253906 -19.343427658081055 55.568267822265625 27.89484977722168 63.93943405151367" stroke-width="3.0" fill="none" stroke="rgb(0, 1, -2)" stroke-opacity="0.24608485" stroke-linecap="round" stroke-linejoin="round"/>
    <path d="M 52.57331085205078 121.69671630859375 C 44.81300354003906 186.9342803955078 49.78150177001953 190.50660705566406 77.36791229248047 140.78932189941406" stroke-width="3.0" fill="none" stroke="rgb(1, 1, -2)" stroke-opacity="0.032836583" stroke-linecap="round" stroke-linejoin="round"/>
    <path d="M 77.42810821533203 80.4858627319336 C 80.62579345703125 65.77828216552734 100.00042724609375 53.51941680908203 83.36407470703125 44.402610778808594" stroke-width="3.0" fill="none" stroke="rgb(-2, 2, -1)" stroke-opacity="0.2758076" stroke-linecap="round" stroke-linejoin="round"/>
    <path d="M 25.618864059448242 17.94070053100586 C 63.65574645996094 18.371227264404297 42.4401741027832 25.364208221435547 23.607934951782227 19.419050216674805" stroke-width="3.0" fill="none" stroke="rgb(0, 0, 0)" stroke-opacity="0.0074059535" stroke-linecap="round" stroke-linejoin="round"/>
    <path d="M 42.32536315917969 121.4609146118164 C 45.07599639892578 120.17544555664062 65.89694213867188 114.91791534423828 74.43150329589844 124.62987518310547" stroke-width="3.0" fill="none" stroke="rgb(-2, 2, 2)" stroke-opacity="0.4062244" stroke-linecap="round" stroke-linejoin="round"/>
    <path d="M 180.01902770996094 174.5095977783203 C 244.49046325683594 146.71694946289062 152.0503692626953 196.93032836914062 212.4632568359375 171.53363037109375" stroke-width="3.0" fill="none" stroke="rgb(-2, 1, 2)" stroke-opacity="0.07381733" stroke-linecap="round" stroke-linejoin="round"/>
    <path d="M 116.29239654541016 21.763301849365234 C 131.98056030273438 21.881328582763672 125.29106140136719 28.347814559936523 99.81522369384766 23.138261795043945" stroke-width="3.0" fill="none" stroke="rgb(0, 0, 0)" stroke-opacity="0.0050946632" stroke-linecap="round" stroke-linejoin="round"/>
    <path d="M 64.46366882324219 192.58770751953125 C 43.87382507324219 195.5157470703125 53.53883361816406 177.34390258789062 81.72595977783203 144.36766052246094" stroke-width="3.0" fill="none" stroke="rgb(2, 0, -1)" stroke-opacity="0.03516021" stroke-linecap="round" stroke-linejoin="round"/>
    <path d="M 57.42125701904297 117.33439636230469 C 56.376564025878906 157.98080444335938 46.12237548828125 191.27024841308594 45.13926315307617 120.99225616455078" stroke-width="3.0" fill="none" stroke="rgb(0, 0, -1)" stroke-opacity="0.032890804" stroke-linecap="round" stroke-linejoin="round"/>
    <path d="M 51.75248718261719 119.78128051757812 C 44.31620788574219 125.26657104492188 62.68503189086914 114.65789031982422 66.45137023925781 123.12085723876953" stroke-width="3.0" fill="none" stroke="rgb(-2, 3, -3)" stroke-opacity="0.3640447" stroke-linecap="round" stroke-linejoin="round"/>
    <path d="M 1.3674495220184326 175.6912078857422 C -0.8533994555473328 159.3194122314453 2.0562756061553955 175.1126251220703 -1.8481969833374023 166.9220733642578" stroke-width="3.0" fill="none" stroke="rgb(0, 0, 0)" stroke-opacity="0.018263262" stroke-linecap="round" stroke-linejoin="round"/>
    <path d="M 141.23011779785156 178.0050811767578 C 124.04463958740234 143.84469604492188 132.2181854248047 159.9658660888672 111.40164184570312 200.16165161132812" stroke-width="3.0" fill="none" stroke="rgb(0, 0, 0)" stroke-opacity="0.033816587" stroke-linecap="round" stroke-linejoin="round"/>
    <path d="M 125.55487823486328 61.486507415771484 C 133.6873321533203 70.24169158935547 133.06910705566406 58.81034851074219 147.2115936279297 67.18115997314453" stroke-width="3.0" fill="none" stroke="rgb(0, 0, 0)" stroke-opacity="0.0030884026" stroke-linecap="round" stroke-linejoin="round"/>
    <path d="M 57.622047424316406 59.72452163696289 C 57.60955810546875 59.8335075378418 62.58791732788086 88.73860168457031 58.55335998535156 47.388858795166016" stroke-width="3.0" fill="none" stroke="rgb(0, 0, -1)" stroke-opacity="0.16628784" stroke-linecap="round" stroke-linejoin="round"/>
    <path d="M 223.26768493652344 191.7909393310547 C 83.82284545898438 228.8635711669922 140.59649658203125 216.48854064941406 225.63021850585938 183.58546447753906" stroke-width="3.0" fill="none" stroke="rgb(0, 0, 0)" stroke-opacity="0.07472215" stroke-linecap="round" stroke-linejoin="round"/>
    <path d="M 0.6723480224609375 55.47067642211914 C 0.7008370757102966 106.79339599609375 3.046135425567627 82.01756286621094 9.165081977844238 102.21210479736328" stroke-width="3.0" fill="none" stroke="rgb(1, -1, 0)" stroke-opacity="0.45782378" stroke-linecap="round" stroke-linejoin="round"/>
    <path d="M 75.00080871582031 124.92212677001953 C 79.60569763183594 146.3897247314453 72.39222717285156 142.93661499023438 63.90693664550781 123.43124389648438" stroke-width="3.0" fill="none" stroke="rgb(0, 0, -1)" stroke-opacity="0.0032902677" stroke-linecap="round" stroke-linejoin="round"/>
    <path d="M 86.26467895507812 44.37511444091797 C 95.70416259765625 74.35266876220703 78.4477767944336 37.16694641113281 64.81511688232422 43.406341552734375" stroke-width="3.0" fill="none" stroke="rgb(0, 0, 0)" stroke-opacity="0.022030393" stroke-linecap="round" stroke-linejoin="round"/>
    <path d="M 125.82706451416016 168.53970336914062 C 204.25921630859375 197.65032958984375 118.91248321533203 176.4589080810547 139.42079162597656 175.626708984375" stroke-width="3.0" fill="none" stroke="rgb(1, 1, -3)" stroke-opacity="0.05692821" stroke-linecap="round" stroke-linejoin="round"/>
    <path d="M 74.84442901611328 126.30537414550781 C 74.47212219238281 158.21484375 54.14076232910156 192.70738220214844 73.4604263305664 127.45679473876953" stroke-width="3.0" fill="none" stroke="rgb(0, 2, -2)" stroke-opacity="0.04126303" stroke-linecap="round" stroke-linejoin="round"/>
    <path d="M 153.75086975097656 91.89613342285156 C 135.70751953125 106.72258758544922 173.85858154296875 113.00931549072266 158.83966064453125 113.45539855957031" stroke-width="3.0" fill="none" stroke="rgb(-2, 0, 2)" stroke-opacity="0.043326076" stroke-linecap="round" stroke-linejoin="round"/>
    <path d="M 51.69501495361328 173.21849060058594 C 30.70844268798828 148.14346313476562 21.496299743652344 119.68275451660156 47.59413528442383 165.3039093017578" stroke-width="3.0" fill="none" stroke="rgb(2, -2, -1)" stroke-opacity="0.1356105" stroke-linecap="round" stroke-linejoin="round"/>
    <path d="M 212.48553466796875 -4.030588150024414 C 215.03265380859375 -6.9397454261779785 213.3933563232422 -4.341704368591309 212.5775909423828 -3.974667549133301" stroke-width="3.0" fill="none" stroke="rgb(0, 0, 0)" stroke-opacity="0.774071" stroke-linecap="round" stroke-linejoin="round"/>
    <path d="M 231.10850524902344 149.2032470703125 C 200.623046875 177.44393920898438 184.37509155273438 154.59486389160156 212.869140625 161.28927612304688" stroke-width="3.0" fill="none" stroke="rgb(-2, 2, 2)" stroke-opacity="0.119574614" stroke-linecap="round" stroke-linejoin="round"/>
    <path d="M 168.9944610595703 98.63899230957031 C 143.15370178222656 118.2916030883789 168.28567504882812 112.21527099609375 168.91307067871094 93.96202087402344" stroke-width="3.0" fill="none" stroke="rgb(2, -1, 0)" stroke-opacity="0.022573296" stroke-linecap="round" stroke-linejoin="round"/>
    <path d="M 71.0558853149414 213.03167724609375 C 31.80431365966797 237.6539764404297 73.03868103027344 247.95166015625 137.4741973876953 244.32696533203125" stroke-width="3.0" fill="none" stroke="rgb(-2, 2, 0)" stroke-opacity="0.10761206" stroke-linecap="round" stroke-linejoin="round"/>
    <path d="M 66.33966064453125 78.26752471923828 C 90.8840560913086 14.3590669631958 48.1566162109375 41.01295852661133 68.58197784423828 74.18006896972656" stroke-width="3.0" fill="none" stroke="rgb(1, -1, -1)" stroke-opacity="0.040181927" stroke-linecap="round" stroke-linejoin="round"/>
    <path d="M 185.2217254638672 235.41525268554688 C 246.91693115234375 217.38687133789062 275.9032287597656 221.69923400878906 145.60971069335938 223.0582733154297" stroke-width="3.0" fill="none" stroke="rgb(-2, 0, 1)" stroke-opacity="0.32024598" stroke-linecap="round" stroke-linejoin="round"/>
    <path d="M 129.32479858398438 169.88536071777344 C 131.1663055419922 191.77479553222656 180.53466796875 190.85842895507812 127.19891357421875 160.03176879882812" stroke-width="3.0" fill="none" stroke="rgb(-2, 1, 2)" stroke-opacity="0.07635614" stroke-linecap="round" stroke-linejoin="round"/>
    <path d="M 35.852474212646484 207.05108642578125 C 135.8894805908203 192.11766052246094 95.44804382324219 168.08395385742188 71.84285736083984 206.7896728515625" stroke-width="3.0" fill="none" stroke="rgb(-1, 0, 2)" stroke-opacity="0.049884755" stroke-linecap="round" stroke-linejoin="round"/>
    <path d="M 91.76553344726562 58.03803253173828 C 83.98503112792969 44.342506408691406 102.43700408935547 57.1259651184082 81.2489242553711 76.31192016601562" stroke-width="3.0" fill="none" stroke="rgb(0, 0, 0)" stroke-opacity="0.22329937" stroke-linecap="round" stroke-linejoin="round"/>
    <path d="M 186.5641326904297 223.49583435058594 C 199.96987915039062 162.59423828125 175.3444366455078 228.73907470703125 263.55828857421875 219.470703125" stroke-width="3.0" fill="none" stroke="rgb(-2, 1, 3)" stroke-opacity="0.09306309" stroke-linecap="round" stroke-linejoin="round"/>
    <path d="M 61.55345153808594 174.3389129638672 C 45.18288803100586 147.5187530517578 37.75083923339844 134.08021545410156 56.978023529052734 176.69549560546875" stroke-width="3.0" fill="none" stroke="rgb(1, -1, -2)" stroke-opacity="0.038003594" stroke-linecap="round" stroke-linejoin="round"/>
    <path d="M 123.4503173828125 214.07620239257812 C 299.9232177734375 146.56190490722656 252.19970703125 171.88381958007812 116.36603546142578 220.90255737304688" stroke-width="3.0" fill="none" stroke="rgb(2, 1, -4)" stroke-opacity="0.039520085" stroke-linecap="round" stroke-linejoin="round"/>
    <path d="M 102.25482940673828 227.52330017089844 C 110.04545593261719 228.87872314453125 112.5849609375 230.62562561035156 102.82804107666016 230.80859375" stroke-width="3.0" fill="none" stroke="rgb(0, 0, 0)" stroke-opacity="0.7028871" stroke-linecap="round" stroke-linejoin="round"/>
  </g>
</svg>
