<?xml version="1.0" ?>
<svg xmlns="http://www.w3.org/2000/svg" version="1.1" width="224" height="224">
  <defs/>
  <g>
    <path d="M 70.88572692871094 38.850685119628906 C 50.29175567626953 10.99059009552002 64.30535888671875 13.770702362060547 59.819698333740234 20.034421920776367" stroke-width="3.0" fill="none" stroke="rgb(2, -1, -2)" stroke-opacity="0.25450802" stroke-linecap="round" stroke-linejoin="round"/>
    <path d="M 194.4400634765625 0.5907261967658997 C 145.59617614746094 36.82181930541992 143.11097717285156 37.3338737487793 166.38497924804688 7.57413387298584" stroke-width="3.0" fill="none" stroke="rgb(-2, 2, 2)" stroke-opacity="0.045067895" stroke-linecap="round" stroke-linejoin="round"/>
    <path d="M 110.68177795410156 76.78130340576172 C 92.61738586425781 112.22626495361328 87.31237030029297 70.4732666015625 133.639892578125 76.45724487304688" stroke-width="3.0" fill="none" stroke="rgb(2, -2, 1)" stroke-opacity="0.14189984" stroke-linecap="round" stroke-linejoin="round"/>
    <path d="M 144.77186584472656 110.1021499633789 C 136.29685974121094 109.3455581665039 134.87818908691406 143.3809051513672 141.2925567626953 111.65190124511719" stroke-width="3.0" fill="none" stroke="rgb(-2, 0, 2)" stroke-opacity="0.43565923" stroke-linecap="round" stroke-linejoin="round"/>
    <path d="M 72.07487487792969 170.75929260253906 C 107.07585144042969 100.82638549804688 42.24291229248047 165.32669067382812 69.14794921875 133.65020751953125" stroke-width="3.0" fill="none" stroke="rgb(0, 1, -2)" stroke-opacity="0.14708303" stroke-linecap="round" stroke-linejoin="round"/>
    <path d="M 41.53955078125 184.30368041992188 C 14.052062034606934 194.4591064453125 4.283712387084961 219.54116821289062 29.0802059173584 180.80433654785156" stroke-width="3.0" fill="none" stroke="rgb(3, 1, -2)" stroke-opacity="0.56125915" stroke-linecap="round" stroke-linejoin="round"/>
    <path d="M 137.15794372558594 163.01475524902344 C 107.72920989990234 233.97760009765625 157.33323669433594 155.92813110351562 115.69733428955078 189.7836151123047" stroke-width="3.0" fill="none" stroke="rgb(0, 0, 0)" stroke-opacity="0.22455068" stroke-linecap="round" stroke-linejoin="round"/>
    <path d="M 124.70050811767578 69.7553482055664 C 140.8762969970703 24.02680015563965 206.42449951171875 38.6175537109375 121.98063659667969 48.4987678527832" stroke-width="3.0" fill="none" stroke="rgb(0, 1, 0)" stroke-opacity="0.07393612" stroke-linecap="round" stroke-linejoin="round"/>
    <path d="M 153.36102294921875 86.82064819335938 C 145.57699584960938 20.130468368530273 193.35365295410156 107.66167449951172 138.9962615966797 67.94229125976562" stroke-width="3.0" fill="none" stroke="rgb(-2, 2, 3)" stroke-opacity="0.06634611" stroke-linecap="round" stroke-linejoin="round"/>
    <path d="M 134.01602172851562 64.5765151977539 C 145.50607299804688 77.21696472167969 38.797752380371094 82.30259704589844 131.25437927246094 78.86250305175781" stroke-width="3.0" fill="none" stroke="rgb(1, -3, 2)" stroke-opacity="0.20542534" stroke-linecap="round" stroke-linejoin="round"/>
    <path d="M 136.26992797851562 154.5264434814453 C 130.13101196289062 197.2247314453125 96.939453125 190.0018310546875 148.71337890625 114.00321960449219" stroke-width="3.0" fill="none" stroke="rgb(-3, 2, 2)" stroke-opacity="0.090857804" stroke-linecap="round" stroke-linejoin="round"/>
    <path d="M 133.52325439453125 205.92494201660156 C 127.7873764038086 224.3810577392578 159.93190002441406 158.31060791015625 106.85970306396484 227.58981323242188" stroke-width="3.0" fill="none" stroke="rgb(0, 2, -4)" stroke-opacity="0.27760637" stroke-linecap="round" stroke-linejoin="round"/>
    <path d="M 9.219696998596191 96.1195297241211 C 4.758347511291504 67.26325988769531 40.58196258544922 84.92108154296875 -24.34212875366211 79.95233917236328" stroke-width="3.0" fill="none" stroke="rgb(0, 0, 0)" stroke-opacity="0.022940947" stroke-linecap="round" stroke-linejoin="round"/>
    <path d="M 122.95783996582031 189.27809143066406 C 17.2421875 128.40451049804688 115.21502685546875 113.66746520996094 74.79196166992188 201.81361389160156" stroke-width="3.0" fill="none" stroke="rgb(-2, 2, 1)" stroke-opacity="0.14255157" stroke-linecap="round" stroke-linejoin="round"/>
    <path d="M 77.29850006103516 70.4460220336914 C 77.7382583618164 136.45086669921875 40.354026794433594 24.082225799560547 71.70863342285156 89.51258850097656" stroke-width="3.0" fill="none" stroke="rgb(-3, 2, 2)" stroke-opacity="0.05625972" stroke-linecap="round" stroke-linejoin="round"/>
    <path d="M 75.7591323852539 155.9011688232422 C 123.02941131591797 164.84628295898438 120.88097381591797 195.65997314453125 107.95189666748047 171.55657958984375" stroke-width="3.0" fill="none" stroke="rgb(-2, 1, 1)" stroke-opacity="0.23706734" stroke-linecap="round" stroke-linejoin="round"/>
    <path d="M 171.11204528808594 119.65155792236328 C 190.78152465820312 125.46931457519531 195.4008026123047 124.99542999267578 192.1431121826172 141.2134246826172" stroke-width="3.0" fill="none" stroke="rgb(-2, 2, 2)" stroke-opacity="0.7001521" stroke-linecap="round" stroke-linejoin="round"/>
    <path d="M 135.96278381347656 103.55458068847656 C 188.01705932617188 134.529541015625 149.36663818359375 115.29300689697266 165.30397033691406 112.572998046875" stroke-width="3.0" fill="none" stroke="rgb(-2, 2, -1)" stroke-opacity="0.23089269" stroke-linecap="round" stroke-linejoin="round"/>
    <path d="M 35.49473190307617 175.9697723388672 C 5.246201992034912 190.18792724609375 -5.3192667961120605 237.31698608398438 0.9278400540351868 217.2200164794922" stroke-width="3.0" fill="none" stroke="rgb(-2, 2, 2)" stroke-opacity="0.7813242" stroke-linecap="round" stroke-linejoin="round"/>
    <path d="M 0.7177848815917969 228.13595581054688 C 3.5591089725494385 202.85403442382812 33.92325210571289 176.51963806152344 19.93956756591797 184.356201171875" stroke-width="3.0" fill="none" stroke="rgb(-1, 2, -1)" stroke-opacity="0.75219506" stroke-linecap="round" stroke-linejoin="round"/>
    <path d="M 178.96644592285156 179.80958557128906 C 176.16275024414062 174.37623596191406 158.67056274414062 110.68897247314453 185.27008056640625 176.51470947265625" stroke-width="3.0" fill="none" stroke="rgb(-2, 2, 3)" stroke-opacity="0.49105576" stroke-linecap="round" stroke-linejoin="round"/>
    <path d="M 63.469200134277344 171.8468017578125 C 86.92636108398438 246.7528839111328 130.88272094726562 131.5966796875 82.58052825927734 227.1208953857422" stroke-width="3.0" fill="none" stroke="rgb(-2, 2, 2)" stroke-opacity="0.22908682" stroke-linecap="round" stroke-linejoin="round"/>
    <path d="M 174.1748504638672 156.23043823242188 C 191.27536010742188 215.5366973876953 179.7907257080078 207.78453063964844 205.40692138671875 237.11871337890625" stroke-width="3.0" fill="none" stroke="rgb(-1, 3, -3)" stroke-opacity="0.2806193" stroke-linecap="round" stroke-linejoin="round"/>
    <path d="M 146.5907745361328 51.55836868286133 C 133.80345153808594 164.82965087890625 180.83848571777344 -76.39420318603516 144.41111755371094 79.83441162109375" stroke-width="3.0" fill="none" stroke="rgb(-2, 2, 1)" stroke-opacity="0.046637785" stroke-linecap="round" stroke-linejoin="round"/>
    <path d="M 60.242454528808594 157.59234619140625 C 106.11094665527344 107.13079833984375 90.79837036132812 229.25242614746094 82.22505187988281 113.85100555419922" stroke-width="3.0" fill="none" stroke="rgb(0, 1, -2)" stroke-opacity="0.12450476" stroke-linecap="round" stroke-linejoin="round"/>
    <path d="M 65.38190460205078 18.400522232055664 C 112.45397186279297 49.131587982177734 84.05032348632812 19.514482498168945 65.21179962158203 17.45645523071289" stroke-width="3.0" fill="none" stroke="rgb(2, -1, -2)" stroke-opacity="0.25082135" stroke-linecap="round" stroke-linejoin="round"/>
    <path d="M 74.24760437011719 87.75016021728516 C 24.758560180664062 -37.66822052001953 25.719453811645508 12.693269729614258 66.44676971435547 72.45804595947266" stroke-width="3.0" fill="none" stroke="rgb(-3, 4, 1)" stroke-opacity="0.037134044" stroke-linecap="round" stroke-linejoin="round"/>
    <path d="M 0.6825942397117615 31.337278366088867 C 33.71317672729492 82.2266616821289 68.58189392089844 151.2949981689453 3.653120279312134 41.292991638183594" stroke-width="3.0" fill="none" stroke="rgb(-2, 1, 2)" stroke-opacity="0.026927793" stroke-linecap="round" stroke-linejoin="round"/>
    <path d="M 120.0423812866211 32.93833541870117 C 166.18492126464844 66.22692108154297 109.32827758789062 -10.639488220214844 135.08685302734375 53.15050506591797" stroke-width="3.0" fill="none" stroke="rgb(0, -1, 1)" stroke-opacity="0.17707717" stroke-linecap="round" stroke-linejoin="round"/>
    <path d="M 31.46230125427246 179.15158081054688 C 17.03464698791504 214.45028686523438 20.793155670166016 188.1009521484375 4.113744258880615 230.9754638671875" stroke-width="3.0" fill="none" stroke="rgb(1, 1, -2)" stroke-opacity="0.46331543" stroke-linecap="round" stroke-linejoin="round"/>
    <path d="M 91.70709228515625 36.42643356323242 C 114.6689224243164 34.836585998535156 89.02947235107422 61.038761138916016 90.4687271118164 37.22429656982422" stroke-width="3.0" fill="none" stroke="rgb(-3, 2, 3)" stroke-opacity="0.66518265" stroke-linecap="round" stroke-linejoin="round"/>
    <path d="M 136.11106872558594 172.86431884765625 C 106.933837890625 159.51502990722656 167.9765625 174.1349639892578 132.8159637451172 153.11175537109375" stroke-width="3.0" fill="none" stroke="rgb(-2, 0, 2)" stroke-opacity="0.24968463" stroke-linecap="round" stroke-linejoin="round"/>
    <path d="M 139.38121032714844 100.16278076171875 C 90.71742248535156 105.09449005126953 164.1985626220703 189.99606323242188 114.38325500488281 106.38655090332031" stroke-width="3.0" fill="none" stroke="rgb(-1, 1, 0)" stroke-opacity="0.11995128" stroke-linecap="round" stroke-linejoin="round"/>
    <path d="M 83.97113037109375 86.3055648803711 C 76.53612518310547 105.86893463134766 95.46006774902344 65.19373321533203 78.79529571533203 78.2828140258789" stroke-width="3.0" fill="none" stroke="rgb(-1, 1, 1)" stroke-opacity="0.1691557" stroke-linecap="round" stroke-linejoin="round"/>
    <path d="M 81.4483871459961 64.78169250488281 C 152.55494689941406 26.090293884277344 34.46320724487305 40.150474548339844 85.60115814208984 76.6268310546875" stroke-width="3.0" fill="none" stroke="rgb(-2, 1, 2)" stroke-opacity="0.23503618" stroke-linecap="round" stroke-linejoin="round"/>
    <path d="M 186.04574584960938 201.53665161132812 C 189.7273406982422 220.04771423339844 197.12435913085938 245.09326171875 197.0989990234375 247.84178161621094" stroke-width="3.0" fill="none" stroke="rgb(-2, 0, 1)" stroke-opacity="0.6524338" stroke-linecap="round" stroke-linejoin="round"/>
    <path d="M 69.32514953613281 145.2577362060547 C 138.90243530273438 171.39193725585938 129.2251434326172 174.48182678222656 70.43080139160156 165.447998046875" stroke-width="3.0" fill="none" stroke="rgb(-2, 1, 2)" stroke-opacity="0.17005251" stroke-linecap="round" stroke-linejoin="round"/>
    <path d="M 118.31128692626953 200.96031188964844 C 119.44222259521484 113.11089324951172 126.70254516601562 299.5897216796875 125.01204681396484 185.6602020263672" stroke-width="3.0" fill="none" stroke="rgb(-3, 1, 3)" stroke-opacity="0.3390986" stroke-linecap="round" stroke-linejoin="round"/>
    <path d="M 68.79329681396484 30.905380249023438 C 118.62350463867188 18.142818450927734 100.0013198852539 53.441444396972656 63.67918014526367 18.86789894104004" stroke-width="3.0" fill="none" stroke="rgb(1, -1, -1)" stroke-opacity="0.110534154" stroke-linecap="round" stroke-linejoin="round"/>
    <path d="M 88.97069549560547 54.49149703979492 C -53.02235794067383 -7.152058124542236 38.543479919433594 38.64799880981445 61.55794143676758 32.006591796875" stroke-width="3.0" fill="none" stroke="rgb(0, 1, -1)" stroke-opacity="0.032099538" stroke-linecap="round" stroke-linejoin="round"/>
    <path d="M 170.4888458251953 154.20126342773438 C 230.48831176757812 129.42723083496094 150.58078002929688 157.99398803710938 180.02207946777344 143.66159057617188" stroke-width="3.0" fill="none" stroke="rgb(-2, 1, 2)" stroke-opacity="0.5119374" stroke-linecap="round" stroke-linejoin="round"/>
    <path d="M 120.7192153930664 33.12599182128906 C 123.24047088623047 66.6214370727539 130.98291015625 54.15489196777344 86.95663452148438 69.76701354980469" stroke-width="3.0" fill="none" stroke="rgb(0, 1, 0)" stroke-opacity="0.064993866" stroke-linecap="round" stroke-linejoin="round"/>
    <path d="M 117.00662994384766 223.86529541015625 C 51.35261154174805 219.107666015625 115.44380950927734 191.9688720703125 80.80005645751953 229.4291229248047" stroke-width="3.0" fill="none" stroke="rgb(3, 1, -2)" stroke-opacity="0.2684291" stroke-linecap="round" stroke-linejoin="round"/>
    <path d="M 104.44218444824219 188.66433715820312 C 96.61940002441406 167.72898864746094 73.18595886230469 179.99586486816406 98.4085464477539 185.1873321533203" stroke-width="3.0" fill="none" stroke="rgb(-2, 1, 2)" stroke-opacity="0.21628946" stroke-linecap="round" stroke-linejoin="round"/>
    <path d="M 233.20462036132812 175.8507080078125 C 235.83616638183594 172.609130859375 212.26791381835938 179.8485565185547 233.64134216308594 173.65773010253906" stroke-width="3.0" fill="none" stroke="rgb(0, 0, 0)" stroke-opacity="0.58128786" stroke-linecap="round" stroke-linejoin="round"/>
    <path d="M 16.305450439453125 75.85487365722656 C -2.65708065032959 51.56450653076172 23.133424758911133 107.60381317138672 11.874042510986328 50.80508041381836" stroke-width="3.0" fill="none" stroke="rgb(-1, 0, 1)" stroke-opacity="0.045742866" stroke-linecap="round" stroke-linejoin="round"/>
    <path d="M 8.453083038330078 248.67514038085938 C -2.4072153568267822 232.79315185546875 2.656198740005493 217.02757263183594 23.082815170288086 193.638427734375" stroke-width="3.0" fill="none" stroke="rgb(1, 2, -2)" stroke-opacity="0.7671657" stroke-linecap="round" stroke-linejoin="round"/>
    <path d="M 119.29556274414062 86.23683166503906 C 39.78318786621094 150.6038055419922 175.66436767578125 69.4720230102539 92.77555084228516 106.99119567871094" stroke-width="3.0" fill="none" stroke="rgb(-2, 1, 2)" stroke-opacity="0.13217235" stroke-linecap="round" stroke-linejoin="round"/>
    <path d="M 94.93595886230469 102.12590789794922 C 136.66795349121094 80.66045379638672 141.14073181152344 112.0209732055664 140.0753631591797 90.52008056640625" stroke-width="3.0" fill="none" stroke="rgb(-2, 1, 2)" stroke-opacity="0.19970474" stroke-linecap="round" stroke-linejoin="round"/>
    <path d="M 178.21925354003906 162.10562133789062 C 123.34541320800781 201.13580322265625 132.76100158691406 189.45150756835938 173.5529022216797 171.6212921142578" stroke-width="3.0" fill="none" stroke="rgb(-2, 2, -1)" stroke-opacity="0.47117516" stroke-linecap="round" stroke-linejoin="round"/>
    <path d="M 176.62033081054688 4.495708465576172 C 240.48789978027344 130.54273986816406 236.2835693359375 137.02479553222656 179.12457275390625 13.845561981201172" stroke-width="3.0" fill="none" stroke="rgb(0, 1, 0)" stroke-opacity="0.009265914" stroke-linecap="round" stroke-linejoin="round"/>
    <path d="M -8.929569244384766 105.35267639160156 C 105.24600219726562 90.54391479492188 125.2069320678711 78.64197540283203 -1.424699068069458 83.12002563476562" stroke-width="3.0" fill="none" stroke="rgb(-2, 1, 2)" stroke-opacity="0.07409674" stroke-linecap="round" stroke-linejoin="round"/>
    <path d="M 233.39842224121094 174.47544860839844 C 153.11471557617188 180.7493438720703 201.7765655517578 217.9256591796875 182.6955108642578 180.59600830078125" stroke-width="3.0" fill="none" stroke="rgb(-2, 2, 2)" stroke-opacity="0.25393006" stroke-linecap="round" stroke-linejoin="round"/>
    <path d="M 80.24298858642578 116.64596557617188 C 124.58061981201172 134.3516082763672 139.5440216064453 198.24496459960938 91.2572250366211 126.67054748535156" stroke-width="3.0" fill="none" stroke="rgb(-2, 2, 2)" stroke-opacity="0.095907435" stroke-linecap="round" stroke-linejoin="round"/>
    <path d="M 98.90966796875 104.86943817138672 C 152.31642150878906 6.2035369873046875 64.16450500488281 176.20960998535156 121.8497543334961 100.92649841308594" stroke-width="3.0" fill="none" stroke="rgb(-2, 1, 2)" stroke-opacity="0.12535629" stroke-linecap="round" stroke-linejoin="round"/>
    <path d="M 78.56045532226562 91.40511322021484 C 50.987510681152344 25.865201950073242 50.29133224487305 18.78400421142578 81.94747161865234 94.57625579833984" stroke-width="3.0" fill="none" stroke="rgb(-2, 2, -1)" stroke-opacity="0.041382723" stroke-linecap="round" stroke-linejoin="round"/>
    <path d="M 136.12547302246094 70.43560028076172 C 159.6159210205078 86.77884674072266 169.14894104003906 77.902099609375 143.46432495117188 83.43724060058594" stroke-width="3.0" fill="none" stroke="rgb(-2, 2, 0)" stroke-opacity="0.09936438" stroke-linecap="round" stroke-linejoin="round"/>
    <path d="M 127.84322357177734 202.7313690185547 C 171.61183166503906 199.26657104492188 84.30863952636719 208.39431762695312 140.23121643066406 224.9630889892578" stroke-width="3.0" fill="none" stroke="rgb(0, 2, -1)" stroke-opacity="0.2808117" stroke-linecap="round" stroke-linejoin="round"/>
    <path d="M 140.89755249023438 175.29232788085938 C 131.95558166503906 136.81727600097656 144.08193969726562 164.6379852294922 142.54464721679688 173.54867553710938" stroke-width="3.0" fill="none" stroke="rgb(1, 2, -3)" stroke-opacity="0.396184" stroke-linecap="round" stroke-linejoin="round"/>
    <path d="M 157.494873046875 117.50137329101562 C 116.00654602050781 85.89572143554688 124.2420883178711 106.18539428710938 120.79242706298828 127.40463256835938" stroke-width="3.0" fill="none" stroke="rgb(-2, 3, 0)" stroke-opacity="0.20085774" stroke-linecap="round" stroke-linejoin="round"/>
    <path d="M 133.81890869140625 -6.76788330078125 C 131.28012084960938 68.132080078125 100.39144897460938 -42.58931350708008 136.37452697753906 38.98900604248047" stroke-width="3.0" fill="none" stroke="rgb(2, -2, 0)" stroke-opacity="0.21685247" stroke-linecap="round" stroke-linejoin="round"/>
    <path d="M 83.73548126220703 109.0039291381836 C 106.25220489501953 190.39874267578125 45.07844161987305 59.95284652709961 106.11449432373047 153.7354736328125" stroke-width="3.0" fill="none" stroke="rgb(0, 0, 0)" stroke-opacity="0.1306211" stroke-linecap="round" stroke-linejoin="round"/>
    <path d="M 60.50505065917969 86.69085693359375 C -37.505435943603516 100.97345733642578 -30.686044692993164 107.05523681640625 54.34423828125 93.76882934570312" stroke-width="3.0" fill="none" stroke="rgb(-2, 2, 0)" stroke-opacity="0.06402591" stroke-linecap="round" stroke-linejoin="round"/>
    <path d="M 54.52003479003906 97.08734893798828 C -24.01612663269043 46.89963150024414 30.865371704101562 152.06607055664062 15.290827751159668 51.889892578125" stroke-width="3.0" fill="none" stroke="rgb(0, 0, 1)" stroke-opacity="0.036456294" stroke-linecap="round" stroke-linejoin="round"/>
    <path d="M 88.36463928222656 221.97315979003906 C 137.21424865722656 235.47825622558594 79.54354095458984 155.2713623046875 112.61639404296875 223.11322021484375" stroke-width="3.0" fill="none" stroke="rgb(-3, 2, 3)" stroke-opacity="0.64409786" stroke-linecap="round" stroke-linejoin="round"/>
    <path d="M 10.086721420288086 27.377962112426758 C 66.33906555175781 92.36673736572266 31.00782585144043 28.13431167602539 13.518877029418945 39.795413970947266" stroke-width="3.0" fill="none" stroke="rgb(-1, 1, 2)" stroke-opacity="0.023643963" stroke-linecap="round" stroke-linejoin="round"/>
    <path d="M 183.708984375 59.5985107421875 C 167.3880615234375 60.627506256103516 187.8980712890625 81.4736557006836 188.61705017089844 65.20638275146484" stroke-width="3.0" fill="none" stroke="rgb(-1, 1, 0)" stroke-opacity="0.112647735" stroke-linecap="round" stroke-linejoin="round"/>
    <path d="M -5.021970272064209 104.79080963134766 C -8.676785469055176 107.00914764404297 -0.6018492579460144 105.79193878173828 -6.702148914337158 103.83895874023438" stroke-width="3.0" fill="none" stroke="rgb(0, 0, 0)" stroke-opacity="0.77388626" stroke-linecap="round" stroke-linejoin="round"/>
    <path d="M 156.45899963378906 140.34056091308594 C 191.5557403564453 154.74148559570312 80.73015594482422 76.67082977294922 172.2792510986328 141.33737182617188" stroke-width="3.0" fill="none" stroke="rgb(-2, 1, 0)" stroke-opacity="0.31908903" stroke-linecap="round" stroke-linejoin="round"/>
    <path d="M 121.18072509765625 204.79576110839844 C 178.13941955566406 244.44898986816406 85.20380401611328 196.80543518066406 135.98440551757812 217.8576202392578" stroke-width="3.0" fill="none" stroke="rgb(3, 3, -3)" stroke-opacity="0.19147007" stroke-linecap="round" stroke-linejoin="round"/>
    <path d="M 72.17202758789062 140.23532104492188 C 79.66053771972656 189.5657196044922 33.89850616455078 142.4482879638672 83.3978042602539 98.33721160888672" stroke-width="3.0" fill="none" stroke="rgb(-2, 2, 2)" stroke-opacity="0.079726465" stroke-linecap="round" stroke-linejoin="round"/>
    <path d="M 102.18474578857422 56.29086685180664 C 111.29244232177734 30.349693298339844 164.20150756835938 41.32590103149414 89.4333724975586 49.609153747558594" stroke-width="3.0" fill="none" stroke="rgb(1, -1, 0)" stroke-opacity="0.27087367" stroke-linecap="round" stroke-linejoin="round"/>
    <path d="M 0.7956079244613647 25.58367347717285 C 0.8930867910385132 132.03073120117188 2.104520320892334 97.06752014160156 -2.048905372619629 87.12047576904297" stroke-width="3.0" fill="none" stroke="rgb(-2, 1, 2)" stroke-opacity="0.20128666" stroke-linecap="round" stroke-linejoin="round"/>
    <path d="M 91.89718627929688 96.77410125732422 C 125.60552978515625 142.35235595703125 118.94104766845703 142.4590301513672 90.23933410644531 98.44292449951172" stroke-width="3.0" fill="none" stroke="rgb(-2, 1, 2)" stroke-opacity="0.22201653" stroke-linecap="round" stroke-linejoin="round"/>
    <path d="M 176.07373046875 134.1199493408203 C 133.00662231445312 103.15505981445312 99.98834991455078 85.16754150390625 178.71844482421875 138.7063446044922" stroke-width="3.0" fill="none" stroke="rgb(1, 2, -2)" stroke-opacity="0.34764084" stroke-linecap="round" stroke-linejoin="round"/>
    <path d="M 105.05970001220703 82.38804626464844 C 71.16517639160156 55.80657958984375 102.02576446533203 85.6762466430664 131.25985717773438 66.18164825439453" stroke-width="3.0" fill="none" stroke="rgb(0, 1, -1)" stroke-opacity="0.15081476" stroke-linecap="round" stroke-linejoin="round"/>
    <path d="M -5.1344194412231445 -0.26905468106269836 C 88.23136901855469 6.160430431365967 17.088768005371094 -9.978772163391113 61.580326080322266 13.13731861114502" stroke-width="3.0" fill="none" stroke="rgb(-1, 2, -1)" stroke-opacity="0.13081996" stroke-linecap="round" stroke-linejoin="round"/>
    <path d="M 106.6037368774414 56.49893569946289 C 87.1317138671875 50.60580062866211 111.16909790039062 82.71404266357422 133.9420623779297 30.08478355407715" stroke-width="3.0" fill="none" stroke="rgb(2, -2, 0)" stroke-opacity="0.16667928" stroke-linecap="round" stroke-linejoin="round"/>
    <path d="M 195.21864318847656 150.5503387451172 C 198.83489990234375 102.47774505615234 186.83396911621094 170.7545166015625 193.37655639648438 145.26089477539062" stroke-width="3.0" fill="none" stroke="rgb(0, 1, -2)" stroke-opacity="0.72265965" stroke-linecap="round" stroke-linejoin="round"/>
    <path d="M 137.91612243652344 71.35271453857422 C 179.48211669921875 75.44197845458984 108.62841033935547 61.985740661621094 150.36940002441406 55.199615478515625" stroke-width="3.0" fill="none" stroke="rgb(-2, 1, 3)" stroke-opacity="0.062183388" stroke-linecap="round" stroke-linejoin="round"/>
    <path d="M 136.9844970703125 35.55465316772461 C 91.61189270019531 4.80076789855957 135.83924865722656 77.14508056640625 113.32514953613281 40.79144287109375" stroke-width="3.0" fill="none" stroke="rgb(-2, 0, 3)" stroke-opacity="0.3597186" stroke-linecap="round" stroke-linejoin="round"/>
    <path d="M 244.9206085205078 186.8369903564453 C 182.87086486816406 188.21609497070312 163.65872192382812 205.2765350341797 164.26524353027344 245.4453582763672" stroke-width="3.0" fill="none" stroke="rgb(-2, 2, 0)" stroke-opacity="0.31196076" stroke-linecap="round" stroke-linejoin="round"/>
    <path d="M 110.66423797607422 228.69180297851562 C 125.3546142578125 175.18338012695312 149.86900329589844 228.4341278076172 128.8430938720703 206.05563354492188" stroke-width="3.0" fill="none" stroke="rgb(0, 2, -2)" stroke-opacity="0.23998146" stroke-linecap="round" stroke-linejoin="round"/>
    <path d="M 98.5533218383789 21.31134796142578 C 192.63157653808594 31.568115234375 72.2592544555664 10.205066680908203 95.71961975097656 24.124595642089844" stroke-width="3.0" fill="none" stroke="rgb(1, 0, 0)" stroke-opacity="0.17415555" stroke-linecap="round" stroke-linejoin="round"/>
    <path d="M 90.20306396484375 53.89445877075195 C 145.61061096191406 46.03727722167969 127.36082458496094 -1.8864531517028809 141.9072265625 49.91545867919922" stroke-width="3.0" fill="none" stroke="rgb(1, -2, 1)" stroke-opacity="0.17452168" stroke-linecap="round" stroke-linejoin="round"/>
    <path d="M 116.39078521728516 56.578407287597656 C 80.72235870361328 2.7136192321777344 160.90042114257812 10.86036205291748 90.74565887451172 27.342430114746094" stroke-width="3.0" fill="none" stroke="rgb(2, -2, -1)" stroke-opacity="0.16652699" stroke-linecap="round" stroke-linejoin="round"/>
    <path d="M 137.87332153320312 71.76618194580078 C 178.6757049560547 -32.68975830078125 174.88433837890625 -33.95255661010742 132.43386840820312 75.74542999267578" stroke-width="3.0" fill="none" stroke="rgb(-2, 1, 0)" stroke-opacity="0.03073581" stroke-linecap="round" stroke-linejoin="round"/>
    <path d="M 205.39064025878906 232.3988800048828 C 185.83103942871094 161.411865234375 174.47579956054688 164.26437377929688 200.33116149902344 239.45040893554688" stroke-width="3.0" fill="none" stroke="rgb(-2, 1, 2)" stroke-opacity="0.13378713" stroke-linecap="round" stroke-linejoin="round"/>
    <path d="M 24.87540626525879 -1.4247400760650635 C 22.02500343322754 143.5266876220703 3.469651222229004 -88.64700317382812 62.77518081665039 88.25968933105469" stroke-width="3.0" fill="none" stroke="rgb(-2, 2, -2)" stroke-opacity="0.04869177" stroke-linecap="round" stroke-linejoin="round"/>
    <path d="M 90.9723129272461 24.765125274658203 C 106.1731948852539 11.305023193359375 116.91728973388672 79.71897888183594 127.03379821777344 31.59262466430664" stroke-width="3.0" fill="none" stroke="rgb(1, 0, -2)" stroke-opacity="0.1787313" stroke-linecap="round" stroke-linejoin="round"/>
    <path d="M 20.473142623901367 190.03482055664062 C 36.42783737182617 180.82591247558594 67.82840728759766 171.9397430419922 20.645341873168945 199.0478057861328" stroke-width="3.0" fill="none" stroke="rgb(0, 0, -2)" stroke-opacity="0.5608017" stroke-linecap="round" stroke-linejoin="round"/>
    <path d="M 2.887864589691162 79.69058227539062 C 125.84163665771484 75.2515869140625 108.86058807373047 88.79469299316406 -0.17814034223556519 100.26127624511719" stroke-width="3.0" fill="none" stroke="rgb(-4, 3, 3)" stroke-opacity="0.06360857" stroke-linecap="round" stroke-linejoin="round"/>
    <path d="M 94.96581268310547 210.2371368408203 C 62.96955490112305 189.38470458984375 56.154911041259766 261.9797058105469 79.78451538085938 195.9627685546875" stroke-width="3.0" fill="none" stroke="rgb(-3, 3, 0)" stroke-opacity="0.44248003" stroke-linecap="round" stroke-linejoin="round"/>
    <path d="M 87.90995788574219 115.18282318115234 C 16.666349411010742 206.80149841308594 105.27637481689453 115.35609436035156 56.59373474121094 178.40380859375" stroke-width="3.0" fill="none" stroke="rgb(0, 1, -2)" stroke-opacity="0.10266871" stroke-linecap="round" stroke-linejoin="round"/>
    <path d="M 127.9220199584961 119.30431365966797 C 139.023681640625 92.72869110107422 122.12149047851562 112.1467514038086 129.41282653808594 127.04349517822266" stroke-width="3.0" fill="none" stroke="rgb(0, 0, 1)" stroke-opacity="0.16502638" stroke-linecap="round" stroke-linejoin="round"/>
    <path d="M 109.55389404296875 183.90267944335938 C 18.332860946655273 166.28857421875 144.22145080566406 163.01541137695312 34.45431137084961 180.92752075195312" stroke-width="3.0" fill="none" stroke="rgb(3, 1, -3)" stroke-opacity="0.2001746" stroke-linecap="round" stroke-linejoin="round"/>
    <path d="M 103.20700073242188 185.27569580078125 C 51.968017578125 197.099365234375 92.47793579101562 167.5317840576172 18.072582244873047 195.29547119140625" stroke-width="3.0" fill="none" stroke="rgb(-2, 2, 0)" stroke-opacity="0.3781728" stroke-linecap="round" stroke-linejoin="round"/>
    <path d="M 81.876708984375 21.870868682861328 C 73.98534393310547 64.68214416503906 106.56798553466797 14.518450736999512 94.32825469970703 47.619964599609375" stroke-width="3.0" fill="none" stroke="rgb(-2, 2, 0)" stroke-opacity="0.24505281" stroke-linecap="round" stroke-linejoin="round"/>
    <path d="M 53.857154846191406 81.33042907714844 C 3.1051390171051025 -45.85252380371094 -4.274349212646484 -73.58478546142578 57.01003646850586 79.04676055908203" stroke-width="3.0" fill="none" stroke="rgb(0, 0, 2)" stroke-opacity="0.054264136" stroke-linecap="round" stroke-linejoin="round"/>
    <path d="M 83.04052734375 50.188812255859375 C 85.2748031616211 32.04951858520508 115.75279998779297 29.831172943115234 61.593021392822266 15.422910690307617" stroke-width="3.0" fill="none" stroke="rgb(2, 0, -2)" stroke-opacity="0.28022346" stroke-linecap="round" stroke-linejoin="round"/>
    <path d="M 118.86149597167969 57.24446487426758 C 94.96102905273438 28.63068962097168 54.56592559814453 88.17642974853516 103.73172760009766 45.611507415771484" stroke-width="3.0" fill="none" stroke="rgb(2, -3, -2)" stroke-opacity="0.27524194" stroke-linecap="round" stroke-linejoin="round"/>
    <path d="M 188.17471313476562 200.27142333984375 C 199.368896484375 244.8434295654297 204.99156188964844 250.43421936035156 187.10971069335938 247.69296264648438" stroke-width="3.0" fill="none" stroke="rgb(-2, 3, -1)" stroke-opacity="0.7158303" stroke-linecap="round" stroke-linejoin="round"/>
    <path d="M 6.806342124938965 4.403742790222168 C 132.7677459716797 37.254058837890625 -93.29527282714844 -27.539613723754883 83.87091827392578 19.5341739654541" stroke-width="3.0" fill="none" stroke="rgb(-3, 3, 0)" stroke-opacity="0.10252164" stroke-linecap="round" stroke-linejoin="round"/>
    <path d="M -7.834588527679443 104.0325927734375 C -5.6359639167785645 98.92094421386719 -8.61148452758789 92.790771484375 -11.286035537719727 90.69943237304688" stroke-width="3.0" fill="none" stroke="rgb(0, 0, 0)" stroke-opacity="0.73827004" stroke-linecap="round" stroke-linejoin="round"/>
    <path d="M 120.56077575683594 201.84226989746094 C 78.03335571289062 267.6802062988281 103.20055389404297 217.50808715820312 121.38027954101562 200.19032287597656" stroke-width="3.0" fill="none" stroke="rgb(-3, 2, 3)" stroke-opacity="0.68250215" stroke-linecap="round" stroke-linejoin="round"/>
    <path d="M 18.85059356689453 183.08114624023438 C 37.36929702758789 171.45291137695312 63.28327941894531 170.51426696777344 58.26744842529297 169.06167602539062" stroke-width="3.0" fill="none" stroke="rgb(-2, 2, 2)" stroke-opacity="0.7403929" stroke-linecap="round" stroke-linejoin="round"/>
    <path d="M 130.12362670898438 109.09137725830078 C 122.47200012207031 102.65193176269531 152.82150268554688 125.71068572998047 180.3046417236328 142.96803283691406" stroke-width="3.0" fill="none" stroke="rgb(1, 1, -2)" stroke-opacity="0.33350912" stroke-linecap="round" stroke-linejoin="round"/>
    <path d="M 72.26138305664062 58.219783782958984 C 66.35240173339844 62.49396896362305 61.59033203125 17.026086807250977 129.0602264404297 6.786026477813721" stroke-width="3.0" fill="none" stroke="rgb(0, -3, 3)" stroke-opacity="0.17688157" stroke-linecap="round" stroke-linejoin="round"/>
    <path d="M 122.55643463134766 156.13290405273438 C 68.6789779663086 122.0962142944336 45.652069091796875 114.65174102783203 122.13031005859375 159.1272430419922" stroke-width="3.0" fill="none" stroke="rgb(-1, 1, 1)" stroke-opacity="0.20263244" stroke-linecap="round" stroke-linejoin="round"/>
    <path d="M 136.7350616455078 228.55975341796875 C 131.98577880859375 227.50933837890625 138.7884521484375 227.2536163330078 137.58950805664062 227.1210174560547" stroke-width="3.0" fill="none" stroke="rgb(0, 0, 0)" stroke-opacity="0.81743604" stroke-linecap="round" stroke-linejoin="round"/>
    <path d="M 180.7882080078125 -5.4310431480407715 C 180.31967163085938 -0.9545292258262634 185.40904235839844 -4.1896586418151855 189.83753967285156 -5.272186279296875" stroke-width="3.0" fill="none" stroke="rgb(0, 0, 0)" stroke-opacity="0.7426401" stroke-linecap="round" stroke-linejoin="round"/>
    <path d="M 140.61045837402344 199.83795166015625 C 136.9456787109375 158.25027465820312 126.24600219726562 123.18235778808594 136.41746520996094 190.94195556640625" stroke-width="3.0" fill="none" stroke="rgb(0, 0, 0)" stroke-opacity="0.24058935" stroke-linecap="round" stroke-linejoin="round"/>
    <path d="M 32.935821533203125 65.43589782714844 C 27.40419578552246 3.3426969051361084 38.98528289794922 30.47162628173828 87.23662567138672 27.89485740661621" stroke-width="3.0" fill="none" stroke="rgb(2, 0, -1)" stroke-opacity="0.044532765" stroke-linecap="round" stroke-linejoin="round"/>
    <path d="M 139.6841278076172 88.39234924316406 C 241.75775146484375 82.45690155029297 98.79296875 65.12271118164062 121.4851303100586 33.80227279663086" stroke-width="3.0" fill="none" stroke="rgb(-4, 1, 2)" stroke-opacity="0.048133716" stroke-linecap="round" stroke-linejoin="round"/>
    <path d="M -5.899563312530518 85.1100845336914 C 75.38633728027344 88.62218475341797 72.14335632324219 77.96659088134766 -2.078336000442505 93.84502410888672" stroke-width="3.0" fill="none" stroke="rgb(0, 2, -2)" stroke-opacity="0.06673069" stroke-linecap="round" stroke-linejoin="round"/>
    <path d="M 127.95623779296875 102.51872253417969 C 88.78433227539062 129.5302734375 148.3907928466797 147.32290649414062 113.07262420654297 126.6498794555664" stroke-width="3.0" fill="none" stroke="rgb(-4, 3, 4)" stroke-opacity="0.31193507" stroke-linecap="round" stroke-linejoin="round"/>
    <path d="M 130.79962158203125 112.75251770019531 C 159.62335205078125 152.52008056640625 70.11189270019531 134.1501922607422 151.3853302001953 124.02467346191406" stroke-width="3.0" fill="none" stroke="rgb(-1, 1, 0)" stroke-opacity="0.15789902" stroke-linecap="round" stroke-linejoin="round"/>
    <path d="M 91.74392700195312 126.85789489746094 C 116.25555419921875 82.6744613647461 85.68428802490234 35.831382751464844 78.82398223876953 87.55806732177734" stroke-width="3.0" fill="none" stroke="rgb(0, 1, 0)" stroke-opacity="0.06590979" stroke-linecap="round" stroke-linejoin="round"/>
    <path d="M 95.46768188476562 17.73451042175293 C 136.6584014892578 59.896968841552734 81.47274780273438 -39.76771926879883 116.12428283691406 50.9134635925293" stroke-width="3.0" fill="none" stroke="rgb(2, -2, 0)" stroke-opacity="0.24690387" stroke-linecap="round" stroke-linejoin="round"/>
    <path d="M 127.09934997558594 41.929141998291016 C 151.643798828125 98.9480209350586 138.6104278564453 83.97991180419922 159.15725708007812 84.04313659667969" stroke-width="3.0" fill="none" stroke="rgb(0, 1, -3)" stroke-opacity="0.097230054" stroke-linecap="round" stroke-linejoin="round"/>
    <path d="M 183.44566345214844 174.62112426757812 C 123.38374328613281 257.9002685546875 173.0329132080078 171.75196838378906 179.18936157226562 184.47056579589844" stroke-width="3.0" fill="none" stroke="rgb(-2, 2, 2)" stroke-opacity="0.35706568" stroke-linecap="round" stroke-linejoin="round"/>
    <path d="M 109.84574127197266 224.10736083984375 C 136.229736328125 163.9839630126953 232.21392822265625 140.9199676513672 121.22457885742188 200.60806274414062" stroke-width="3.0" fill="none" stroke="rgb(-4, 3, 3)" stroke-opacity="0.42087972" stroke-linecap="round" stroke-linejoin="round"/>
    <path d="M 34.39190673828125 35.81495666503906 C 39.0617561340332 120.81649780273438 26.652238845825195 64.90765380859375 75.32171630859375 76.61536407470703" stroke-width="3.0" fill="none" stroke="rgb(0, 0, 1)" stroke-opacity="0.047097024" stroke-linecap="round" stroke-linejoin="round"/>
    <path d="M 128.67672729492188 111.49747467041016 C 134.2266845703125 138.55923461914062 122.29670715332031 114.42121124267578 137.50830078125 103.42035675048828" stroke-width="3.0" fill="none" stroke="rgb(-3, 2, 3)" stroke-opacity="0.44125584" stroke-linecap="round" stroke-linejoin="round"/>
    <path d="M 233.39418029785156 66.9576644897461 C 234.5277099609375 67.88532257080078 236.7375946044922 71.2706527709961 231.7531280517578 75.38331604003906" stroke-width="3.0" fill="none" stroke="rgb(0, 0, 0)" stroke-opacity="0.8840642" stroke-linecap="round" stroke-linejoin="round"/>
    <path d="M 87.0604476928711 108.36813354492188 C 124.09844970703125 124.4458999633789 -2.9902570247650146 129.89779663085938 109.7554931640625 152.65956115722656" stroke-width="3.0" fill="none" stroke="rgb(0, 1, -1)" stroke-opacity="0.055230092" stroke-linecap="round" stroke-linejoin="round"/>
    <path d="M 231.54270935058594 120.87236785888672 C 230.2032928466797 133.68316650390625 227.43946838378906 133.64340209960938 232.53761291503906 125.28071594238281" stroke-width="3.0" fill="none" stroke="rgb(0, 0, 0)" stroke-opacity="0.8826735" stroke-linecap="round" stroke-linejoin="round"/>
    <path d="M 136.92391967773438 79.74320220947266 C 47.4493522644043 85.50148010253906 153.8440399169922 110.8170166015625 139.00289916992188 29.928604125976562" stroke-width="3.0" fill="none" stroke="rgb(4, -2, 0)" stroke-opacity="0.120892376" stroke-linecap="round" stroke-linejoin="round"/>
  </g>
</svg>
