<?xml version="1.0" ?>
<svg xmlns="http://www.w3.org/2000/svg" version="1.1" width="224" height="224">
  <defs/>
  <g>
    <path d="M 201.5223388671875 133.80645751953125 C 167.46942138671875 112.49072265625 132.1708526611328 106.21975708007812 150.39515686035156 109.72311401367188" stroke-width="3.0" fill="none" stroke="rgb(-2, 2, 2)" stroke-opacity="0.27184394" stroke-linecap="round" stroke-linejoin="round"/>
    <path d="M 145.45680236816406 140.646728515625 C 171.3560028076172 149.76853942871094 173.28411865234375 147.40631103515625 182.99124145507812 175.98489379882812" stroke-width="3.0" fill="none" stroke="rgb(-2, 2, -2)" stroke-opacity="0.13519448" stroke-linecap="round" stroke-linejoin="round"/>
    <path d="M 77.82240295410156 96.11182403564453 C 52.0025749206543 97.22787475585938 36.20594787597656 161.3390350341797 41.170310974121094 85.26526641845703" stroke-width="3.0" fill="none" stroke="rgb(0, 0, 2)" stroke-opacity="0.5124904" stroke-linecap="round" stroke-linejoin="round"/>
    <path d="M 56.67495346069336 75.82117462158203 C 89.89983367919922 56.27204132080078 37.06354522705078 80.16007232666016 74.49417877197266 67.65335845947266" stroke-width="3.0" fill="none" stroke="rgb(0, 0, 0)" stroke-opacity="0.17842174" stroke-linecap="round" stroke-linejoin="round"/>
    <path d="M 109.02581024169922 108.36481475830078 C 71.10840606689453 69.35188293457031 20.042823791503906 111.3552017211914 67.77922058105469 85.61896514892578" stroke-width="3.0" fill="none" stroke="rgb(2, -2, 0)" stroke-opacity="0.093473405" stroke-linecap="round" stroke-linejoin="round"/>
    <path d="M 37.78875732421875 0.1056235134601593 C 13.859865188598633 415.7617492675781 43.013336181640625 424.8404235839844 27.707155227661133 -5.602408409118652" stroke-width="3.0" fill="none" stroke="rgb(-1, 0, 1)" stroke-opacity="0.03520346" stroke-linecap="round" stroke-linejoin="round"/>
    <path d="M 216.0862579345703 -3.1488661766052246 C 117.42620849609375 9.935608863830566 -60.623756408691406 26.54612159729004 226.74497985839844 27.056724548339844" stroke-width="3.0" fill="none" stroke="rgb(0, 0, 4)" stroke-opacity="0.04864176" stroke-linecap="round" stroke-linejoin="round"/>
    <path d="M 220.83192443847656 230.75938415527344 C 222.61705017089844 228.34661865234375 220.32032775878906 234.54913330078125 219.05685424804688 231.55810546875" stroke-width="3.0" fill="none" stroke="rgb(0, 0, 0)" stroke-opacity="0.78179187" stroke-linecap="round" stroke-linejoin="round"/>
    <path d="M 81.78260040283203 57.92010498046875 C 59.19917297363281 87.7682113647461 90.33534240722656 72.49311065673828 82.8956527709961 77.46864318847656" stroke-width="3.0" fill="none" stroke="rgb(-1, 1, 1)" stroke-opacity="0.20255706" stroke-linecap="round" stroke-linejoin="round"/>
    <path d="M 109.17899322509766 17.451786041259766 C 188.7762451171875 153.0126953125 186.36727905273438 145.24819946289062 125.21443176269531 52.88740158081055" stroke-width="3.0" fill="none" stroke="rgb(0, 0, 2)" stroke-opacity="0.0121430345" stroke-linecap="round" stroke-linejoin="round"/>
    <path d="M 51.32175827026367 75.06417083740234 C 47.097267150878906 67.19010162353516 34.23502731323242 54.9532470703125 48.83794021606445 77.2364273071289" stroke-width="3.0" fill="none" stroke="rgb(-2, 1, 1)" stroke-opacity="0.9212139" stroke-linecap="round" stroke-linejoin="round"/>
    <path d="M 202.29335021972656 136.14857482910156 C 212.68386840820312 166.23304748535156 182.7764892578125 155.7943115234375 239.2926788330078 154.15049743652344" stroke-width="3.0" fill="none" stroke="rgb(-2, 2, 2)" stroke-opacity="0.25871867" stroke-linecap="round" stroke-linejoin="round"/>
    <path d="M 90.11952209472656 61.97303009033203 C 94.395751953125 71.92302703857422 77.81206512451172 93.14045715332031 89.49295806884766 63.55115509033203" stroke-width="3.0" fill="none" stroke="rgb(-2, 0, 3)" stroke-opacity="0.95015967" stroke-linecap="round" stroke-linejoin="round"/>
    <path d="M 100.67072296142578 70.72308349609375 C 94.01590728759766 116.576416015625 110.98690032958984 28.982315063476562 83.15476989746094 59.59921646118164" stroke-width="3.0" fill="none" stroke="rgb(-2, 1, 2)" stroke-opacity="0.21693434" stroke-linecap="round" stroke-linejoin="round"/>
    <path d="M 46.584163665771484 185.60116577148438 C 18.376834869384766 173.42030334472656 132.0318603515625 144.22450256347656 56.15694808959961 185.14199829101562" stroke-width="3.0" fill="none" stroke="rgb(-2, 3, 0)" stroke-opacity="0.45134446" stroke-linecap="round" stroke-linejoin="round"/>
    <path d="M 102.56631469726562 200.03753662109375 C 239.33200073242188 201.27354431152344 113.68620300292969 217.09182739257812 5.08360481262207 186.04335021972656" stroke-width="3.0" fill="none" stroke="rgb(1, -2, 3)" stroke-opacity="0.14549474" stroke-linecap="round" stroke-linejoin="round"/>
    <path d="M 89.70726776123047 153.29013061523438 C 59.56287384033203 193.97479248046875 11.805549621582031 205.8831024169922 69.72045135498047 139.9531707763672" stroke-width="3.0" fill="none" stroke="rgb(-1, 2, -1)" stroke-opacity="0.40771604" stroke-linecap="round" stroke-linejoin="round"/>
    <path d="M 87.90699005126953 115.84439849853516 C 99.73249053955078 146.6935577392578 77.63734436035156 140.33787536621094 100.33992767333984 112.39603424072266" stroke-width="3.0" fill="none" stroke="rgb(-1, -2, 2)" stroke-opacity="0.23712516" stroke-linecap="round" stroke-linejoin="round"/>
    <path d="M 143.12049865722656 107.8755874633789 C 120.4974594116211 97.61465454101562 104.00167846679688 104.26968383789062 99.3926010131836 80.25265502929688" stroke-width="3.0" fill="none" stroke="rgb(-3, 1, 4)" stroke-opacity="0.21064252" stroke-linecap="round" stroke-linejoin="round"/>
    <path d="M 54.681766510009766 0.08445298671722412 C 38.3691291809082 78.85454559326172 35.72323226928711 67.22349548339844 51.45856857299805 0.9738414883613586" stroke-width="3.0" fill="none" stroke="rgb(0, 0, 0)" stroke-opacity="0.0076868725" stroke-linecap="round" stroke-linejoin="round"/>
    <path d="M 134.8768768310547 35.27587127685547 C 159.9369659423828 79.7184829711914 152.76617431640625 103.70894622802734 150.60293579101562 14.808612823486328" stroke-width="3.0" fill="none" stroke="rgb(-1, 0, 2)" stroke-opacity="0.018935855" stroke-linecap="round" stroke-linejoin="round"/>
    <path d="M 256.1515197753906 174.63006591796875 C 175.1481170654297 181.2546844482422 159.6435546875 178.14682006835938 147.5476531982422 178.06008911132812" stroke-width="3.0" fill="none" stroke="rgb(-2, 2, 0)" stroke-opacity="0.38116026" stroke-linecap="round" stroke-linejoin="round"/>
    <path d="M 87.4927749633789 81.22517395019531 C 120.2387466430664 121.25208282470703 70.70254516601562 74.26835632324219 51.18667221069336 112.74656677246094" stroke-width="3.0" fill="none" stroke="rgb(3, -2, -2)" stroke-opacity="0.27080837" stroke-linecap="round" stroke-linejoin="round"/>
    <path d="M 232.52716064453125 10.668869018554688 C 26.54059600830078 -1.9594659805297852 6.111879825592041 45.92556381225586 230.14102172851562 22.13362693786621" stroke-width="3.0" fill="none" stroke="rgb(-2, -1, 2)" stroke-opacity="0.07804751" stroke-linecap="round" stroke-linejoin="round"/>
    <path d="M 229.85122680664062 199.2805938720703 C 44.60641098022461 215.60992431640625 77.75834655761719 206.4131622314453 240.0216064453125 193.8074951171875" stroke-width="3.0" fill="none" stroke="rgb(3, -2, 0)" stroke-opacity="0.14081295" stroke-linecap="round" stroke-linejoin="round"/>
    <path d="M 64.75867462158203 68.32469177246094 C 33.50347137451172 47.051177978515625 23.753673553466797 43.878787994384766 48.159934997558594 101.7951431274414" stroke-width="3.0" fill="none" stroke="rgb(0, 2, -2)" stroke-opacity="0.4091793" stroke-linecap="round" stroke-linejoin="round"/>
    <path d="M 53.78850173950195 181.77261352539062 C 101.44632720947266 156.5367889404297 40.225318908691406 124.25167846679688 98.29254150390625 160.26011657714844" stroke-width="3.0" fill="none" stroke="rgb(1, 2, -2)" stroke-opacity="0.41146505" stroke-linecap="round" stroke-linejoin="round"/>
    <path d="M 101.984375 116.94081115722656 C 81.72541046142578 83.11009216308594 112.84622192382812 97.22298431396484 103.4542007446289 84.06183624267578" stroke-width="3.0" fill="none" stroke="rgb(-1, 0, 2)" stroke-opacity="0.071457505" stroke-linecap="round" stroke-linejoin="round"/>
    <path d="M 67.02469635009766 83.10227966308594 C 96.29530334472656 93.98949432373047 137.23915100097656 117.98938751220703 112.52516174316406 37.92878723144531" stroke-width="3.0" fill="none" stroke="rgb(0, 0, 0)" stroke-opacity="0.017223047" stroke-linecap="round" stroke-linejoin="round"/>
    <path d="M 73.41001892089844 97.34367370605469 C 16.69765853881836 91.76321411132812 129.8551788330078 93.71277618408203 57.49408721923828 98.75967407226562" stroke-width="3.0" fill="none" stroke="rgb(1, -3, 3)" stroke-opacity="0.24670763" stroke-linecap="round" stroke-linejoin="round"/>
    <path d="M 146.41590881347656 175.83975219726562 C 158.38316345214844 159.55386352539062 123.90350341796875 134.89505004882812 175.78778076171875 125.25434112548828" stroke-width="3.0" fill="none" stroke="rgb(-2, 2, 2)" stroke-opacity="0.17308289" stroke-linecap="round" stroke-linejoin="round"/>
    <path d="M 131.6824493408203 175.36671447753906 C 104.72748565673828 150.41432189941406 171.20272827148438 164.44573974609375 144.97003173828125 157.59315490722656" stroke-width="3.0" fill="none" stroke="rgb(2, -1, -1)" stroke-opacity="0.40664038" stroke-linecap="round" stroke-linejoin="round"/>
  </g>
</svg>
