<?xml version="1.0" ?>
<svg xmlns="http://www.w3.org/2000/svg" version="1.1" width="224" height="224">
  <defs/>
  <g>
    <path d="M 9.343743324279785 196.37289428710938 C 65.867919921875 205.56983947753906 16.50379180908203 199.22048950195312 85.04153442382812 209.71961975097656" stroke-width="15.03927993774414" fill="none" stroke="rgb(170, 196, 228)" stroke-opacity="1.0066408" stroke-linecap="round" stroke-linejoin="round"/>
    <path d="M -2.7538936138153076 121.34874725341797 C 30.973655700683594 131.9689178466797 39.48652267456055 126.37036895751953 0.42087945342063904 133.21141052246094" stroke-width="12.149264335632324" fill="none" stroke="rgb(65, 103, 148)" stroke-opacity="0.62441707" stroke-linecap="round" stroke-linejoin="round"/>
    <path d="M 87.39363098144531 104.16414642333984 C 98.94438934326172 81.03730010986328 108.93241119384766 76.97819519042969 111.4713134765625 64.63296508789062" stroke-width="6.405593395233154" fill="none" stroke="rgb(71, 7, 0)" stroke-opacity="1.000781" stroke-linecap="round" stroke-linejoin="round"/>
    <path d="M 125.36125946044922 65.1375732421875 C 143.5688934326172 51.104339599609375 141.9942169189453 50.11328125 168.3065643310547 35.672237396240234" stroke-width="12.696794509887695" fill="none" stroke="rgb(58, 35, 43)" stroke-opacity="0.85347766" stroke-linecap="round" stroke-linejoin="round"/>
    <path d="M 158.7647705078125 122.21885681152344 C 159.4591522216797 136.0905303955078 179.09808349609375 119.57323455810547 121.9997329711914 123.85140991210938" stroke-width="10.745086669921875" fill="none" stroke="rgb(4, 55, 108)" stroke-opacity="0.46367964" stroke-linecap="round" stroke-linejoin="round"/>
    <path d="M 95.62271118164062 140.1199188232422 C 74.82341766357422 188.5714569091797 130.24659729003906 178.6007537841797 96.49252319335938 145.94915771484375" stroke-width="8.033520698547363" fill="none" stroke="rgb(-3, 50, 71)" stroke-opacity="1.0136195" stroke-linecap="round" stroke-linejoin="round"/>
    <path d="M 17.555133819580078 135.03306579589844 C 77.5206069946289 132.08116149902344 -10.021028518676758 133.36834716796875 86.27378845214844 138.70962524414062" stroke-width="5.73316764831543" fill="none" stroke="rgb(45, 80, 128)" stroke-opacity="0.54585326" stroke-linecap="round" stroke-linejoin="round"/>
    <path d="M 90.22563934326172 136.88217163085938 C 70.86030578613281 158.62081909179688 82.94070434570312 150.6776885986328 98.25273132324219 145.54727172851562" stroke-width="12.817859649658203" fill="none" stroke="rgb(14, 9, 10)" stroke-opacity="1.0090879" stroke-linecap="round" stroke-linejoin="round"/>
    <path d="M 57.8634033203125 166.00213623046875 C -19.79612159729004 145.1503143310547 21.742847442626953 157.1034393310547 0.7865247130393982 153.9215850830078" stroke-width="3.635873317718506" fill="none" stroke="rgb(81, 120, 35)" stroke-opacity="0.33395934" stroke-linecap="round" stroke-linejoin="round"/>
    <path d="M -1.1282484531402588 169.34799194335938 C -0.7385776042938232 169.25189208984375 -1.3246850967407227 169.76593017578125 -1.531325340270996 168.1360626220703" stroke-width="2.0000431537628174" fill="none" stroke="rgb(116, 152, 200)" stroke-opacity="0.2559599" stroke-linecap="round" stroke-linejoin="round"/>
    <path d="M 228.66477966308594 59.10807800292969 C 226.87510681152344 62.78889083862305 217.6150665283203 62.05263900756836 226.4291229248047 61.82728576660156" stroke-width="1.9037812948226929" fill="none" stroke="rgb(146, 76, 12)" stroke-opacity="0.664112" stroke-linecap="round" stroke-linejoin="round"/>
    <path d="M 113.51638793945312 154.8009490966797 C 101.63420867919922 140.09230041503906 120.54911804199219 123.23836517333984 112.82405090332031 165.3697509765625" stroke-width="3.995147705078125" fill="none" stroke="rgb(100, 69, 48)" stroke-opacity="0.9693867" stroke-linecap="round" stroke-linejoin="round"/>
    <path d="M 28.492794036865234 225.661376953125 C 27.131362915039062 225.28790283203125 23.370019912719727 228.771484375 17.63640594482422 226.47720336914062" stroke-width="2.0" fill="none" stroke="rgb(32, 28, 21)" stroke-opacity="0.87959176" stroke-linecap="round" stroke-linejoin="round"/>
    <path d="M 96.13883209228516 192.58203125 C 96.70413970947266 221.7518310546875 82.75801086425781 203.13526916503906 90.9119873046875 182.22157287597656" stroke-width="7.851397514343262" fill="none" stroke="rgb(48, 20, 0)" stroke-opacity="0.74454576" stroke-linecap="round" stroke-linejoin="round"/>
    <path d="M 71.65137481689453 87.0472183227539 C 93.06306457519531 99.78167724609375 34.229209899902344 104.83892822265625 62.75154495239258 79.31193542480469" stroke-width="11.120193481445312" fill="none" stroke="rgb(1, 114, 21)" stroke-opacity="0.44226772" stroke-linecap="round" stroke-linejoin="round"/>
    <path d="M 121.14285278320312 73.62287139892578 C 107.1509017944336 96.23062133789062 99.27652740478516 105.71415710449219 104.3355712890625 83.10027313232422" stroke-width="6.564815044403076" fill="none" stroke="rgb(57, 24, 22)" stroke-opacity="0.9993241" stroke-linecap="round" stroke-linejoin="round"/>
    <path d="M 50.952327728271484 7.919306755065918 C -3.2957942485809326 15.297150611877441 -24.637554168701172 6.1340813636779785 31.93391227722168 3.162778377532959" stroke-width="6.0830159187316895" fill="none" stroke="rgb(75, 88, 46)" stroke-opacity="0.9771016" stroke-linecap="round" stroke-linejoin="round"/>
    <path d="M 104.14888763427734 106.21334838867188 C 96.94430541992188 132.11764526367188 108.0035171508789 119.669189453125 122.5398178100586 95.10773468017578" stroke-width="7.7976179122924805" fill="none" stroke="rgb(-2, -2, 0)" stroke-opacity="1.0090462" stroke-linecap="round" stroke-linejoin="round"/>
    <path d="M 220.60643005371094 31.35972785949707 C 209.9366912841797 56.42422866821289 210.88380432128906 14.251364707946777 196.86087036132812 43.142578125" stroke-width="23.211280822753906" fill="none" stroke="rgb(42, 84, 127)" stroke-opacity="0.587762" stroke-linecap="round" stroke-linejoin="round"/>
    <path d="M 199.4884796142578 88.85865020751953 C 223.0879669189453 123.20374298095703 186.07058715820312 74.38627624511719 184.21658325195312 133.03887939453125" stroke-width="4.80861759185791" fill="none" stroke="rgb(232, 68, -3)" stroke-opacity="1.0097691" stroke-linecap="round" stroke-linejoin="round"/>
    <path d="M 142.31781005859375 87.67982482910156 C 117.80374908447266 106.50318908691406 116.61185455322266 124.57464599609375 119.59395599365234 115.0160903930664" stroke-width="4.143481254577637" fill="none" stroke="rgb(114, 41, 2)" stroke-opacity="0.9891783" stroke-linecap="round" stroke-linejoin="round"/>
    <path d="M 167.73944091796875 53.64008712768555 C 173.2451629638672 87.93101501464844 150.25770568847656 106.10801696777344 160.20790100097656 60.12849044799805" stroke-width="4.877179145812988" fill="none" stroke="rgb(-2, -2, 41)" stroke-opacity="1.0119809" stroke-linecap="round" stroke-linejoin="round"/>
    <path d="M 54.39058303833008 66.55254364013672 C 25.393163681030273 85.63580322265625 2.673835039138794 88.38433837890625 45.55727767944336 88.39043426513672" stroke-width="6.164418697357178" fill="none" stroke="rgb(54, 62, 133)" stroke-opacity="0.44599605" stroke-linecap="round" stroke-linejoin="round"/>
    <path d="M 12.157733917236328 203.03648376464844 C -68.60926055908203 169.1914520263672 -23.58637046813965 184.4154815673828 66.27006530761719 176.37379455566406" stroke-width="12.807584762573242" fill="none" stroke="rgb(160, 166, 153)" stroke-opacity="0.7000634" stroke-linecap="round" stroke-linejoin="round"/>
    <path d="M 64.83663177490234 -6.0408735275268555 C 82.66748046875 12.99921703338623 64.12379455566406 -0.8816418647766113 -2.4542675018310547 1.0397189855575562" stroke-width="15.447917938232422" fill="none" stroke="rgb(-1, 16, 17)" stroke-opacity="0.9159168" stroke-linecap="round" stroke-linejoin="round"/>
    <path d="M 152.8048858642578 46.76694107055664 C 148.82054138183594 52.118186950683594 170.97972106933594 39.38466262817383 183.67845153808594 37.1708984375" stroke-width="1.9944994449615479" fill="none" stroke="rgb(46, 20, 16)" stroke-opacity="1.0027298" stroke-linecap="round" stroke-linejoin="round"/>
    <path d="M 159.36863708496094 65.8670425415039 C 143.514404296875 84.24413299560547 164.6123504638672 90.56556701660156 143.39834594726562 80.52479553222656" stroke-width="6.327907562255859" fill="none" stroke="rgb(-1, 8, 43)" stroke-opacity="1.0083556" stroke-linecap="round" stroke-linejoin="round"/>
    <path d="M 223.90110778808594 127.05377197265625 C 212.17034912109375 141.60031127929688 199.99513244628906 84.62091064453125 198.43899536132812 141.57432556152344" stroke-width="49.01713180541992" fill="none" stroke="rgb(-1, 57, 108)" stroke-opacity="0.43855903" stroke-linecap="round" stroke-linejoin="round"/>
    <path d="M 187.53041076660156 94.89506530761719 C 235.8253173828125 85.80033111572266 247.14161682128906 83.15104675292969 195.71006774902344 78.05259704589844" stroke-width="27.10978126525879" fill="none" stroke="rgb(61, 11, -2)" stroke-opacity="0.94305" stroke-linecap="round" stroke-linejoin="round"/>
    <path d="M 173.41233825683594 20.39760398864746 C 145.62254333496094 17.481239318847656 147.65843200683594 26.033084869384766 127.1750717163086 6.091251850128174" stroke-width="17.38490104675293" fill="none" stroke="rgb(84, 114, 145)" stroke-opacity="0.75486547" stroke-linecap="round" stroke-linejoin="round"/>
    <path d="M 178.74794006347656 160.03604125976562 C 181.81692504882812 100.43508911132812 181.47462463378906 156.47166442871094 182.65745544433594 107.70861053466797" stroke-width="11.171669960021973" fill="none" stroke="rgb(127, 46, 13)" stroke-opacity="0.8534045" stroke-linecap="round" stroke-linejoin="round"/>
    <path d="M 185.5923309326172 176.17401123046875 C 186.60147094726562 179.94546508789062 165.10345458984375 176.38119506835938 227.15809631347656 172.53549194335938" stroke-width="41.1553840637207" fill="none" stroke="rgb(87, 78, 25)" stroke-opacity="0.7330463" stroke-linecap="round" stroke-linejoin="round"/>
    <path d="M 73.23645782470703 10.302051544189453 C 53.29549026489258 34.423622131347656 91.8461685180664 9.421782493591309 23.281496047973633 20.9591007232666" stroke-width="16.454357147216797" fill="none" stroke="rgb(76, 101, 116)" stroke-opacity="0.7933956" stroke-linecap="round" stroke-linejoin="round"/>
    <path d="M 104.59500885009766 71.33162689208984 C 74.30531311035156 83.17816925048828 46.10372543334961 64.93998718261719 57.83627700805664 72.91316986083984" stroke-width="21.36528778076172" fill="none" stroke="rgb(0, 47, 84)" stroke-opacity="0.45989832" stroke-linecap="round" stroke-linejoin="round"/>
    <path d="M 116.86373901367188 68.009033203125 C 121.69084167480469 75.7147445678711 120.98394012451172 69.0328369140625 105.14425659179688 88.66166687011719" stroke-width="4.698614597320557" fill="none" stroke="rgb(44, 26, 28)" stroke-opacity="0.9990984" stroke-linecap="round" stroke-linejoin="round"/>
    <path d="M 126.10655212402344 81.90601348876953 C 126.33565521240234 105.72665405273438 123.98833465576172 78.32023620605469 113.96794128417969 104.35657501220703" stroke-width="5.550588130950928" fill="none" stroke="rgb(81, 28, 17)" stroke-opacity="0.73726755" stroke-linecap="round" stroke-linejoin="round"/>
    <path d="M 110.79910278320312 104.78460693359375 C 128.6056365966797 89.5676040649414 128.98443603515625 72.17554473876953 132.62139892578125 76.59544372558594" stroke-width="17.649072647094727" fill="none" stroke="rgb(106, 31, 0)" stroke-opacity="0.886168" stroke-linecap="round" stroke-linejoin="round"/>
    <path d="M 63.86293411254883 95.66605377197266 C 97.86414337158203 84.42272186279297 112.09793853759766 93.22476196289062 74.692626953125 80.46929931640625" stroke-width="16.451805114746094" fill="none" stroke="rgb(132, 156, 187)" stroke-opacity="0.88627154" stroke-linecap="round" stroke-linejoin="round"/>
    <path d="M 140.11216735839844 110.8911361694336 C 111.57350158691406 114.67296600341797 85.94930267333984 136.52366638183594 156.05592346191406 131.75877380371094" stroke-width="9.161341667175293" fill="none" stroke="rgb(97, 130, 163)" stroke-opacity="0.7000084" stroke-linecap="round" stroke-linejoin="round"/>
    <path d="M 181.17919921875 54.64242935180664 C 162.86573791503906 83.98054504394531 179.90957641601562 91.68029022216797 174.56875610351562 56.72429275512695" stroke-width="2.5262441635131836" fill="none" stroke="rgb(172, 92, 11)" stroke-opacity="0.7353131" stroke-linecap="round" stroke-linejoin="round"/>
    <path d="M 172.4722900390625 158.64918518066406 C 77.82530212402344 175.69021606445312 82.03195190429688 134.62518310546875 128.64866638183594 139.25149536132812" stroke-width="7.9472551345825195" fill="none" stroke="rgb(114, 136, 162)" stroke-opacity="0.6150696" stroke-linecap="round" stroke-linejoin="round"/>
    <path d="M 96.2789535522461 85.59090423583984 C 68.28547668457031 107.72867584228516 76.2918701171875 83.08454132080078 100.77716827392578 83.11468505859375" stroke-width="2.5174949169158936" fill="none" stroke="rgb(0, 1, 4)" stroke-opacity="0.57693374" stroke-linecap="round" stroke-linejoin="round"/>
    <path d="M 167.4568328857422 102.58317565917969 C 148.67054748535156 102.01716613769531 164.13426208496094 94.80848693847656 152.51239013671875 83.74874877929688" stroke-width="11.554931640625" fill="none" stroke="rgb(26, 15, 14)" stroke-opacity="1.0002912" stroke-linecap="round" stroke-linejoin="round"/>
    <path d="M 145.43409729003906 65.2100601196289 C 164.54795837402344 76.30677795410156 152.41346740722656 59.386695861816406 170.6942901611328 48.047760009765625" stroke-width="7.90044641494751" fill="none" stroke="rgb(155, 31, 0)" stroke-opacity="0.49291673" stroke-linecap="round" stroke-linejoin="round"/>
    <path d="M 14.464704513549805 19.502120971679688 C 77.95220947265625 17.029541015625 80.96610260009766 45.8347282409668 42.774356842041016 81.69851684570312" stroke-width="15.712569236755371" fill="none" stroke="rgb(123, 151, 182)" stroke-opacity="0.6609399" stroke-linecap="round" stroke-linejoin="round"/>
    <path d="M 132.6725311279297 91.4565658569336 C 138.8780975341797 88.0443344116211 162.33499145507812 97.15982818603516 153.87046813964844 96.4712142944336" stroke-width="9.526597023010254" fill="none" stroke="rgb(35, 2, -2)" stroke-opacity="0.955137" stroke-linecap="round" stroke-linejoin="round"/>
    <path d="M 40.37759780883789 51.33329772949219 C 33.32317352294922 56.65888977050781 -25.15776252746582 79.6891098022461 6.4782795906066895 34.20343017578125" stroke-width="46.24139404296875" fill="none" stroke="rgb(73, 112, 149)" stroke-opacity="0.68907624" stroke-linecap="round" stroke-linejoin="round"/>
    <path d="M 179.42344665527344 6.550175666809082 C 106.97138977050781 5.273288249969482 68.03817749023438 2.87030029296875 143.83738708496094 0.7649170160293579" stroke-width="10.34532642364502" fill="none" stroke="rgb(15, 39, -2)" stroke-opacity="0.56334513" stroke-linecap="round" stroke-linejoin="round"/>
    <path d="M 3.2772278785705566 155.81149291992188 C 59.75897979736328 148.47879028320312 90.0494384765625 152.9844512939453 76.53620910644531 162.8102569580078" stroke-width="12.36413860321045" fill="none" stroke="rgb(98, 131, 168)" stroke-opacity="0.65702695" stroke-linecap="round" stroke-linejoin="round"/>
    <path d="M 142.9570770263672 43.03082275390625 C 92.1902084350586 63.18072509765625 20.477890014648438 39.346858978271484 135.5543670654297 31.25734519958496" stroke-width="8.129816055297852" fill="none" stroke="rgb(102, 133, 161)" stroke-opacity="0.8202783" stroke-linecap="round" stroke-linejoin="round"/>
    <path d="M 116.40460205078125 202.74807739257812 C 123.3075180053711 216.1188201904297 172.50779724121094 220.35708618164062 108.33485412597656 210.02818298339844" stroke-width="9.64215087890625" fill="none" stroke="rgb(135, 99, 63)" stroke-opacity="0.9302455" stroke-linecap="round" stroke-linejoin="round"/>
    <path d="M 101.63352966308594 131.20265197753906 C 109.7998046875 158.56082153320312 110.5971908569336 147.9920196533203 97.70455932617188 178.7418975830078" stroke-width="17.514087677001953" fill="none" stroke="rgb(128, 37, 1)" stroke-opacity="0.77911294" stroke-linecap="round" stroke-linejoin="round"/>
    <path d="M 222.65701293945312 64.41272735595703 C 255.4419403076172 31.189682006835938 234.988037109375 54.58584976196289 200.4861297607422 58.39122772216797" stroke-width="22.117977142333984" fill="none" stroke="rgb(108, 31, 0)" stroke-opacity="0.9502745" stroke-linecap="round" stroke-linejoin="round"/>
    <path d="M 108.53340911865234 72.6625747680664 C 118.85859680175781 55.00224685668945 98.61154174804688 73.76604461669922 141.70570373535156 48.09532928466797" stroke-width="5.236451148986816" fill="none" stroke="rgb(0, 12, 13)" stroke-opacity="0.6986848" stroke-linecap="round" stroke-linejoin="round"/>
    <path d="M 108.3112564086914 112.43012237548828 C 108.81023406982422 140.0543670654297 114.49392700195312 107.84734344482422 115.85113525390625 111.27962493896484" stroke-width="12.322196006774902" fill="none" stroke="rgb(116, 31, -2)" stroke-opacity="0.8431787" stroke-linecap="round" stroke-linejoin="round"/>
    <path d="M 61.52703094482422 115.06919860839844 C -12.552595138549805 107.58067321777344 35.53858947753906 134.49070739746094 81.36933898925781 132.25390625" stroke-width="9.071261405944824" fill="none" stroke="rgb(108, 137, 169)" stroke-opacity="0.7924601" stroke-linecap="round" stroke-linejoin="round"/>
    <path d="M 140.5138702392578 82.14512634277344 C 128.83502197265625 55.21769332885742 157.80142211914062 70.49332427978516 126.52174377441406 83.81349182128906" stroke-width="3.780517578125" fill="none" stroke="rgb(57, 17, -2)" stroke-opacity="0.5771476" stroke-linecap="round" stroke-linejoin="round"/>
    <path d="M 105.73068237304688 51.105751037597656 C 71.55157470703125 59.06291198730469 92.9735107421875 40.19599533081055 17.398588180541992 35.73757553100586" stroke-width="45.20915985107422" fill="none" stroke="rgb(129, 155, 181)" stroke-opacity="0.9654417" stroke-linecap="round" stroke-linejoin="round"/>
    <path d="M 74.03404235839844 4.477025985717773 C 40.345863342285156 8.473722457885742 105.96726989746094 -19.125356674194336 92.01129913330078 9.626220703125" stroke-width="9.958943367004395" fill="none" stroke="rgb(-2, 13, 25)" stroke-opacity="1.0067351" stroke-linecap="round" stroke-linejoin="round"/>
    <path d="M 87.44035339355469 22.4332332611084 C 144.73487854003906 28.208961486816406 125.26882934570312 30.822551727294922 148.3319091796875 31.420324325561523" stroke-width="29.71436309814453" fill="none" stroke="rgb(129, 153, 180)" stroke-opacity="0.9726838" stroke-linecap="round" stroke-linejoin="round"/>
    <path d="M 203.76992797851562 62.09238815307617 C 184.652099609375 36.15274429321289 170.36428833007812 57.359405517578125 191.89573669433594 70.99543762207031" stroke-width="9.332361221313477" fill="none" stroke="rgb(151, 77, 38)" stroke-opacity="0.58021057" stroke-linecap="round" stroke-linejoin="round"/>
    <path d="M 46.17628860473633 138.29063415527344 C -8.236038208007812 138.20338439941406 0.8476304411888123 138.1309356689453 -23.722965240478516 142.42408752441406" stroke-width="14.00228500366211" fill="none" stroke="rgb(125, 150, 176)" stroke-opacity="0.798782" stroke-linecap="round" stroke-linejoin="round"/>
    <path d="M 94.6758804321289 92.18950653076172 C 100.55709075927734 85.63034057617188 98.0959701538086 81.14691925048828 114.34742736816406 70.62952423095703" stroke-width="4.200195789337158" fill="none" stroke="rgb(3, 5, 9)" stroke-opacity="1.0020078" stroke-linecap="round" stroke-linejoin="round"/>
    <path d="M 175.12063598632812 134.17051696777344 C 118.52935791015625 135.75375366210938 123.34245300292969 150.69131469726562 179.0974884033203 146.8155059814453" stroke-width="7.276957035064697" fill="none" stroke="rgb(-2, 0, 24)" stroke-opacity="0.2965651" stroke-linecap="round" stroke-linejoin="round"/>
    <path d="M 94.46411895751953 175.09829711914062 C 92.50155639648438 185.888671875 97.7134780883789 185.1685028076172 91.94033813476562 156.7758331298828" stroke-width="17.43292808532715" fill="none" stroke="rgb(51, 15, -3)" stroke-opacity="0.73226625" stroke-linecap="round" stroke-linejoin="round"/>
    <path d="M 119.64080047607422 149.43453979492188 C 137.26461791992188 152.2368927001953 133.1616973876953 144.49185180664062 148.55885314941406 143.73451232910156" stroke-width="4.336979389190674" fill="none" stroke="rgb(0, 21, 123)" stroke-opacity="0.36548483" stroke-linecap="round" stroke-linejoin="round"/>
    <path d="M 114.27227783203125 141.97171020507812 C 110.23112487792969 128.0142822265625 114.00439453125 127.62671661376953 117.30665588378906 118.49872589111328" stroke-width="4.448040008544922" fill="none" stroke="rgb(99, 23, -1)" stroke-opacity="0.7739935" stroke-linecap="round" stroke-linejoin="round"/>
    <path d="M 143.13461303710938 100.67820739746094 C 175.96641540527344 117.194580078125 132.7093505859375 91.48259735107422 129.31959533691406 109.22017669677734" stroke-width="9.739518165588379" fill="none" stroke="rgb(82, 118, 150)" stroke-opacity="0.66284764" stroke-linecap="round" stroke-linejoin="round"/>
    <path d="M 121.80267333984375 65.84269714355469 C 125.74776458740234 57.97372055053711 112.01192474365234 71.9183120727539 119.50289154052734 74.66023254394531" stroke-width="6.675948619842529" fill="none" stroke="rgb(21, 7, 12)" stroke-opacity="0.72553754" stroke-linecap="round" stroke-linejoin="round"/>
    <path d="M 158.3428497314453 92.33381652832031 C 167.0031280517578 114.26251220703125 176.21864318847656 107.07388305664062 171.28839111328125 127.62847900390625" stroke-width="13.91562557220459" fill="none" stroke="rgb(20, 7, 7)" stroke-opacity="1.0144199" stroke-linecap="round" stroke-linejoin="round"/>
    <path d="M 51.05143737792969 146.7764892578125 C 82.55342102050781 125.15581512451172 29.39488410949707 143.8983917236328 76.94194793701172 142.7895050048828" stroke-width="7.188758373260498" fill="none" stroke="rgb(117, 142, 162)" stroke-opacity="0.6387443" stroke-linecap="round" stroke-linejoin="round"/>
    <path d="M 102.59467315673828 104.5019760131836 C 106.5659408569336 90.17452239990234 94.9847640991211 102.50386047363281 104.94711303710938 85.53622436523438" stroke-width="5.316695213317871" fill="none" stroke="rgb(7, 10, 18)" stroke-opacity="1.0087683" stroke-linecap="round" stroke-linejoin="round"/>
    <path d="M 103.06758880615234 186.52255249023438 C 99.77215576171875 229.04966735839844 99.21012115478516 206.1881561279297 99.64559936523438 167.270751953125" stroke-width="3.175626277923584" fill="none" stroke="rgb(6, 2, 33)" stroke-opacity="0.75760084" stroke-linecap="round" stroke-linejoin="round"/>
    <path d="M 143.35250854492188 79.53656768798828 C 125.75948333740234 91.27027893066406 123.7974853515625 79.86165618896484 127.64978790283203 84.92347717285156" stroke-width="20.184385299682617" fill="none" stroke="rgb(96, 28, 0)" stroke-opacity="0.7180018" stroke-linecap="round" stroke-linejoin="round"/>
    <path d="M 162.50772094726562 58.81650161743164 C 159.95730590820312 86.65680694580078 169.69851684570312 118.2366714477539 179.8307342529297 72.36090850830078" stroke-width="9.126116752624512" fill="none" stroke="rgb(119, 27, -3)" stroke-opacity="0.7388862" stroke-linecap="round" stroke-linejoin="round"/>
    <path d="M 92.9950180053711 68.12721252441406 C 113.919677734375 62.24887466430664 110.08953094482422 85.90544128417969 80.25423431396484 81.17957305908203" stroke-width="3.5984764099121094" fill="none" stroke="rgb(123, 144, 167)" stroke-opacity="0.5854663" stroke-linecap="round" stroke-linejoin="round"/>
    <path d="M 12.54362964630127 104.435302734375 C 99.11280822753906 124.37791442871094 5.088505268096924 79.61936950683594 26.865917205810547 106.14170837402344" stroke-width="4.537752628326416" fill="none" stroke="rgb(1, 0, 0)" stroke-opacity="0.3987477" stroke-linecap="round" stroke-linejoin="round"/>
    <path d="M 114.67668914794922 184.41001892089844 C 95.00682067871094 183.6778106689453 115.27940368652344 193.55419921875 128.66905212402344 183.19676208496094" stroke-width="16.66875648498535" fill="none" stroke="rgb(67, 44, -2)" stroke-opacity="0.62599415" stroke-linecap="round" stroke-linejoin="round"/>
    <path d="M 71.419677734375 144.10504150390625 C 73.89561462402344 141.32972717285156 85.98435974121094 148.84788513183594 -0.5152373909950256 144.82211303710938" stroke-width="10.692426681518555" fill="none" stroke="rgb(119, 148, 179)" stroke-opacity="0.74395096" stroke-linecap="round" stroke-linejoin="round"/>
    <path d="M 176.47410583496094 86.76435089111328 C 214.7996826171875 108.76927947998047 171.72598266601562 80.9632797241211 175.89324951171875 85.75198364257812" stroke-width="13.942111015319824" fill="none" stroke="rgb(127, 52, 20)" stroke-opacity="0.91800225" stroke-linecap="round" stroke-linejoin="round"/>
    <path d="M 214.75677490234375 66.9936294555664 C 203.93666076660156 77.70828247070312 197.93162536621094 43.51136779785156 195.65557861328125 77.12035369873047" stroke-width="9.178865432739258" fill="none" stroke="rgb(102, 36, 2)" stroke-opacity="0.5682628" stroke-linecap="round" stroke-linejoin="round"/>
    <path d="M 130.70751953125 221.2838134765625 C 76.91789245605469 219.43299865722656 56.69329071044922 207.4854736328125 140.37966918945312 222.7751922607422" stroke-width="4.227647304534912" fill="none" stroke="rgb(9, 3, 0)" stroke-opacity="0.7580159" stroke-linecap="round" stroke-linejoin="round"/>
    <path d="M 218.37942504882812 58.1874885559082 C 174.69082641601562 39.51483154296875 188.63720703125 51.40243911743164 180.19869995117188 53.37807846069336" stroke-width="4.544426441192627" fill="none" stroke="rgb(137, 47, 5)" stroke-opacity="0.6114134" stroke-linecap="round" stroke-linejoin="round"/>
    <path d="M 171.63648986816406 189.5398406982422 C 70.8676528930664 190.40518188476562 90.79708862304688 217.85069274902344 95.7463607788086 208.4609832763672" stroke-width="15.126725196838379" fill="none" stroke="rgb(71, 49, 30)" stroke-opacity="0.8042005" stroke-linecap="round" stroke-linejoin="round"/>
    <path d="M 169.28770446777344 133.59634399414062 C 164.46572875976562 100.36659240722656 126.51457977294922 126.25106811523438 158.58349609375 111.84724426269531" stroke-width="8.346641540527344" fill="none" stroke="rgb(133, 158, 183)" stroke-opacity="0.9270106" stroke-linecap="round" stroke-linejoin="round"/>
    <path d="M 78.27075958251953 108.31527709960938 C 101.31485748291016 90.18692779541016 89.58678436279297 100.00165557861328 87.16558837890625 126.02262878417969" stroke-width="11.943325996398926" fill="none" stroke="rgb(14, 46, 68)" stroke-opacity="0.7104733" stroke-linecap="round" stroke-linejoin="round"/>
    <path d="M 71.63688659667969 110.51448059082031 C 103.76927947998047 70.53553771972656 110.93475341796875 108.74937438964844 73.30978393554688 114.66071319580078" stroke-width="2.792006492614746" fill="none" stroke="rgb(2, 0, 3)" stroke-opacity="0.69715124" stroke-linecap="round" stroke-linejoin="round"/>
    <path d="M 131.95050048828125 97.86568450927734 C 133.02235412597656 89.56800842285156 153.55282592773438 90.45567321777344 133.7596435546875 96.96551513671875" stroke-width="2.985485792160034" fill="none" stroke="rgb(22, 0, 10)" stroke-opacity="0.7087912" stroke-linecap="round" stroke-linejoin="round"/>
    <path d="M 124.59109497070312 203.54443359375 C 99.30594635009766 219.19253540039062 119.98135375976562 181.30809020996094 101.681396484375 214.29421997070312" stroke-width="9.523757934570312" fill="none" stroke="rgb(85, 94, 34)" stroke-opacity="0.8153788" stroke-linecap="round" stroke-linejoin="round"/>
    <path d="M 82.55621337890625 33.376033782958984 C 66.86650848388672 34.11641311645508 74.2453842163086 30.750259399414062 71.25385284423828 32.70601272583008" stroke-width="1.9919801950454712" fill="none" stroke="rgb(124, 68, 3)" stroke-opacity="0.4585589" stroke-linecap="round" stroke-linejoin="round"/>
    <path d="M 179.63720703125 17.223529815673828 C 221.03871154785156 0.21467185020446777 259.9784240722656 27.434329986572266 186.86219787597656 24.442293167114258" stroke-width="13.172883987426758" fill="none" stroke="rgb(128, 151, 177)" stroke-opacity="0.96613616" stroke-linecap="round" stroke-linejoin="round"/>
    <path d="M 113.74490356445312 91.06367492675781 C 120.52808380126953 74.69913482666016 114.25631713867188 78.53170776367188 136.1918182373047 59.812538146972656" stroke-width="6.942538261413574" fill="none" stroke="rgb(87, 35, 27)" stroke-opacity="0.74507815" stroke-linecap="round" stroke-linejoin="round"/>
    <path d="M 115.701416015625 67.64507293701172 C 106.1119384765625 88.97594451904297 100.10551452636719 89.42216491699219 108.25910949707031 82.96829986572266" stroke-width="3.5143744945526123" fill="none" stroke="rgb(9, 8, 13)" stroke-opacity="0.7444566" stroke-linecap="round" stroke-linejoin="round"/>
    <path d="M 181.58560180664062 59.306976318359375 C 189.9062042236328 75.83432006835938 181.864501953125 59.24232482910156 185.09251403808594 66.00677490234375" stroke-width="7.290098190307617" fill="none" stroke="rgb(108, 41, 8)" stroke-opacity="1.0013264" stroke-linecap="round" stroke-linejoin="round"/>
    <path d="M 177.7509307861328 32.402217864990234 C 203.52947998046875 30.504138946533203 181.2564239501953 26.27614402770996 163.7178192138672 28.590694427490234" stroke-width="21.99144744873047" fill="none" stroke="rgb(129, 153, 181)" stroke-opacity="0.9644168" stroke-linecap="round" stroke-linejoin="round"/>
    <path d="M 89.67249298095703 103.55408477783203 C 71.10589599609375 125.46273040771484 68.45250701904297 110.97270965576172 83.12135314941406 84.27709197998047" stroke-width="5.761101245880127" fill="none" stroke="rgb(128, 152, 180)" stroke-opacity="0.80271685" stroke-linecap="round" stroke-linejoin="round"/>
    <path d="M 163.07826232910156 86.46405792236328 C 181.5242462158203 53.725135803222656 132.101806640625 78.73324584960938 179.77371215820312 106.87384033203125" stroke-width="7.509305953979492" fill="none" stroke="rgb(90, 23, 0)" stroke-opacity="0.61547315" stroke-linecap="round" stroke-linejoin="round"/>
    <path d="M 110.40365600585938 132.18374633789062 C 91.11949920654297 118.04480743408203 103.09131622314453 118.65013122558594 107.94697570800781 124.28466796875" stroke-width="8.533243179321289" fill="none" stroke="rgb(118, 41, 9)" stroke-opacity="0.6239615" stroke-linecap="round" stroke-linejoin="round"/>
    <path d="M 230.95411682128906 209.0089874267578 C 153.23228454589844 207.91122436523438 146.49215698242188 218.79788208007812 141.89462280273438 191.40615844726562" stroke-width="31.61763572692871" fill="none" stroke="rgb(61, 60, 5)" stroke-opacity="0.7735714" stroke-linecap="round" stroke-linejoin="round"/>
    <path d="M 135.93524169921875 50.04618453979492 C 136.9998321533203 48.7142219543457 132.9335174560547 49.782188415527344 155.82469177246094 42.54383850097656" stroke-width="4.022519588470459" fill="none" stroke="rgb(2, -2, 1)" stroke-opacity="0.8087339" stroke-linecap="round" stroke-linejoin="round"/>
    <path d="M 173.09732055664062 80.4010009765625 C 180.88502502441406 66.37857818603516 169.8789520263672 70.7144775390625 176.46034240722656 73.111328125" stroke-width="5.630466461181641" fill="none" stroke="rgb(70, 1, 0)" stroke-opacity="0.58431315" stroke-linecap="round" stroke-linejoin="round"/>
    <path d="M 83.41959381103516 186.48678588867188 C 55.17617416381836 178.1127166748047 97.17166900634766 194.2858428955078 41.115257263183594 178.12310791015625" stroke-width="11.949333190917969" fill="none" stroke="rgb(12, 20, 0)" stroke-opacity="0.44024977" stroke-linecap="round" stroke-linejoin="round"/>
    <path d="M -1.6133588552474976 30.5721435546875 C -6.5477824211120605 31.506990432739258 -9.552675247192383 35.05067443847656 -14.11237907409668 33.70478820800781" stroke-width="2.0" fill="none" stroke="rgb(15, 16, 16)" stroke-opacity="0.93155843" stroke-linecap="round" stroke-linejoin="round"/>
    <path d="M 149.77194213867188 70.88958740234375 C 123.54045104980469 63.15972900390625 137.92694091796875 76.84456634521484 151.29302978515625 53.47529220581055" stroke-width="7.228106498718262" fill="none" stroke="rgb(116, 34, 0)" stroke-opacity="0.4535682" stroke-linecap="round" stroke-linejoin="round"/>
    <path d="M 175.55535888671875 135.8595733642578 C 185.95069885253906 178.1798095703125 168.5658721923828 187.3236541748047 179.16250610351562 179.29391479492188" stroke-width="4.9040117263793945" fill="none" stroke="rgb(45, 21, 14)" stroke-opacity="0.86602193" stroke-linecap="round" stroke-linejoin="round"/>
    <path d="M 145.30665588378906 69.69480895996094 C 146.29039001464844 45.567691802978516 201.4915008544922 68.0246353149414 174.42723083496094 51.20229721069336" stroke-width="23.271665573120117" fill="none" stroke="rgb(107, 33, 7)" stroke-opacity="0.79521775" stroke-linecap="round" stroke-linejoin="round"/>
    <path d="M 65.55535125732422 106.6812515258789 C 5.772049427032471 132.04287719726562 85.9217529296875 111.38655090332031 81.01371765136719 126.86993408203125" stroke-width="15.818782806396484" fill="none" stroke="rgb(126, 152, 179)" stroke-opacity="0.9110857" stroke-linecap="round" stroke-linejoin="round"/>
    <path d="M 32.01046371459961 123.43215942382812 C 1.844873309135437 115.33073425292969 73.34181213378906 104.10792541503906 44.626914978027344 101.14739990234375" stroke-width="17.482749938964844" fill="none" stroke="rgb(131, 157, 182)" stroke-opacity="0.9170354" stroke-linecap="round" stroke-linejoin="round"/>
    <path d="M 181.8551483154297 67.26753997802734 C 182.18643188476562 46.442176818847656 181.81910705566406 49.97834396362305 181.87693786621094 51.22496032714844" stroke-width="4.917842388153076" fill="none" stroke="rgb(48, 0, 0)" stroke-opacity="0.370145" stroke-linecap="round" stroke-linejoin="round"/>
    <path d="M 52.51443862915039 18.224645614624023 C 89.28128814697266 20.19527816772461 78.26724243164062 6.905918121337891 78.2696762084961 55.476627349853516" stroke-width="10.089982032775879" fill="none" stroke="rgb(131, 155, 182)" stroke-opacity="0.8885873" stroke-linecap="round" stroke-linejoin="round"/>
    <path d="M 55.06969451904297 75.6898193359375 C 12.00192928314209 103.42384338378906 -4.5588603019714355 80.0771255493164 7.077822685241699 103.04886627197266" stroke-width="37.21852111816406" fill="none" stroke="rgb(130, 156, 183)" stroke-opacity="0.95174474" stroke-linecap="round" stroke-linejoin="round"/>
    <path d="M 52.66006088256836 41.91655731201172 C 20.23239517211914 47.07638931274414 76.63021087646484 38.5593376159668 1.9158828258514404 43.60762405395508" stroke-width="7.942641258239746" fill="none" stroke="rgb(114, 135, 164)" stroke-opacity="0.12009315" stroke-linecap="round" stroke-linejoin="round"/>
    <path d="M 127.03373718261719 58.207969665527344 C 116.61019134521484 67.02928161621094 111.6142349243164 66.09715270996094 129.1981964111328 55.17488479614258" stroke-width="3.0417134761810303" fill="none" stroke="rgb(2, -1, 2)" stroke-opacity="0.79648846" stroke-linecap="round" stroke-linejoin="round"/>
    <path d="M 219.65838623046875 -1.756261944770813 C 90.1913070678711 -3.3909504413604736 164.91387939453125 1.0509251356124878 79.23191833496094 -0.0032183772418648005" stroke-width="22.8034610748291" fill="none" stroke="rgb(18, 35, -3)" stroke-opacity="0.73579997" stroke-linecap="round" stroke-linejoin="round"/>
    <path d="M 15.148188591003418 214.35577392578125 C 22.923315048217773 205.3171844482422 26.18851661682129 219.7333221435547 116.4251708984375 223.14857482910156" stroke-width="28.705610275268555" fill="none" stroke="rgb(23, 7, 13)" stroke-opacity="0.2640787" stroke-linecap="round" stroke-linejoin="round"/>
    <path d="M 2.9734339714050293 188.09527587890625 C 77.21669006347656 191.12747192382812 7.101664066314697 194.4722442626953 81.23397827148438 196.22271728515625" stroke-width="16.270084381103516" fill="none" stroke="rgb(4, 21, 39)" stroke-opacity="0.44817168" stroke-linecap="round" stroke-linejoin="round"/>
    <path d="M 123.77873992919922 216.10354614257812 C 181.7200469970703 224.4017791748047 125.60173034667969 216.5914306640625 167.26315307617188 218.5695037841797" stroke-width="9.320772171020508" fill="none" stroke="rgb(82, 84, 41)" stroke-opacity="1.0053009" stroke-linecap="round" stroke-linejoin="round"/>
    <path d="M 129.88584899902344 151.40203857421875 C 178.05950927734375 145.41346740722656 150.0520477294922 126.53279113769531 164.19711303710938 157.62034606933594" stroke-width="27.70718002319336" fill="none" stroke="rgb(142, 170, 197)" stroke-opacity="0.7739602" stroke-linecap="round" stroke-linejoin="round"/>
    <path d="M 78.78160858154297 121.93640899658203 C 86.62186431884766 139.3089141845703 93.03425598144531 133.572021484375 74.62089538574219 159.667236328125" stroke-width="2.621471405029297" fill="none" stroke="rgb(12, 0, 2)" stroke-opacity="0.9131871" stroke-linecap="round" stroke-linejoin="round"/>
    <path d="M 100.87792205810547 125.14264678955078 C 114.16000366210938 92.9242935180664 104.97607421875 95.31484985351562 112.19091033935547 107.56490325927734" stroke-width="13.166720390319824" fill="none" stroke="rgb(76, 25, 11)" stroke-opacity="0.51237375" stroke-linecap="round" stroke-linejoin="round"/>
    <path d="M 127.12928009033203 112.1758804321289 C 153.7825469970703 121.38333892822266 149.2090301513672 95.48442077636719 140.2588348388672 118.93692779541016" stroke-width="8.808754920959473" fill="none" stroke="rgb(129, 155, 180)" stroke-opacity="0.884631" stroke-linecap="round" stroke-linejoin="round"/>
    <path d="M 72.76822662353516 170.50331115722656 C 6.9140944480896 162.07008361816406 65.35212707519531 167.9427490234375 -4.954687595367432 174.84555053710938" stroke-width="26.644189834594727" fill="none" stroke="rgb(133, 157, 187)" stroke-opacity="0.8431297" stroke-linecap="round" stroke-linejoin="round"/>
    <path d="M 94.40997314453125 101.12989044189453 C 93.89292907714844 123.82799530029297 83.60892486572266 130.1449432373047 91.5848388671875 121.08989715576172" stroke-width="14.109864234924316" fill="none" stroke="rgb(2, -3, 2)" stroke-opacity="0.92903024" stroke-linecap="round" stroke-linejoin="round"/>
    <path d="M 105.94058227539062 99.3298568725586 C 91.12891387939453 142.91595458984375 93.50114440917969 132.39039611816406 89.07237243652344 126.5224838256836" stroke-width="4.269501209259033" fill="none" stroke="rgb(73, 22, 11)" stroke-opacity="0.65398335" stroke-linecap="round" stroke-linejoin="round"/>
    <path d="M 160.70399475097656 178.85702514648438 C 111.43898010253906 178.6569366455078 122.87547302246094 181.65699768066406 121.88679504394531 176.48199462890625" stroke-width="24.63532257080078" fill="none" stroke="rgb(128, 127, 70)" stroke-opacity="0.8971471" stroke-linecap="round" stroke-linejoin="round"/>
    <path d="M 200.02178955078125 67.16291809082031 C 198.08058166503906 93.12699890136719 224.47128295898438 60.569244384765625 215.9354248046875 87.97075653076172" stroke-width="13.419523239135742" fill="none" stroke="rgb(94, 24, 0)" stroke-opacity="0.6057753" stroke-linecap="round" stroke-linejoin="round"/>
    <path d="M 178.4003143310547 66.15678405761719 C 157.32896423339844 112.00975799560547 181.77281188964844 78.9167709350586 180.71603393554688 121.26810455322266" stroke-width="10.668058395385742" fill="none" stroke="rgb(101, 32, 7)" stroke-opacity="0.68324536" stroke-linecap="round" stroke-linejoin="round"/>
    <path d="M 181.5238800048828 85.29826354980469 C 180.2103271484375 72.4890365600586 186.29750061035156 57.03120422363281 193.81356811523438 100.4842758178711" stroke-width="8.502730369567871" fill="none" stroke="rgb(105, 40, 10)" stroke-opacity="0.79545116" stroke-linecap="round" stroke-linejoin="round"/>
  </g>
</svg>
