<?xml version="1.0" ?>
<svg xmlns="http://www.w3.org/2000/svg" version="1.1" width="224" height="224">
  <defs/>
  <g>
    <path d="M 245.89776611328125 194.71022033691406 C 82.0244369506836 195.90853881835938 -18.552059173583984 180.11036682128906 226.78504943847656 217.21485900878906" stroke-width="3.0" fill="none" stroke="rgb(-3, 1, 3)" stroke-opacity="0.10501886" stroke-linecap="round" stroke-linejoin="round"/>
    <path d="M 136.39849853515625 92.49980926513672 C 111.60182189941406 116.46688079833984 109.25125885009766 141.60301208496094 112.8759994506836 135.85169982910156" stroke-width="3.0" fill="none" stroke="rgb(0, -1, 1)" stroke-opacity="0.19483902" stroke-linecap="round" stroke-linejoin="round"/>
    <path d="M 182.78582763671875 47.84795379638672 C 116.14591217041016 145.39718627929688 195.97764587402344 91.26070404052734 133.15151977539062 82.50762176513672" stroke-width="3.0" fill="none" stroke="rgb(-2, 2, 2)" stroke-opacity="0.06854777" stroke-linecap="round" stroke-linejoin="round"/>
    <path d="M 172.2582550048828 40.94342803955078 C 120.14787292480469 65.98234558105469 109.13623046875 27.983989715576172 237.37095642089844 47.86327362060547" stroke-width="3.0" fill="none" stroke="rgb(-2, 0, 2)" stroke-opacity="0.10860568" stroke-linecap="round" stroke-linejoin="round"/>
    <path d="M 108.3004150390625 178.24864196777344 C 102.56025695800781 174.3240509033203 125.37081146240234 162.70755004882812 109.86534881591797 129.35931396484375" stroke-width="3.0" fill="none" stroke="rgb(2, -2, 0)" stroke-opacity="0.1853217" stroke-linecap="round" stroke-linejoin="round"/>
    <path d="M 115.45551300048828 145.54518127441406 C 61.747093200683594 140.977294921875 -17.5737361907959 127.66716003417969 -22.85088348388672 134.9234161376953" stroke-width="3.0" fill="none" stroke="rgb(0, 0, 1)" stroke-opacity="0.051964782" stroke-linecap="round" stroke-linejoin="round"/>
    <path d="M 119.43724822998047 168.38717651367188 C 85.90958404541016 110.91414642333984 78.54761505126953 147.49032592773438 121.08805847167969 57.49557113647461" stroke-width="3.0" fill="none" stroke="rgb(-2, 2, 2)" stroke-opacity="0.078149654" stroke-linecap="round" stroke-linejoin="round"/>
    <path d="M 85.13611602783203 156.9941864013672 C 109.96043395996094 118.7885971069336 19.900535583496094 130.8350372314453 153.6529541015625 43.05138397216797" stroke-width="3.0" fill="none" stroke="rgb(-2, 2, 2)" stroke-opacity="0.24597706" stroke-linecap="round" stroke-linejoin="round"/>
    <path d="M 95.61264038085938 208.7510528564453 C 120.3455810546875 54.62691116333008 32.20146942138672 254.67726135253906 108.19985961914062 73.22023010253906" stroke-width="3.0" fill="none" stroke="rgb(-2, 2, 2)" stroke-opacity="0.13053484" stroke-linecap="round" stroke-linejoin="round"/>
    <path d="M 87.38610076904297 216.6002197265625 C 90.61768341064453 92.53141784667969 60.15085983276367 77.48120880126953 106.50826263427734 206.38148498535156" stroke-width="3.0" fill="none" stroke="rgb(0, 1, 0)" stroke-opacity="0.09605418" stroke-linecap="round" stroke-linejoin="round"/>
    <path d="M 9.128379821777344 76.02950286865234 C 123.98208618164062 84.94601440429688 186.13247680664062 76.94491577148438 10.579651832580566 63.74955749511719" stroke-width="3.0" fill="none" stroke="rgb(0, 1, -2)" stroke-opacity="0.019988373" stroke-linecap="round" stroke-linejoin="round"/>
    <path d="M 176.40232849121094 199.62527465820312 C 185.07884216308594 104.00300598144531 217.8023223876953 28.72926139831543 166.68540954589844 198.05368041992188" stroke-width="3.0" fill="none" stroke="rgb(-2, 0, 2)" stroke-opacity="0.106850676" stroke-linecap="round" stroke-linejoin="round"/>
    <path d="M 44.24933624267578 232.68222045898438 C 44.74187469482422 232.03781127929688 39.36575698852539 233.64378356933594 36.214717864990234 231.63267517089844" stroke-width="3.0" fill="none" stroke="rgb(0, 0, 0)" stroke-opacity="0.91760236" stroke-linecap="round" stroke-linejoin="round"/>
    <path d="M 174.4433135986328 211.9545440673828 C -10.575754165649414 226.19491577148438 134.7051239013672 191.46522521972656 85.06172180175781 210.4120330810547" stroke-width="3.0" fill="none" stroke="rgb(-1, 1, 0)" stroke-opacity="0.16130358" stroke-linecap="round" stroke-linejoin="round"/>
    <path d="M 230.87106323242188 93.6341552734375 C 256.4517822265625 78.94829559326172 199.56178283691406 126.562255859375 173.0365447998047 93.45390319824219" stroke-width="3.0" fill="none" stroke="rgb(-2, 0, 2)" stroke-opacity="0.16619018" stroke-linecap="round" stroke-linejoin="round"/>
    <path d="M 174.25253295898438 189.09666442871094 C 196.44996643066406 62.27948760986328 94.26276397705078 98.51217651367188 141.28407287597656 95.12577056884766" stroke-width="3.0" fill="none" stroke="rgb(5, -2, -1)" stroke-opacity="0.31673384" stroke-linecap="round" stroke-linejoin="round"/>
  </g>
</svg>
