<?xml version="1.0" ?>
<svg xmlns="http://www.w3.org/2000/svg" version="1.1" width="224" height="224">
  <defs/>
  <g>
    <path d="M 224.0388946533203 217.12808227539062 C 150.4690399169922 205.72593688964844 305.9714050292969 223.37319946289062 85.03279876708984 207.57373046875" stroke-width="3.0" fill="none" stroke="rgb(0, 2, -3)" stroke-opacity="0.13582975" stroke-linecap="round" stroke-linejoin="round"/>
    <path d="M 120.22830963134766 116.3761978149414 C 133.6155548095703 87.99555206298828 108.89252471923828 135.0700225830078 119.42977905273438 114.83020782470703" stroke-width="3.0" fill="none" stroke="rgb(0, 0, 0)" stroke-opacity="-0.0019647924" stroke-linecap="round" stroke-linejoin="round"/>
    <path d="M 132.8067169189453 82.8891372680664 C 177.50302124023438 94.99351501464844 148.59288024902344 79.59334564208984 137.77584838867188 85.44894409179688" stroke-width="3.0" fill="none" stroke="rgb(-1, 1, 1)" stroke-opacity="0.11982659" stroke-linecap="round" stroke-linejoin="round"/>
    <path d="M 160.518310546875 40.15166091918945 C 133.9370880126953 82.66085815429688 108.89690399169922 105.6413803100586 150.46922302246094 53.46480941772461" stroke-width="3.0" fill="none" stroke="rgb(0, 0, -1)" stroke-opacity="0.056869805" stroke-linecap="round" stroke-linejoin="round"/>
    <path d="M 114.12439727783203 152.8104248046875 C 119.03511047363281 123.95831298828125 99.59334564208984 126.4539794921875 103.7656021118164 130.93798828125" stroke-width="3.0" fill="none" stroke="rgb(1, -2, 0)" stroke-opacity="0.16232455" stroke-linecap="round" stroke-linejoin="round"/>
    <path d="M -4.571573734283447 157.74217224121094 C 45.77952575683594 163.26962280273438 15.413691520690918 153.14385986328125 -3.3423757553100586 150.03460693359375" stroke-width="3.0" fill="none" stroke="rgb(-1, 0, 3)" stroke-opacity="0.055428784" stroke-linecap="round" stroke-linejoin="round"/>
    <path d="M 90.08641815185547 170.92991638183594 C 84.39823150634766 139.8932342529297 106.94073486328125 130.3687286376953 99.52334594726562 184.44561767578125" stroke-width="3.0" fill="none" stroke="rgb(2, 0, -2)" stroke-opacity="0.23458356" stroke-linecap="round" stroke-linejoin="round"/>
    <path d="M 87.44530487060547 126.31083679199219 C 94.3871841430664 147.34442138671875 81.24317169189453 157.16183471679688 88.29625701904297 99.56106567382812" stroke-width="3.0" fill="none" stroke="rgb(-2, 1, 0)" stroke-opacity="0.17870788" stroke-linecap="round" stroke-linejoin="round"/>
    <path d="M 112.15003204345703 159.88157653808594 C 102.89957427978516 142.31155395507812 108.96227264404297 138.2860870361328 -3.794644832611084 133.26132202148438" stroke-width="3.0" fill="none" stroke="rgb(2, -2, 0)" stroke-opacity="0.071791954" stroke-linecap="round" stroke-linejoin="round"/>
    <path d="M 100.39099884033203 205.3412322998047 C 97.94116973876953 133.54591369628906 80.89251708984375 112.1656265258789 88.01123046875 217.6050262451172" stroke-width="3.0" fill="none" stroke="rgb(2, 0, -1)" stroke-opacity="0.1232349" stroke-linecap="round" stroke-linejoin="round"/>
    <path d="M 101.52001190185547 52.266334533691406 C 82.34520721435547 70.11129760742188 98.34467315673828 26.81177520751953 80.25489044189453 79.89161682128906" stroke-width="3.0" fill="none" stroke="rgb(0, 0, 0)" stroke-opacity="0.015327409" stroke-linecap="round" stroke-linejoin="round"/>
    <path d="M 178.95286560058594 199.66363525390625 C 175.27362060546875 35.82907485961914 167.18621826171875 21.459836959838867 184.33143615722656 192.80447387695312" stroke-width="3.0" fill="none" stroke="rgb(1, 0, -1)" stroke-opacity="0.079676025" stroke-linecap="round" stroke-linejoin="round"/>
    <path d="M 43.74233627319336 232.5500030517578 C 41.79497146606445 229.48672485351562 38.51425552368164 232.58087158203125 36.12074279785156 230.93893432617188" stroke-width="3.0" fill="none" stroke="rgb(0, 0, 0)" stroke-opacity="0.91990495" stroke-linecap="round" stroke-linejoin="round"/>
    <path d="M 157.900390625 200.9475555419922 C 34.0797119140625 211.44456481933594 205.5618896484375 159.91995239257812 -1.0048748254776 170.3452911376953" stroke-width="3.0" fill="none" stroke="rgb(-3, 2, 2)" stroke-opacity="0.06022833" stroke-linecap="round" stroke-linejoin="round"/>
    <path d="M 189.98780822753906 107.1644058227539 C 258.826171875 90.2540054321289 241.60206604003906 98.03911590576172 191.391357421875 107.01344299316406" stroke-width="3.0" fill="none" stroke="rgb(-2, 2, 2)" stroke-opacity="0.37525424" stroke-linecap="round" stroke-linejoin="round"/>
    <path d="M 117.87250518798828 97.7474594116211 C 143.25439453125 51.01079559326172 104.9619369506836 94.25739288330078 143.96920776367188 85.24774932861328" stroke-width="3.0" fill="none" stroke="rgb(2, -1, -4)" stroke-opacity="0.051951297" stroke-linecap="round" stroke-linejoin="round"/>
    <path d="M 140.8378143310547 -7.034997940063477 C 145.01437377929688 -3.252380132675171 133.8990936279297 -6.646923065185547 138.571533203125 -8.887635231018066" stroke-width="3.0" fill="none" stroke="rgb(0, 0, 0)" stroke-opacity="0.7532517" stroke-linecap="round" stroke-linejoin="round"/>
    <path d="M 122.13261413574219 129.27264404296875 C 222.63560485839844 143.17529296875 178.4163055419922 120.09923553466797 116.01544952392578 122.41218566894531" stroke-width="3.0" fill="none" stroke="rgb(0, 0, 0)" stroke-opacity="0.06376366" stroke-linecap="round" stroke-linejoin="round"/>
    <path d="M 154.5764617919922 41.790000915527344 C 137.3743896484375 45.782737731933594 115.0538330078125 66.49590301513672 154.18490600585938 44.43608474731445" stroke-width="3.0" fill="none" stroke="rgb(-3, 2, 3)" stroke-opacity="0.28761783" stroke-linecap="round" stroke-linejoin="round"/>
    <path d="M 160.84097290039062 113.6128158569336 C 94.54658508300781 94.8167724609375 176.51022338867188 136.30337524414062 140.9577178955078 91.67549896240234" stroke-width="3.0" fill="none" stroke="rgb(-2, 1, 3)" stroke-opacity="0.052883152" stroke-linecap="round" stroke-linejoin="round"/>
    <path d="M 107.99337005615234 119.6574935913086 C 73.8004150390625 119.96704864501953 106.81501770019531 140.08079528808594 126.62318420410156 92.11209869384766" stroke-width="3.0" fill="none" stroke="rgb(2, -1, -1)" stroke-opacity="0.058038544" stroke-linecap="round" stroke-linejoin="round"/>
    <path d="M 172.24192810058594 56.8072624206543 C 166.13723754882812 78.5422592163086 172.936279296875 66.25924682617188 164.5527801513672 85.36650085449219" stroke-width="3.0" fill="none" stroke="rgb(-2, 0, 2)" stroke-opacity="0.1468234" stroke-linecap="round" stroke-linejoin="round"/>
    <path d="M 99.1041488647461 84.98188781738281 C 88.56983184814453 80.72516632080078 98.49594116210938 93.3646011352539 123.05821228027344 61.882015228271484" stroke-width="3.0" fill="none" stroke="rgb(-3, 2, 1)" stroke-opacity="0.22121519" stroke-linecap="round" stroke-linejoin="round"/>
    <path d="M 111.35893249511719 155.629638671875 C 91.51406860351562 225.24002075195312 94.43831634521484 183.05392456054688 100.68128204345703 183.51263427734375" stroke-width="3.0" fill="none" stroke="rgb(1, -1, 0)" stroke-opacity="0.089182116" stroke-linecap="round" stroke-linejoin="round"/>
    <path d="M 74.27687072753906 4.588016986846924 C 88.01883697509766 -7.100063800811768 474.803466796875 12.636645317077637 -4.216277122497559 12.329713821411133" stroke-width="3.0" fill="none" stroke="rgb(-2, 5, -3)" stroke-opacity="0.2972421" stroke-linecap="round" stroke-linejoin="round"/>
    <path d="M 115.75381469726562 63.25742721557617 C 153.43902587890625 42.26026153564453 126.7077407836914 49.828758239746094 147.36099243164062 46.00176239013672" stroke-width="3.0" fill="none" stroke="rgb(-2, 2, 2)" stroke-opacity="0.33594" stroke-linecap="round" stroke-linejoin="round"/>
    <path d="M 171.8254852294922 116.43978118896484 C 142.81390380859375 43.202430725097656 137.10391235351562 70.49636840820312 175.1758575439453 114.36834716796875" stroke-width="3.0" fill="none" stroke="rgb(-1, 1, 1)" stroke-opacity="0.12089964" stroke-linecap="round" stroke-linejoin="round"/>
    <path d="M 114.22532653808594 178.78460693359375 C 77.60775756835938 130.44830322265625 133.65234375 220.41981506347656 79.16911315917969 149.94271850585938" stroke-width="3.0" fill="none" stroke="rgb(1, -1, -2)" stroke-opacity="0.07443167" stroke-linecap="round" stroke-linejoin="round"/>
    <path d="M 195.84890747070312 82.77691650390625 C 223.95095825195312 103.83399200439453 248.61428833007812 95.7588119506836 197.99105834960938 87.94711303710938" stroke-width="3.0" fill="none" stroke="rgb(1, 0, -1)" stroke-opacity="0.09833554" stroke-linecap="round" stroke-linejoin="round"/>
    <path d="M 231.96548461914062 6.156633377075195 C -107.49879455566406 15.386404037475586 -82.31648254394531 11.219878196716309 238.6007080078125 11.090951919555664" stroke-width="3.0" fill="none" stroke="rgb(-1, 4, -3)" stroke-opacity="0.40075004" stroke-linecap="round" stroke-linejoin="round"/>
    <path d="M 92.1413803100586 154.41383361816406 C 22.278610229492188 126.66840362548828 111.58325958251953 145.95278930664062 82.83843994140625 124.58528137207031" stroke-width="3.0" fill="none" stroke="rgb(0, 0, 0)" stroke-opacity="0.05309256" stroke-linecap="round" stroke-linejoin="round"/>
    <path d="M 117.75877380371094 149.53750610351562 C 221.61666870117188 158.29489135742188 181.4952850341797 194.31948852539062 113.8346176147461 183.3440704345703" stroke-width="3.0" fill="none" stroke="rgb(-1, 1, 0)" stroke-opacity="0.06506405" stroke-linecap="round" stroke-linejoin="round"/>
    <path d="M -2.9362640380859375 54.10906982421875 C 77.1268081665039 56.71848678588867 66.07271575927734 59.41139602661133 -3.316209554672241 42.124961853027344" stroke-width="3.0" fill="none" stroke="rgb(0, 0, 0)" stroke-opacity="0.023562802" stroke-linecap="round" stroke-linejoin="round"/>
    <path d="M 64.01121520996094 100.751708984375 C -34.70988464355469 105.82949829101562 -40.36848449707031 82.17916870117188 65.01455688476562 92.3609619140625" stroke-width="3.0" fill="none" stroke="rgb(0, 0, -1)" stroke-opacity="0.035683945" stroke-linecap="round" stroke-linejoin="round"/>
    <path d="M 156.8021240234375 49.030521392822266 C 150.11212158203125 77.52076721191406 144.196044921875 73.15641784667969 108.63990020751953 88.58228302001953" stroke-width="3.0" fill="none" stroke="rgb(1, 0, -1)" stroke-opacity="0.004593913" stroke-linecap="round" stroke-linejoin="round"/>
    <path d="M 119.37932586669922 71.05728912353516 C 67.9885482788086 114.30934143066406 86.46026611328125 110.35845184326172 112.80670928955078 69.78258514404297" stroke-width="3.0" fill="none" stroke="rgb(-2, 4, -1)" stroke-opacity="0.23613593" stroke-linecap="round" stroke-linejoin="round"/>
    <path d="M 162.49221801757812 99.27782440185547 C 145.34803771972656 58.73296356201172 95.2046890258789 133.49986267089844 129.5878143310547 84.27107238769531" stroke-width="3.0" fill="none" stroke="rgb(1, 0, -2)" stroke-opacity="0.05367912" stroke-linecap="round" stroke-linejoin="round"/>
    <path d="M 157.5418243408203 107.56278228759766 C 151.4084014892578 71.62263488769531 113.63642120361328 107.16815185546875 142.56922912597656 93.58308410644531" stroke-width="3.0" fill="none" stroke="rgb(0, 0, 0)" stroke-opacity="0.20728165" stroke-linecap="round" stroke-linejoin="round"/>
    <path d="M 101.56187438964844 84.35964965820312 C 102.32762145996094 143.2478485107422 113.27726745605469 114.02507019042969 84.63050842285156 125.25249481201172" stroke-width="3.0" fill="none" stroke="rgb(1, -1, 0)" stroke-opacity="0.039074548" stroke-linecap="round" stroke-linejoin="round"/>
    <path d="M 107.23657989501953 101.28314208984375 C 117.85050964355469 63.95988082885742 115.57464599609375 85.3180160522461 141.549560546875 50.09962463378906" stroke-width="3.0" fill="none" stroke="rgb(1, -2, 3)" stroke-opacity="0.06356718" stroke-linecap="round" stroke-linejoin="round"/>
    <path d="M 74.96488189697266 159.2078399658203 C -19.269939422607422 149.541259765625 -18.867515563964844 140.7258758544922 -3.4350087642669678 149.1869659423828" stroke-width="3.0" fill="none" stroke="rgb(-1, 0, 2)" stroke-opacity="0.08447119" stroke-linecap="round" stroke-linejoin="round"/>
    <path d="M 169.82168579101562 108.60855102539062 C 124.83201599121094 87.93994903564453 140.29464721679688 84.00115203857422 170.97811889648438 112.99427795410156" stroke-width="3.0" fill="none" stroke="rgb(0, 0, 1)" stroke-opacity="0.34280047" stroke-linecap="round" stroke-linejoin="round"/>
    <path d="M 227.0005645751953 100.0676498413086 C 187.02194213867188 101.37369537353516 204.61843872070312 35.121158599853516 197.45018005371094 91.83735656738281" stroke-width="3.0" fill="none" stroke="rgb(0, 0, 1)" stroke-opacity="0.053454988" stroke-linecap="round" stroke-linejoin="round"/>
    <path d="M 136.02252197265625 75.0726089477539 C 168.91046142578125 86.35123443603516 200.615234375 74.1833724975586 138.60842895507812 76.16312408447266" stroke-width="3.0" fill="none" stroke="rgb(0, 0, 0)" stroke-opacity="0.03091163" stroke-linecap="round" stroke-linejoin="round"/>
    <path d="M 182.3629913330078 46.13633346557617 C 172.9948272705078 90.53166198730469 190.46261596679688 102.03375244140625 185.41128540039062 51.82473373413086" stroke-width="3.0" fill="none" stroke="rgb(-2, 1, 1)" stroke-opacity="0.05168368" stroke-linecap="round" stroke-linejoin="round"/>
    <path d="M 130.49635314941406 95.4009017944336 C 121.48247528076172 95.01953887939453 164.89039611816406 76.84973907470703 171.912841796875 125.36033630371094" stroke-width="3.0" fill="none" stroke="rgb(0, 1, 0)" stroke-opacity="0.21102585" stroke-linecap="round" stroke-linejoin="round"/>
    <path d="M 212.86520385742188 59.00634765625 C 186.4227752685547 21.490720748901367 190.88246154785156 72.17682647705078 195.15228271484375 55.95863342285156" stroke-width="3.0" fill="none" stroke="rgb(0, 0, -1)" stroke-opacity="0.03231637" stroke-linecap="round" stroke-linejoin="round"/>
    <path d="M 11.747071266174316 35.06591796875 C 60.35052490234375 58.500064849853516 -3.2246580123901367 26.52125358581543 53.262901306152344 42.89155960083008" stroke-width="3.0" fill="none" stroke="rgb(0, 0, 0)" stroke-opacity="0.015301706" stroke-linecap="round" stroke-linejoin="round"/>
    <path d="M 112.5382308959961 161.27992248535156 C 108.82955169677734 156.5841064453125 120.7533950805664 153.0399627685547 105.33045196533203 175.7542266845703" stroke-width="3.0" fill="none" stroke="rgb(2, -2, 0)" stroke-opacity="0.23006196" stroke-linecap="round" stroke-linejoin="round"/>
    <path d="M 237.33563232421875 37.40644454956055 C 189.31866455078125 58.47209548950195 191.3415069580078 38.92607116699219 163.83682250976562 40.06015396118164" stroke-width="3.0" fill="none" stroke="rgb(-2, 0, 3)" stroke-opacity="0.15691343" stroke-linecap="round" stroke-linejoin="round"/>
    <path d="M -11.870692253112793 190.6256103515625 C 38.27772903442383 193.51075744628906 74.0713119506836 205.95594787597656 127.4848861694336 222.1167755126953" stroke-width="3.0" fill="none" stroke="rgb(-1, -1, 2)" stroke-opacity="0.093126446" stroke-linecap="round" stroke-linejoin="round"/>
    <path d="M 192.23455810546875 99.26985931396484 C 156.87283325195312 210.94570922851562 244.97506713867188 143.20364379882812 161.9352264404297 153.95175170898438" stroke-width="3.0" fill="none" stroke="rgb(-2, 2, 3)" stroke-opacity="0.114837535" stroke-linecap="round" stroke-linejoin="round"/>
    <path d="M 132.2076416015625 72.2769775390625 C 95.49946594238281 46.89580154418945 72.13790130615234 77.35468292236328 134.3273468017578 62.28739547729492" stroke-width="3.0" fill="none" stroke="rgb(0, 0, 1)" stroke-opacity="0.029362882" stroke-linecap="round" stroke-linejoin="round"/>
    <path d="M 157.8181915283203 73.93263244628906 C 133.48257446289062 90.40520477294922 103.56893157958984 81.35585021972656 162.79701232910156 47.584957122802734" stroke-width="3.0" fill="none" stroke="rgb(1, 0, -2)" stroke-opacity="0.046052404" stroke-linecap="round" stroke-linejoin="round"/>
    <path d="M 103.22883605957031 77.06905364990234 C 87.4021224975586 114.76749420166016 101.8832778930664 85.75761413574219 82.36071014404297 128.29905700683594" stroke-width="3.0" fill="none" stroke="rgb(-1, 2, 0)" stroke-opacity="0.20739454" stroke-linecap="round" stroke-linejoin="round"/>
    <path d="M 220.0684051513672 97.64542388916016 C 164.25242614746094 103.47927856445312 223.41258239746094 115.08097076416016 175.72776794433594 96.18550109863281" stroke-width="3.0" fill="none" stroke="rgb(0, 1, 0)" stroke-opacity="0.10153666" stroke-linecap="round" stroke-linejoin="round"/>
    <path d="M 123.76016998291016 74.21234893798828 C 61.005645751953125 71.82425689697266 94.9167709350586 88.49724578857422 120.57685852050781 77.16384887695312" stroke-width="3.0" fill="none" stroke="rgb(0, 0, 1)" stroke-opacity="0.068069324" stroke-linecap="round" stroke-linejoin="round"/>
    <path d="M 136.81878662109375 50.18451690673828 C 166.82000732421875 39.57684326171875 126.87581634521484 47.744873046875 156.5947265625 46.04021453857422" stroke-width="3.0" fill="none" stroke="rgb(-2, 0, 2)" stroke-opacity="0.10915888" stroke-linecap="round" stroke-linejoin="round"/>
    <path d="M 86.05781555175781 0.8039650321006775 C 54.22936248779297 28.63460922241211 11.907970428466797 -2.745555877685547 44.93260192871094 -10.180414199829102" stroke-width="3.0" fill="none" stroke="rgb(0, 1, -1)" stroke-opacity="0.03199879" stroke-linecap="round" stroke-linejoin="round"/>
    <path d="M 72.66161346435547 28.3572940826416 C 86.3202133178711 47.54925537109375 56.3287353515625 34.68248748779297 78.3210220336914 40.90155792236328" stroke-width="3.0" fill="none" stroke="rgb(-1, 0, 2)" stroke-opacity="0.042076956" stroke-linecap="round" stroke-linejoin="round"/>
    <path d="M 189.18540954589844 68.9947280883789 C 177.4776153564453 40.51251220703125 174.25152587890625 55.90119552612305 189.78721618652344 73.10926055908203" stroke-width="3.0" fill="none" stroke="rgb(-1, 0, 1)" stroke-opacity="0.06538261" stroke-linecap="round" stroke-linejoin="round"/>
    <path d="M 81.73699951171875 126.31536865234375 C 121.46485137939453 160.57669067382812 121.13365936279297 149.5583953857422 16.493247985839844 143.27978515625" stroke-width="3.0" fill="none" stroke="rgb(0, -1, 0)" stroke-opacity="0.086688876" stroke-linecap="round" stroke-linejoin="round"/>
    <path d="M 122.57366180419922 92.17869567871094 C 137.99758911132812 66.6995849609375 132.33001708984375 57.128929138183594 127.42969512939453 99.96614837646484" stroke-width="3.0" fill="none" stroke="rgb(1, 0, -3)" stroke-opacity="0.0394328" stroke-linecap="round" stroke-linejoin="round"/>
    <path d="M 172.8026580810547 114.5566635131836 C 175.49473571777344 166.8387908935547 184.45553588867188 142.85333251953125 171.96347045898438 190.04957580566406" stroke-width="3.0" fill="none" stroke="rgb(-1, -2, 2)" stroke-opacity="0.42189762" stroke-linecap="round" stroke-linejoin="round"/>
    <path d="M 172.9805908203125 168.23667907714844 C 140.8660430908203 164.3747100830078 139.8299560546875 168.1019287109375 117.53173065185547 164.9805145263672" stroke-width="3.0" fill="none" stroke="rgb(-2, 0, 2)" stroke-opacity="0.17117701" stroke-linecap="round" stroke-linejoin="round"/>
    <path d="M 89.39942169189453 134.346923828125 C 62.77547073364258 160.89520263671875 88.20211791992188 161.26437377929688 93.40153503417969 138.56356811523438" stroke-width="3.0" fill="none" stroke="rgb(-3, 1, 3)" stroke-opacity="0.39351326" stroke-linecap="round" stroke-linejoin="round"/>
    <path d="M 94.35901641845703 147.5027618408203 C 83.64999389648438 100.91326141357422 80.39382934570312 122.60153198242188 83.32881164550781 130.64158630371094" stroke-width="3.0" fill="none" stroke="rgb(0, 0, 0)" stroke-opacity="0.18247366" stroke-linecap="round" stroke-linejoin="round"/>
    <path d="M 88.07176971435547 124.65808868408203 C 121.37440490722656 87.51470184326172 75.20188903808594 140.58143615722656 102.72042846679688 127.28823852539062" stroke-width="3.0" fill="none" stroke="rgb(0, 0, 1)" stroke-opacity="0.09888912" stroke-linecap="round" stroke-linejoin="round"/>
    <path d="M 240.19760131835938 89.48809814453125 C 206.7823486328125 76.18193054199219 147.16665649414062 72.99976348876953 229.67941284179688 87.64966583251953" stroke-width="3.0" fill="none" stroke="rgb(1, -1, 0)" stroke-opacity="0.05444603" stroke-linecap="round" stroke-linejoin="round"/>
    <path d="M 110.34339141845703 123.41405487060547 C 121.51822662353516 96.01140594482422 114.51766204833984 87.25721740722656 104.42113494873047 124.75611114501953" stroke-width="3.0" fill="none" stroke="rgb(3, -1, -2)" stroke-opacity="0.037348393" stroke-linecap="round" stroke-linejoin="round"/>
    <path d="M 83.52833557128906 143.6682586669922 C 98.73847198486328 128.53363037109375 104.59774780273438 163.48902893066406 77.61141204833984 121.2535400390625" stroke-width="3.0" fill="none" stroke="rgb(0, 1, -1)" stroke-opacity="0.28142503" stroke-linecap="round" stroke-linejoin="round"/>
    <path d="M 197.67088317871094 103.76815795898438 C 188.13186645507812 66.01905822753906 235.37954711914062 128.68270874023438 200.41233825683594 90.87127685546875" stroke-width="3.0" fill="none" stroke="rgb(-3, 2, 0)" stroke-opacity="0.15769467" stroke-linecap="round" stroke-linejoin="round"/>
    <path d="M 100.82548522949219 189.3161163330078 C 144.71676635742188 196.5057830810547 136.3564453125 191.57864379882812 170.5537872314453 197.64031982421875" stroke-width="3.0" fill="none" stroke="rgb(-2, -1, 2)" stroke-opacity="0.19488856" stroke-linecap="round" stroke-linejoin="round"/>
    <path d="M 163.8948974609375 56.282527923583984 C 157.4677734375 137.52468872070312 136.3896484375 88.8139877319336 173.65997314453125 49.75726318359375" stroke-width="3.0" fill="none" stroke="rgb(-1, 0, 1)" stroke-opacity="0.06344617" stroke-linecap="round" stroke-linejoin="round"/>
    <path d="M 169.73037719726562 49.63248062133789 C 143.91299438476562 79.44588470458984 154.70281982421875 108.4275131225586 156.98150634765625 87.55562591552734" stroke-width="3.0" fill="none" stroke="rgb(0, 0, 1)" stroke-opacity="0.107173204" stroke-linecap="round" stroke-linejoin="round"/>
    <path d="M 75.60319519042969 105.06775665283203 C 79.8034896850586 97.17021179199219 100.3607406616211 72.41899871826172 84.2975845336914 131.1365966796875" stroke-width="3.0" fill="none" stroke="rgb(-2, 1, 1)" stroke-opacity="0.1996982" stroke-linecap="round" stroke-linejoin="round"/>
    <path d="M 151.567138671875 90.98418426513672 C 174.05262756347656 122.77410125732422 170.3263397216797 131.34967041015625 172.174560546875 106.66250610351562" stroke-width="3.0" fill="none" stroke="rgb(-2, 1, 2)" stroke-opacity="0.28582343" stroke-linecap="round" stroke-linejoin="round"/>
    <path d="M -4.622190952301025 189.76918029785156 C 146.3356475830078 195.61253356933594 117.21713256835938 180.99850463867188 -19.39606475830078 181.19439697265625" stroke-width="3.0" fill="none" stroke="rgb(-2, 0, 1)" stroke-opacity="0.16826017" stroke-linecap="round" stroke-linejoin="round"/>
    <path d="M 86.33612060546875 156.468505859375 C 113.11119842529297 153.6736297607422 80.3175277709961 172.6853485107422 92.687744140625 158.85472106933594" stroke-width="3.0" fill="none" stroke="rgb(-1, 3, 0)" stroke-opacity="0.21804461" stroke-linecap="round" stroke-linejoin="round"/>
    <path d="M 155.42698669433594 81.41913604736328 C 98.9140853881836 83.77978515625 154.2921142578125 123.46819305419922 163.80239868164062 53.416202545166016" stroke-width="3.0" fill="none" stroke="rgb(-3, 0, 5)" stroke-opacity="0.10031874" stroke-linecap="round" stroke-linejoin="round"/>
    <path d="M 90.09883880615234 65.32942962646484 C -84.8598403930664 58.755733489990234 -28.188701629638672 82.67882537841797 102.29827880859375 78.96502685546875" stroke-width="3.0" fill="none" stroke="rgb(0, 1, -1)" stroke-opacity="0.028861944" stroke-linecap="round" stroke-linejoin="round"/>
    <path d="M 102.43708801269531 231.6199188232422 C 150.7583465576172 186.86599731445312 140.43434143066406 238.8701629638672 107.88992309570312 211.58792114257812" stroke-width="3.0" fill="none" stroke="rgb(-2, 2, 0)" stroke-opacity="0.10329366" stroke-linecap="round" stroke-linejoin="round"/>
    <path d="M 158.6631622314453 43.580711364746094 C 162.56858825683594 37.89473342895508 138.4373321533203 52.776607513427734 168.19285583496094 40.84440612792969" stroke-width="3.0" fill="none" stroke="rgb(-2, 0, 2)" stroke-opacity="0.17094657" stroke-linecap="round" stroke-linejoin="round"/>
    <path d="M 75.614013671875 210.14710998535156 C 90.81797790527344 210.8513946533203 74.97882843017578 224.2715301513672 180.14234924316406 222.98779296875" stroke-width="3.0" fill="none" stroke="rgb(-2, 1, 2)" stroke-opacity="0.2533366" stroke-linecap="round" stroke-linejoin="round"/>
    <path d="M 91.06587219238281 96.4609603881836 C 105.93144226074219 105.07698822021484 110.4395523071289 119.68035125732422 125.78907012939453 71.64405822753906" stroke-width="3.0" fill="none" stroke="rgb(1, -1, -1)" stroke-opacity="0.038236696" stroke-linecap="round" stroke-linejoin="round"/>
    <path d="M 135.93101501464844 95.1459732055664 C 124.84046936035156 99.19387817382812 111.03446197509766 127.6346206665039 113.74542236328125 130.66810607910156" stroke-width="3.0" fill="none" stroke="rgb(-2, -1, 2)" stroke-opacity="0.23164041" stroke-linecap="round" stroke-linejoin="round"/>
    <path d="M 168.73385620117188 117.33845520019531 C 124.10775756835938 56.790748596191406 164.17172241210938 93.8216323852539 174.76658630371094 131.1404571533203" stroke-width="3.0" fill="none" stroke="rgb(-3, 2, 3)" stroke-opacity="0.24245667" stroke-linecap="round" stroke-linejoin="round"/>
    <path d="M 119.75894927978516 114.03390502929688 C 129.1058807373047 95.2699203491211 136.9307098388672 91.51641082763672 150.9871368408203 96.40536499023438" stroke-width="3.0" fill="none" stroke="rgb(0, 0, 0)" stroke-opacity="-0.000120507786" stroke-linecap="round" stroke-linejoin="round"/>
    <path d="M 84.08846282958984 204.71197509765625 C 72.74224090576172 237.77833557128906 107.25033569335938 194.26480102539062 111.01934051513672 204.18658447265625" stroke-width="3.0" fill="none" stroke="rgb(0, 0, -1)" stroke-opacity="0.11545716" stroke-linecap="round" stroke-linejoin="round"/>
    <path d="M 124.05254364013672 32.086299896240234 C 171.19894409179688 39.97706985473633 87.7157211303711 6.17744779586792 176.7523956298828 28.109249114990234" stroke-width="3.0" fill="none" stroke="rgb(0, 0, 0)" stroke-opacity="0.015824305" stroke-linecap="round" stroke-linejoin="round"/>
    <path d="M 159.2964630126953 43.673072814941406 C 177.12716674804688 35.32932662963867 185.9015350341797 40.001930236816406 183.02951049804688 39.934654235839844" stroke-width="3.0" fill="none" stroke="rgb(0, 0, 0)" stroke-opacity="0.021407904" stroke-linecap="round" stroke-linejoin="round"/>
    <path d="M 176.44786071777344 76.1783218383789 C 207.68673706054688 145.3161163330078 158.16445922851562 62.790382385253906 188.14820861816406 92.67280578613281" stroke-width="3.0" fill="none" stroke="rgb(0, 0, 1)" stroke-opacity="0.06401037" stroke-linecap="round" stroke-linejoin="round"/>
    <path d="M 164.3328399658203 47.23366165161133 C 137.80068969726562 85.30123138427734 156.7794189453125 64.01606750488281 190.4080810546875 113.057373046875" stroke-width="3.0" fill="none" stroke="rgb(0, 0, 0)" stroke-opacity="0.05903163" stroke-linecap="round" stroke-linejoin="round"/>
    <path d="M 191.47190856933594 54.34889221191406 C 211.71722412109375 92.28015899658203 164.5735626220703 63.828582763671875 228.2869110107422 82.42383575439453" stroke-width="3.0" fill="none" stroke="rgb(0, 0, 0)" stroke-opacity="0.04233394" stroke-linecap="round" stroke-linejoin="round"/>
    <path d="M 189.9595184326172 46.8524169921875 C 182.10459899902344 44.24533462524414 185.448974609375 41.59741973876953 185.04214477539062 40.437774658203125" stroke-width="3.0" fill="none" stroke="rgb(0, 0, 0)" stroke-opacity="-0.00958075" stroke-linecap="round" stroke-linejoin="round"/>
    <path d="M 167.786376953125 56.07414627075195 C 177.97396850585938 164.61801147460938 197.3354949951172 144.84535217285156 119.41492462158203 138.70652770996094" stroke-width="3.0" fill="none" stroke="rgb(-2, 1, 1)" stroke-opacity="0.079445556" stroke-linecap="round" stroke-linejoin="round"/>
    <path d="M 234.66207885742188 93.13250732421875 C 190.99978637695312 81.00411224365234 179.29336547851562 78.90912628173828 229.063232421875 104.52290344238281" stroke-width="3.0" fill="none" stroke="rgb(0, 0, 0)" stroke-opacity="0.07632096" stroke-linecap="round" stroke-linejoin="round"/>
    <path d="M 114.42052459716797 126.5309066772461 C 86.84278106689453 123.28897857666016 80.6467514038086 135.34007263183594 105.23487091064453 83.44842529296875" stroke-width="3.0" fill="none" stroke="rgb(1, 0, -3)" stroke-opacity="0.11115664" stroke-linecap="round" stroke-linejoin="round"/>
    <path d="M 193.6964874267578 210.0221405029297 C 56.45527267456055 207.24330139160156 10.922797203063965 189.5452117919922 131.17054748535156 198.89483642578125" stroke-width="3.0" fill="none" stroke="rgb(-2, 2, 0)" stroke-opacity="0.09690173" stroke-linecap="round" stroke-linejoin="round"/>
    <path d="M 133.29873657226562 55.12609100341797 C 50.943397521972656 48.41185760498047 101.72952270507812 25.221410751342773 146.51332092285156 54.86882781982422" stroke-width="3.0" fill="none" stroke="rgb(0, 0, 0)" stroke-opacity="0.015002753" stroke-linecap="round" stroke-linejoin="round"/>
    <path d="M 121.84758758544922 61.33918380737305 C 82.0950698852539 116.03059387207031 76.32831573486328 158.14076232910156 114.13761138916016 73.07962799072266" stroke-width="3.0" fill="none" stroke="rgb(-5, 4, 3)" stroke-opacity="0.18213198" stroke-linecap="round" stroke-linejoin="round"/>
    <path d="M 80.64093017578125 194.24742126464844 C 182.67703247070312 194.28421020507812 248.55755615234375 167.02064514160156 -0.43256205320358276 183.07923889160156" stroke-width="3.0" fill="none" stroke="rgb(-3, 3, 1)" stroke-opacity="0.04775683" stroke-linecap="round" stroke-linejoin="round"/>
    <path d="M -9.169771194458008 41.571842193603516 C -9.119803428649902 34.05516815185547 -11.863073348999023 37.94914627075195 -16.438779830932617 36.295204162597656" stroke-width="3.0" fill="none" stroke="rgb(0, 0, 0)" stroke-opacity="0.85004777" stroke-linecap="round" stroke-linejoin="round"/>
    <path d="M 134.40484619140625 82.21755981445312 C 168.3444366455078 31.678510665893555 138.53065490722656 85.24906921386719 137.75474548339844 85.3983154296875" stroke-width="3.0" fill="none" stroke="rgb(1, 1, -3)" stroke-opacity="0.05837249" stroke-linecap="round" stroke-linejoin="round"/>
    <path d="M 84.86032104492188 197.87063598632812 C 129.20431518554688 102.746826171875 112.05318450927734 150.3868865966797 96.16905212402344 184.66119384765625" stroke-width="3.0" fill="none" stroke="rgb(3, -2, -3)" stroke-opacity="0.08564527" stroke-linecap="round" stroke-linejoin="round"/>
    <path d="M 151.69308471679688 92.18296813964844 C 155.68551635742188 35.71249008178711 199.4581298828125 37.17549133300781 159.25978088378906 44.05119705200195" stroke-width="3.0" fill="none" stroke="rgb(0, 0, 0)" stroke-opacity="0.06583492" stroke-linecap="round" stroke-linejoin="round"/>
    <path d="M 74.5223388671875 129.27745056152344 C -43.02494812011719 113.84232330322266 47.82353210449219 135.9314422607422 10.493666648864746 121.72655487060547" stroke-width="3.0" fill="none" stroke="rgb(0, 0, 0)" stroke-opacity="0.040845644" stroke-linecap="round" stroke-linejoin="round"/>
    <path d="M 181.84764099121094 160.6982421875 C 174.83599853515625 88.19427490234375 143.77737426757812 62.665592193603516 173.33047485351562 101.82975769042969" stroke-width="3.0" fill="none" stroke="rgb(3, -1, -2)" stroke-opacity="0.084419265" stroke-linecap="round" stroke-linejoin="round"/>
    <path d="M 210.4400177001953 84.33052062988281 C 186.5064239501953 30.679248809814453 181.90008544921875 46.37981033325195 224.04344177246094 76.35405731201172" stroke-width="3.0" fill="none" stroke="rgb(0, 0, -1)" stroke-opacity="0.02540729" stroke-linecap="round" stroke-linejoin="round"/>
    <path d="M 154.483154296875 42.11336898803711 C 153.1802520751953 48.940303802490234 144.2837677001953 54.69908142089844 118.88141632080078 70.19709014892578" stroke-width="3.0" fill="none" stroke="rgb(1, -2, 1)" stroke-opacity="0.097557105" stroke-linecap="round" stroke-linejoin="round"/>
    <path d="M 171.31735229492188 109.5774154663086 C 134.47447204589844 61.66384506225586 113.5567855834961 59.316463470458984 172.97564697265625 93.20578002929688" stroke-width="3.0" fill="none" stroke="rgb(0, 0, 0)" stroke-opacity="0.05804828" stroke-linecap="round" stroke-linejoin="round"/>
    <path d="M 132.07998657226562 58.418617248535156 C 104.8890380859375 75.06175231933594 123.31788635253906 67.33686065673828 109.78849029541016 71.4507827758789" stroke-width="3.0" fill="none" stroke="rgb(-1, 0, 1)" stroke-opacity="0.117624715" stroke-linecap="round" stroke-linejoin="round"/>
    <path d="M 230.62684631347656 86.48320007324219 C 225.93861389160156 88.12889862060547 228.5137176513672 83.99462127685547 232.00489807128906 78.80994415283203" stroke-width="3.0" fill="none" stroke="rgb(0, 0, 0)" stroke-opacity="0.896255" stroke-linecap="round" stroke-linejoin="round"/>
    <path d="M 43.4811897277832 -8.344862937927246 C 40.98875045776367 -8.200153350830078 44.0922737121582 -8.792800903320312 43.007568359375 -6.455827713012695" stroke-width="3.0" fill="none" stroke="rgb(0, 0, 0)" stroke-opacity="0.8490645" stroke-linecap="round" stroke-linejoin="round"/>
    <path d="M 63.06269073486328 212.2980194091797 C -65.4108657836914 173.5167236328125 -37.41935348510742 181.13510131835938 108.78978729248047 222.93589782714844" stroke-width="3.0" fill="none" stroke="rgb(-4, -2, 6)" stroke-opacity="0.12195311" stroke-linecap="round" stroke-linejoin="round"/>
    <path d="M 228.479736328125 186.38250732421875 C 105.84351348876953 188.8519744873047 168.72413635253906 196.78060913085938 231.25408935546875 197.52622985839844" stroke-width="3.0" fill="none" stroke="rgb(-2, 0, 3)" stroke-opacity="0.10032746" stroke-linecap="round" stroke-linejoin="round"/>
    <path d="M 126.38987731933594 203.31814575195312 C 57.192935943603516 190.46600341796875 84.61753845214844 224.95330810546875 90.7141342163086 190.49755859375" stroke-width="3.0" fill="none" stroke="rgb(2, 1, -3)" stroke-opacity="0.12710463" stroke-linecap="round" stroke-linejoin="round"/>
    <path d="M 76.17195892333984 157.07728576660156 C 93.61862182617188 146.74452209472656 98.00028228759766 118.0260238647461 80.22383117675781 155.41773986816406" stroke-width="3.0" fill="none" stroke="rgb(-2, 2, 1)" stroke-opacity="0.4689718" stroke-linecap="round" stroke-linejoin="round"/>
    <path d="M 88.9624252319336 127.873291015625 C 122.78876495361328 124.43468475341797 124.0758056640625 168.92677307128906 103.7561264038086 136.14291381835938" stroke-width="3.0" fill="none" stroke="rgb(1, -1, -2)" stroke-opacity="0.07957322" stroke-linecap="round" stroke-linejoin="round"/>
    <path d="M 108.73504638671875 123.40216827392578 C 99.95127868652344 102.59907531738281 128.74862670898438 76.70936584472656 108.66398620605469 117.19242858886719" stroke-width="3.0" fill="none" stroke="rgb(2, 0, -1)" stroke-opacity="0.03626882" stroke-linecap="round" stroke-linejoin="round"/>
    <path d="M 127.7806167602539 108.058349609375 C 160.5708465576172 132.215087890625 149.43544006347656 158.48655700683594 76.62628173828125 140.1165771484375" stroke-width="3.0" fill="none" stroke="rgb(0, 0, 1)" stroke-opacity="0.022601113" stroke-linecap="round" stroke-linejoin="round"/>
    <path d="M 87.53848266601562 188.4199676513672 C 73.14598846435547 193.9508056640625 96.6361083984375 190.2703094482422 81.51922607421875 141.9523468017578" stroke-width="3.0" fill="none" stroke="rgb(-2, 2, 2)" stroke-opacity="0.30106008" stroke-linecap="round" stroke-linejoin="round"/>
    <path d="M 88.11943817138672 98.25821685791016 C 66.00247192382812 122.67044830322266 84.91595458984375 113.78697967529297 69.2080078125 114.58088684082031" stroke-width="3.0" fill="none" stroke="rgb(-3, 2, 3)" stroke-opacity="0.09608349" stroke-linecap="round" stroke-linejoin="round"/>
    <path d="M 216.96778869628906 124.00204467773438 C 192.3576202392578 148.9178466796875 265.7734680175781 118.92166900634766 193.4522247314453 150.8423309326172" stroke-width="3.0" fill="none" stroke="rgb(-1, 1, -1)" stroke-opacity="0.13048536" stroke-linecap="round" stroke-linejoin="round"/>
    <path d="M 115.39157104492188 170.5229949951172 C 151.0751190185547 169.8282012939453 116.7388687133789 180.699951171875 124.70941162109375 161.20091247558594" stroke-width="3.0" fill="none" stroke="rgb(-1, 1, 0)" stroke-opacity="0.09316296" stroke-linecap="round" stroke-linejoin="round"/>
    <path d="M 217.6033172607422 114.9864501953125 C 196.11293029785156 56.537567138671875 201.6273956298828 67.08611297607422 192.94837951660156 50.93429183959961" stroke-width="3.0" fill="none" stroke="rgb(0, 0, 1)" stroke-opacity="0.035329815" stroke-linecap="round" stroke-linejoin="round"/>
    <path d="M 17.579036712646484 111.63441467285156 C 138.38616943359375 104.2252426147461 48.555538177490234 78.81038665771484 70.40106201171875 90.51458740234375" stroke-width="3.0" fill="none" stroke="rgb(0, 0, 0)" stroke-opacity="0.02732352" stroke-linecap="round" stroke-linejoin="round"/>
    <path d="M 82.64688873291016 89.56353759765625 C 80.8036880493164 85.97380828857422 123.45269775390625 74.83325958251953 77.25263214111328 100.27342224121094" stroke-width="3.0" fill="none" stroke="rgb(-3, 1, 3)" stroke-opacity="0.16871378" stroke-linecap="round" stroke-linejoin="round"/>
  </g>
</svg>
