<?xml version="1.0" ?>
<svg xmlns="http://www.w3.org/2000/svg" version="1.1" width="224" height="224">
  <defs/>
  <g>
    <path d="M -7.439873695373535 208.89288330078125 C -0.8460269570350647 226.0240936279297 -8.101669311523438 215.5634765625 -5.352052688598633 219.15151977539062" stroke-width="3.0" fill="none" stroke="rgb(10, 70, 42)" stroke-opacity="0.7878123" stroke-linecap="round" stroke-linejoin="round"/>
    <path d="M 184.20401000976562 179.12669372558594 C 175.3170623779297 140.06475830078125 158.14434814453125 138.8949432373047 234.18003845214844 140.3797607421875" stroke-width="3.0" fill="none" stroke="rgb(78, 143, 143)" stroke-opacity="0.4908504" stroke-linecap="round" stroke-linejoin="round"/>
    <path d="M 227.06163024902344 54.0223274230957 C 113.98284912109375 90.88899230957031 142.16566467285156 67.55484771728516 234.4874725341797 43.28321838378906" stroke-width="3.0" fill="none" stroke="rgb(108, 175, -1)" stroke-opacity="0.35890207" stroke-linecap="round" stroke-linejoin="round"/>
    <path d="M 135.47720336914062 47.234527587890625 C 59.58684539794922 27.525598526000977 92.14566802978516 43.817100524902344 129.28329467773438 35.956356048583984" stroke-width="3.0" fill="none" stroke="rgb(256, 218, -1)" stroke-opacity="0.18209088" stroke-linecap="round" stroke-linejoin="round"/>
    <path d="M 248.29330444335938 147.62200927734375 C 223.3611297607422 152.33447265625 183.7596435546875 119.29164123535156 226.9263458251953 141.1326446533203" stroke-width="3.0" fill="none" stroke="rgb(143, 140, 168)" stroke-opacity="1.0023234" stroke-linecap="round" stroke-linejoin="round"/>
    <path d="M 5.884894371032715 219.14328002929688 C 35.51478576660156 148.68763732910156 49.31013870239258 152.59156799316406 -4.02324914932251 205.75643920898438" stroke-width="3.0" fill="none" stroke="rgb(249, 64, 216)" stroke-opacity="0.35827312" stroke-linecap="round" stroke-linejoin="round"/>
    <path d="M 135.20440673828125 141.6781463623047 C 134.023681640625 156.5423583984375 149.96295166015625 167.22068786621094 167.39028930664062 212.49765014648438" stroke-width="3.0" fill="none" stroke="rgb(256, 2, 45)" stroke-opacity="0.34222007" stroke-linecap="round" stroke-linejoin="round"/>
    <path d="M 69.27294921875 136.7471466064453 C 69.31864929199219 169.4381103515625 107.45146942138672 133.52174377441406 83.33716583251953 143.95571899414062" stroke-width="3.0" fill="none" stroke="rgb(20, 16, 50)" stroke-opacity="0.7802194" stroke-linecap="round" stroke-linejoin="round"/>
    <path d="M 143.72203063964844 180.3625946044922 C 116.87137603759766 129.57908630371094 120.64445495605469 123.27543640136719 154.95309448242188 193.17947387695312" stroke-width="3.0" fill="none" stroke="rgb(127, 106, 171)" stroke-opacity="0.66116285" stroke-linecap="round" stroke-linejoin="round"/>
    <path d="M 25.857664108276367 151.75543212890625 C 70.34110260009766 143.6228790283203 28.222211837768555 275.0273132324219 40.215152740478516 162.5395965576172" stroke-width="3.0" fill="none" stroke="rgb(13, 221, 121)" stroke-opacity="0.2034115" stroke-linecap="round" stroke-linejoin="round"/>
    <path d="M 86.36477661132812 17.776535034179688 C 58.00191879272461 -48.28130340576172 83.76541900634766 161.03091430664062 65.24214172363281 10.81570816040039" stroke-width="3.0" fill="none" stroke="rgb(258, 106, 123)" stroke-opacity="0.1956158" stroke-linecap="round" stroke-linejoin="round"/>
    <path d="M -1.5661275386810303 170.39463806152344 C 62.37989044189453 135.92222595214844 -36.37250518798828 167.6952362060547 11.66878890991211 159.81939697265625" stroke-width="3.0" fill="none" stroke="rgb(132, 89, 255)" stroke-opacity="0.21716596" stroke-linecap="round" stroke-linejoin="round"/>
    <path d="M 151.2896728515625 229.1023406982422 C 9.15698528289795 188.42697143554688 26.104930877685547 227.88583374023438 130.2522430419922 199.15956115722656" stroke-width="3.0" fill="none" stroke="rgb(157, 154, 256)" stroke-opacity="0.5379549" stroke-linecap="round" stroke-linejoin="round"/>
    <path d="M 147.95346069335938 159.43280029296875 C 215.70469665527344 269.1133117675781 193.95147705078125 231.97329711914062 96.18852233886719 149.9142608642578" stroke-width="3.0" fill="none" stroke="rgb(228, 106, 100)" stroke-opacity="0.24541636" stroke-linecap="round" stroke-linejoin="round"/>
    <path d="M 164.94313049316406 89.9401626586914 C 154.33267211914062 77.8089370727539 146.33807373046875 55.753658294677734 163.2244110107422 97.45702362060547" stroke-width="3.0" fill="none" stroke="rgb(104, 41, 82)" stroke-opacity="0.76899374" stroke-linecap="round" stroke-linejoin="round"/>
    <path d="M 59.96117401123047 40.36261749267578 C 50.21958923339844 74.91404724121094 63.48120880126953 105.35557556152344 58.44056701660156 49.95027160644531" stroke-width="3.0" fill="none" stroke="rgb(104, 123, 192)" stroke-opacity="0.3326115" stroke-linecap="round" stroke-linejoin="round"/>
    <path d="M 96.64138793945312 4.740545749664307 C 41.98997497558594 -2.754897356033325 16.400821685791016 -6.653743267059326 45.71678161621094 -7.095134258270264" stroke-width="3.0" fill="none" stroke="rgb(258, 83, 178)" stroke-opacity="0.3367994" stroke-linecap="round" stroke-linejoin="round"/>
    <path d="M 49.73618698120117 81.07373046875 C 93.90361785888672 116.57563018798828 76.38919067382812 198.4745330810547 52.46227264404297 67.54215240478516" stroke-width="3.0" fill="none" stroke="rgb(60, 103, 3)" stroke-opacity="0.10493572" stroke-linecap="round" stroke-linejoin="round"/>
    <path d="M 44.06843948364258 46.62740707397461 C 62.33424758911133 9.66690731048584 56.139739990234375 -22.586767196655273 70.04339599609375 6.8023152351379395" stroke-width="3.0" fill="none" stroke="rgb(140, 140, 189)" stroke-opacity="0.29044393" stroke-linecap="round" stroke-linejoin="round"/>
    <path d="M 125.83259582519531 74.24281311035156 C 128.88340759277344 100.13484954833984 107.7716293334961 114.71588897705078 161.01116943359375 160.758056640625" stroke-width="3.0" fill="none" stroke="rgb(28, 185, 211)" stroke-opacity="0.2540883" stroke-linecap="round" stroke-linejoin="round"/>
    <path d="M 130.15174865722656 87.67633819580078 C 130.7774658203125 141.15274047851562 149.30923461914062 126.59785461425781 187.80665588378906 204.169189453125" stroke-width="3.0" fill="none" stroke="rgb(-1, 171, 257)" stroke-opacity="0.2935966" stroke-linecap="round" stroke-linejoin="round"/>
    <path d="M 79.29009246826172 85.3875961303711 C 72.11170959472656 49.260948181152344 144.2804412841797 66.90055847167969 61.141239166259766 52.08199691772461" stroke-width="3.0" fill="none" stroke="rgb(258, 149, 171)" stroke-opacity="0.18264577" stroke-linecap="round" stroke-linejoin="round"/>
    <path d="M 68.1256103515625 71.36442565917969 C 70.83529663085938 64.94405364990234 63.89711380004883 74.45478820800781 59.936370849609375 54.49065017700195" stroke-width="3.0" fill="none" stroke="rgb(151, 124, 39)" stroke-opacity="0.68819755" stroke-linecap="round" stroke-linejoin="round"/>
    <path d="M 111.36293029785156 185.59596252441406 C 11.38046646118164 202.16261291503906 70.86365509033203 174.95741271972656 110.11627197265625 183.2998046875" stroke-width="3.0" fill="none" stroke="rgb(135, 93, 234)" stroke-opacity="0.2892013" stroke-linecap="round" stroke-linejoin="round"/>
    <path d="M 96.13259887695312 -7.47275972366333 C 105.08631134033203 -5.828701972961426 104.32221984863281 -2.5226023197174072 99.58467864990234 -5.504170894622803" stroke-width="3.0" fill="none" stroke="rgb(51, 43, 0)" stroke-opacity="0.82673615" stroke-linecap="round" stroke-linejoin="round"/>
    <path d="M 184.47218322753906 15.824646949768066 C 204.3169708251953 21.734041213989258 203.20005798339844 19.07192039489746 231.6714324951172 41.242008209228516" stroke-width="3.0" fill="none" stroke="rgb(4, 17, 123)" stroke-opacity="0.25844014" stroke-linecap="round" stroke-linejoin="round"/>
    <path d="M 72.22063446044922 69.9944839477539 C 136.7371063232422 17.235498428344727 140.1376190185547 18.701053619384766 111.90994262695312 103.00481414794922" stroke-width="3.0" fill="none" stroke="rgb(217, 244, 93)" stroke-opacity="0.12384854" stroke-linecap="round" stroke-linejoin="round"/>
    <path d="M 92.68408966064453 166.09268188476562 C 73.5997543334961 193.4957275390625 94.35468292236328 181.72413635253906 116.93428039550781 191.053466796875" stroke-width="3.0" fill="none" stroke="rgb(75, 205, 76)" stroke-opacity="0.37956095" stroke-linecap="round" stroke-linejoin="round"/>
    <path d="M 131.44622802734375 30.229787826538086 C 154.68475341796875 78.92512512207031 159.42137145996094 165.289306640625 149.58509826660156 53.446502685546875" stroke-width="3.0" fill="none" stroke="rgb(-2, 146, 256)" stroke-opacity="0.47217497" stroke-linecap="round" stroke-linejoin="round"/>
    <path d="M 107.83414459228516 -10.491934776306152 C 105.44307708740234 31.903318405151367 116.38724517822266 1.2277657985687256 95.5693359375 -3.372375726699829" stroke-width="3.0" fill="none" stroke="rgb(52, 61, 102)" stroke-opacity="0.5532229" stroke-linecap="round" stroke-linejoin="round"/>
    <path d="M 78.74805450439453 125.91207122802734 C 59.11636734008789 127.85171508789062 54.264896392822266 198.12435913085938 59.045928955078125 184.82554626464844" stroke-width="3.0" fill="none" stroke="rgb(72, 185, 0)" stroke-opacity="0.4155722" stroke-linecap="round" stroke-linejoin="round"/>
    <path d="M 188.5503387451172 185.85482788085938 C 241.40536499023438 213.92041015625 222.88302612304688 234.4120635986328 209.9961395263672 166.0702362060547" stroke-width="3.0" fill="none" stroke="rgb(103, 257, 45)" stroke-opacity="0.1766285" stroke-linecap="round" stroke-linejoin="round"/>
    <path d="M 94.38665008544922 6.425967216491699 C 93.284912109375 31.161420822143555 108.06619262695312 -5.094004154205322 93.43495178222656 15.623571395874023" stroke-width="3.0" fill="none" stroke="rgb(20, 75, 124)" stroke-opacity="0.91024387" stroke-linecap="round" stroke-linejoin="round"/>
    <path d="M 140.03265380859375 44.21894836425781 C 161.6630401611328 91.74019622802734 166.51773071289062 69.5086669921875 126.5766372680664 22.9973201751709" stroke-width="3.0" fill="none" stroke="rgb(13, 47, 198)" stroke-opacity="0.40026686" stroke-linecap="round" stroke-linejoin="round"/>
    <path d="M 86.85363006591797 93.6361312866211 C 96.87850189208984 69.4594497680664 44.81883239746094 58.38262939453125 100.18112182617188 93.01228332519531" stroke-width="3.0" fill="none" stroke="rgb(257, 86, 145)" stroke-opacity="0.12956317" stroke-linecap="round" stroke-linejoin="round"/>
    <path d="M -7.777303218841553 101.24913024902344 C 8.525764465332031 86.3712387084961 4.001621723175049 87.21878814697266 -4.0734171867370605 111.66154479980469" stroke-width="3.0" fill="none" stroke="rgb(67, 70, 138)" stroke-opacity="0.41971165" stroke-linecap="round" stroke-linejoin="round"/>
    <path d="M 188.93856811523438 71.68090057373047 C 125.91690063476562 101.56539916992188 150.56033325195312 28.681005477905273 156.62127685546875 94.11046600341797" stroke-width="3.0" fill="none" stroke="rgb(67, 74, 255)" stroke-opacity="0.264198" stroke-linecap="round" stroke-linejoin="round"/>
    <path d="M 94.58332824707031 96.32630157470703 C 62.0912971496582 169.76454162597656 76.48648834228516 121.53965759277344 99.96830749511719 61.63634490966797" stroke-width="3.0" fill="none" stroke="rgb(226, 170, 219)" stroke-opacity="0.12208459" stroke-linecap="round" stroke-linejoin="round"/>
    <path d="M 103.92373657226562 119.80030822753906 C 132.56687927246094 128.25970458984375 124.8391342163086 139.595703125 103.96359252929688 81.580810546875" stroke-width="3.0" fill="none" stroke="rgb(256, 30, 14)" stroke-opacity="0.36188844" stroke-linecap="round" stroke-linejoin="round"/>
    <path d="M 161.87709045410156 79.73538970947266 C 183.11978149414062 36.61723709106445 206.90667724609375 48.81411361694336 156.07151794433594 56.96937942504883" stroke-width="3.0" fill="none" stroke="rgb(75, 121, 1)" stroke-opacity="0.4465266" stroke-linecap="round" stroke-linejoin="round"/>
    <path d="M 34.77324295043945 160.80807495117188 C -26.656892776489258 183.8663330078125 2.2367238998413086 236.13490295410156 -2.6203582286834717 133.58621215820312" stroke-width="3.0" fill="none" stroke="rgb(87, 222, 254)" stroke-opacity="0.35026944" stroke-linecap="round" stroke-linejoin="round"/>
    <path d="M 204.24810791015625 101.55209350585938 C 203.4466094970703 50.91081619262695 234.6690673828125 80.10737609863281 227.154541015625 121.37020874023438" stroke-width="3.0" fill="none" stroke="rgb(162, 127, 235)" stroke-opacity="0.36175254" stroke-linecap="round" stroke-linejoin="round"/>
    <path d="M 137.64842224121094 138.49649047851562 C 140.0997314453125 83.11133575439453 125.22252655029297 104.39693450927734 135.75991821289062 45.83681869506836" stroke-width="3.0" fill="none" stroke="rgb(152, 253, 153)" stroke-opacity="0.25998786" stroke-linecap="round" stroke-linejoin="round"/>
    <path d="M 121.77176666259766 25.46061897277832 C 95.41957092285156 37.627132415771484 95.21018981933594 8.60525894165039 100.2694091796875 76.78239440917969" stroke-width="3.0" fill="none" stroke="rgb(256, 57, 174)" stroke-opacity="0.31097358" stroke-linecap="round" stroke-linejoin="round"/>
    <path d="M 123.32122802734375 36.28848648071289 C 82.3871078491211 -9.256739616394043 84.22772979736328 48.58676528930664 67.14440155029297 39.946590423583984" stroke-width="3.0" fill="none" stroke="rgb(257, 70, 132)" stroke-opacity="0.20167509" stroke-linecap="round" stroke-linejoin="round"/>
    <path d="M -3.401517152786255 119.66056060791016 C 12.120970726013184 91.0714340209961 17.282299041748047 82.75420379638672 56.71953201293945 73.84165954589844" stroke-width="3.0" fill="none" stroke="rgb(112, 90, 186)" stroke-opacity="0.3382787" stroke-linecap="round" stroke-linejoin="round"/>
    <path d="M 28.214862823486328 10.869049072265625 C -10.478687286376953 48.23005294799805 8.144639015197754 84.98241424560547 41.19099807739258 13.876154899597168" stroke-width="3.0" fill="none" stroke="rgb(144, 232, 102)" stroke-opacity="0.30533934" stroke-linecap="round" stroke-linejoin="round"/>
    <path d="M 112.58972930908203 -22.817941665649414 C 121.6966781616211 -0.08595001697540283 106.64774322509766 20.070314407348633 129.60659790039062 -0.07001589983701706" stroke-width="3.0" fill="none" stroke="rgb(56, 87, 117)" stroke-opacity="0.29529336" stroke-linecap="round" stroke-linejoin="round"/>
    <path d="M 155.88597106933594 161.80062866210938 C 141.01124572753906 142.39073181152344 162.6417236328125 155.7783966064453 193.12332153320312 223.44992065429688" stroke-width="3.0" fill="none" stroke="rgb(58, 75, 123)" stroke-opacity="0.55208504" stroke-linecap="round" stroke-linejoin="round"/>
    <path d="M 166.35824584960938 24.475584030151367 C 146.9632110595703 11.501740455627441 112.16120910644531 3.5078790187835693 162.3633575439453 31.327306747436523" stroke-width="3.0" fill="none" stroke="rgb(34, 225, 82)" stroke-opacity="0.103885286" stroke-linecap="round" stroke-linejoin="round"/>
    <path d="M 185.9386749267578 222.1571044921875 C 143.53826904296875 162.99766540527344 163.50018310546875 195.04847717285156 180.688232421875 231.15151977539062" stroke-width="3.0" fill="none" stroke="rgb(257, 5, 103)" stroke-opacity="0.17871982" stroke-linecap="round" stroke-linejoin="round"/>
    <path d="M 184.301025390625 164.54164123535156 C 212.71717834472656 149.58694458007812 207.66079711914062 153.83482360839844 185.88710021972656 181.76800537109375" stroke-width="3.0" fill="none" stroke="rgb(153, 225, 104)" stroke-opacity="0.25685287" stroke-linecap="round" stroke-linejoin="round"/>
    <path d="M 125.26657104492188 27.567331314086914 C 58.25048065185547 53.526004791259766 50.13541793823242 50.80802917480469 77.68233489990234 24.303571701049805" stroke-width="3.0" fill="none" stroke="rgb(258, 141, 175)" stroke-opacity="0.28758493" stroke-linecap="round" stroke-linejoin="round"/>
    <path d="M 62.52478790283203 55.174251556396484 C 57.54300308227539 16.98320960998535 78.44910430908203 77.28434753417969 95.05255889892578 47.094783782958984" stroke-width="3.0" fill="none" stroke="rgb(256, 129, 115)" stroke-opacity="0.25133663" stroke-linecap="round" stroke-linejoin="round"/>
    <path d="M 67.65188598632812 77.56383514404297 C 118.04664611816406 111.51893615722656 127.01506042480469 155.40708923339844 99.60802459716797 108.09164428710938" stroke-width="3.0" fill="none" stroke="rgb(256, 110, 76)" stroke-opacity="0.4445355" stroke-linecap="round" stroke-linejoin="round"/>
    <path d="M 40.707305908203125 98.78369903564453 C -14.294759750366211 141.79519653320312 33.90143966674805 140.7683868408203 -0.6183170080184937 119.93627166748047" stroke-width="3.0" fill="none" stroke="rgb(1, 139, 11)" stroke-opacity="0.20011708" stroke-linecap="round" stroke-linejoin="round"/>
    <path d="M 26.07154655456543 62.143798828125 C -8.405096054077148 70.70816040039062 46.97694778442383 63.75897979736328 -5.713387966156006 68.03543853759766" stroke-width="3.0" fill="none" stroke="rgb(162, 207, 238)" stroke-opacity="0.4981552" stroke-linecap="round" stroke-linejoin="round"/>
    <path d="M 127.72254943847656 22.104467391967773 C 87.0769271850586 16.475339889526367 170.6797332763672 23.866403579711914 150.6573486328125 53.123558044433594" stroke-width="3.0" fill="none" stroke="rgb(10, 129, 68)" stroke-opacity="0.30235717" stroke-linecap="round" stroke-linejoin="round"/>
    <path d="M 224.18101501464844 -3.41386342048645 C 96.79499053955078 9.262460708618164 91.47269439697266 17.96977996826172 197.80726623535156 9.576484680175781" stroke-width="3.0" fill="none" stroke="rgb(162, 238, 99)" stroke-opacity="0.3474642" stroke-linecap="round" stroke-linejoin="round"/>
    <path d="M 127.81566619873047 -16.237783432006836 C 128.24981689453125 4.9761528968811035 111.7722396850586 30.2490234375 101.6270523071289 -3.3283369541168213" stroke-width="3.0" fill="none" stroke="rgb(85, 149, 155)" stroke-opacity="0.2606831" stroke-linecap="round" stroke-linejoin="round"/>
    <path d="M 60.382572174072266 38.253456115722656 C 100.20589447021484 -3.3716344833374023 59.072261810302734 -0.2952020764350891 130.7258758544922 42.703216552734375" stroke-width="3.0" fill="none" stroke="rgb(255, 153, 167)" stroke-opacity="0.2513947" stroke-linecap="round" stroke-linejoin="round"/>
    <path d="M 37.977298736572266 155.66249084472656 C -6.240558624267578 181.1407470703125 27.96067237854004 145.3596649169922 -8.495287895202637 131.2208251953125" stroke-width="3.0" fill="none" stroke="rgb(91, 73, 156)" stroke-opacity="0.22103736" stroke-linecap="round" stroke-linejoin="round"/>
    <path d="M 97.25186157226562 56.58561325073242 C 95.94933319091797 77.94820404052734 86.4046401977539 99.10517120361328 93.51848602294922 59.53224182128906" stroke-width="3.0" fill="none" stroke="rgb(256, 160, 191)" stroke-opacity="0.22451703" stroke-linecap="round" stroke-linejoin="round"/>
    <path d="M -1.2990738153457642 154.79623413085938 C 35.88289260864258 142.46527099609375 -12.733955383300781 168.6379852294922 52.552059173583984 155.51510620117188" stroke-width="3.0" fill="none" stroke="rgb(185, 175, 256)" stroke-opacity="0.43820724" stroke-linecap="round" stroke-linejoin="round"/>
    <path d="M 33.044822692871094 226.0429229736328 C 13.751264572143555 199.77235412597656 42.50309753417969 123.28204345703125 13.305269241333008 230.45257568359375" stroke-width="3.0" fill="none" stroke="rgb(5, 192, 138)" stroke-opacity="0.39026624" stroke-linecap="round" stroke-linejoin="round"/>
    <path d="M 62.6364631652832 177.30148315429688 C 94.08177185058594 100.9807357788086 73.65123748779297 139.1328125 133.723876953125 200.22457885742188" stroke-width="3.0" fill="none" stroke="rgb(199, 180, 148)" stroke-opacity="0.51616573" stroke-linecap="round" stroke-linejoin="round"/>
    <path d="M -28.69803810119629 147.25428771972656 C -0.14099350571632385 170.3177032470703 -17.868350982666016 130.5873260498047 56.798851013183594 147.75645446777344" stroke-width="3.0" fill="none" stroke="rgb(169, 140, 253)" stroke-opacity="0.5537026" stroke-linecap="round" stroke-linejoin="round"/>
    <path d="M 225.93264770507812 131.39886474609375 C 138.53536987304688 122.08692932128906 131.20394897460938 87.13324737548828 228.11691284179688 122.51116180419922" stroke-width="3.0" fill="none" stroke="rgb(192, 256, 23)" stroke-opacity="0.3553268" stroke-linecap="round" stroke-linejoin="round"/>
    <path d="M -8.829334259033203 56.19058609008789 C -14.76818561553955 56.41138458251953 4.5144476890563965 68.00153350830078 -4.594346046447754 61.809329986572266" stroke-width="3.0" fill="none" stroke="rgb(108, 72, 161)" stroke-opacity="0.42402896" stroke-linecap="round" stroke-linejoin="round"/>
    <path d="M 191.1592254638672 194.2279815673828 C 126.8080825805664 122.73251342773438 147.70040893554688 12.661120414733887 146.22923278808594 145.87062072753906" stroke-width="3.0" fill="none" stroke="rgb(-1, 206, 256)" stroke-opacity="0.2134819" stroke-linecap="round" stroke-linejoin="round"/>
    <path d="M 154.55751037597656 197.6763458251953 C 96.28961181640625 149.585205078125 126.14163970947266 133.42645263671875 111.04283142089844 154.6328887939453" stroke-width="3.0" fill="none" stroke="rgb(170, 174, 193)" stroke-opacity="1.0055075" stroke-linecap="round" stroke-linejoin="round"/>
    <path d="M 180.12672424316406 165.19325256347656 C 159.3075714111328 72.13997650146484 154.7224884033203 87.08332061767578 195.96995544433594 98.19446563720703" stroke-width="3.0" fill="none" stroke="rgb(118, 129, 210)" stroke-opacity="0.5872988" stroke-linecap="round" stroke-linejoin="round"/>
    <path d="M 228.05084228515625 216.67703247070312 C 160.2397918701172 179.9228515625 205.15843200683594 205.50250244140625 220.6271514892578 165.99000549316406" stroke-width="3.0" fill="none" stroke="rgb(100, 219, 33)" stroke-opacity="0.23600967" stroke-linecap="round" stroke-linejoin="round"/>
    <path d="M 117.82521057128906 76.93866729736328 C 100.21820068359375 -4.675220489501953 131.1403350830078 196.24884033203125 128.9990997314453 60.09663009643555" stroke-width="3.0" fill="none" stroke="rgb(73, 258, 131)" stroke-opacity="0.16592287" stroke-linecap="round" stroke-linejoin="round"/>
    <path d="M 74.3304443359375 81.4717025756836 C 106.6574935913086 65.7033462524414 101.44461059570312 54.42145919799805 70.69998168945312 65.156494140625" stroke-width="3.0" fill="none" stroke="rgb(257, 157, 206)" stroke-opacity="0.22622196" stroke-linecap="round" stroke-linejoin="round"/>
    <path d="M -6.726737022399902 59.47935104370117 C 142.1497344970703 70.75901794433594 16.516708374023438 60.24079895019531 2.1516342163085938 87.59149169921875" stroke-width="3.0" fill="none" stroke="rgb(159, 137, 255)" stroke-opacity="0.22608244" stroke-linecap="round" stroke-linejoin="round"/>
    <path d="M 74.19824981689453 125.56735229492188 C 128.18382263183594 114.53638458251953 64.83211517333984 120.56774139404297 86.34115600585938 125.20735168457031" stroke-width="3.0" fill="none" stroke="rgb(184, 205, 200)" stroke-opacity="1.0024666" stroke-linecap="round" stroke-linejoin="round"/>
    <path d="M 76.20693969726562 143.92213439941406 C 132.5610809326172 193.653564453125 111.09846496582031 188.73159790039062 161.26141357421875 230.417724609375" stroke-width="3.0" fill="none" stroke="rgb(184, 156, 169)" stroke-opacity="0.91285145" stroke-linecap="round" stroke-linejoin="round"/>
    <path d="M 154.974853515625 195.46844482421875 C 121.88419342041016 166.6770782470703 136.68458557128906 155.55772399902344 171.1820526123047 226.61891174316406" stroke-width="3.0" fill="none" stroke="rgb(57, 141, 255)" stroke-opacity="0.36868384" stroke-linecap="round" stroke-linejoin="round"/>
    <path d="M 121.31034851074219 93.9896011352539 C 131.53797912597656 54.62931442260742 84.65196228027344 116.43354797363281 115.79529571533203 67.9360580444336" stroke-width="3.0" fill="none" stroke="rgb(136, 257, 175)" stroke-opacity="0.11908413" stroke-linecap="round" stroke-linejoin="round"/>
    <path d="M 83.47180938720703 23.825529098510742 C 79.63453674316406 63.819705963134766 70.49744415283203 93.95709991455078 89.5403060913086 36.073490142822266" stroke-width="3.0" fill="none" stroke="rgb(258, 169, 200)" stroke-opacity="0.26719895" stroke-linecap="round" stroke-linejoin="round"/>
    <path d="M 135.7965545654297 141.0603790283203 C 195.4327392578125 206.02423095703125 177.1760711669922 222.23484802246094 198.2832794189453 230.19126892089844" stroke-width="3.0" fill="none" stroke="rgb(257, 39, 0)" stroke-opacity="0.3378474" stroke-linecap="round" stroke-linejoin="round"/>
    <path d="M 55.945281982421875 20.78009033203125 C 82.1205825805664 -25.251319885253906 51.10899353027344 -4.141765594482422 63.52397155761719 37.61480712890625" stroke-width="3.0" fill="none" stroke="rgb(143, 153, 187)" stroke-opacity="0.76719254" stroke-linecap="round" stroke-linejoin="round"/>
    <path d="M 190.04652404785156 208.23638916015625 C 217.8199920654297 251.4313507080078 235.69430541992188 239.79261779785156 189.66587829589844 202.07748413085938" stroke-width="3.0" fill="none" stroke="rgb(225, 257, 5)" stroke-opacity="0.5756194" stroke-linecap="round" stroke-linejoin="round"/>
    <path d="M 226.24673461914062 71.63399505615234 C 154.70223999023438 167.72959899902344 149.46865844726562 133.34500122070312 233.24246215820312 108.3021240234375" stroke-width="3.0" fill="none" stroke="rgb(127, 187, 90)" stroke-opacity="0.37883082" stroke-linecap="round" stroke-linejoin="round"/>
    <path d="M 53.24172592163086 75.87194061279297 C -11.398744583129883 114.35597229003906 16.129892349243164 115.79141235351562 -1.615456461906433 115.96607208251953" stroke-width="3.0" fill="none" stroke="rgb(58, 131, 98)" stroke-opacity="0.3028241" stroke-linecap="round" stroke-linejoin="round"/>
    <path d="M 125.12760162353516 120.7976303100586 C 116.98331451416016 102.76130676269531 118.5229263305664 120.75654602050781 128.2626190185547 129.56285095214844" stroke-width="3.0" fill="none" stroke="rgb(125, 100, 122)" stroke-opacity="0.6045961" stroke-linecap="round" stroke-linejoin="round"/>
    <path d="M 161.35427856445312 125.0865707397461 C 165.69094848632812 47.71141052246094 144.67359924316406 75.09556579589844 178.12184143066406 167.11489868164062" stroke-width="3.0" fill="none" stroke="rgb(53, 223, 258)" stroke-opacity="0.35205844" stroke-linecap="round" stroke-linejoin="round"/>
    <path d="M 51.046607971191406 223.10430908203125 C -0.11015309393405914 195.2115020751953 139.64271545410156 186.2802734375 34.96806716918945 211.75096130371094" stroke-width="3.0" fill="none" stroke="rgb(165, 124, 242)" stroke-opacity="0.3094673" stroke-linecap="round" stroke-linejoin="round"/>
    <path d="M 94.99262237548828 44.408180236816406 C 115.11051940917969 0.06967364996671677 80.6295394897461 43.87264633178711 139.80227661132812 4.2729387283325195" stroke-width="3.0" fill="none" stroke="rgb(103, 5, 151)" stroke-opacity="0.15538089" stroke-linecap="round" stroke-linejoin="round"/>
    <path d="M 116.43529510498047 17.648935317993164 C 119.91500854492188 -1.4031448364257812 116.18526458740234 33.96685791015625 103.29029846191406 2.134917736053467" stroke-width="3.0" fill="none" stroke="rgb(30, 23, 34)" stroke-opacity="0.7703307" stroke-linecap="round" stroke-linejoin="round"/>
    <path d="M 72.0467529296875 28.504636764526367 C 30.05179786682129 79.11014556884766 45.40774917602539 29.880306243896484 59.396183013916016 136.6258544921875" stroke-width="3.0" fill="none" stroke="rgb(93, 38, 123)" stroke-opacity="0.13490827" stroke-linecap="round" stroke-linejoin="round"/>
    <path d="M 227.98414611816406 35.81681442260742 C 195.7350311279297 31.29457664489746 195.2532501220703 55.743873596191406 160.76699829101562 49.646854400634766" stroke-width="3.0" fill="none" stroke="rgb(76, 109, 10)" stroke-opacity="0.50038946" stroke-linecap="round" stroke-linejoin="round"/>
    <path d="M 24.401996612548828 47.86740493774414 C 93.40974426269531 62.56190872192383 21.397994995117188 54.0953369140625 46.20915603637695 73.65502166748047" stroke-width="3.0" fill="none" stroke="rgb(190, 209, 236)" stroke-opacity="0.2859002" stroke-linecap="round" stroke-linejoin="round"/>
    <path d="M 95.77127838134766 -2.470379590988159 C 83.20867156982422 43.76261520385742 96.30565643310547 -4.289887428283691 126.86328887939453 29.192514419555664" stroke-width="3.0" fill="none" stroke="rgb(260, 103, 87)" stroke-opacity="0.64168406" stroke-linecap="round" stroke-linejoin="round"/>
    <path d="M 106.42730712890625 128.4929656982422 C 111.4354019165039 117.43092346191406 105.57093811035156 150.11473083496094 54.23595428466797 67.76709747314453" stroke-width="3.0" fill="none" stroke="rgb(172, 185, 230)" stroke-opacity="0.50019014" stroke-linecap="round" stroke-linejoin="round"/>
    <path d="M 6.097607135772705 55.478431701660156 C 51.12641525268555 75.34309387207031 21.37759780883789 85.88302612304688 54.62470245361328 13.366972923278809" stroke-width="3.0" fill="none" stroke="rgb(215, 203, 241)" stroke-opacity="0.31980872" stroke-linecap="round" stroke-linejoin="round"/>
    <path d="M 227.65591430664062 161.2064208984375 C 223.71365356445312 148.72755432128906 204.7071990966797 143.9800262451172 182.17294311523438 157.000732421875" stroke-width="3.0" fill="none" stroke="rgb(87, 178, 0)" stroke-opacity="0.30454463" stroke-linecap="round" stroke-linejoin="round"/>
    <path d="M 123.12495422363281 207.49655151367188 C 127.36992645263672 226.35369873046875 180.0047149658203 176.2516632080078 144.8301239013672 221.33558654785156" stroke-width="3.0" fill="none" stroke="rgb(209, 243, 178)" stroke-opacity="0.569109" stroke-linecap="round" stroke-linejoin="round"/>
    <path d="M 98.27093505859375 20.290634155273438 C 82.7806625366211 92.40843963623047 51.02302932739258 49.71067810058594 119.84200286865234 27.393291473388672" stroke-width="3.0" fill="none" stroke="rgb(243, 188, 206)" stroke-opacity="0.4886092" stroke-linecap="round" stroke-linejoin="round"/>
    <path d="M 73.2942886352539 89.01280212402344 C 67.58296966552734 82.89388275146484 67.04344177246094 76.63339233398438 60.871700286865234 57.51857376098633" stroke-width="3.0" fill="none" stroke="rgb(-1, 239, 40)" stroke-opacity="0.5356968" stroke-linecap="round" stroke-linejoin="round"/>
    <path d="M 191.25201416015625 237.64732360839844 C 185.85409545898438 143.2416534423828 176.2302703857422 197.42578125 160.21734619140625 116.32461547851562" stroke-width="3.0" fill="none" stroke="rgb(5, 140, 256)" stroke-opacity="0.3461361" stroke-linecap="round" stroke-linejoin="round"/>
    <path d="M 105.34427642822266 -1.836567759513855 C 126.48975372314453 24.150997161865234 89.54041290283203 7.415944576263428 88.62693786621094 25.05650520324707" stroke-width="3.0" fill="none" stroke="rgb(148, 138, 148)" stroke-opacity="0.9249924" stroke-linecap="round" stroke-linejoin="round"/>
    <path d="M 62.316898345947266 58.95714569091797 C 71.64155578613281 29.67914390563965 58.175743103027344 39.7421875 75.46569061279297 79.91930389404297" stroke-width="3.0" fill="none" stroke="rgb(256, 85, 29)" stroke-opacity="0.28945196" stroke-linecap="round" stroke-linejoin="round"/>
    <path d="M 49.28607177734375 199.4789581298828 C 103.72371673583984 110.39996337890625 118.68428039550781 180.9761505126953 76.58351135253906 201.0550079345703" stroke-width="3.0" fill="none" stroke="rgb(185, 123, 178)" stroke-opacity="0.3603096" stroke-linecap="round" stroke-linejoin="round"/>
    <path d="M 182.67698669433594 30.083953857421875 C 131.16065979003906 43.75830841064453 146.50241088867188 71.35187530517578 193.77896118164062 29.778907775878906" stroke-width="3.0" fill="none" stroke="rgb(210, 238, 179)" stroke-opacity="0.5358695" stroke-linecap="round" stroke-linejoin="round"/>
    <path d="M 85.84176635742188 86.22454833984375 C 115.79165649414062 171.20765686035156 115.35061645507812 104.47367858886719 96.50418853759766 161.35523986816406" stroke-width="3.0" fill="none" stroke="rgb(176, 177, 213)" stroke-opacity="0.29852465" stroke-linecap="round" stroke-linejoin="round"/>
    <path d="M 158.4575958251953 112.73987579345703 C 139.73916625976562 71.99019622802734 135.11410522460938 165.7101593017578 142.35943603515625 63.89480209350586" stroke-width="3.0" fill="none" stroke="rgb(225, 257, -1)" stroke-opacity="0.3757268" stroke-linecap="round" stroke-linejoin="round"/>
    <path d="M 153.6984100341797 6.735871315002441 C 214.17689514160156 27.233642578125 270.0578308105469 -9.942875862121582 169.22994995117188 17.89549446105957" stroke-width="3.0" fill="none" stroke="rgb(90, 226, 57)" stroke-opacity="0.26660654" stroke-linecap="round" stroke-linejoin="round"/>
    <path d="M 81.79383850097656 37.00672912597656 C 98.06459045410156 -21.286327362060547 97.25320434570312 4.139031410217285 67.54010009765625 14.994431495666504" stroke-width="3.0" fill="none" stroke="rgb(259, 149, 144)" stroke-opacity="0.3256559" stroke-linecap="round" stroke-linejoin="round"/>
    <path d="M 57.1846923828125 78.31111907958984 C -0.04155074059963226 128.61788940429688 32.58885955810547 56.585575103759766 -10.888860702514648 48.337955474853516" stroke-width="3.0" fill="none" stroke="rgb(225, 148, 255)" stroke-opacity="0.18408541" stroke-linecap="round" stroke-linejoin="round"/>
    <path d="M 43.921451568603516 45.338077545166016 C 75.44083404541016 2.774277925491333 74.03125 66.9314193725586 62.23695373535156 10.407781600952148" stroke-width="3.0" fill="none" stroke="rgb(243, 230, 244)" stroke-opacity="0.49848685" stroke-linecap="round" stroke-linejoin="round"/>
    <path d="M 34.819007873535156 11.671745300292969 C -2.801316738128662 76.26315307617188 -32.57625198364258 77.70579528808594 26.28404998779297 55.90956497192383" stroke-width="3.0" fill="none" stroke="rgb(123, 184, 142)" stroke-opacity="0.2631365" stroke-linecap="round" stroke-linejoin="round"/>
    <path d="M 69.10612487792969 26.602197647094727 C 68.0057601928711 -2.0084450244903564 93.6911392211914 -27.05495262145996 57.95713424682617 25.884504318237305" stroke-width="3.0" fill="none" stroke="rgb(257, 63, 35)" stroke-opacity="0.23466277" stroke-linecap="round" stroke-linejoin="round"/>
    <path d="M 218.2919158935547 222.384521484375 C 237.64967346191406 225.90255737304688 172.43455505371094 190.70396423339844 227.14317321777344 219.13792419433594" stroke-width="3.0" fill="none" stroke="rgb(14, 256, 9)" stroke-opacity="0.32732812" stroke-linecap="round" stroke-linejoin="round"/>
  </g>
</svg>
