<?xml version="1.0" ?>
<svg xmlns="http://www.w3.org/2000/svg" version="1.1" width="224" height="224">
  <defs/>
  <g>
    <path d="M 235.85174560546875 48.47096633911133 C 107.16410064697266 50.629432678222656 99.94770812988281 52.72455596923828 214.9792022705078 66.73963928222656" stroke-width="3.0" fill="none" stroke="rgb(0, 0, 1)" stroke-opacity="0.04747271" stroke-linecap="round" stroke-linejoin="round"/>
    <path d="M 74.87886810302734 94.11458587646484 C -111.36305236816406 102.8028335571289 -37.02678680419922 111.009521484375 93.4549560546875 120.88064575195312" stroke-width="3.0" fill="none" stroke="rgb(-2, 0, 3)" stroke-opacity="0.05512725" stroke-linecap="round" stroke-linejoin="round"/>
    <path d="M 48.821998596191406 232.481201171875 C 9.154730796813965 163.21754455566406 -34.863807678222656 174.03749084472656 43.857601165771484 225.65625" stroke-width="3.0" fill="none" stroke="rgb(-2, 0, 3)" stroke-opacity="0.02913683" stroke-linecap="round" stroke-linejoin="round"/>
    <path d="M 55.53826141357422 45.387081146240234 C 133.94171142578125 28.912456512451172 79.44988250732422 34.37476348876953 152.83474731445312 17.4210205078125" stroke-width="3.0" fill="none" stroke="rgb(0, 0, 1)" stroke-opacity="0.02311143" stroke-linecap="round" stroke-linejoin="round"/>
    <path d="M 74.65410614013672 103.13766479492188 C 87.61648559570312 158.91455078125 92.95741271972656 150.09234619140625 76.5166244506836 104.67089080810547" stroke-width="3.0" fill="none" stroke="rgb(0, 0, 0)" stroke-opacity="0.3252145" stroke-linecap="round" stroke-linejoin="round"/>
    <path d="M 144.97645568847656 -1.4421145915985107 C 252.5893096923828 26.124555587768555 233.06719970703125 18.420827865600586 192.09176635742188 7.273241996765137" stroke-width="3.0" fill="none" stroke="rgb(0, 0, 2)" stroke-opacity="0.031099027" stroke-linecap="round" stroke-linejoin="round"/>
    <path d="M 49.266319274902344 133.66404724121094 C 88.73580932617188 121.88973236083984 170.77825927734375 149.10472106933594 114.21686553955078 133.40162658691406" stroke-width="3.0" fill="none" stroke="rgb(0, -1, 2)" stroke-opacity="0.1400058" stroke-linecap="round" stroke-linejoin="round"/>
    <path d="M 138.16339111328125 146.3551025390625 C 71.99197387695312 114.93278503417969 136.50213623046875 153.14132690429688 110.69390869140625 124.48914337158203" stroke-width="3.0" fill="none" stroke="rgb(0, -2, 0)" stroke-opacity="0.120971985" stroke-linecap="round" stroke-linejoin="round"/>
    <path d="M 74.19694519042969 100.68746185302734 C 123.4439926147461 146.88523864746094 99.83224487304688 140.87400817871094 77.52656555175781 147.1061248779297" stroke-width="3.0" fill="none" stroke="rgb(1, -2, 1)" stroke-opacity="0.31111687" stroke-linecap="round" stroke-linejoin="round"/>
    <path d="M 57.35911560058594 141.2765350341797 C 129.17739868164062 137.70469665527344 108.07807922363281 150.69837951660156 38.4864387512207 145.1667938232422" stroke-width="3.0" fill="none" stroke="rgb(3, -3, 0)" stroke-opacity="0.24486227" stroke-linecap="round" stroke-linejoin="round"/>
    <path d="M -0.09631843864917755 128.83763122558594 C 112.78515625 113.54519653320312 192.04026794433594 209.16775512695312 10.522541046142578 167.61492919921875" stroke-width="3.0" fill="none" stroke="rgb(-1, 0, 2)" stroke-opacity="0.063442744" stroke-linecap="round" stroke-linejoin="round"/>
    <path d="M 241.93218994140625 180.28170776367188 C 202.92349243164062 176.31744384765625 159.92562866210938 161.9037322998047 235.09861755371094 158.14736938476562" stroke-width="3.0" fill="none" stroke="rgb(0, 0, 0)" stroke-opacity="0.14475776" stroke-linecap="round" stroke-linejoin="round"/>
    <path d="M 163.61647033691406 155.83810424804688 C 129.19679260253906 168.2596893310547 269.3307189941406 151.42645263671875 150.95843505859375 156.1209259033203" stroke-width="3.0" fill="none" stroke="rgb(0, -1, 0)" stroke-opacity="0.29104728" stroke-linecap="round" stroke-linejoin="round"/>
    <path d="M 11.630727767944336 172.822021484375 C 29.94518280029297 175.44456481933594 60.31995391845703 180.19163513183594 12.46556568145752 175.91822814941406" stroke-width="3.0" fill="none" stroke="rgb(3, -2, -3)" stroke-opacity="0.42317176" stroke-linecap="round" stroke-linejoin="round"/>
    <path d="M 100.79619598388672 86.462890625 C -99.6535415649414 87.8415298461914 -76.99817657470703 86.25814819335938 73.82496643066406 101.08699035644531" stroke-width="3.0" fill="none" stroke="rgb(0, 0, 1)" stroke-opacity="0.0601745" stroke-linecap="round" stroke-linejoin="round"/>
    <path d="M 91.32437896728516 92.91438293457031 C 25.760562896728516 88.921142578125 132.67893981933594 46.96677780151367 61.26539993286133 24.12134552001953" stroke-width="3.0" fill="none" stroke="rgb(-2, 1, 2)" stroke-opacity="0.01479817" stroke-linecap="round" stroke-linejoin="round"/>
    <path d="M 121.12409973144531 112.51182556152344 C 92.83975982666016 86.42134857177734 105.5527114868164 84.50485229492188 122.98198699951172 114.86870574951172" stroke-width="3.0" fill="none" stroke="rgb(2, 1, -2)" stroke-opacity="0.39694503" stroke-linecap="round" stroke-linejoin="round"/>
    <path d="M 154.68096923828125 33.99400329589844 C 87.43559265136719 15.0360746383667 243.32740783691406 27.658077239990234 95.72955322265625 36.54225540161133" stroke-width="3.0" fill="none" stroke="rgb(0, 0, 1)" stroke-opacity="0.029207094" stroke-linecap="round" stroke-linejoin="round"/>
    <path d="M 147.62571716308594 109.54178619384766 C 121.90946960449219 76.2964859008789 134.357421875 73.68920135498047 152.09352111816406 120.01713562011719" stroke-width="3.0" fill="none" stroke="rgb(0, -2, 3)" stroke-opacity="0.8525956" stroke-linecap="round" stroke-linejoin="round"/>
    <path d="M -2.390986204147339 217.35171508789062 C 48.24544906616211 223.6595001220703 19.902238845825195 220.364990234375 -13.009011268615723 221.8733673095703" stroke-width="3.0" fill="none" stroke="rgb(-1, 0, 2)" stroke-opacity="0.0667894" stroke-linecap="round" stroke-linejoin="round"/>
    <path d="M 160.818603515625 71.38630676269531 C 191.91885375976562 68.41277313232422 233.35011291503906 65.78069305419922 245.96043395996094 81.2641372680664" stroke-width="3.0" fill="none" stroke="rgb(-1, 0, 2)" stroke-opacity="0.055328082" stroke-linecap="round" stroke-linejoin="round"/>
    <path d="M 177.84019470214844 35.59148025512695 C 55.84140396118164 37.672054290771484 31.168405532836914 30.72494888305664 187.466064453125 32.48036193847656" stroke-width="3.0" fill="none" stroke="rgb(0, 0, 3)" stroke-opacity="0.033543512" stroke-linecap="round" stroke-linejoin="round"/>
    <path d="M -5.1897053718566895 160.6280975341797 C 135.617919921875 181.1091766357422 167.13287353515625 155.3300323486328 -2.8010387420654297 155.70167541503906" stroke-width="3.0" fill="none" stroke="rgb(-2, -1, 3)" stroke-opacity="0.08291874" stroke-linecap="round" stroke-linejoin="round"/>
    <path d="M -5.883594036102295 48.946224212646484 C -4.22584867477417 58.66424560546875 -4.167252540588379 52.854557037353516 -5.667872905731201 45.901180267333984" stroke-width="3.0" fill="none" stroke="rgb(0, 0, 0)" stroke-opacity="0.764121" stroke-linecap="round" stroke-linejoin="round"/>
    <path d="M 56.82841491699219 141.29171752929688 C 100.85399627685547 144.69186401367188 131.91934204101562 166.93797302246094 97.995361328125 160.48770141601562" stroke-width="3.0" fill="none" stroke="rgb(0, 0, 2)" stroke-opacity="0.10134685" stroke-linecap="round" stroke-linejoin="round"/>
    <path d="M 81.091796875 169.7109375 C 8.291261672973633 170.01414489746094 25.462369918823242 151.8321075439453 33.72993087768555 168.90467834472656" stroke-width="3.0" fill="none" stroke="rgb(0, -1, 1)" stroke-opacity="0.15102372" stroke-linecap="round" stroke-linejoin="round"/>
    <path d="M 86.47298431396484 112.72183990478516 C 97.55656433105469 152.96177673339844 115.03266143798828 143.9907684326172 72.48046112060547 99.52814483642578" stroke-width="3.0" fill="none" stroke="rgb(0, 0, 0)" stroke-opacity="0.34953344" stroke-linecap="round" stroke-linejoin="round"/>
    <path d="M 224.70895385742188 59.25843048095703 C 102.63617706298828 59.32883834838867 66.97254943847656 23.866539001464844 219.37001037597656 89.73057556152344" stroke-width="3.0" fill="none" stroke="rgb(-2, 0, 2)" stroke-opacity="0.038066242" stroke-linecap="round" stroke-linejoin="round"/>
    <path d="M 244.3900604248047 105.67112731933594 C 177.02915954589844 93.17803955078125 175.91114807128906 116.34705352783203 204.1177520751953 101.88330078125" stroke-width="3.0" fill="none" stroke="rgb(-2, 0, 2)" stroke-opacity="0.187377" stroke-linecap="round" stroke-linejoin="round"/>
    <path d="M 90.67759704589844 92.08367919921875 C 132.54466247558594 103.50645446777344 112.90342712402344 95.9886703491211 85.24897766113281 95.2441177368164" stroke-width="3.0" fill="none" stroke="rgb(-1, 0, 1)" stroke-opacity="0.0535198" stroke-linecap="round" stroke-linejoin="round"/>
    <path d="M 112.9471664428711 127.83179473876953 C 54.91543960571289 159.14894104003906 70.61131286621094 129.244873046875 31.861135482788086 153.05824279785156" stroke-width="3.0" fill="none" stroke="rgb(-3, 0, 3)" stroke-opacity="0.1918045" stroke-linecap="round" stroke-linejoin="round"/>
    <path d="M 76.14480590820312 102.93473815917969 C 73.19248962402344 154.63218688964844 108.10685729980469 163.41810607910156 76.64656829833984 105.08263397216797" stroke-width="3.0" fill="none" stroke="rgb(4, -1, -1)" stroke-opacity="0.22979043" stroke-linecap="round" stroke-linejoin="round"/>
    <path d="M 76.4605484008789 20.92966651916504 C -76.30931091308594 47.772464752197266 -73.83430480957031 -4.638564109802246 126.24464416503906 13.651047706604004" stroke-width="3.0" fill="none" stroke="rgb(-1, 0, 3)" stroke-opacity="0.03337885" stroke-linecap="round" stroke-linejoin="round"/>
    <path d="M 48.32454299926758 218.53701782226562 C 163.31332397460938 149.04818725585938 153.7681884765625 172.8538055419922 58.75950241088867 221.95639038085938" stroke-width="3.0" fill="none" stroke="rgb(-3, 2, 2)" stroke-opacity="0.037286185" stroke-linecap="round" stroke-linejoin="round"/>
    <path d="M 230.0631561279297 156.24978637695312 C 164.14181518554688 151.86886596679688 187.1473846435547 163.64010620117188 257.2192077636719 164.3661346435547" stroke-width="3.0" fill="none" stroke="rgb(0, -1, 0)" stroke-opacity="0.18847881" stroke-linecap="round" stroke-linejoin="round"/>
    <path d="M 101.67125701904297 128.57327270507812 C 67.83084869384766 93.26038360595703 157.58172607421875 179.45233154296875 36.699066162109375 156.634521484375" stroke-width="3.0" fill="none" stroke="rgb(-2, 1, 0)" stroke-opacity="0.12716241" stroke-linecap="round" stroke-linejoin="round"/>
    <path d="M 219.07818603515625 152.21365356445312 C 138.8638153076172 127.8512954711914 156.46559143066406 138.14967346191406 238.25807189941406 147.9014129638672" stroke-width="3.0" fill="none" stroke="rgb(-1, 0, 1)" stroke-opacity="0.047195297" stroke-linecap="round" stroke-linejoin="round"/>
    <path d="M 73.48870086669922 102.44596099853516 C 79.36825561523438 141.6392364501953 65.90869140625 133.58404541015625 67.67884063720703 125.92564392089844" stroke-width="3.0" fill="none" stroke="rgb(-3, 2, 3)" stroke-opacity="0.19624789" stroke-linecap="round" stroke-linejoin="round"/>
    <path d="M 38.24701690673828 68.0858383178711 C -97.13590240478516 42.574527740478516 197.38992309570312 41.986175537109375 1.8822423219680786 70.82776641845703" stroke-width="3.0" fill="none" stroke="rgb(0, 0, 2)" stroke-opacity="0.035778258" stroke-linecap="round" stroke-linejoin="round"/>
    <path d="M 51.97783660888672 229.3875274658203 C 46.7590446472168 229.6132049560547 48.734344482421875 234.1726531982422 51.36956787109375 236.61654663085938" stroke-width="3.0" fill="none" stroke="rgb(0, 0, 0)" stroke-opacity="0.8727905" stroke-linecap="round" stroke-linejoin="round"/>
    <path d="M 186.26217651367188 22.24519157409668 C 96.46639251708984 11.43321704864502 164.14227294921875 18.347129821777344 89.07060241699219 22.419530868530273" stroke-width="3.0" fill="none" stroke="rgb(0, 0, 2)" stroke-opacity="0.036211785" stroke-linecap="round" stroke-linejoin="round"/>
    <path d="M 171.49658203125 79.62567901611328 C 279.5594482421875 81.19095611572266 249.99107360839844 102.14251708984375 180.22283935546875 88.58226776123047" stroke-width="3.0" fill="none" stroke="rgb(-2, 0, 2)" stroke-opacity="0.06406282" stroke-linecap="round" stroke-linejoin="round"/>
    <path d="M 11.648123741149902 178.657470703125 C 407.3582763671875 183.20556640625 379.90087890625 173.617919921875 25.890457153320312 169.47854614257812" stroke-width="3.0" fill="none" stroke="rgb(-2, 1, 3)" stroke-opacity="0.31403545" stroke-linecap="round" stroke-linejoin="round"/>
    <path d="M 56.092620849609375 192.25177001953125 C 224.37942504882812 209.97900390625 147.97030639648438 174.3861846923828 232.5797576904297 179.2465057373047" stroke-width="3.0" fill="none" stroke="rgb(-2, 2, 0)" stroke-opacity="0.06120208" stroke-linecap="round" stroke-linejoin="round"/>
    <path d="M 107.29898834228516 137.0409698486328 C 119.05926513671875 124.78598022460938 82.0505142211914 78.93456268310547 119.85208129882812 108.40296173095703" stroke-width="3.0" fill="none" stroke="rgb(-3, 0, 3)" stroke-opacity="0.32919484" stroke-linecap="round" stroke-linejoin="round"/>
    <path d="M 133.33961486816406 83.45313262939453 C 155.45968627929688 114.34152221679688 138.57418823242188 80.51660919189453 126.1646499633789 96.54303741455078" stroke-width="3.0" fill="none" stroke="rgb(0, -1, 2)" stroke-opacity="0.44477484" stroke-linecap="round" stroke-linejoin="round"/>
    <path d="M 94.57263946533203 102.7367172241211 C 133.11444091796875 127.26254272460938 65.76215362548828 51.84519577026367 135.4023895263672 104.72528076171875" stroke-width="3.0" fill="none" stroke="rgb(-1, 2, 0)" stroke-opacity="0.1450412" stroke-linecap="round" stroke-linejoin="round"/>
    <path d="M 132.69931030273438 100.3404312133789 C 127.70840454101562 74.96224975585938 110.32183074951172 72.70980834960938 146.1107635498047 130.1289825439453" stroke-width="3.0" fill="none" stroke="rgb(-3, 1, 2)" stroke-opacity="0.1242372" stroke-linecap="round" stroke-linejoin="round"/>
    <path d="M 109.76119232177734 163.8109130859375 C -52.40473556518555 175.83082580566406 77.80687713623047 157.99269104003906 99.922119140625 161.56248474121094" stroke-width="3.0" fill="none" stroke="rgb(0, -1, 2)" stroke-opacity="0.22649111" stroke-linecap="round" stroke-linejoin="round"/>
    <path d="M 129.7815704345703 124.28543853759766 C 108.53424072265625 74.25525665283203 89.96776580810547 107.11064910888672 123.982177734375 133.6126708984375" stroke-width="3.0" fill="none" stroke="rgb(0, -1, 2)" stroke-opacity="0.2223703" stroke-linecap="round" stroke-linejoin="round"/>
    <path d="M 172.73504638671875 146.88905334472656 C 179.2476348876953 127.54710388183594 205.5537109375 104.60143280029297 167.05848693847656 148.50445556640625" stroke-width="3.0" fill="none" stroke="rgb(-2, 0, 2)" stroke-opacity="0.32733375" stroke-linecap="round" stroke-linejoin="round"/>
    <path d="M 48.8318977355957 231.37051391601562 C 45.333072662353516 228.09860229492188 50.143714904785156 232.20343017578125 55.53445816040039 233.7286376953125" stroke-width="3.0" fill="none" stroke="rgb(0, 0, 0)" stroke-opacity="0.86598986" stroke-linecap="round" stroke-linejoin="round"/>
    <path d="M 155.8719940185547 182.81005859375 C 40.44184112548828 181.63665771484375 25.665807723999023 188.7733612060547 137.12542724609375 185.13233947753906" stroke-width="3.0" fill="none" stroke="rgb(-2, 7, -4)" stroke-opacity="0.08401206" stroke-linecap="round" stroke-linejoin="round"/>
    <path d="M 228.80923461914062 210.14883422851562 C 115.70539093017578 218.87890625 131.9270477294922 209.08009338378906 197.31515502929688 208.46768188476562" stroke-width="3.0" fill="none" stroke="rgb(-1, -1, 2)" stroke-opacity="0.051454835" stroke-linecap="round" stroke-linejoin="round"/>
    <path d="M 115.08480834960938 217.20565795898438 C -34.99980163574219 195.35244750976562 191.0721435546875 191.45445251464844 61.563602447509766 180.071533203125" stroke-width="3.0" fill="none" stroke="rgb(-2, 1, 3)" stroke-opacity="0.046710294" stroke-linecap="round" stroke-linejoin="round"/>
    <path d="M 157.48947143554688 194.3827362060547 C -21.50186538696289 192.11761474609375 109.51830291748047 172.418212890625 -1.3537647724151611 192.10549926757812" stroke-width="3.0" fill="none" stroke="rgb(-3, 2, 2)" stroke-opacity="0.074020945" stroke-linecap="round" stroke-linejoin="round"/>
    <path d="M 161.6516571044922 121.26509857177734 C 144.274169921875 111.06432342529297 149.71832275390625 126.02857208251953 130.3764190673828 140.97149658203125" stroke-width="3.0" fill="none" stroke="rgb(0, 0, 0)" stroke-opacity="-0.013975736" stroke-linecap="round" stroke-linejoin="round"/>
    <path d="M 133.31280517578125 133.32955932617188 C 108.61507415771484 79.06126403808594 74.13877868652344 86.59487915039062 129.27757263183594 149.2860107421875" stroke-width="3.0" fill="none" stroke="rgb(0, 0, 0)" stroke-opacity="0.056968205" stroke-linecap="round" stroke-linejoin="round"/>
    <path d="M 213.4384307861328 39.91499328613281 C -120.88713073730469 63.99803161621094 300.0490417480469 64.44589233398438 126.92174530029297 36.5836296081543" stroke-width="3.0" fill="none" stroke="rgb(-1, 1, 3)" stroke-opacity="0.031470794" stroke-linecap="round" stroke-linejoin="round"/>
    <path d="M 78.61117553710938 193.40255737304688 C 97.89473724365234 167.10720825195312 71.8217544555664 181.62034606933594 41.10138702392578 215.8638458251953" stroke-width="3.0" fill="none" stroke="rgb(-2, 0, 2)" stroke-opacity="0.030963056" stroke-linecap="round" stroke-linejoin="round"/>
    <path d="M 116.96378326416016 155.5127410888672 C 79.71406555175781 146.5770721435547 134.404296875 151.9033966064453 56.59446716308594 148.9490509033203" stroke-width="3.0" fill="none" stroke="rgb(2, 0, -1)" stroke-opacity="0.31398615" stroke-linecap="round" stroke-linejoin="round"/>
    <path d="M 209.63726806640625 15.540994644165039 C 170.6286163330078 15.815714836120605 51.77506637573242 -4.168832778930664 196.7410430908203 13.283833503723145" stroke-width="3.0" fill="none" stroke="rgb(-1, 0, 3)" stroke-opacity="0.0359266" stroke-linecap="round" stroke-linejoin="round"/>
    <path d="M 125.85677337646484 46.4673957824707 C 249.66773986816406 62.5045051574707 164.64381408691406 58.68997573852539 86.01911926269531 65.93682098388672" stroke-width="3.0" fill="none" stroke="rgb(-1, 0, 1)" stroke-opacity="0.05013591" stroke-linecap="round" stroke-linejoin="round"/>
    <path d="M 48.400115966796875 136.62051391601562 C 134.74871826171875 153.94471740722656 106.7531509399414 124.46583557128906 104.75869750976562 139.45101928710938" stroke-width="3.0" fill="none" stroke="rgb(0, -3, 2)" stroke-opacity="0.22554797" stroke-linecap="round" stroke-linejoin="round"/>
    <path d="M 120.29108428955078 134.794189453125 C 184.73008728027344 159.28549194335938 144.79212951660156 144.2213897705078 140.5555419921875 120.51296997070312" stroke-width="3.0" fill="none" stroke="rgb(-2, -3, 3)" stroke-opacity="0.4192836" stroke-linecap="round" stroke-linejoin="round"/>
    <path d="M 230.1063690185547 170.43772888183594 C 142.1192169189453 192.1580810546875 102.20693969726562 201.16822814941406 14.640021324157715 165.94418334960938" stroke-width="3.0" fill="none" stroke="rgb(-1, 2, -1)" stroke-opacity="0.069705926" stroke-linecap="round" stroke-linejoin="round"/>
    <path d="M 94.10665893554688 46.53153991699219 C 161.26190185546875 47.61648178100586 171.67877197265625 46.677921295166016 48.432708740234375 36.23434066772461" stroke-width="3.0" fill="none" stroke="rgb(0, 0, 1)" stroke-opacity="0.032154236" stroke-linecap="round" stroke-linejoin="round"/>
    <path d="M 128.5594024658203 30.051719665527344 C 32.878868103027344 24.51226043701172 -4.937069892883301 32.0609245300293 61.39619064331055 33.235023498535156" stroke-width="3.0" fill="none" stroke="rgb(0, 0, 3)" stroke-opacity="0.041649003" stroke-linecap="round" stroke-linejoin="round"/>
    <path d="M -2.052222967147827 74.311767578125 C 152.88084411621094 77.3257064819336 -36.54412841796875 69.74705505371094 136.6809844970703 82.52207946777344" stroke-width="3.0" fill="none" stroke="rgb(-2, 0, 2)" stroke-opacity="0.048300788" stroke-linecap="round" stroke-linejoin="round"/>
    <path d="M 129.07980346679688 69.83799743652344 C 139.763427734375 80.50861358642578 127.22433471679688 126.8384017944336 129.49708557128906 71.55850982666016" stroke-width="3.0" fill="none" stroke="rgb(-3, 2, 2)" stroke-opacity="0.44353494" stroke-linecap="round" stroke-linejoin="round"/>
    <path d="M 131.99317932128906 17.81958770751953 C 215.1483154296875 32.79594802856445 217.8077850341797 40.84681701660156 147.84866333007812 23.23078727722168" stroke-width="3.0" fill="none" stroke="rgb(0, 0, 2)" stroke-opacity="0.044223625" stroke-linecap="round" stroke-linejoin="round"/>
    <path d="M 130.07376098632812 61.37708282470703 C 2.674677848815918 59.281593322753906 20.636459350585938 60.58936309814453 106.91100311279297 42.41221237182617" stroke-width="3.0" fill="none" stroke="rgb(0, 0, 2)" stroke-opacity="0.034009628" stroke-linecap="round" stroke-linejoin="round"/>
    <path d="M 107.1214828491211 84.89590454101562 C -44.421836853027344 66.2548828125 -54.57696533203125 92.29598999023438 56.365760803222656 81.45124053955078" stroke-width="3.0" fill="none" stroke="rgb(0, 0, 2)" stroke-opacity="0.050721683" stroke-linecap="round" stroke-linejoin="round"/>
    <path d="M 130.9198455810547 74.75257110595703 C 147.71047973632812 111.80094146728516 148.79244995117188 98.79856872558594 135.38150024414062 77.06185150146484" stroke-width="3.0" fill="none" stroke="rgb(3, -1, -3)" stroke-opacity="0.7519775" stroke-linecap="round" stroke-linejoin="round"/>
    <path d="M 171.18844604492188 28.830894470214844 C 148.00698852539062 31.43958282470703 156.3978729248047 22.560548782348633 98.9266357421875 25.828874588012695" stroke-width="3.0" fill="none" stroke="rgb(0, 0, 1)" stroke-opacity="0.04428726" stroke-linecap="round" stroke-linejoin="round"/>
    <path d="M 106.62736511230469 90.79953002929688 C 107.20875549316406 128.93673706054688 106.76644897460938 96.09334564208984 70.1617202758789 97.43267822265625" stroke-width="3.0" fill="none" stroke="rgb(-1, 1, 0)" stroke-opacity="0.16843474" stroke-linecap="round" stroke-linejoin="round"/>
    <path d="M 156.01388549804688 129.7364044189453 C 135.84759521484375 54.43416976928711 117.2496566772461 83.31937408447266 145.755615234375 110.86181640625" stroke-width="3.0" fill="none" stroke="rgb(3, 1, -3)" stroke-opacity="0.5561633" stroke-linecap="round" stroke-linejoin="round"/>
    <path d="M 117.93329620361328 160.4988555908203 C 173.47203063964844 181.78871154785156 94.98216247558594 165.96788024902344 208.82757568359375 171.2606201171875" stroke-width="3.0" fill="none" stroke="rgb(-2, 0, 2)" stroke-opacity="0.27002722" stroke-linecap="round" stroke-linejoin="round"/>
    <path d="M 41.12353515625 121.22926330566406 C 104.62630462646484 118.25955963134766 26.265100479125977 134.46803283691406 66.67388916015625 144.95208740234375" stroke-width="3.0" fill="none" stroke="rgb(-1, 0, 1)" stroke-opacity="0.083064824" stroke-linecap="round" stroke-linejoin="round"/>
    <path d="M 145.17466735839844 127.51162719726562 C 153.14364624023438 256.54901123046875 126.85597229003906 83.99052429199219 138.25445556640625 165.76370239257812" stroke-width="3.0" fill="none" stroke="rgb(0, 0, 0)" stroke-opacity="0.04136608" stroke-linecap="round" stroke-linejoin="round"/>
    <path d="M 154.9486846923828 146.93588256835938 C 146.19256591796875 134.1266632080078 133.12203979492188 135.7436981201172 157.77088928222656 150.1456298828125" stroke-width="3.0" fill="none" stroke="rgb(2, -3, 2)" stroke-opacity="0.78875095" stroke-linecap="round" stroke-linejoin="round"/>
    <path d="M 138.32479858398438 204.53457641601562 C -69.10372924804688 190.07032775878906 -48.71564483642578 234.9501495361328 226.60086059570312 219.3806915283203" stroke-width="3.0" fill="none" stroke="rgb(-4, 0, 4)" stroke-opacity="0.06778654" stroke-linecap="round" stroke-linejoin="round"/>
    <path d="M 104.31517028808594 192.94241333007812 C -80.92181396484375 158.4436492919922 -43.875240325927734 161.975341796875 53.845218658447266 187.98513793945312" stroke-width="3.0" fill="none" stroke="rgb(-1, 0, 0)" stroke-opacity="0.069976114" stroke-linecap="round" stroke-linejoin="round"/>
    <path d="M 238.19529724121094 179.765625 C 225.99407958984375 175.16860961914062 220.11468505859375 178.18795776367188 234.73947143554688 175.37185668945312" stroke-width="3.0" fill="none" stroke="rgb(0, 0, 0)" stroke-opacity="0.25996622" stroke-linecap="round" stroke-linejoin="round"/>
    <path d="M 206.6177520751953 19.427494049072266 C 94.9825210571289 12.653578758239746 41.349945068359375 -8.399259567260742 170.74525451660156 7.283886432647705" stroke-width="3.0" fill="none" stroke="rgb(-1, 1, 2)" stroke-opacity="0.04343355" stroke-linecap="round" stroke-linejoin="round"/>
    <path d="M 92.67964935302734 137.23158264160156 C 89.22108459472656 133.13394165039062 105.4568099975586 162.15704345703125 79.74362182617188 107.8591537475586" stroke-width="3.0" fill="none" stroke="rgb(-2, 0, 1)" stroke-opacity="0.2954908" stroke-linecap="round" stroke-linejoin="round"/>
    <path d="M 186.01771545410156 146.7971649169922 C 124.25975799560547 155.41209411621094 229.63482666015625 143.71888732910156 226.7776641845703 151.19789123535156" stroke-width="3.0" fill="none" stroke="rgb(1, -3, 2)" stroke-opacity="0.4889376" stroke-linecap="round" stroke-linejoin="round"/>
    <path d="M 226.33546447753906 18.615890502929688 C 174.1642303466797 19.297157287597656 144.77792358398438 26.999561309814453 221.14019775390625 23.420778274536133" stroke-width="3.0" fill="none" stroke="rgb(0, 0, 2)" stroke-opacity="0.029348383" stroke-linecap="round" stroke-linejoin="round"/>
    <path d="M 161.92059326171875 157.73974609375 C 128.3612060546875 162.35592651367188 149.71070861816406 190.35508728027344 125.01422119140625 131.8549041748047" stroke-width="3.0" fill="none" stroke="rgb(0, 0, 0)" stroke-opacity="0.03727023" stroke-linecap="round" stroke-linejoin="round"/>
    <path d="M 152.7130126953125 124.08602905273438 C 128.5537567138672 88.85411834716797 99.73541259765625 90.6392593383789 141.64749145507812 95.92192077636719" stroke-width="3.0" fill="none" stroke="rgb(1, 1, -2)" stroke-opacity="0.2775769" stroke-linecap="round" stroke-linejoin="round"/>
    <path d="M 131.73739624023438 73.04242706298828 C 125.69577026367188 110.66533660888672 148.07176208496094 94.49148559570312 159.72132873535156 139.81871032714844" stroke-width="3.0" fill="none" stroke="rgb(2, 2, -2)" stroke-opacity="0.373146" stroke-linecap="round" stroke-linejoin="round"/>
    <path d="M 75.28388977050781 215.93641662597656 C 167.05850219726562 197.2964630126953 134.82852172851562 197.9388427734375 240.0102996826172 193.63677978515625" stroke-width="3.0" fill="none" stroke="rgb(-1, 0, 2)" stroke-opacity="0.039514754" stroke-linecap="round" stroke-linejoin="round"/>
    <path d="M 249.79933166503906 106.99088287353516 C 219.59751892089844 78.74608612060547 222.9221649169922 129.4256134033203 199.017578125 148.21083068847656" stroke-width="3.0" fill="none" stroke="rgb(-2, 1, 2)" stroke-opacity="0.27816427" stroke-linecap="round" stroke-linejoin="round"/>
    <path d="M 106.94099426269531 200.5815887451172 C -93.01638793945312 175.16348266601562 -37.159481048583984 232.28170776367188 39.57050323486328 235.25096130371094" stroke-width="3.0" fill="none" stroke="rgb(-1, 2, 0)" stroke-opacity="0.047035087" stroke-linecap="round" stroke-linejoin="round"/>
    <path d="M 101.81956481933594 20.32007598876953 C -58.92451095581055 85.43293762207031 -33.6802864074707 9.450637817382812 61.67815017700195 55.09746170043945" stroke-width="3.0" fill="none" stroke="rgb(0, 0, 3)" stroke-opacity="0.031026063" stroke-linecap="round" stroke-linejoin="round"/>
    <path d="M 198.0001220703125 53.944400787353516 C 67.60433197021484 10.464370727539062 145.87728881835938 23.41822052001953 229.08041381835938 57.523048400878906" stroke-width="3.0" fill="none" stroke="rgb(0, 0, 0)" stroke-opacity="0.025126137" stroke-linecap="round" stroke-linejoin="round"/>
    <path d="M 54.03886795043945 159.08438110351562 C 32.20833969116211 155.63421630859375 83.32842254638672 167.7335662841797 34.609519958496094 150.5127410888672" stroke-width="3.0" fill="none" stroke="rgb(2, 0, -3)" stroke-opacity="0.46832588" stroke-linecap="round" stroke-linejoin="round"/>
    <path d="M 69.05206298828125 107.14785766601562 C -93.13460540771484 103.8813705444336 -50.97562789916992 138.72068786621094 63.52702331542969 114.25495147705078" stroke-width="3.0" fill="none" stroke="rgb(0, 0, 1)" stroke-opacity="0.068762116" stroke-linecap="round" stroke-linejoin="round"/>
    <path d="M 140.3515167236328 143.65560913085938 C 121.10260009765625 99.54776000976562 79.24791717529297 85.20883178710938 134.18177795410156 141.67080688476562" stroke-width="3.0" fill="none" stroke="rgb(-2, 2, 1)" stroke-opacity="0.31642544" stroke-linecap="round" stroke-linejoin="round"/>
    <path d="M 104.61038970947266 94.86708068847656 C 122.38309478759766 108.52919006347656 109.50445556640625 97.21856689453125 131.9716339111328 127.34889221191406" stroke-width="3.0" fill="none" stroke="rgb(1, 1, -2)" stroke-opacity="0.2933244" stroke-linecap="round" stroke-linejoin="round"/>
    <path d="M -2.2988710403442383 2.320901393890381 C 122.95565032958984 -0.837005078792572 157.1356201171875 23.548755645751953 0.34360063076019287 17.367977142333984" stroke-width="3.0" fill="none" stroke="rgb(-2, 2, 3)" stroke-opacity="0.031881448" stroke-linecap="round" stroke-linejoin="round"/>
    <path d="M 162.036865234375 154.08815002441406 C 155.80093383789062 130.5476837158203 160.5379638671875 110.23815155029297 127.21292877197266 65.54716491699219" stroke-width="3.0" fill="none" stroke="rgb(2, 2, -2)" stroke-opacity="0.22663715" stroke-linecap="round" stroke-linejoin="round"/>
    <path d="M -0.8601676225662231 62.4627571105957 C 65.63382720947266 43.72725296020508 57.15312194824219 70.56988525390625 1.2717162370681763 49.857540130615234" stroke-width="3.0" fill="none" stroke="rgb(0, 0, 1)" stroke-opacity="0.031834945" stroke-linecap="round" stroke-linejoin="round"/>
    <path d="M 27.308151245117188 63.010887145996094 C 222.28280639648438 82.72747039794922 111.76507568359375 80.5287857055664 78.15851593017578 71.34701538085938" stroke-width="3.0" fill="none" stroke="rgb(0, 1, 1)" stroke-opacity="0.040480293" stroke-linecap="round" stroke-linejoin="round"/>
    <path d="M 105.68363189697266 76.45023345947266 C 8.94322681427002 102.4327392578125 219.78726196289062 84.7024917602539 -2.537748098373413 91.31134033203125" stroke-width="3.0" fill="none" stroke="rgb(-1, 0, 1)" stroke-opacity="0.039101202" stroke-linecap="round" stroke-linejoin="round"/>
    <path d="M 139.77662658691406 14.011894226074219 C 4.695488452911377 25.868745803833008 138.7109832763672 28.126623153686523 67.77731323242188 18.207672119140625" stroke-width="3.0" fill="none" stroke="rgb(0, 0, 1)" stroke-opacity="0.04327877" stroke-linecap="round" stroke-linejoin="round"/>
    <path d="M 233.39404296875 58.65222930908203 C 234.08824157714844 73.68275451660156 232.46417236328125 77.966552734375 233.44688415527344 79.5456771850586" stroke-width="3.0" fill="none" stroke="rgb(0, 0, 0)" stroke-opacity="0.90313715" stroke-linecap="round" stroke-linejoin="round"/>
    <path d="M 228.18421936035156 197.9813995361328 C 231.74331665039062 198.0711669921875 226.84129333496094 196.9303436279297 231.6300048828125 197.56097412109375" stroke-width="3.0" fill="none" stroke="rgb(0, 0, 0)" stroke-opacity="0.6701682" stroke-linecap="round" stroke-linejoin="round"/>
    <path d="M 115.9863510131836 202.60232543945312 C 300.3868103027344 197.7774200439453 253.4744110107422 181.69847106933594 73.79864501953125 219.22373962402344" stroke-width="3.0" fill="none" stroke="rgb(-3, 0, 3)" stroke-opacity="0.06259472" stroke-linecap="round" stroke-linejoin="round"/>
    <path d="M 190.0845184326172 27.35389518737793 C 242.00953674316406 33.20761489868164 239.45697021484375 42.57143020629883 186.53076171875 27.467702865600586" stroke-width="3.0" fill="none" stroke="rgb(0, 0, 0)" stroke-opacity="0.040796008" stroke-linecap="round" stroke-linejoin="round"/>
    <path d="M 44.16158676147461 44.73982620239258 C 220.90084838867188 63.205204010009766 -19.927499771118164 63.80510711669922 160.10345458984375 46.894927978515625" stroke-width="3.0" fill="none" stroke="rgb(0, 0, 1)" stroke-opacity="0.04115967" stroke-linecap="round" stroke-linejoin="round"/>
    <path d="M 224.46090698242188 192.01715087890625 C 37.90036392211914 190.32171630859375 139.64979553222656 187.2097625732422 199.29222106933594 192.9253387451172" stroke-width="3.0" fill="none" stroke="rgb(-3, 3, 1)" stroke-opacity="0.08854229" stroke-linecap="round" stroke-linejoin="round"/>
    <path d="M 188.49501037597656 108.71117401123047 C 180.99037170410156 83.51634979248047 161.01947021484375 64.50151062011719 125.98098754882812 59.89270782470703" stroke-width="3.0" fill="none" stroke="rgb(-2, 1, 2)" stroke-opacity="0.15601388" stroke-linecap="round" stroke-linejoin="round"/>
    <path d="M 228.73483276367188 167.7361602783203 C 224.30328369140625 171.25732421875 229.9058380126953 171.42294311523438 236.430419921875 163.75909423828125" stroke-width="3.0" fill="none" stroke="rgb(0, 0, 0)" stroke-opacity="0.8724237" stroke-linecap="round" stroke-linejoin="round"/>
    <path d="M 125.3076171875 229.89462280273438 C 121.98627471923828 230.47605895996094 121.4597396850586 231.53231811523438 116.7178955078125 232.64036560058594" stroke-width="3.0" fill="none" stroke="rgb(0, 0, 0)" stroke-opacity="0.7352528" stroke-linecap="round" stroke-linejoin="round"/>
    <path d="M 104.28822326660156 98.64019775390625 C 106.0580825805664 105.5733642578125 138.91917419433594 131.185302734375 103.91641998291016 99.1568832397461" stroke-width="3.0" fill="none" stroke="rgb(0, 2, -1)" stroke-opacity="0.26353827" stroke-linecap="round" stroke-linejoin="round"/>
    <path d="M -10.696014404296875 81.80650329589844 C 79.48690032958984 75.14730072021484 31.581478118896484 99.06995391845703 105.57634735107422 91.0773696899414" stroke-width="3.0" fill="none" stroke="rgb(0, 0, 0)" stroke-opacity="0.024425907" stroke-linecap="round" stroke-linejoin="round"/>
    <path d="M -4.47592306137085 201.8217010498047 C 107.05828094482422 183.2088165283203 33.892066955566406 181.74972534179688 118.94530487060547 182.5724639892578" stroke-width="3.0" fill="none" stroke="rgb(-1, 1, 0)" stroke-opacity="0.042491946" stroke-linecap="round" stroke-linejoin="round"/>
    <path d="M -5.1139678955078125 178.3982696533203 C 37.901405334472656 181.76104736328125 -29.143922805786133 171.60450744628906 39.84309005737305 189.80279541015625" stroke-width="3.0" fill="none" stroke="rgb(-2, 0, 2)" stroke-opacity="0.0675347" stroke-linecap="round" stroke-linejoin="round"/>
    <path d="M 75.01626586914062 128.27996826171875 C 117.39238739013672 97.64154052734375 40.68916702270508 160.92860412597656 100.07623291015625 150.43185424804688" stroke-width="3.0" fill="none" stroke="rgb(0, 0, 0)" stroke-opacity="0.09377865" stroke-linecap="round" stroke-linejoin="round"/>
    <path d="M 131.95327758789062 88.18132781982422 C 102.18852233886719 109.50027465820312 112.89921569824219 87.05096435546875 109.6737289428711 110.34227752685547" stroke-width="3.0" fill="none" stroke="rgb(0, 0, 0)" stroke-opacity="0.001090457" stroke-linecap="round" stroke-linejoin="round"/>
    <path d="M 103.7976303100586 105.1554946899414 C 105.79899597167969 93.73990631103516 124.22544860839844 119.63256072998047 106.95878601074219 92.83442687988281" stroke-width="3.0" fill="none" stroke="rgb(1, -1, 1)" stroke-opacity="0.53560734" stroke-linecap="round" stroke-linejoin="round"/>
    <path d="M 113.48700714111328 89.56470489501953 C 155.3825225830078 111.85034942626953 129.3913116455078 99.3437728881836 138.583984375 113.16797637939453" stroke-width="3.0" fill="none" stroke="rgb(0, 2, -2)" stroke-opacity="0.16931428" stroke-linecap="round" stroke-linejoin="round"/>
    <path d="M 186.9445037841797 121.45641326904297 C 195.5767364501953 176.068359375 187.46185302734375 134.69952392578125 170.21546936035156 148.66561889648438" stroke-width="3.0" fill="none" stroke="rgb(-2, 0, 2)" stroke-opacity="0.4054226" stroke-linecap="round" stroke-linejoin="round"/>
    <path d="M 33.2578010559082 198.47129821777344 C 82.23880004882812 255.67523193359375 96.29761505126953 191.24041748046875 0.056876420974731445 216.3804168701172" stroke-width="3.0" fill="none" stroke="rgb(-2, 0, 3)" stroke-opacity="0.04859843" stroke-linecap="round" stroke-linejoin="round"/>
    <path d="M 186.31333923339844 109.3321762084961 C 243.5036163330078 62.74197006225586 184.3518524169922 54.533180236816406 186.37478637695312 120.02948760986328" stroke-width="3.0" fill="none" stroke="rgb(-2, 0, 1)" stroke-opacity="0.025585815" stroke-linecap="round" stroke-linejoin="round"/>
    <path d="M 86.19136810302734 149.31640625 C -69.39106750488281 147.72132873535156 -52.93284606933594 139.81370544433594 119.88760375976562 132.88218688964844" stroke-width="3.0" fill="none" stroke="rgb(-1, 0, 1)" stroke-opacity="0.06364302" stroke-linecap="round" stroke-linejoin="round"/>
    <path d="M 113.43505859375 132.26515197753906 C 124.65888214111328 134.86679077148438 138.92715454101562 140.87469482421875 113.44806671142578 132.78842163085938" stroke-width="3.0" fill="none" stroke="rgb(-1, -2, 3)" stroke-opacity="0.61677873" stroke-linecap="round" stroke-linejoin="round"/>
  </g>
</svg>
