<?xml version="1.0" ?>
<svg xmlns="http://www.w3.org/2000/svg" version="1.1" width="224" height="224">
  <defs/>
  <g>
    <path d="M 214.0952911376953 226.34304809570312 C 212.88633728027344 219.0782928466797 162.75018310546875 224.18348693847656 194.8645477294922 227.51271057128906" stroke-width="3.0" fill="none" stroke="rgb(116, 95, 47)" stroke-opacity="0.4418504" stroke-linecap="round" stroke-linejoin="round"/>
    <path d="M 150.59219360351562 188.24978637695312 C 127.49468994140625 205.30194091796875 187.87110900878906 178.37535095214844 138.052978515625 183.74685668945312" stroke-width="3.0" fill="none" stroke="rgb(170, 209, 109)" stroke-opacity="0.09126352" stroke-linecap="round" stroke-linejoin="round"/>
    <path d="M 117.80109405517578 109.70028686523438 C 145.6046905517578 115.63613891601562 124.12996673583984 118.05445861816406 117.54589080810547 110.85095977783203" stroke-width="3.0" fill="none" stroke="rgb(36, 41, 64)" stroke-opacity="0.8782846" stroke-linecap="round" stroke-linejoin="round"/>
    <path d="M 45.137840270996094 111.94245910644531 C 130.650390625 103.44759368896484 84.82917785644531 104.35198974609375 54.66887283325195 74.40435028076172" stroke-width="3.0" fill="none" stroke="rgb(143, 136, 128)" stroke-opacity="0.6971423" stroke-linecap="round" stroke-linejoin="round"/>
    <path d="M 158.01519775390625 203.79855346679688 C 112.32201385498047 204.2935028076172 88.74598693847656 199.3446807861328 111.05975341796875 189.66244506835938" stroke-width="3.0" fill="none" stroke="rgb(233, 241, 190)" stroke-opacity="0.1798925" stroke-linecap="round" stroke-linejoin="round"/>
    <path d="M 57.664772033691406 199.77342224121094 C 85.74866485595703 205.50001525878906 62.070064544677734 198.65072631835938 95.45140075683594 199.5501708984375" stroke-width="3.0" fill="none" stroke="rgb(206, 173, 57)" stroke-opacity="0.14232552" stroke-linecap="round" stroke-linejoin="round"/>
    <path d="M 229.0758056640625 176.5865478515625 C 232.7943115234375 185.03353881835938 234.7500457763672 184.63543701171875 237.9000701904297 187.04873657226562" stroke-width="3.0" fill="none" stroke="rgb(24, 36, 36)" stroke-opacity="0.86066586" stroke-linecap="round" stroke-linejoin="round"/>
    <path d="M 169.5938262939453 194.605712890625 C 132.27708435058594 174.12423706054688 109.78687286376953 189.35438537597656 160.5872039794922 182.28973388671875" stroke-width="3.0" fill="none" stroke="rgb(185, 218, 126)" stroke-opacity="0.117910504" stroke-linecap="round" stroke-linejoin="round"/>
    <path d="M -1.7200212478637695 191.27471923828125 C 29.813343048095703 199.18423461914062 31.224346160888672 176.93499755859375 6.900451183319092 199.07481384277344" stroke-width="3.0" fill="none" stroke="rgb(147, 138, 82)" stroke-opacity="0.12841341" stroke-linecap="round" stroke-linejoin="round"/>
    <path d="M 93.48711395263672 199.4857177734375 C 112.01302337646484 210.8997802734375 130.13223266601562 189.64332580566406 73.00308990478516 190.38381958007812" stroke-width="3.0" fill="none" stroke="rgb(182, 236, 253)" stroke-opacity="0.16345417" stroke-linecap="round" stroke-linejoin="round"/>
    <path d="M 92.18215942382812 73.14044189453125 C 100.6901626586914 85.39402770996094 105.48339080810547 94.64500427246094 111.41400909423828 113.55514526367188" stroke-width="3.0" fill="none" stroke="rgb(82, 71, 72)" stroke-opacity="0.5405839" stroke-linecap="round" stroke-linejoin="round"/>
    <path d="M -9.41931438446045 194.13693237304688 C -10.39262866973877 184.06430053710938 -4.065304756164551 190.94644165039062 -2.5702974796295166 193.12127685546875" stroke-width="3.0" fill="none" stroke="rgb(62, 58, 17)" stroke-opacity="0.7862038" stroke-linecap="round" stroke-linejoin="round"/>
    <path d="M 218.12144470214844 234.28985595703125 C 202.19384765625 227.22085571289062 197.60366821289062 224.71424865722656 207.63995361328125 231.55459594726562" stroke-width="3.0" fill="none" stroke="rgb(38, 36, 0)" stroke-opacity="0.8634477" stroke-linecap="round" stroke-linejoin="round"/>
    <path d="M 92.13737487792969 203.48277282714844 C 116.25109100341797 200.93002319335938 81.09625244140625 207.5721893310547 130.58294677734375 203.8433837890625" stroke-width="3.0" fill="none" stroke="rgb(156, 150, 39)" stroke-opacity="0.17238007" stroke-linecap="round" stroke-linejoin="round"/>
    <path d="M 1.1575329303741455 129.54722595214844 C 7.528529644012451 156.46371459960938 -18.459774017333984 132.69630432128906 6.193714618682861 137.91539001464844" stroke-width="3.0" fill="none" stroke="rgb(107, 126, 126)" stroke-opacity="0.7325697" stroke-linecap="round" stroke-linejoin="round"/>
    <path d="M 83.83834838867188 120.6292495727539 C 64.1673583984375 111.91840362548828 81.23676300048828 126.87657928466797 87.03993225097656 120.98746490478516" stroke-width="3.0" fill="none" stroke="rgb(208, 88, 83)" stroke-opacity="0.128273" stroke-linecap="round" stroke-linejoin="round"/>
    <path d="M 134.5004425048828 50.986083984375 C 118.15591430664062 62.02997589111328 134.77529907226562 25.936765670776367 132.4031982421875 51.17778396606445" stroke-width="3.0" fill="none" stroke="rgb(173, 107, 56)" stroke-opacity="0.48330015" stroke-linecap="round" stroke-linejoin="round"/>
    <path d="M 193.6564178466797 153.53140258789062 C 179.6861572265625 142.00868225097656 225.56613159179688 135.4325408935547 165.07717895507812 140.43994140625" stroke-width="3.0" fill="none" stroke="rgb(115, 73, 79)" stroke-opacity="0.33415025" stroke-linecap="round" stroke-linejoin="round"/>
    <path d="M 184.21267700195312 62.99365234375 C 179.4666290283203 65.88932800292969 180.06825256347656 63.2744140625 171.9652862548828 63.97593307495117" stroke-width="3.0" fill="none" stroke="rgb(167, 178, 185)" stroke-opacity="0.026357697" stroke-linecap="round" stroke-linejoin="round"/>
    <path d="M 9.192357063293457 146.37490844726562 C 44.0316047668457 133.76974487304688 56.936641693115234 138.29324340820312 77.97234344482422 146.3863067626953" stroke-width="3.0" fill="none" stroke="rgb(50, 66, 113)" stroke-opacity="0.7008138" stroke-linecap="round" stroke-linejoin="round"/>
    <path d="M 160.8935089111328 151.25450134277344 C 115.58641815185547 155.1707763671875 90.17491149902344 151.2274627685547 79.62748718261719 154.3709716796875" stroke-width="3.0" fill="none" stroke="rgb(51, 64, 68)" stroke-opacity="0.49503377" stroke-linecap="round" stroke-linejoin="round"/>
    <path d="M 82.58907318115234 96.91814422607422 C 56.46666717529297 98.00457763671875 46.03010559082031 90.81134796142578 82.98119354248047 94.82945251464844" stroke-width="3.0" fill="none" stroke="rgb(116, 121, 120)" stroke-opacity="0.6633988" stroke-linecap="round" stroke-linejoin="round"/>
    <path d="M 47.18787384033203 115.63412475585938 C 90.00984954833984 111.29470825195312 53.7953987121582 100.84465026855469 47.42636489868164 109.33413696289062" stroke-width="3.0" fill="none" stroke="rgb(214, 140, 112)" stroke-opacity="0.38840815" stroke-linecap="round" stroke-linejoin="round"/>
    <path d="M 138.2964324951172 198.3606414794922 C 194.6167449951172 193.4874267578125 162.96974182128906 181.88758850097656 229.24005126953125 187.74574279785156" stroke-width="3.0" fill="none" stroke="rgb(215, 238, 207)" stroke-opacity="0.20356846" stroke-linecap="round" stroke-linejoin="round"/>
    <path d="M 118.9468002319336 26.248218536376953 C 174.45936584472656 59.34349060058594 124.97869873046875 74.73385620117188 121.3796615600586 30.030057907104492" stroke-width="3.0" fill="none" stroke="rgb(196, 176, 145)" stroke-opacity="0.6648027" stroke-linecap="round" stroke-linejoin="round"/>
    <path d="M 101.41024017333984 47.47356033325195 C 124.8418197631836 61.2812385559082 132.58920288085938 84.17626953125 147.28326416015625 119.83560180664062" stroke-width="3.0" fill="none" stroke="rgb(120, 93, 50)" stroke-opacity="0.332914" stroke-linecap="round" stroke-linejoin="round"/>
    <path d="M 139.8589630126953 73.83509826660156 C 176.43191528320312 144.101318359375 175.21881103515625 110.72083282470703 140.2943115234375 124.89682006835938" stroke-width="3.0" fill="none" stroke="rgb(70, 89, 161)" stroke-opacity="0.22772288" stroke-linecap="round" stroke-linejoin="round"/>
    <path d="M 12.422684669494629 186.9927215576172 C -3.133854866027832 194.47332763671875 29.763879776000977 192.6291961669922 7.385530948638916 184.26051330566406" stroke-width="3.0" fill="none" stroke="rgb(170, 165, 123)" stroke-opacity="0.15472017" stroke-linecap="round" stroke-linejoin="round"/>
    <path d="M 172.54393005371094 126.58866119384766 C 108.23983764648438 129.14654541015625 129.21676635742188 125.24590301513672 124.38739776611328 126.67884063720703" stroke-width="3.0" fill="none" stroke="rgb(13, 59, 70)" stroke-opacity="0.8708828" stroke-linecap="round" stroke-linejoin="round"/>
    <path d="M 139.13259887695312 68.07024383544922 C 129.20916748046875 50.76270294189453 107.17861938476562 50.390480041503906 136.85240173339844 58.21048355102539" stroke-width="3.0" fill="none" stroke="rgb(165, 146, 127)" stroke-opacity="0.5327394" stroke-linecap="round" stroke-linejoin="round"/>
    <path d="M 204.2364959716797 172.82992553710938 C 255.39312744140625 184.048095703125 248.83863830566406 158.51144409179688 214.84619140625 157.6211700439453" stroke-width="3.0" fill="none" stroke="rgb(193, 250, 245)" stroke-opacity="0.12647834" stroke-linecap="round" stroke-linejoin="round"/>
    <path d="M 129.75648498535156 211.98927307128906 C 216.69171142578125 197.2831573486328 196.45692443847656 182.21116638183594 162.75135803222656 191.41342163085938" stroke-width="3.0" fill="none" stroke="rgb(195, 241, 206)" stroke-opacity="0.13657433" stroke-linecap="round" stroke-linejoin="round"/>
    <path d="M 93.6876449584961 65.32286071777344 C 117.9711685180664 77.1550521850586 128.7700653076172 70.22955322265625 112.41929626464844 69.12403869628906" stroke-width="3.0" fill="none" stroke="rgb(35, 40, 68)" stroke-opacity="0.47493362" stroke-linecap="round" stroke-linejoin="round"/>
    <path d="M 171.87841796875 121.85282897949219 C 244.9645233154297 125.35247802734375 181.56129455566406 104.13616180419922 176.2664794921875 119.15580749511719" stroke-width="3.0" fill="none" stroke="rgb(65, 77, 115)" stroke-opacity="0.40606433" stroke-linecap="round" stroke-linejoin="round"/>
    <path d="M 94.47293090820312 124.06417846679688 C 91.02471160888672 145.93829345703125 92.3704605102539 130.8439483642578 94.78597259521484 128.49578857421875" stroke-width="3.0" fill="none" stroke="rgb(135, 190, 150)" stroke-opacity="-0.006401533" stroke-linecap="round" stroke-linejoin="round"/>
    <path d="M 221.42727661132812 106.42655944824219 C 205.34690856933594 135.94703674316406 214.13868713378906 102.15380096435547 215.0450897216797 140.82212829589844" stroke-width="3.0" fill="none" stroke="rgb(115, 62, 0)" stroke-opacity="0.3033253" stroke-linecap="round" stroke-linejoin="round"/>
    <path d="M 74.8094711303711 107.60755920410156 C 60.689552307128906 99.51134490966797 70.38091278076172 94.34092712402344 65.73136138916016 122.18705749511719" stroke-width="3.0" fill="none" stroke="rgb(209, 144, 112)" stroke-opacity="0.24175538" stroke-linecap="round" stroke-linejoin="round"/>
    <path d="M 20.28188705444336 140.51646423339844 C 86.18777465820312 153.78829956054688 62.931697845458984 143.37948608398438 -2.973721981048584 148.46763610839844" stroke-width="3.0" fill="none" stroke="rgb(103, 110, 143)" stroke-opacity="0.5506783" stroke-linecap="round" stroke-linejoin="round"/>
    <path d="M 109.438232421875 151.50328063964844 C 92.22117614746094 153.72030639648438 99.68585205078125 152.46432495117188 121.47972869873047 153.6595001220703" stroke-width="3.0" fill="none" stroke="rgb(53, 48, 84)" stroke-opacity="0.26039505" stroke-linecap="round" stroke-linejoin="round"/>
    <path d="M 227.81793212890625 97.76439666748047 C 219.9167022705078 122.61726379394531 198.97183227539062 134.338134765625 225.84915161132812 102.18640899658203" stroke-width="3.0" fill="none" stroke="rgb(-1, 43, 100)" stroke-opacity="0.57267064" stroke-linecap="round" stroke-linejoin="round"/>
    <path d="M 53.22313690185547 185.32884216308594 C 15.514086723327637 181.48428344726562 67.93522644042969 186.46656799316406 -1.7964375019073486 186.7416534423828" stroke-width="3.0" fill="none" stroke="rgb(218, 202, 134)" stroke-opacity="0.31894138" stroke-linecap="round" stroke-linejoin="round"/>
    <path d="M 29.418846130371094 147.60350036621094 C -17.34480094909668 144.07337951660156 -11.195283889770508 146.7301025390625 1.0441304445266724 148.46530151367188" stroke-width="3.0" fill="none" stroke="rgb(111, 56, 43)" stroke-opacity="0.66965824" stroke-linecap="round" stroke-linejoin="round"/>
    <path d="M 65.84552764892578 135.06707763671875 C 20.97047233581543 135.04949951171875 5.323856830596924 106.16370391845703 46.4005012512207 142.49264526367188" stroke-width="3.0" fill="none" stroke="rgb(177, 181, 190)" stroke-opacity="0.62697303" stroke-linecap="round" stroke-linejoin="round"/>
    <path d="M 54.222755432128906 72.96469116210938 C 108.96280670166016 107.03231048583984 103.72441864013672 116.12741088867188 114.08110046386719 114.86869812011719" stroke-width="3.0" fill="none" stroke="rgb(89, 94, 105)" stroke-opacity="0.72469455" stroke-linecap="round" stroke-linejoin="round"/>
    <path d="M 219.687255859375 93.32249450683594 C 205.6659698486328 78.9509506225586 178.6681365966797 83.24971008300781 210.80325317382812 90.48489379882812" stroke-width="3.0" fill="none" stroke="rgb(117, 216, 256)" stroke-opacity="0.04915927" stroke-linecap="round" stroke-linejoin="round"/>
    <path d="M 77.47476959228516 140.78514099121094 C 133.11386108398438 141.34487915039062 65.38162994384766 141.3355255126953 114.17802429199219 144.6004180908203" stroke-width="3.0" fill="none" stroke="rgb(113, 133, 162)" stroke-opacity="0.91916865" stroke-linecap="round" stroke-linejoin="round"/>
    <path d="M 108.34330749511719 106.66388702392578 C 81.82081604003906 61.81452941894531 99.74358367919922 80.01200103759766 84.5939712524414 63.37648010253906" stroke-width="3.0" fill="none" stroke="rgb(132, 123, 105)" stroke-opacity="0.64994615" stroke-linecap="round" stroke-linejoin="round"/>
    <path d="M 137.64418029785156 62.24858093261719 C 137.83938598632812 50.847721099853516 133.20492553710938 27.111553192138672 161.29248046875 66.53557586669922" stroke-width="3.0" fill="none" stroke="rgb(122, 163, 184)" stroke-opacity="0.4758522" stroke-linecap="round" stroke-linejoin="round"/>
    <path d="M 166.8426971435547 188.2169647216797 C 204.27243041992188 192.3018341064453 203.35491943359375 183.05577087402344 187.59579467773438 187.79710388183594" stroke-width="3.0" fill="none" stroke="rgb(139, 123, 42)" stroke-opacity="0.12375774" stroke-linecap="round" stroke-linejoin="round"/>
    <path d="M 121.17840576171875 54.142250061035156 C 136.78184509277344 66.42264556884766 134.2550048828125 64.87614440917969 144.87379455566406 80.59819030761719" stroke-width="3.0" fill="none" stroke="rgb(91, 95, 77)" stroke-opacity="0.4694916" stroke-linecap="round" stroke-linejoin="round"/>
    <path d="M 155.30654907226562 209.5691375732422 C 117.49195861816406 212.7071990966797 145.8153533935547 208.73745727539062 151.2292938232422 212.82025146484375" stroke-width="3.0" fill="none" stroke="rgb(167, 187, 100)" stroke-opacity="0.13143106" stroke-linecap="round" stroke-linejoin="round"/>
    <path d="M 39.640811920166016 185.37193298339844 C -6.339033126831055 185.0458221435547 14.557354927062988 185.86856079101562 17.598003387451172 183.1471710205078" stroke-width="3.0" fill="none" stroke="rgb(196, 205, 191)" stroke-opacity="0.32649508" stroke-linecap="round" stroke-linejoin="round"/>
    <path d="M 147.67929077148438 57.11214828491211 C 176.28009033203125 149.12820434570312 182.72799682617188 114.30372619628906 161.51780700683594 68.78802490234375" stroke-width="3.0" fill="none" stroke="rgb(159, 127, 72)" stroke-opacity="0.23810498" stroke-linecap="round" stroke-linejoin="round"/>
    <path d="M 42.085693359375 118.5953140258789 C 77.63011169433594 70.77692413330078 83.26985931396484 91.32128143310547 49.63341522216797 113.91583251953125" stroke-width="3.0" fill="none" stroke="rgb(180, 149, 118)" stroke-opacity="0.29137918" stroke-linecap="round" stroke-linejoin="round"/>
    <path d="M 49.97669219970703 149.4083709716797 C 73.9710922241211 153.4565887451172 79.40556335449219 149.2992401123047 102.42032623291016 146.57528686523438" stroke-width="3.0" fill="none" stroke="rgb(171, 111, 55)" stroke-opacity="0.20336142" stroke-linecap="round" stroke-linejoin="round"/>
    <path d="M 18.275997161865234 153.05767822265625 C -3.2716457843780518 155.42454528808594 -30.587417602539062 146.5800323486328 63.25479507446289 154.0640869140625" stroke-width="3.0" fill="none" stroke="rgb(164, 95, 34)" stroke-opacity="0.40832126" stroke-linecap="round" stroke-linejoin="round"/>
    <path d="M 213.83326721191406 119.51593780517578 C 237.64695739746094 131.07655334472656 226.02684020996094 127.38471221923828 215.36343383789062 117.4715576171875" stroke-width="3.0" fill="none" stroke="rgb(61, 88, 97)" stroke-opacity="0.8557211" stroke-linecap="round" stroke-linejoin="round"/>
    <path d="M 130.28395080566406 95.69764709472656 C 107.1842269897461 61.977989196777344 94.44757080078125 76.85822296142578 117.24456787109375 65.2425308227539" stroke-width="3.0" fill="none" stroke="rgb(104, 89, 82)" stroke-opacity="0.72298247" stroke-linecap="round" stroke-linejoin="round"/>
    <path d="M 123.41651153564453 57.125789642333984 C 92.74298858642578 41.75739669799805 105.7594223022461 44.08853530883789 104.87555694580078 70.03721618652344" stroke-width="3.0" fill="none" stroke="rgb(162, 144, 107)" stroke-opacity="0.56455135" stroke-linecap="round" stroke-linejoin="round"/>
    <path d="M 123.82078552246094 77.89965057373047 C 102.61226654052734 58.62004089355469 154.7914276123047 112.16654205322266 106.94905853271484 51.97453689575195" stroke-width="3.0" fill="none" stroke="rgb(112, 110, 99)" stroke-opacity="0.59439546" stroke-linecap="round" stroke-linejoin="round"/>
    <path d="M 117.29867553710938 70.66069793701172 C 96.72653198242188 71.13673400878906 129.3269805908203 68.71443176269531 142.38168334960938 122.85311126708984" stroke-width="3.0" fill="none" stroke="rgb(120, 110, 102)" stroke-opacity="0.5606072" stroke-linecap="round" stroke-linejoin="round"/>
    <path d="M 109.63846588134766 197.11753845214844 C 159.71334838867188 190.48123168945312 123.93409729003906 187.20181274414062 173.02464294433594 168.0310516357422" stroke-width="3.0" fill="none" stroke="rgb(211, 254, 199)" stroke-opacity="0.12884395" stroke-linecap="round" stroke-linejoin="round"/>
    <path d="M 114.65040588378906 138.25253295898438 C 70.1041030883789 117.74127960205078 55.025169372558594 117.74058532714844 88.83583068847656 126.90339660644531" stroke-width="3.0" fill="none" stroke="rgb(51, 82, 120)" stroke-opacity="0.3692548" stroke-linecap="round" stroke-linejoin="round"/>
    <path d="M 226.2996063232422 182.69773864746094 C 232.8744354248047 187.80186462402344 229.0357208251953 181.58609008789062 228.15994262695312 182.12229919433594" stroke-width="3.0" fill="none" stroke="rgb(172, 139, 58)" stroke-opacity="0.37244126" stroke-linecap="round" stroke-linejoin="round"/>
    <path d="M 25.322092056274414 206.07659912109375 C 52.14936065673828 204.01951599121094 27.514379501342773 207.65762329101562 50.58246994018555 206.54620361328125" stroke-width="3.0" fill="none" stroke="rgb(181, 133, 77)" stroke-opacity="0.1465138" stroke-linecap="round" stroke-linejoin="round"/>
    <path d="M 30.438562393188477 204.34861755371094 C -2.0399880409240723 203.6681671142578 49.437255859375 182.40380859375 3.2569854259490967 175.7558135986328" stroke-width="3.0" fill="none" stroke="rgb(238, 232, 205)" stroke-opacity="0.114536725" stroke-linecap="round" stroke-linejoin="round"/>
    <path d="M 178.8004150390625 174.55226135253906 C 190.25819396972656 172.77713012695312 186.79440307617188 175.6268310546875 148.5399932861328 172.5557098388672" stroke-width="3.0" fill="none" stroke="rgb(184, 167, 22)" stroke-opacity="0.081297785" stroke-linecap="round" stroke-linejoin="round"/>
    <path d="M 42.355960845947266 153.55484008789062 C -38.0849494934082 155.59945678710938 -53.08631896972656 153.74266052246094 -44.74769973754883 156.4038848876953" stroke-width="3.0" fill="none" stroke="rgb(38, 46, 46)" stroke-opacity="0.64752424" stroke-linecap="round" stroke-linejoin="round"/>
    <path d="M 140.0640106201172 123.18785095214844 C 132.76048278808594 113.19744873046875 111.17454528808594 119.08649444580078 107.19326782226562 108.52237701416016" stroke-width="3.0" fill="none" stroke="rgb(134, 93, 100)" stroke-opacity="0.6449014" stroke-linecap="round" stroke-linejoin="round"/>
    <path d="M 168.04811096191406 156.61288452148438 C 105.6568832397461 161.6915740966797 147.52882385253906 154.49868774414062 128.0160675048828 141.1802520751953" stroke-width="3.0" fill="none" stroke="rgb(116, 158, 72)" stroke-opacity="0.09833487" stroke-linecap="round" stroke-linejoin="round"/>
    <path d="M 166.4700164794922 170.82513427734375 C 197.75999450683594 181.76077270507812 151.06771850585938 164.40281677246094 203.3273468017578 172.94879150390625" stroke-width="3.0" fill="none" stroke="rgb(196, 223, 108)" stroke-opacity="0.09448188" stroke-linecap="round" stroke-linejoin="round"/>
    <path d="M 120.62454223632812 140.04226684570312 C 116.00752258300781 162.4441680908203 114.57006072998047 162.6016845703125 115.89479064941406 111.76136779785156" stroke-width="3.0" fill="none" stroke="rgb(169, 115, 81)" stroke-opacity="0.34654436" stroke-linecap="round" stroke-linejoin="round"/>
    <path d="M 122.44670104980469 192.8390655517578 C 78.61698913574219 193.3677978515625 117.19831848144531 189.4500274658203 51.550052642822266 192.7187957763672" stroke-width="3.0" fill="none" stroke="rgb(168, 198, 69)" stroke-opacity="0.14557603" stroke-linecap="round" stroke-linejoin="round"/>
    <path d="M 33.45166778564453 131.86990356445312 C 45.531307220458984 113.8138656616211 13.634033203125 125.25555419921875 66.83891296386719 115.85494995117188" stroke-width="3.0" fill="none" stroke="rgb(93, 88, 54)" stroke-opacity="0.32792714" stroke-linecap="round" stroke-linejoin="round"/>
    <path d="M 221.33731079101562 118.58428955078125 C 219.43785095214844 93.757568359375 220.54039001464844 126.47161102294922 231.63027954101562 135.8600311279297" stroke-width="3.0" fill="none" stroke="rgb(84, 109, 134)" stroke-opacity="0.96812046" stroke-linecap="round" stroke-linejoin="round"/>
    <path d="M 221.65260314941406 134.49606323242188 C 141.15573120117188 134.9256591796875 149.5724639892578 109.86184692382812 224.61215209960938 122.91180419921875" stroke-width="3.0" fill="none" stroke="rgb(92, 107, 127)" stroke-opacity="0.6710714" stroke-linecap="round" stroke-linejoin="round"/>
    <path d="M -0.13949356973171234 171.39039611816406 C -2.158376932144165 169.93971252441406 -31.513771057128906 165.1739501953125 23.491928100585938 171.75257873535156" stroke-width="3.0" fill="none" stroke="rgb(178, 240, 256)" stroke-opacity="0.09728868" stroke-linecap="round" stroke-linejoin="round"/>
    <path d="M 239.4261932373047 212.11837768554688 C 178.1476593017578 208.41644287109375 189.3782958984375 218.05465698242188 228.28326416015625 214.88938903808594" stroke-width="3.0" fill="none" stroke="rgb(207, 225, 154)" stroke-opacity="0.22360271" stroke-linecap="round" stroke-linejoin="round"/>
    <path d="M 4.382553577423096 196.61463928222656 C 13.004352569580078 197.73133850097656 11.426733016967773 197.40576171875 27.00408363342285 196.04345703125" stroke-width="3.0" fill="none" stroke="rgb(184, 162, 98)" stroke-opacity="0.16646205" stroke-linecap="round" stroke-linejoin="round"/>
    <path d="M 93.5286865234375 124.59767150878906 C 104.00138092041016 107.07071685791016 31.78275489807129 111.07574462890625 87.63048553466797 117.14985656738281" stroke-width="3.0" fill="none" stroke="rgb(206, 157, 150)" stroke-opacity="0.13912733" stroke-linecap="round" stroke-linejoin="round"/>
    <path d="M 54.72058868408203 72.48148345947266 C 68.17291259765625 124.33888244628906 66.53083801269531 46.73578643798828 60.429725646972656 96.7810287475586" stroke-width="3.0" fill="none" stroke="rgb(102, 96, 82)" stroke-opacity="0.76479954" stroke-linecap="round" stroke-linejoin="round"/>
    <path d="M 178.15220642089844 226.26083374023438 C 177.38894653320312 201.35800170898438 235.4272918701172 237.42738342285156 168.0170440673828 215.93421936035156" stroke-width="3.0" fill="none" stroke="rgb(193, 185, 140)" stroke-opacity="0.25218287" stroke-linecap="round" stroke-linejoin="round"/>
    <path d="M 163.0193634033203 107.47460174560547 C 118.47982025146484 40.327030181884766 148.3929443359375 42.21298599243164 165.95187377929688 90.76493072509766" stroke-width="3.0" fill="none" stroke="rgb(105, 98, 75)" stroke-opacity="0.2920937" stroke-linecap="round" stroke-linejoin="round"/>
    <path d="M 96.8003158569336 230.3019256591797 C 89.25667572021484 230.12060546875 78.64629364013672 227.65313720703125 100.2808837890625 227.83206176757812" stroke-width="3.0" fill="none" stroke="rgb(55, 53, 35)" stroke-opacity="0.7671995" stroke-linecap="round" stroke-linejoin="round"/>
    <path d="M 107.5637435913086 148.32626342773438 C 154.647705078125 149.21836853027344 102.76765441894531 154.89865112304688 231.53973388671875 150.3721466064453" stroke-width="3.0" fill="none" stroke="rgb(129, 89, 85)" stroke-opacity="0.5894623" stroke-linecap="round" stroke-linejoin="round"/>
    <path d="M 126.37642669677734 142.8695068359375 C 205.82196044921875 146.69351196289062 207.6250457763672 141.7320098876953 125.3320083618164 139.7382049560547" stroke-width="3.0" fill="none" stroke="rgb(71, 91, 116)" stroke-opacity="0.93510866" stroke-linecap="round" stroke-linejoin="round"/>
    <path d="M -2.433147430419922 158.87655639648438 C 30.005054473876953 158.78221130371094 47.13827896118164 155.57337951660156 111.68846130371094 158.6577911376953" stroke-width="3.0" fill="none" stroke="rgb(84, 245, 160)" stroke-opacity="0.18388829" stroke-linecap="round" stroke-linejoin="round"/>
    <path d="M 66.25727844238281 126.84771728515625 C 69.59294891357422 159.68536376953125 56.19910430908203 140.9285888671875 96.10882568359375 145.78233337402344" stroke-width="3.0" fill="none" stroke="rgb(113, 129, 153)" stroke-opacity="0.45332912" stroke-linecap="round" stroke-linejoin="round"/>
    <path d="M 59.342166900634766 230.99903869628906 C 66.2889175415039 230.05848693847656 70.72161865234375 231.08688354492188 56.9484977722168 232.22091674804688" stroke-width="3.0" fill="none" stroke="rgb(10, 41, 47)" stroke-opacity="0.834852" stroke-linecap="round" stroke-linejoin="round"/>
    <path d="M 88.9150619506836 59.647186279296875 C 142.8881378173828 62.561885833740234 110.76841735839844 69.98006439208984 86.0518798828125 60.294830322265625" stroke-width="3.0" fill="none" stroke="rgb(84, 144, 230)" stroke-opacity="0.13621034" stroke-linecap="round" stroke-linejoin="round"/>
    <path d="M 105.57695007324219 53.92262268066406 C 110.42759704589844 86.02531433105469 105.46339416503906 64.03211212158203 106.59166717529297 69.99510192871094" stroke-width="3.0" fill="none" stroke="rgb(136, 136, 98)" stroke-opacity="0.7500833" stroke-linecap="round" stroke-linejoin="round"/>
    <path d="M 161.7791290283203 115.42340087890625 C 143.15672302246094 112.8515625 150.0576171875 109.83673095703125 147.76641845703125 120.06613159179688" stroke-width="3.0" fill="none" stroke="rgb(89, 77, 86)" stroke-opacity="0.823142" stroke-linecap="round" stroke-linejoin="round"/>
    <path d="M 88.85459899902344 125.895751953125 C 94.93311309814453 128.5979766845703 113.09010314941406 151.51266479492188 103.27871704101562 112.62764739990234" stroke-width="3.0" fill="none" stroke="rgb(170, 145, 203)" stroke-opacity="0.11045262" stroke-linecap="round" stroke-linejoin="round"/>
    <path d="M 151.68417358398438 65.87415313720703 C 179.84422302246094 116.18991088867188 174.94113159179688 152.62037658691406 159.7650604248047 85.51842498779297" stroke-width="3.0" fill="none" stroke="rgb(82, 75, 78)" stroke-opacity="0.71343505" stroke-linecap="round" stroke-linejoin="round"/>
    <path d="M 84.65489959716797 68.18254852294922 C 84.90396881103516 84.75675964355469 94.14337158203125 79.93805694580078 83.37923431396484 65.96173095703125" stroke-width="3.0" fill="none" stroke="rgb(99, 80, 56)" stroke-opacity="0.89960754" stroke-linecap="round" stroke-linejoin="round"/>
    <path d="M 87.29190826416016 153.95343017578125 C 17.86384391784668 155.70062255859375 24.259788513183594 156.29861450195312 72.79920196533203 153.36468505859375" stroke-width="3.0" fill="none" stroke="rgb(52, 82, 75)" stroke-opacity="0.470809" stroke-linecap="round" stroke-linejoin="round"/>
  </g>
</svg>
