<?xml version="1.0" ?>
<svg xmlns="http://www.w3.org/2000/svg" version="1.1" width="224" height="224">
  <defs/>
  <g>
    <path d="M 145.21511840820312 222.48570251464844 C 159.6377716064453 200.18133544921875 58.822792053222656 215.2467041015625 137.166015625 220.91207885742188" stroke-width="3.0" fill="none" stroke="rgb(194, 183, 231)" stroke-opacity="0.13910374" stroke-linecap="round" stroke-linejoin="round"/>
    <path d="M 188.95220947265625 105.7054214477539 C 117.38465881347656 139.31417846679688 126.46184539794922 154.5452423095703 141.3468780517578 165.6026153564453" stroke-width="3.0" fill="none" stroke="rgb(158, 158, 181)" stroke-opacity="0.6975851" stroke-linecap="round" stroke-linejoin="round"/>
    <path d="M 128.30296325683594 47.95063018798828 C 191.77682495117188 49.831031799316406 195.0719757080078 128.46249389648438 172.9986572265625 51.363651275634766" stroke-width="3.0" fill="none" stroke="rgb(110, 182, 98)" stroke-opacity="0.23450872" stroke-linecap="round" stroke-linejoin="round"/>
    <path d="M 177.9537353515625 76.4168472290039 C 221.68228149414062 27.043031692504883 247.83932495117188 43.01185989379883 180.15065002441406 61.80562210083008" stroke-width="3.0" fill="none" stroke="rgb(137, 255, 102)" stroke-opacity="0.34859353" stroke-linecap="round" stroke-linejoin="round"/>
    <path d="M 68.91793823242188 128.6108856201172 C 86.70437622070312 151.306884765625 94.1162109375 143.61489868164062 108.62541961669922 187.26890563964844" stroke-width="3.0" fill="none" stroke="rgb(201, 198, 159)" stroke-opacity="0.1361792" stroke-linecap="round" stroke-linejoin="round"/>
    <path d="M -3.4427437782287598 187.32899475097656 C -4.963696479797363 179.60926818847656 -8.501564025878906 187.46739196777344 -7.619132995605469 190.47279357910156" stroke-width="3.0" fill="none" stroke="rgb(29, 32, 28)" stroke-opacity="0.88008404" stroke-linecap="round" stroke-linejoin="round"/>
    <path d="M 146.21392822265625 220.59877014160156 C 53.569061279296875 140.72128295898438 119.51625061035156 241.75770568847656 65.54570770263672 159.43798828125" stroke-width="3.0" fill="none" stroke="rgb(108, 119, 173)" stroke-opacity="0.13703947" stroke-linecap="round" stroke-linejoin="round"/>
    <path d="M 164.0642852783203 190.4004669189453 C 107.80855560302734 230.7568359375 80.01908111572266 101.689697265625 141.4527130126953 184.50473022460938" stroke-width="3.0" fill="none" stroke="rgb(177, 184, 239)" stroke-opacity="0.12672761" stroke-linecap="round" stroke-linejoin="round"/>
    <path d="M 185.71791076660156 190.30178833007812 C 221.63475036621094 178.8939971923828 213.84495544433594 137.4451141357422 186.8209991455078 213.025390625" stroke-width="3.0" fill="none" stroke="rgb(175, 159, 157)" stroke-opacity="0.13012283" stroke-linecap="round" stroke-linejoin="round"/>
    <path d="M 170.24203491210938 187.70660400390625 C 90.654541015625 205.83961486816406 193.69459533691406 218.61947631835938 176.8999481201172 151.9586639404297" stroke-width="3.0" fill="none" stroke="rgb(206, 192, 204)" stroke-opacity="0.12628366" stroke-linecap="round" stroke-linejoin="round"/>
    <path d="M 107.67208099365234 49.26319122314453 C 68.71504211425781 -1.5037028789520264 43.47724151611328 12.776790618896484 102.05248260498047 32.78816604614258" stroke-width="3.0" fill="none" stroke="rgb(257, 206, 257)" stroke-opacity="0.08497631" stroke-linecap="round" stroke-linejoin="round"/>
    <path d="M 32.741172790527344 194.4375762939453 C 19.966205596923828 157.7146453857422 17.191734313964844 198.88592529296875 40.80104064941406 181.42857360839844" stroke-width="3.0" fill="none" stroke="rgb(96, 98, 58)" stroke-opacity="0.70488816" stroke-linecap="round" stroke-linejoin="round"/>
    <path d="M 219.92376708984375 228.7204132080078 C 199.7376251220703 217.9188690185547 146.95545959472656 222.81192016601562 123.31076049804688 232.52902221679688" stroke-width="3.0" fill="none" stroke="rgb(18, 77, 108)" stroke-opacity="0.2728858" stroke-linecap="round" stroke-linejoin="round"/>
    <path d="M -9.045573234558105 200.38478088378906 C -5.677984237670898 202.80287170410156 -8.53695297241211 204.04339599609375 -6.9987897872924805 199.1680908203125" stroke-width="3.0" fill="none" stroke="rgb(28, 0, 30)" stroke-opacity="0.8869458" stroke-linecap="round" stroke-linejoin="round"/>
    <path d="M 30.652135848999023 86.40917205810547 C 72.34058380126953 85.18518829345703 125.40139770507812 126.83883666992188 52.49436950683594 89.58537292480469" stroke-width="3.0" fill="none" stroke="rgb(102, 3, 66)" stroke-opacity="0.19312797" stroke-linecap="round" stroke-linejoin="round"/>
    <path d="M 190.00088500976562 82.27681732177734 C 232.51339721679688 37.72245788574219 254.17266845703125 22.764862060546875 192.6558380126953 83.55287170410156" stroke-width="3.0" fill="none" stroke="rgb(256, 84, 7)" stroke-opacity="0.21856266" stroke-linecap="round" stroke-linejoin="round"/>
    <path d="M 230.55645751953125 1.7280309200286865 C 33.3465461730957 5.32553243637085 -59.39924240112305 -0.45491713285446167 141.2424774169922 -11.039581298828125" stroke-width="3.0" fill="none" stroke="rgb(164, 184, 213)" stroke-opacity="0.13528678" stroke-linecap="round" stroke-linejoin="round"/>
    <path d="M 28.127391815185547 96.88768768310547 C 68.58094024658203 182.6876220703125 70.86566162109375 174.32162475585938 30.263782501220703 95.77940368652344" stroke-width="3.0" fill="none" stroke="rgb(228, 125, 94)" stroke-opacity="0.062374603" stroke-linecap="round" stroke-linejoin="round"/>
    <path d="M 161.06851196289062 -7.7386040687561035 C 161.14662170410156 28.494007110595703 153.81964111328125 17.228775024414062 153.4978485107422 -1.0753697156906128" stroke-width="3.0" fill="none" stroke="rgb(201, 236, 188)" stroke-opacity="0.08975689" stroke-linecap="round" stroke-linejoin="round"/>
    <path d="M 206.48033142089844 93.34812927246094 C 239.50942993164062 142.3093719482422 211.0706329345703 84.08772277832031 220.02740478515625 122.92144775390625" stroke-width="3.0" fill="none" stroke="rgb(195, 169, 258)" stroke-opacity="0.42226347" stroke-linecap="round" stroke-linejoin="round"/>
    <path d="M 44.41743469238281 100.94534301757812 C 32.392940521240234 170.40478515625 36.589969635009766 171.03990173339844 36.2171516418457 96.90222930908203" stroke-width="3.0" fill="none" stroke="rgb(256, 106, 258)" stroke-opacity="0.034779675" stroke-linecap="round" stroke-linejoin="round"/>
    <path d="M 52.17476272583008 74.9849624633789 C 123.80834197998047 56.274356842041016 27.64337158203125 71.97270965576172 88.36614990234375 56.33480453491211" stroke-width="3.0" fill="none" stroke="rgb(254, 160, 258)" stroke-opacity="0.15429042" stroke-linecap="round" stroke-linejoin="round"/>
    <path d="M 77.99243927001953 83.49211120605469 C 127.71182250976562 -9.29802417755127 133.73394775390625 167.88211059570312 142.95782470703125 54.70763397216797" stroke-width="3.0" fill="none" stroke="rgb(145, 197, 99)" stroke-opacity="0.2716993" stroke-linecap="round" stroke-linejoin="round"/>
    <path d="M 23.930341720581055 177.10598754882812 C 43.107269287109375 187.59291076660156 22.370546340942383 215.92921447753906 55.408016204833984 191.40684509277344" stroke-width="3.0" fill="none" stroke="rgb(152, 198, 114)" stroke-opacity="0.65213233" stroke-linecap="round" stroke-linejoin="round"/>
    <path d="M 211.86273193359375 -4.138828754425049 C 213.78639221191406 -6.426339149475098 203.76304626464844 -4.5174336433410645 207.26824951171875 -4.706277847290039" stroke-width="3.0" fill="none" stroke="rgb(85, 93, 104)" stroke-opacity="0.6192764" stroke-linecap="round" stroke-linejoin="round"/>
    <path d="M 168.2529754638672 22.095224380493164 C 80.919677734375 11.197235107421875 177.72750854492188 -5.113916873931885 153.04837036132812 51.82758712768555" stroke-width="3.0" fill="none" stroke="rgb(252, 134, 257)" stroke-opacity="0.058133148" stroke-linecap="round" stroke-linejoin="round"/>
    <path d="M -0.06442052125930786 36.31117248535156 C 22.322261810302734 79.87458038330078 52.19725799560547 116.72213745117188 0.7012285590171814 32.817420959472656" stroke-width="3.0" fill="none" stroke="rgb(257, 11, 257)" stroke-opacity="0.035485297" stroke-linecap="round" stroke-linejoin="round"/>
    <path d="M 240.8026885986328 191.6689910888672 C 238.48936462402344 208.326171875 211.29151916503906 187.0009307861328 225.8301239013672 181.0101318359375" stroke-width="3.0" fill="none" stroke="rgb(120, 98, 169)" stroke-opacity="0.20019387" stroke-linecap="round" stroke-linejoin="round"/>
    <path d="M 186.2501220703125 92.80572509765625 C 220.79995727539062 92.36640930175781 212.27560424804688 127.58521270751953 203.19859313964844 91.56651306152344" stroke-width="3.0" fill="none" stroke="rgb(184, 158, 245)" stroke-opacity="0.5371857" stroke-linecap="round" stroke-linejoin="round"/>
    <path d="M 89.03144073486328 19.37380027770996 C 134.49273681640625 11.979155540466309 119.85826110839844 18.540868759155273 165.22760009765625 26.514354705810547" stroke-width="3.0" fill="none" stroke="rgb(256, 104, 259)" stroke-opacity="0.11602579" stroke-linecap="round" stroke-linejoin="round"/>
    <path d="M 59.8358039855957 153.16600036621094 C 80.37600708007812 130.98509216308594 96.13761138916016 188.94480895996094 142.96971130371094 214.17169189453125" stroke-width="3.0" fill="none" stroke="rgb(55, 67, 117)" stroke-opacity="0.26996204" stroke-linecap="round" stroke-linejoin="round"/>
    <path d="M 179.74185180664062 197.10525512695312 C 281.5252990722656 218.12318420410156 152.88201904296875 173.34275817871094 224.47996520996094 206.36094665527344" stroke-width="3.0" fill="none" stroke="rgb(156, 166, 219)" stroke-opacity="0.16818504" stroke-linecap="round" stroke-linejoin="round"/>
    <path d="M 83.93489074707031 -7.1039252281188965 C 61.87362289428711 11.997050285339355 85.08619689941406 8.74128246307373 153.99119567871094 10.647644996643066" stroke-width="3.0" fill="none" stroke="rgb(217, 182, 231)" stroke-opacity="0.114271045" stroke-linecap="round" stroke-linejoin="round"/>
    <path d="M 158.9256134033203 68.05068969726562 C 191.56813049316406 83.11644744873047 117.85942077636719 91.68680572509766 156.59129333496094 68.71504211425781" stroke-width="3.0" fill="none" stroke="rgb(56, 28, 59)" stroke-opacity="0.7782173" stroke-linecap="round" stroke-linejoin="round"/>
    <path d="M 226.84864807128906 63.10900115966797 C 188.3417510986328 119.55170440673828 175.4973907470703 77.50545501708984 194.19659423828125 92.63634490966797" stroke-width="3.0" fill="none" stroke="rgb(50, 151, 0)" stroke-opacity="0.4794027" stroke-linecap="round" stroke-linejoin="round"/>
    <path d="M 118.9792251586914 84.78498840332031 C 106.79334259033203 64.03595733642578 87.16215515136719 100.29520416259766 105.25765228271484 83.17430114746094" stroke-width="3.0" fill="none" stroke="rgb(109, 72, 109)" stroke-opacity="0.89200675" stroke-linecap="round" stroke-linejoin="round"/>
    <path d="M 53.539920806884766 83.2884292602539 C 14.360757827758789 86.05299377441406 34.32426071166992 73.44569396972656 73.8548355102539 115.24752807617188" stroke-width="3.0" fill="none" stroke="rgb(166, 259, -2)" stroke-opacity="0.22273888" stroke-linecap="round" stroke-linejoin="round"/>
    <path d="M 84.81781005859375 76.65479278564453 C 95.33313751220703 164.3603973388672 229.2917938232422 55.80974578857422 93.64219665527344 107.28190612792969" stroke-width="3.0" fill="none" stroke="rgb(61, 256, -1)" stroke-opacity="0.13560127" stroke-linecap="round" stroke-linejoin="round"/>
    <path d="M 142.4646453857422 152.3257293701172 C 206.74037170410156 105.2435302734375 239.3401336669922 111.1826171875 196.5493621826172 201.02418518066406" stroke-width="3.0" fill="none" stroke="rgb(219, 212, 184)" stroke-opacity="0.196248" stroke-linecap="round" stroke-linejoin="round"/>
    <path d="M 156.16281127929688 44.473289489746094 C 120.80914306640625 111.19498443603516 110.57959747314453 0.8617712259292603 151.32696533203125 55.510372161865234" stroke-width="3.0" fill="none" stroke="rgb(63, 194, 16)" stroke-opacity="0.1770603" stroke-linecap="round" stroke-linejoin="round"/>
    <path d="M 187.1072235107422 205.06329345703125 C 190.57931518554688 128.9165802001953 170.8797149658203 154.00633239746094 178.9108428955078 195.51046752929688" stroke-width="3.0" fill="none" stroke="rgb(160, 155, 109)" stroke-opacity="0.0810402" stroke-linecap="round" stroke-linejoin="round"/>
    <path d="M 208.65884399414062 87.02528381347656 C 227.6278076171875 174.162353515625 225.685302734375 44.896358489990234 174.98760986328125 106.19090270996094" stroke-width="3.0" fill="none" stroke="rgb(193, 187, 221)" stroke-opacity="0.3621964" stroke-linecap="round" stroke-linejoin="round"/>
    <path d="M 133.42529296875 80.44092559814453 C 104.17928314208984 124.7031478881836 101.5897445678711 126.9390640258789 171.36317443847656 96.8287582397461" stroke-width="3.0" fill="none" stroke="rgb(82, 186, 46)" stroke-opacity="0.21344176" stroke-linecap="round" stroke-linejoin="round"/>
    <path d="M 80.00385284423828 84.23777770996094 C 120.78760528564453 17.274824142456055 138.5648956298828 60.515682220458984 107.2087173461914 50.98103713989258" stroke-width="3.0" fill="none" stroke="rgb(204, 232, 190)" stroke-opacity="0.9415758" stroke-linecap="round" stroke-linejoin="round"/>
    <path d="M 224.0599365234375 36.40937423706055 C 198.3892059326172 27.270959854125977 203.87136840820312 88.0470199584961 184.39724731445312 36.33131790161133" stroke-width="3.0" fill="none" stroke="rgb(242, 162, 256)" stroke-opacity="0.11916221" stroke-linecap="round" stroke-linejoin="round"/>
    <path d="M 201.55299377441406 105.81423950195312 C 114.91807556152344 106.26383972167969 187.2567138671875 121.29280090332031 189.4629669189453 60.3028564453125" stroke-width="3.0" fill="none" stroke="rgb(114, 170, 39)" stroke-opacity="0.13287874" stroke-linecap="round" stroke-linejoin="round"/>
    <path d="M 202.79916381835938 6.573402404785156 C 210.6492156982422 35.16911697387695 202.1652069091797 9.31663703918457 174.85572814941406 26.88498878479004" stroke-width="3.0" fill="none" stroke="rgb(224, 226, 255)" stroke-opacity="0.04127344" stroke-linecap="round" stroke-linejoin="round"/>
    <path d="M 139.5995330810547 2.265594720840454 C 123.18930053710938 -14.795207977294922 159.45042419433594 -27.423282623291016 162.7577362060547 22.632322311401367" stroke-width="3.0" fill="none" stroke="rgb(195, 253, 234)" stroke-opacity="0.062688686" stroke-linecap="round" stroke-linejoin="round"/>
    <path d="M 182.91273498535156 194.41036987304688 C 187.88201904296875 165.8632049560547 191.73854064941406 205.5803680419922 137.5819854736328 222.8945770263672" stroke-width="3.0" fill="none" stroke="rgb(122, 136, 215)" stroke-opacity="0.19755621" stroke-linecap="round" stroke-linejoin="round"/>
    <path d="M 64.34374237060547 1.5182949304580688 C 43.12702178955078 11.04299545288086 127.9006576538086 12.327312469482422 106.08089447021484 3.4825778007507324" stroke-width="3.0" fill="none" stroke="rgb(226, 189, 240)" stroke-opacity="0.08401506" stroke-linecap="round" stroke-linejoin="round"/>
    <path d="M 133.57705688476562 227.80673217773438 C 110.67369079589844 207.3579559326172 63.47895050048828 227.7921905517578 89.75569915771484 215.22412109375" stroke-width="3.0" fill="none" stroke="rgb(60, 105, 144)" stroke-opacity="0.2428807" stroke-linecap="round" stroke-linejoin="round"/>
    <path d="M 125.50788116455078 191.02423095703125 C 150.79478454589844 205.65164184570312 193.47630310058594 183.21595764160156 169.18736267089844 145.6558380126953" stroke-width="3.0" fill="none" stroke="rgb(154, 141, 181)" stroke-opacity="0.12837481" stroke-linecap="round" stroke-linejoin="round"/>
    <path d="M 24.311424255371094 26.901416778564453 C 145.65695190429688 44.80315017700195 116.63604736328125 72.17131805419922 32.881866455078125 57.08828353881836" stroke-width="3.0" fill="none" stroke="rgb(253, 242, 257)" stroke-opacity="0.05282224" stroke-linecap="round" stroke-linejoin="round"/>
    <path d="M 40.31493377685547 71.93148040771484 C 97.27140045166016 67.38128662109375 52.75778579711914 64.38800048828125 66.74154663085938 74.71743774414062" stroke-width="3.0" fill="none" stroke="rgb(261, 131, 262)" stroke-opacity="0.19494343" stroke-linecap="round" stroke-linejoin="round"/>
    <path d="M -8.049450874328613 136.24049377441406 C -8.996455192565918 138.1504364013672 -9.821664810180664 135.25762939453125 -6.798336505889893 123.83924865722656" stroke-width="3.0" fill="none" stroke="rgb(84, 70, 86)" stroke-opacity="0.65810007" stroke-linecap="round" stroke-linejoin="round"/>
    <path d="M 47.69065475463867 167.66561889648438 C 78.30826568603516 120.65791320800781 55.5061149597168 86.74710083007812 60.332183837890625 149.77255249023438" stroke-width="3.0" fill="none" stroke="rgb(235, 64, 255)" stroke-opacity="0.100636065" stroke-linecap="round" stroke-linejoin="round"/>
    <path d="M 154.4245147705078 65.63824462890625 C 102.03553009033203 112.61386108398438 56.15192413330078 75.98388671875 164.32717895507812 86.94973754882812" stroke-width="3.0" fill="none" stroke="rgb(185, 116, 49)" stroke-opacity="0.25964445" stroke-linecap="round" stroke-linejoin="round"/>
    <path d="M -8.498241424560547 8.938132286071777 C -3.3224427700042725 8.894237518310547 -9.195918083190918 12.989964485168457 -12.99343204498291 9.77502727508545" stroke-width="3.0" fill="none" stroke="rgb(55, 52, 38)" stroke-opacity="0.79526937" stroke-linecap="round" stroke-linejoin="round"/>
    <path d="M 147.67706298828125 -4.201141834259033 C 147.84225463867188 -0.9644520282745361 144.1127166748047 -2.745417356491089 148.21713256835938 -5.525461196899414" stroke-width="3.0" fill="none" stroke="rgb(81, 78, 61)" stroke-opacity="0.6793854" stroke-linecap="round" stroke-linejoin="round"/>
    <path d="M 86.4710693359375 22.863258361816406 C 158.26815795898438 16.123241424560547 180.8414306640625 -2.416400194168091 98.33048248291016 25.081085205078125" stroke-width="3.0" fill="none" stroke="rgb(239, 135, 258)" stroke-opacity="0.106676966" stroke-linecap="round" stroke-linejoin="round"/>
    <path d="M 199.4368896484375 23.339733123779297 C 132.17376708984375 -27.646421432495117 165.6490478515625 -14.121370315551758 218.1450653076172 13.947043418884277" stroke-width="3.0" fill="none" stroke="rgb(241, 249, 258)" stroke-opacity="0.047724847" stroke-linecap="round" stroke-linejoin="round"/>
    <path d="M 24.990446090698242 178.47671508789062 C 42.814788818359375 214.80026245117188 25.81299591064453 154.3032989501953 54.56490707397461 164.35531616210938" stroke-width="3.0" fill="none" stroke="rgb(183, 220, 254)" stroke-opacity="0.26761225" stroke-linecap="round" stroke-linejoin="round"/>
    <path d="M 109.50912475585938 63.681907653808594 C 60.121952056884766 109.31755828857422 83.20106506347656 77.43286895751953 21.16268539428711 80.48612976074219" stroke-width="3.0" fill="none" stroke="rgb(113, 136, 49)" stroke-opacity="0.3734814" stroke-linecap="round" stroke-linejoin="round"/>
    <path d="M 38.206787109375 197.1053924560547 C -13.430602073669434 79.40575408935547 -10.719155311584473 69.66719055175781 38.961788177490234 191.2575225830078" stroke-width="3.0" fill="none" stroke="rgb(133, 102, 197)" stroke-opacity="0.09265915" stroke-linecap="round" stroke-linejoin="round"/>
    <path d="M 52.09623718261719 198.3262481689453 C -6.6178131103515625 197.15794372558594 87.62922668457031 185.7498321533203 38.09428024291992 171.849609375" stroke-width="3.0" fill="none" stroke="rgb(116, 254, 48)" stroke-opacity="0.29293045" stroke-linecap="round" stroke-linejoin="round"/>
    <path d="M 162.10348510742188 169.74661254882812 C 92.97969818115234 90.8512954711914 148.42929077148438 193.73854064941406 171.52940368652344 167.8489227294922" stroke-width="3.0" fill="none" stroke="rgb(144, 132, 111)" stroke-opacity="0.2080572" stroke-linecap="round" stroke-linejoin="round"/>
    <path d="M 117.50321197509766 102.2646713256836 C 88.92366790771484 133.3796844482422 110.07568359375 197.4419403076172 119.68767547607422 130.36056518554688" stroke-width="3.0" fill="none" stroke="rgb(188, 195, 155)" stroke-opacity="0.13557263" stroke-linecap="round" stroke-linejoin="round"/>
    <path d="M 16.683923721313477 98.67557525634766 C 12.982532501220703 83.67088317871094 27.605541229248047 143.55226135253906 51.13101577758789 194.46568298339844" stroke-width="3.0" fill="none" stroke="rgb(74, 29, 128)" stroke-opacity="0.10891887" stroke-linecap="round" stroke-linejoin="round"/>
    <path d="M 235.38217163085938 46.2611083984375 C 211.77146911621094 45.34486770629883 202.21768188476562 69.285400390625 186.76718139648438 72.54566955566406" stroke-width="3.0" fill="none" stroke="rgb(37, 27, 58)" stroke-opacity="0.47786647" stroke-linecap="round" stroke-linejoin="round"/>
    <path d="M 216.20835876464844 174.2963104248047 C 212.05735778808594 173.151123046875 212.53375244140625 105.05914306640625 227.69981384277344 169.74267578125" stroke-width="3.0" fill="none" stroke="rgb(59, 49, 124)" stroke-opacity="0.16829294" stroke-linecap="round" stroke-linejoin="round"/>
    <path d="M 169.49148559570312 204.7914581298828 C 185.10385131835938 137.4275665283203 166.8332061767578 197.32046508789062 145.98497009277344 196.63671875" stroke-width="3.0" fill="none" stroke="rgb(190, 178, 216)" stroke-opacity="0.13340352" stroke-linecap="round" stroke-linejoin="round"/>
    <path d="M 96.49405670166016 117.44916534423828 C 152.24679565429688 129.6623992919922 195.0333251953125 81.23017883300781 115.29911804199219 108.8211669921875" stroke-width="3.0" fill="none" stroke="rgb(36, 70, 9)" stroke-opacity="0.19552822" stroke-linecap="round" stroke-linejoin="round"/>
    <path d="M 184.6337890625 209.4138641357422 C 150.9649200439453 202.2244873046875 177.23974609375 228.8367462158203 195.64608764648438 154.49794006347656" stroke-width="3.0" fill="none" stroke="rgb(78, 49, 72)" stroke-opacity="0.10609344" stroke-linecap="round" stroke-linejoin="round"/>
    <path d="M 43.33184814453125 94.32621765136719 C -4.829611301422119 101.62249755859375 -3.124856472015381 7.306121349334717 15.410683631896973 93.39940643310547" stroke-width="3.0" fill="none" stroke="rgb(237, 7, 257)" stroke-opacity="0.09147053" stroke-linecap="round" stroke-linejoin="round"/>
    <path d="M 42.984432220458984 86.41424560546875 C 14.545248985290527 86.68084716796875 38.655338287353516 92.06157684326172 23.439321517944336 79.6051025390625" stroke-width="3.0" fill="none" stroke="rgb(179, 118, 158)" stroke-opacity="0.0658928" stroke-linecap="round" stroke-linejoin="round"/>
    <path d="M 191.5327606201172 49.0429573059082 C 161.79066467285156 91.56792449951172 215.71360778808594 15.879044532775879 181.72427368164062 70.20491790771484" stroke-width="3.0" fill="none" stroke="rgb(182, 245, 171)" stroke-opacity="0.21745525" stroke-linecap="round" stroke-linejoin="round"/>
    <path d="M 112.15608215332031 125.69943237304688 C 98.79165649414062 140.05882263183594 102.08540344238281 115.44709777832031 139.10179138183594 131.81077575683594" stroke-width="3.0" fill="none" stroke="rgb(162, 170, 183)" stroke-opacity="0.657028" stroke-linecap="round" stroke-linejoin="round"/>
    <path d="M 99.43621826171875 195.39447021484375 C 135.45370483398438 212.3328094482422 152.82672119140625 212.06826782226562 101.94168853759766 194.19190979003906" stroke-width="3.0" fill="none" stroke="rgb(87, 114, 162)" stroke-opacity="0.2329481" stroke-linecap="round" stroke-linejoin="round"/>
    <path d="M 153.03884887695312 156.75523376464844 C 159.00625610351562 205.98434448242188 94.50009155273438 162.6947784423828 120.03712463378906 123.8919906616211" stroke-width="3.0" fill="none" stroke="rgb(153, 149, 182)" stroke-opacity="0.18361355" stroke-linecap="round" stroke-linejoin="round"/>
    <path d="M 128.10736083984375 82.0354232788086 C 86.5496597290039 38.188621520996094 72.10786437988281 124.73915100097656 125.26590728759766 88.60626983642578" stroke-width="3.0" fill="none" stroke="rgb(111, 145, 134)" stroke-opacity="0.39632758" stroke-linecap="round" stroke-linejoin="round"/>
    <path d="M -6.65280818939209 43.754539489746094 C 34.03373718261719 95.28036499023438 101.54058837890625 49.865413665771484 34.563079833984375 57.24958801269531" stroke-width="3.0" fill="none" stroke="rgb(255, 152, 258)" stroke-opacity="0.048628848" stroke-linecap="round" stroke-linejoin="round"/>
    <path d="M 46.21332931518555 226.38031005859375 C -53.146881103515625 182.43470764160156 -34.77540588378906 194.3240203857422 57.88616943359375 225.063232421875" stroke-width="3.0" fill="none" stroke="rgb(180, 4, 257)" stroke-opacity="0.11452667" stroke-linecap="round" stroke-linejoin="round"/>
    <path d="M 89.40096282958984 12.67684268951416 C 159.6687469482422 6.6270036697387695 209.915771484375 61.71531677246094 143.63262939453125 19.198965072631836" stroke-width="3.0" fill="none" stroke="rgb(232, 118, 258)" stroke-opacity="0.14549334" stroke-linecap="round" stroke-linejoin="round"/>
    <path d="M 238.9695281982422 223.3957977294922 C 194.67933654785156 205.35755920410156 200.55918884277344 218.7600555419922 182.74581909179688 211.08416748046875" stroke-width="3.0" fill="none" stroke="rgb(58, 47, 0)" stroke-opacity="0.26876125" stroke-linecap="round" stroke-linejoin="round"/>
    <path d="M 218.76046752929688 139.38145446777344 C 168.6721649169922 129.2675323486328 229.56076049804688 120.28166198730469 222.1165313720703 151.77853393554688" stroke-width="3.0" fill="none" stroke="rgb(81, 104, 150)" stroke-opacity="0.31331524" stroke-linecap="round" stroke-linejoin="round"/>
    <path d="M 84.04043579101562 125.60958862304688 C 108.32610321044922 99.85850524902344 51.89670944213867 131.10513305664062 70.15335845947266 141.2872772216797" stroke-width="3.0" fill="none" stroke="rgb(65, 61, 138)" stroke-opacity="0.2107744" stroke-linecap="round" stroke-linejoin="round"/>
    <path d="M 48.56358337402344 124.1350326538086 C 23.063934326171875 84.83555603027344 39.57975387573242 100.39409637451172 51.8539924621582 119.942138671875" stroke-width="3.0" fill="none" stroke="rgb(254, 178, 256)" stroke-opacity="0.0496678" stroke-linecap="round" stroke-linejoin="round"/>
    <path d="M 80.7872085571289 93.74212646484375 C 129.9180908203125 145.89451599121094 174.89056396484375 116.39714050292969 201.8509979248047 108.2883529663086" stroke-width="3.0" fill="none" stroke="rgb(144, 181, 166)" stroke-opacity="0.25097892" stroke-linecap="round" stroke-linejoin="round"/>
    <path d="M 219.58729553222656 222.92135620117188 C 93.2121353149414 227.6911163330078 140.36012268066406 216.18821716308594 83.1084976196289 222.8603515625" stroke-width="3.0" fill="none" stroke="rgb(138, 132, 69)" stroke-opacity="0.2106981" stroke-linecap="round" stroke-linejoin="round"/>
    <path d="M -15.633687019348145 -3.170748710632324 C 44.95576858520508 -5.208254337310791 16.455333709716797 -2.2572789192199707 -6.012826442718506 -5.463902950286865" stroke-width="3.0" fill="none" stroke="rgb(210, 195, 191)" stroke-opacity="0.16483639" stroke-linecap="round" stroke-linejoin="round"/>
    <path d="M 31.31952476501465 5.6451945304870605 C 21.975543975830078 2.0131165981292725 48.52153015136719 9.666622161865234 8.791659355163574 1.6689375638961792" stroke-width="3.0" fill="none" stroke="rgb(192, 188, 218)" stroke-opacity="0.096061245" stroke-linecap="round" stroke-linejoin="round"/>
    <path d="M 87.59434509277344 110.88384246826172 C 61.972469329833984 125.7657470703125 68.7032699584961 99.52323913574219 19.857812881469727 82.65266418457031" stroke-width="3.0" fill="none" stroke="rgb(65, 102, 0)" stroke-opacity="0.46171585" stroke-linecap="round" stroke-linejoin="round"/>
    <path d="M 12.989023208618164 64.07386016845703 C 2.7045791149139404 58.59922790527344 -23.434659957885742 15.191915512084961 26.818439483642578 152.1271209716797" stroke-width="3.0" fill="none" stroke="rgb(10, 255, 256)" stroke-opacity="0.091381006" stroke-linecap="round" stroke-linejoin="round"/>
    <path d="M 98.47992706298828 78.9876480102539 C 58.042171478271484 155.60812377929688 67.7936782836914 70.13336181640625 118.01496124267578 60.7415657043457" stroke-width="3.0" fill="none" stroke="rgb(168, 172, 155)" stroke-opacity="0.43912548" stroke-linecap="round" stroke-linejoin="round"/>
    <path d="M 140.08255004882812 23.35846710205078 C 200.37486267089844 45.2437629699707 167.3727264404297 43.73915100097656 98.56836700439453 63.36800765991211" stroke-width="3.0" fill="none" stroke="rgb(235, 257, 259)" stroke-opacity="0.3669007" stroke-linecap="round" stroke-linejoin="round"/>
    <path d="M 151.43905639648438 158.52992248535156 C 171.9650421142578 155.1000213623047 184.19190979003906 113.57283782958984 221.66445922851562 141.7485809326172" stroke-width="3.0" fill="none" stroke="rgb(120, 129, 161)" stroke-opacity="0.68085825" stroke-linecap="round" stroke-linejoin="round"/>
  </g>
</svg>
