<?xml version="1.0" ?>
<svg xmlns="http://www.w3.org/2000/svg" version="1.1" width="224" height="224">
  <defs/>
  <g>
    <path d="M 102.59984588623047 33.45330047607422 C 85.0749282836914 49.67567825317383 55.23393630981445 24.975284576416016 108.5433349609375 16.561145782470703" stroke-width="3.0" fill="none" stroke="rgb(-2, 2, 1)" stroke-opacity="0.20596565" stroke-linecap="round" stroke-linejoin="round"/>
    <path d="M 18.31231117248535 72.96465301513672 C 46.354312896728516 62.056884765625 13.908695220947266 74.86701965332031 36.46099853515625 58.99158477783203" stroke-width="3.0" fill="none" stroke="rgb(-2, 1, 2)" stroke-opacity="0.24714623" stroke-linecap="round" stroke-linejoin="round"/>
    <path d="M 87.60814666748047 30.18090057373047 C 109.71112060546875 -19.771337509155273 121.28302764892578 81.42144012451172 99.37032318115234 15.571332931518555" stroke-width="3.0" fill="none" stroke="rgb(2, 0, -3)" stroke-opacity="0.19910085" stroke-linecap="round" stroke-linejoin="round"/>
    <path d="M 81.86784362792969 45.29491424560547 C 79.9577407836914 93.37391662597656 102.5369873046875 64.0863037109375 75.890869140625 60.4126091003418" stroke-width="3.0" fill="none" stroke="rgb(2, -2, 0)" stroke-opacity="0.073044665" stroke-linecap="round" stroke-linejoin="round"/>
    <path d="M 7.605808258056641 -4.6392388343811035 C 13.744220733642578 -5.62022066116333 12.097657203674316 -7.67941951751709 0.14238528907299042 -6.657928943634033" stroke-width="3.0" fill="none" stroke="rgb(0, 0, 0)" stroke-opacity="0.7332495" stroke-linecap="round" stroke-linejoin="round"/>
    <path d="M 50.41985321044922 77.89630889892578 C 25.633119583129883 143.05361938476562 31.633520126342773 113.21639251708984 47.30284881591797 78.40725708007812" stroke-width="3.0" fill="none" stroke="rgb(2, -2, 2)" stroke-opacity="0.05230151" stroke-linecap="round" stroke-linejoin="round"/>
    <path d="M 183.5715789794922 188.77793884277344 C 205.89576721191406 216.00680541992188 191.0204620361328 181.89950561523438 194.37393188476562 230.40147399902344" stroke-width="3.0" fill="none" stroke="rgb(0, 0, 1)" stroke-opacity="0.07598591" stroke-linecap="round" stroke-linejoin="round"/>
    <path d="M 137.63760375976562 153.5867919921875 C 153.079345703125 217.78298950195312 147.36595153808594 168.1828155517578 150.86782836914062 237.02830505371094" stroke-width="3.0" fill="none" stroke="rgb(0, 0, 0)" stroke-opacity="0.07586903" stroke-linecap="round" stroke-linejoin="round"/>
    <path d="M 119.3111572265625 183.2518768310547 C 128.16310119628906 214.05581665039062 108.13790893554688 190.11444091796875 124.06855773925781 222.49195861816406" stroke-width="3.0" fill="none" stroke="rgb(0, 0, 0)" stroke-opacity="0.010928991" stroke-linecap="round" stroke-linejoin="round"/>
    <path d="M 112.10472869873047 44.411006927490234 C 101.6689682006836 92.15878295898438 63.53731155395508 49.51422882080078 102.88436126708984 55.36640548706055" stroke-width="3.0" fill="none" stroke="rgb(-3, 1, 4)" stroke-opacity="0.27603978" stroke-linecap="round" stroke-linejoin="round"/>
    <path d="M 35.22960662841797 46.601409912109375 C 38.321163177490234 47.49835968017578 38.691383361816406 31.06043243408203 40.6713981628418 37.44544219970703" stroke-width="3.0" fill="none" stroke="rgb(-2, 2, 1)" stroke-opacity="0.18143383" stroke-linecap="round" stroke-linejoin="round"/>
    <path d="M 90.05473327636719 204.83494567871094 C 92.34437561035156 204.73204040527344 90.78091430664062 207.36981201171875 91.09769439697266 206.774169921875" stroke-width="3.0" fill="none" stroke="rgb(0, 0, 0)" stroke-opacity="-0.0043472825" stroke-linecap="round" stroke-linejoin="round"/>
    <path d="M 174.09835815429688 199.97848510742188 C 166.80392456054688 149.76524353027344 171.94789123535156 191.5818328857422 196.5283660888672 154.6030731201172" stroke-width="3.0" fill="none" stroke="rgb(-1, 0, 2)" stroke-opacity="0.095978364" stroke-linecap="round" stroke-linejoin="round"/>
    <path d="M 209.31983947753906 76.02677917480469 C 199.4873046875 32.317466735839844 164.70004272460938 75.65776824951172 167.39913940429688 90.15096282958984" stroke-width="3.0" fill="none" stroke="rgb(0, 0, 1)" stroke-opacity="0.101951286" stroke-linecap="round" stroke-linejoin="round"/>
    <path d="M 95.89249420166016 66.63755798339844 C 92.35420227050781 41.85868453979492 92.18321228027344 49.31081771850586 97.7689437866211 41.81998062133789" stroke-width="3.0" fill="none" stroke="rgb(0, 1, 0)" stroke-opacity="0.17237687" stroke-linecap="round" stroke-linejoin="round"/>
    <path d="M 151.24105834960938 235.55291748046875 C 149.12132263183594 215.7208709716797 150.2051544189453 114.9526596069336 155.1787872314453 166.8305206298828" stroke-width="3.0" fill="none" stroke="rgb(1, -3, 3)" stroke-opacity="0.14694007" stroke-linecap="round" stroke-linejoin="round"/>
    <path d="M 228.39898681640625 2.9538185596466064 C 229.36000061035156 -4.658776760101318 229.78125 -2.714040517807007 229.43959045410156 5.186289310455322" stroke-width="3.0" fill="none" stroke="rgb(0, 0, 0)" stroke-opacity="0.63201255" stroke-linecap="round" stroke-linejoin="round"/>
    <path d="M 100.39081573486328 21.310497283935547 C 111.67399597167969 5.564237117767334 103.77381134033203 3.4008185863494873 102.44770050048828 27.357641220092773" stroke-width="3.0" fill="none" stroke="rgb(0, 0, 0)" stroke-opacity="0.4577796" stroke-linecap="round" stroke-linejoin="round"/>
    <path d="M 212.577880859375 124.0977554321289 C 210.6643524169922 53.07707214355469 204.01170349121094 72.90008544921875 212.67201232910156 100.23678588867188" stroke-width="3.0" fill="none" stroke="rgb(-1, 0, 2)" stroke-opacity="0.19555359" stroke-linecap="round" stroke-linejoin="round"/>
    <path d="M 14.183733940124512 97.11475372314453 C 13.017864227294922 92.21482849121094 7.341010093688965 91.18018341064453 17.611406326293945 73.34198760986328" stroke-width="3.0" fill="none" stroke="rgb(-1, 1, 0)" stroke-opacity="0.2014648" stroke-linecap="round" stroke-linejoin="round"/>
    <path d="M 36.42036056518555 98.3041763305664 C 23.869033813476562 108.89984893798828 33.69769287109375 161.40396118164062 33.25387954711914 99.15823364257812" stroke-width="3.0" fill="none" stroke="rgb(1, 2, -2)" stroke-opacity="0.050459653" stroke-linecap="round" stroke-linejoin="round"/>
    <path d="M 93.40312957763672 69.3843994140625 C 117.43362426757812 57.177093505859375 103.14707946777344 48.27495193481445 80.0086441040039 43.39735412597656" stroke-width="3.0" fill="none" stroke="rgb(-1, 1, 0)" stroke-opacity="0.15676384" stroke-linecap="round" stroke-linejoin="round"/>
    <path d="M 99.27869415283203 30.018693923950195 C 83.03453826904297 39.09734344482422 119.07844543457031 81.37105560302734 79.3624496459961 46.6763801574707" stroke-width="3.0" fill="none" stroke="rgb(-1, 1, 1)" stroke-opacity="0.24130033" stroke-linecap="round" stroke-linejoin="round"/>
    <path d="M 153.35491943359375 153.35606384277344 C 153.13414001464844 153.2454071044922 170.19459533691406 179.06861877441406 184.24295043945312 166.5775146484375" stroke-width="3.0" fill="none" stroke="rgb(0, 0, 0)" stroke-opacity="0.20164613" stroke-linecap="round" stroke-linejoin="round"/>
    <path d="M 16.37530517578125 85.94525909423828 C 74.22801208496094 55.893455505371094 115.27543640136719 69.02526092529297 35.23308563232422 60.76869201660156" stroke-width="3.0" fill="none" stroke="rgb(3, -2, 2)" stroke-opacity="0.03792664" stroke-linecap="round" stroke-linejoin="round"/>
    <path d="M 36.22547912597656 93.7518539428711 C 14.80094051361084 64.45297241210938 20.596851348876953 78.2056655883789 28.763492584228516 112.2276840209961" stroke-width="3.0" fill="none" stroke="rgb(2, 0, -4)" stroke-opacity="0.02328304" stroke-linecap="round" stroke-linejoin="round"/>
    <path d="M 192.6807098388672 69.43156433105469 C 221.76605224609375 127.31584930419922 176.2481231689453 135.63551330566406 206.30450439453125 156.87750244140625" stroke-width="3.0" fill="none" stroke="rgb(-2, 2, 2)" stroke-opacity="0.04776627" stroke-linecap="round" stroke-linejoin="round"/>
    <path d="M 40.5433349609375 169.14874267578125 C 37.87538146972656 151.67800903320312 30.57899284362793 168.80386352539062 27.55499839782715 114.26638793945312" stroke-width="3.0" fill="none" stroke="rgb(0, 2, -2)" stroke-opacity="0.22953215" stroke-linecap="round" stroke-linejoin="round"/>
    <path d="M -9.35433578491211 15.286660194396973 C -7.128341197967529 15.479825019836426 -7.007170677185059 16.14598274230957 -6.840176105499268 14.200538635253906" stroke-width="3.0" fill="none" stroke="rgb(0, 0, 0)" stroke-opacity="0.7353871" stroke-linecap="round" stroke-linejoin="round"/>
    <path d="M 52.53178405761719 86.0619888305664 C 40.60633087158203 160.8734588623047 28.320667266845703 66.79463958740234 84.29369354248047 70.0247573852539" stroke-width="3.0" fill="none" stroke="rgb(-2, -4, 3)" stroke-opacity="0.07719975" stroke-linecap="round" stroke-linejoin="round"/>
    <path d="M 80.41938018798828 145.18821716308594 C 92.64556121826172 125.58402252197266 73.95711517333984 138.2284393310547 76.13079833984375 160.5635528564453" stroke-width="3.0" fill="none" stroke="rgb(2, -2, -1)" stroke-opacity="0.38118705" stroke-linecap="round" stroke-linejoin="round"/>
    <path d="M 94.8099594116211 77.82664489746094 C 155.19424438476562 14.594476699829102 136.07794189453125 48.042030334472656 85.91014862060547 78.67684936523438" stroke-width="3.0" fill="none" stroke="rgb(0, -1, 2)" stroke-opacity="0.09043941" stroke-linecap="round" stroke-linejoin="round"/>
    <path d="M 71.60380554199219 16.3995418548584 C 49.806236267089844 24.44839096069336 15.212713241577148 49.60202407836914 76.91423797607422 24.6927433013916" stroke-width="3.0" fill="none" stroke="rgb(0, -1, 1)" stroke-opacity="0.03487654" stroke-linecap="round" stroke-linejoin="round"/>
    <path d="M 86.36071014404297 242.4366455078125 C 80.036376953125 116.33895874023438 88.20723724365234 125.30020141601562 77.6900634765625 86.69650268554688" stroke-width="3.0" fill="none" stroke="rgb(-3, 2, 2)" stroke-opacity="0.14310785" stroke-linecap="round" stroke-linejoin="round"/>
    <path d="M -2.1648809909820557 -16.016780853271484 C 2.918532609939575 -7.7911481857299805 -0.11204488575458527 -18.38055419921875 0.8488485813140869 138.7206268310547" stroke-width="3.0" fill="none" stroke="rgb(1, 0, -1)" stroke-opacity="0.07120588" stroke-linecap="round" stroke-linejoin="round"/>
    <path d="M 155.04949951171875 18.679338455200195 C 190.07774353027344 72.15035247802734 82.97502136230469 47.60121154785156 168.06118774414062 36.95817565917969" stroke-width="3.0" fill="none" stroke="rgb(-1, 1, 1)" stroke-opacity="0.068811536" stroke-linecap="round" stroke-linejoin="round"/>
    <path d="M 150.79904174804688 160.89352416992188 C 132.36434936523438 130.5748748779297 114.6269302368164 151.4096221923828 85.68981170654297 139.32601928710938" stroke-width="3.0" fill="none" stroke="rgb(0, 0, 0)" stroke-opacity="0.23315907" stroke-linecap="round" stroke-linejoin="round"/>
    <path d="M 108.36106872558594 5.153403282165527 C -18.102975845336914 27.456357955932617 -109.57594299316406 50.16789627075195 102.20781707763672 10.105062484741211" stroke-width="3.0" fill="none" stroke="rgb(-2, 2, 3)" stroke-opacity="0.012775899" stroke-linecap="round" stroke-linejoin="round"/>
    <path d="M 169.06185913085938 13.775030136108398 C 173.9152374267578 24.59218406677246 180.0226593017578 21.23672103881836 142.3133087158203 -6.774097442626953" stroke-width="3.0" fill="none" stroke="rgb(0, -1, 1)" stroke-opacity="0.32785544" stroke-linecap="round" stroke-linejoin="round"/>
    <path d="M 27.307710647583008 78.1484603881836 C 77.69840240478516 39.960208892822266 88.32015991210938 43.33779525756836 30.067853927612305 56.87803649902344" stroke-width="3.0" fill="none" stroke="rgb(0, -2, 2)" stroke-opacity="0.051882014" stroke-linecap="round" stroke-linejoin="round"/>
    <path d="M 68.69319152832031 254.85853576660156 C 79.12960815429688 150.55706787109375 58.3963623046875 214.39346313476562 88.47637176513672 119.24446105957031" stroke-width="3.0" fill="none" stroke="rgb(3, -3, 0)" stroke-opacity="0.25410348" stroke-linecap="round" stroke-linejoin="round"/>
    <path d="M 25.462434768676758 162.10951232910156 C 14.498184204101562 47.633907318115234 36.14173889160156 140.25772094726562 20.148235321044922 116.57355499267578" stroke-width="3.0" fill="none" stroke="rgb(-2, 2, -2)" stroke-opacity="0.11042745" stroke-linecap="round" stroke-linejoin="round"/>
    <path d="M 199.1717529296875 225.60427856445312 C 228.35130310058594 89.72545623779297 226.63748168945312 127.2177734375 201.52413940429688 228.77210998535156" stroke-width="3.0" fill="none" stroke="rgb(0, 1, 0)" stroke-opacity="0.021778332" stroke-linecap="round" stroke-linejoin="round"/>
    <path d="M 50.988582611083984 118.8363037109375 C 56.15846633911133 169.98831176757812 41.687286376953125 148.34092712402344 57.53074264526367 178.83633422851562" stroke-width="3.0" fill="none" stroke="rgb(-1, 1, 1)" stroke-opacity="0.1378457" stroke-linecap="round" stroke-linejoin="round"/>
    <path d="M -6.445258617401123 118.8700180053711 C -6.041863441467285 117.12871551513672 -11.08643627166748 115.20088958740234 -5.931606769561768 118.53694915771484" stroke-width="3.0" fill="none" stroke="rgb(0, 0, 0)" stroke-opacity="0.9206029" stroke-linecap="round" stroke-linejoin="round"/>
    <path d="M 137.41575622558594 99.24143981933594 C 143.67918395996094 96.77009582519531 134.5269317626953 53.626075744628906 132.02589416503906 109.0655746459961" stroke-width="3.0" fill="none" stroke="rgb(-1, 1, 1)" stroke-opacity="0.05676891" stroke-linecap="round" stroke-linejoin="round"/>
    <path d="M 205.15933227539062 153.15921020507812 C 212.13714599609375 147.1147003173828 196.3479766845703 153.22210693359375 241.5039825439453 145.88134765625" stroke-width="3.0" fill="none" stroke="rgb(-1, 0, 2)" stroke-opacity="0.17497249" stroke-linecap="round" stroke-linejoin="round"/>
    <path d="M 137.20851135253906 130.11358642578125 C 148.1618194580078 185.1765899658203 111.38946533203125 121.13814544677734 155.02430725097656 169.89305114746094" stroke-width="3.0" fill="none" stroke="rgb(1, -1, 0)" stroke-opacity="0.07104546" stroke-linecap="round" stroke-linejoin="round"/>
    <path d="M 43.438724517822266 53.192623138427734 C 113.21501922607422 54.334381103515625 50.414085388183594 37.47657775878906 83.76351165771484 72.13337707519531" stroke-width="3.0" fill="none" stroke="rgb(2, 0, 0)" stroke-opacity="0.054436088" stroke-linecap="round" stroke-linejoin="round"/>
    <path d="M 32.85768127441406 238.78973388671875 C 38.033870697021484 129.5299835205078 28.84804344177246 132.38717651367188 27.978668212890625 195.29379272460938" stroke-width="3.0" fill="none" stroke="rgb(-1, 0, 2)" stroke-opacity="0.07549208" stroke-linecap="round" stroke-linejoin="round"/>
    <path d="M 173.85528564453125 157.13619995117188 C 143.17259216308594 60.814697265625 168.88922119140625 71.59075927734375 181.9770050048828 161.90057373046875" stroke-width="3.0" fill="none" stroke="rgb(-3, 3, -2)" stroke-opacity="0.03914281" stroke-linecap="round" stroke-linejoin="round"/>
    <path d="M 76.89678955078125 -1.7899125814437866 C -59.50065612792969 27.188018798828125 42.59302520751953 -64.36048126220703 10.66411018371582 74.21896362304688" stroke-width="3.0" fill="none" stroke="rgb(-2, 1, 2)" stroke-opacity="0.012233613" stroke-linecap="round" stroke-linejoin="round"/>
    <path d="M 117.45568084716797 20.312654495239258 C 121.02618408203125 71.07139587402344 145.8859405517578 59.700016021728516 109.16260528564453 -6.3474955558776855" stroke-width="3.0" fill="none" stroke="rgb(-3, 0, 3)" stroke-opacity="0.30115777" stroke-linecap="round" stroke-linejoin="round"/>
    <path d="M 49.51646041870117 240.5857391357422 C 58.34955978393555 185.2473602294922 58.63231658935547 116.45481872558594 45.9911994934082 239.2200164794922" stroke-width="3.0" fill="none" stroke="rgb(-2, 2, 1)" stroke-opacity="0.06747899" stroke-linecap="round" stroke-linejoin="round"/>
    <path d="M -5.196114540100098 139.0355224609375 C 2.8029465675354004 140.09317016601562 2.3597376346588135 140.2338409423828 -14.641302108764648 137.4547882080078" stroke-width="3.0" fill="none" stroke="rgb(0, 0, 0)" stroke-opacity="0.018204965" stroke-linecap="round" stroke-linejoin="round"/>
    <path d="M 207.07505798339844 126.18538665771484 C 191.5897979736328 171.60470581054688 196.12448120117188 120.5299072265625 194.54550170898438 202.96835327148438" stroke-width="3.0" fill="none" stroke="rgb(-2, 2, 2)" stroke-opacity="0.09576706" stroke-linecap="round" stroke-linejoin="round"/>
    <path d="M 195.07032775878906 153.2864990234375 C 183.4090118408203 179.4342803955078 173.72003173828125 177.4761199951172 154.875732421875 161.44580078125" stroke-width="3.0" fill="none" stroke="rgb(1, -1, 1)" stroke-opacity="0.068027705" stroke-linecap="round" stroke-linejoin="round"/>
    <path d="M 186.97540283203125 60.36031723022461 C 201.54347229003906 44.54127502441406 144.68472290039062 -8.908952713012695 167.5498046875 12.93896484375" stroke-width="3.0" fill="none" stroke="rgb(-1, 0, 2)" stroke-opacity="0.26935616" stroke-linecap="round" stroke-linejoin="round"/>
    <path d="M 167.93858337402344 -2.577327013015747 C 229.99990844726562 93.05571746826172 219.44512939453125 85.56290435791016 165.93228149414062 -0.6206710338592529" stroke-width="3.0" fill="none" stroke="rgb(-2, -1, 4)" stroke-opacity="0.014187785" stroke-linecap="round" stroke-linejoin="round"/>
    <path d="M 213.3098907470703 147.99412536621094 C 181.279541015625 287.8462829589844 187.73260498046875 240.15750122070312 210.27084350585938 147.24388122558594" stroke-width="3.0" fill="none" stroke="rgb(-1, 1, 2)" stroke-opacity="0.03548294" stroke-linecap="round" stroke-linejoin="round"/>
    <path d="M 90.46659851074219 123.3470458984375 C 93.52102661132812 7.0208353996276855 85.14381408691406 93.89656066894531 89.97932434082031 68.7058334350586" stroke-width="3.0" fill="none" stroke="rgb(2, -2, 0)" stroke-opacity="0.37780476" stroke-linecap="round" stroke-linejoin="round"/>
    <path d="M 19.161800384521484 168.5665740966797 C 16.73147201538086 149.0601043701172 21.929702758789062 154.2318115234375 18.321147918701172 141.43099975585938" stroke-width="3.0" fill="none" stroke="rgb(-2, 2, 1)" stroke-opacity="0.13492906" stroke-linecap="round" stroke-linejoin="round"/>
    <path d="M 61.8245735168457 199.35130310058594 C 53.5049934387207 70.5783920288086 99.60958862304688 62.29779052734375 61.16371536254883 162.62591552734375" stroke-width="3.0" fill="none" stroke="rgb(-1, 1, 0)" stroke-opacity="0.07940829" stroke-linecap="round" stroke-linejoin="round"/>
    <path d="M 52.57111740112305 45.93517303466797 C 129.2013397216797 2.620783567428589 -36.798587799072266 82.36522674560547 64.16532135009766 57.597164154052734" stroke-width="3.0" fill="none" stroke="rgb(2, -2, 1)" stroke-opacity="0.04791994" stroke-linecap="round" stroke-linejoin="round"/>
    <path d="M 37.97541427612305 160.454345703125 C 30.690813064575195 78.79454040527344 52.77677917480469 108.5670166015625 39.877994537353516 182.5609130859375" stroke-width="3.0" fill="none" stroke="rgb(1, 2, -2)" stroke-opacity="0.22868395" stroke-linecap="round" stroke-linejoin="round"/>
    <path d="M 212.8674774169922 123.99838256835938 C 206.91091918945312 130.14102172851562 213.50538635253906 154.95948791503906 214.43853759765625 111.67095947265625" stroke-width="3.0" fill="none" stroke="rgb(-1, 0, 2)" stroke-opacity="0.16510531" stroke-linecap="round" stroke-linejoin="round"/>
    <path d="M 200.86354064941406 148.4986114501953 C 197.14259338378906 185.37554931640625 187.96356201171875 161.36338806152344 200.38230895996094 143.48670959472656" stroke-width="3.0" fill="none" stroke="rgb(0, -1, 2)" stroke-opacity="0.1815369" stroke-linecap="round" stroke-linejoin="round"/>
    <path d="M 180.89593505859375 51.73029708862305 C 188.35348510742188 174.6376953125 186.36029052734375 94.44599151611328 151.6488800048828 63.90727996826172" stroke-width="3.0" fill="none" stroke="rgb(-2, 2, 1)" stroke-opacity="0.057159767" stroke-linecap="round" stroke-linejoin="round"/>
    <path d="M 139.806396484375 19.81675148010254 C 138.21371459960938 82.40296936035156 133.95306396484375 38.18846893310547 166.7564239501953 88.2005615234375" stroke-width="3.0" fill="none" stroke="rgb(-2, 0, 2)" stroke-opacity="0.25836465" stroke-linecap="round" stroke-linejoin="round"/>
    <path d="M 36.185585021972656 -5.805342197418213 C 38.50864791870117 -4.284717082977295 30.03595733642578 -9.085864067077637 36.11045455932617 -4.250484466552734" stroke-width="3.0" fill="none" stroke="rgb(0, 0, 0)" stroke-opacity="0.7505755" stroke-linecap="round" stroke-linejoin="round"/>
    <path d="M 186.4964141845703 194.15882873535156 C 198.623046875 177.82522583007812 171.76895141601562 161.80709838867188 188.3719482421875 196.47996520996094" stroke-width="3.0" fill="none" stroke="rgb(-2, 0, 1)" stroke-opacity="0.019050907" stroke-linecap="round" stroke-linejoin="round"/>
    <path d="M 30.283035278320312 146.3955535888672 C 60.59720993041992 57.127899169921875 39.03557586669922 106.82843017578125 44.43217468261719 159.44041442871094" stroke-width="3.0" fill="none" stroke="rgb(2, -2, 0)" stroke-opacity="0.090259306" stroke-linecap="round" stroke-linejoin="round"/>
    <path d="M 74.76155853271484 228.605224609375 C 78.70291900634766 149.1986846923828 62.15959930419922 30.48638153076172 56.03861618041992 158.1009979248047" stroke-width="3.0" fill="none" stroke="rgb(-3, 3, 2)" stroke-opacity="0.11649061" stroke-linecap="round" stroke-linejoin="round"/>
    <path d="M 12.18543529510498 83.893798828125 C 4.125170707702637 159.77391052246094 35.31283950805664 134.5803985595703 -12.951619148254395 137.91896057128906" stroke-width="3.0" fill="none" stroke="rgb(-2, 2, 2)" stroke-opacity="0.2992959" stroke-linecap="round" stroke-linejoin="round"/>
    <path d="M 6.439374923706055 72.432861328125 C 61.60167694091797 -31.766429901123047 55.43986129760742 6.994597434997559 10.460445404052734 82.18744659423828" stroke-width="3.0" fill="none" stroke="rgb(-2, 2, 1)" stroke-opacity="0.010397778" stroke-linecap="round" stroke-linejoin="round"/>
    <path d="M 195.57318115234375 225.91387939453125 C 184.2316131591797 118.32940673828125 194.03526306152344 341.91748046875 167.39901733398438 168.92127990722656" stroke-width="3.0" fill="none" stroke="rgb(0, 0, 2)" stroke-opacity="0.0851706" stroke-linecap="round" stroke-linejoin="round"/>
    <path d="M 135.72312927246094 152.57647705078125 C 114.791748046875 155.3490753173828 130.14755249023438 158.63644409179688 131.74510192871094 150.51608276367188" stroke-width="3.0" fill="none" stroke="rgb(-1, 1, 1)" stroke-opacity="0.075697504" stroke-linecap="round" stroke-linejoin="round"/>
    <path d="M 40.8234748840332 -3.1741950511932373 C 32.265045166015625 -4.456496715545654 40.3436279296875 -3.5056490898132324 39.240394592285156 -4.174581050872803" stroke-width="3.0" fill="none" stroke="rgb(0, 0, 0)" stroke-opacity="0.6693501" stroke-linecap="round" stroke-linejoin="round"/>
    <path d="M 139.36700439453125 62.0528678894043 C 135.4668426513672 48.844573974609375 129.49928283691406 79.77507781982422 131.91278076171875 22.174762725830078" stroke-width="3.0" fill="none" stroke="rgb(0, -1, 2)" stroke-opacity="0.4145461" stroke-linecap="round" stroke-linejoin="round"/>
    <path d="M 134.35850524902344 55.537418365478516 C 132.64596557617188 7.966071128845215 138.9973602294922 3.192626476287842 136.1289520263672 58.267967224121094" stroke-width="3.0" fill="none" stroke="rgb(2, -3, 0)" stroke-opacity="0.57088524" stroke-linecap="round" stroke-linejoin="round"/>
    <path d="M 134.5311279296875 71.16647338867188 C 125.67314147949219 133.1036376953125 138.9401397705078 26.15096664428711 146.93504333496094 168.884521484375" stroke-width="3.0" fill="none" stroke="rgb(-1, 1, 2)" stroke-opacity="0.081506774" stroke-linecap="round" stroke-linejoin="round"/>
    <path d="M 104.60012817382812 225.83917236328125 C 82.92063903808594 -0.9098966717720032 92.52884674072266 92.17351531982422 73.26847839355469 66.23584747314453" stroke-width="3.0" fill="none" stroke="rgb(-5, 3, 6)" stroke-opacity="0.07065131" stroke-linecap="round" stroke-linejoin="round"/>
    <path d="M 12.303400039672852 149.47682189941406 C 10.1719970703125 329.9576110839844 14.719390869140625 308.8094787597656 15.343585014343262 148.67750549316406" stroke-width="3.0" fill="none" stroke="rgb(-2, 2, 2)" stroke-opacity="0.056254625" stroke-linecap="round" stroke-linejoin="round"/>
    <path d="M 92.84590911865234 49.038631439208984 C 103.66864013671875 42.21341323852539 83.41375732421875 48.291038513183594 101.39756774902344 56.85103988647461" stroke-width="3.0" fill="none" stroke="rgb(0, 0, 0)" stroke-opacity="0.5287074" stroke-linecap="round" stroke-linejoin="round"/>
    <path d="M 189.2760009765625 165.10781860351562 C 193.47796630859375 179.3592529296875 194.78578186035156 186.17213439941406 193.84861755371094 199.26937866210938" stroke-width="3.0" fill="none" stroke="rgb(0, 0, 0)" stroke-opacity="0.13749966" stroke-linecap="round" stroke-linejoin="round"/>
    <path d="M 65.84986877441406 156.75344848632812 C 73.06834411621094 258.28662109375 44.63031005859375 389.6639404296875 60.5648307800293 159.4870147705078" stroke-width="3.0" fill="none" stroke="rgb(0, -1, 0)" stroke-opacity="0.2483903" stroke-linecap="round" stroke-linejoin="round"/>
    <path d="M 7.037683010101318 -2.9017140865325928 C 4.934331893920898 302.2971496582031 10.24561595916748 389.9652099609375 6.722736835479736 4.009734153747559" stroke-width="3.0" fill="none" stroke="rgb(1, 2, 0)" stroke-opacity="0.015278737" stroke-linecap="round" stroke-linejoin="round"/>
    <path d="M 167.63821411132812 244.92393493652344 C 158.84727478027344 113.92680358886719 148.71881103515625 171.9041290283203 165.78460693359375 183.85128784179688" stroke-width="3.0" fill="none" stroke="rgb(0, 1, 0)" stroke-opacity="0.18300377" stroke-linecap="round" stroke-linejoin="round"/>
    <path d="M 101.67859649658203 20.142946243286133 C 78.29576110839844 0.28977805376052856 26.590152740478516 43.621498107910156 46.25090026855469 35.75898361206055" stroke-width="3.0" fill="none" stroke="rgb(-3, 0, 3)" stroke-opacity="0.30260956" stroke-linecap="round" stroke-linejoin="round"/>
    <path d="M 48.545658111572266 95.72872924804688 C 97.67361450195312 47.280128479003906 92.5878677368164 60.14468002319336 46.04421615600586 101.18829345703125" stroke-width="3.0" fill="none" stroke="rgb(4, -3, 2)" stroke-opacity="0.04521797" stroke-linecap="round" stroke-linejoin="round"/>
    <path d="M 47.68069839477539 191.46701049804688 C 57.78762435913086 137.18138122558594 46.007076263427734 60.45631408691406 46.85558319091797 198.62234497070312" stroke-width="3.0" fill="none" stroke="rgb(-4, 2, 3)" stroke-opacity="0.06370009" stroke-linecap="round" stroke-linejoin="round"/>
    <path d="M 167.3718719482422 76.13245391845703 C 164.82785034179688 107.36811828613281 193.6538543701172 122.66463470458984 185.73379516601562 154.4789276123047" stroke-width="3.0" fill="none" stroke="rgb(-2, 0, 1)" stroke-opacity="0.07784536" stroke-linecap="round" stroke-linejoin="round"/>
    <path d="M 135.14651489257812 90.33343505859375 C 154.84523010253906 215.65711975097656 125.23750305175781 103.36905670166016 130.23245239257812 179.2666473388672" stroke-width="3.0" fill="none" stroke="rgb(-2, 0, 5)" stroke-opacity="0.09308931" stroke-linecap="round" stroke-linejoin="round"/>
    <path d="M 175.1961669921875 166.35475158691406 C 144.34356689453125 150.81576538085938 158.53759765625 90.57568359375 144.2773895263672 73.35531616210938" stroke-width="3.0" fill="none" stroke="rgb(-2, 2, 2)" stroke-opacity="0.09357248" stroke-linecap="round" stroke-linejoin="round"/>
    <path d="M 18.97556495666504 149.48501586914062 C 39.505313873291016 185.64002990722656 16.884130477905273 150.22689819335938 37.218505859375 182.2692413330078" stroke-width="3.0" fill="none" stroke="rgb(0, -1, 1)" stroke-opacity="0.19930653" stroke-linecap="round" stroke-linejoin="round"/>
    <path d="M 126.51212310791016 143.0171661376953 C 132.06692504882812 122.09461975097656 135.66603088378906 162.16798400878906 126.61187744140625 78.92376708984375" stroke-width="3.0" fill="none" stroke="rgb(0, 0, 1)" stroke-opacity="0.06297679" stroke-linecap="round" stroke-linejoin="round"/>
    <path d="M 142.87486267089844 153.3579864501953 C 147.36537170410156 345.66766357421875 139.30419921875 196.76812744140625 141.23207092285156 151.26451110839844" stroke-width="3.0" fill="none" stroke="rgb(-2, 3, -3)" stroke-opacity="0.17622194" stroke-linecap="round" stroke-linejoin="round"/>
    <path d="M 125.45003509521484 20.543201446533203 C 183.6414337158203 8.100414276123047 71.32548522949219 54.23095703125 135.3721923828125 9.180154800415039" stroke-width="3.0" fill="none" stroke="rgb(-2, -1, 2)" stroke-opacity="0.24151859" stroke-linecap="round" stroke-linejoin="round"/>
    <path d="M 175.11390686035156 106.86163330078125 C 162.58155822753906 3.1792051792144775 146.44244384765625 128.43780517578125 169.19894409179688 54.38539505004883" stroke-width="3.0" fill="none" stroke="rgb(-2, 2, 2)" stroke-opacity="0.043636322" stroke-linecap="round" stroke-linejoin="round"/>
    <path d="M 140.07943725585938 206.99758911132812 C 132.9758758544922 358.9598388671875 136.49928283691406 320.5194091796875 128.48495483398438 151.8217315673828" stroke-width="3.0" fill="none" stroke="rgb(0, 0, 1)" stroke-opacity="0.09876118" stroke-linecap="round" stroke-linejoin="round"/>
    <path d="M 186.5678253173828 233.12509155273438 C 181.80018615722656 184.91444396972656 186.8556365966797 194.73675537109375 182.54481506347656 168.04136657714844" stroke-width="3.0" fill="none" stroke="rgb(4, -5, 2)" stroke-opacity="0.16058578" stroke-linecap="round" stroke-linejoin="round"/>
    <path d="M 77.79541778564453 36.88815689086914 C 76.50345611572266 41.8419075012207 84.04586791992188 62.782081604003906 96.44052124023438 60.145320892333984" stroke-width="3.0" fill="none" stroke="rgb(-3, 3, 2)" stroke-opacity="0.30626273" stroke-linecap="round" stroke-linejoin="round"/>
    <path d="M 137.7031707763672 150.0278778076172 C 134.89181518554688 161.39903259277344 109.6541519165039 62.074615478515625 130.9420623779297 58.02865982055664" stroke-width="3.0" fill="none" stroke="rgb(-2, 1, 2)" stroke-opacity="0.28176042" stroke-linecap="round" stroke-linejoin="round"/>
    <path d="M 179.81507873535156 12.400227546691895 C 229.14637756347656 83.40760803222656 234.736328125 116.125 163.28651428222656 -0.6755045652389526" stroke-width="3.0" fill="none" stroke="rgb(0, -1, 4)" stroke-opacity="0.01099822" stroke-linecap="round" stroke-linejoin="round"/>
    <path d="M 146.85487365722656 138.38441467285156 C 155.90948486328125 186.68203735351562 153.1645050048828 111.48304748535156 174.4825439453125 222.9972381591797" stroke-width="3.0" fill="none" stroke="rgb(-6, 2, 5)" stroke-opacity="0.08993882" stroke-linecap="round" stroke-linejoin="round"/>
    <path d="M 209.59869384765625 137.77732849121094 C 251.5045166015625 135.48939514160156 227.62550354003906 134.5414276123047 236.9705810546875 128.60145568847656" stroke-width="3.0" fill="none" stroke="rgb(-1, 2, -2)" stroke-opacity="0.3083268" stroke-linecap="round" stroke-linejoin="round"/>
    <path d="M 62.91816329956055 118.93527221679688 C 20.839448928833008 106.53490447998047 105.29329681396484 67.42525482177734 64.8785171508789 76.94385528564453" stroke-width="3.0" fill="none" stroke="rgb(2, -1, -2)" stroke-opacity="0.03769944" stroke-linecap="round" stroke-linejoin="round"/>
    <path d="M 107.3180160522461 -0.8312816619873047 C -59.954681396484375 24.37444305419922 -57.09467697143555 17.70743179321289 100.63784790039062 -2.8028383255004883" stroke-width="3.0" fill="none" stroke="rgb(-1, 1, 1)" stroke-opacity="0.022469131" stroke-linecap="round" stroke-linejoin="round"/>
    <path d="M 182.95828247070312 64.84446716308594 C 152.27662658691406 106.92735290527344 181.53768920898438 76.12548065185547 184.6276397705078 159.47450256347656" stroke-width="3.0" fill="none" stroke="rgb(-3, -3, 3)" stroke-opacity="0.1944518" stroke-linecap="round" stroke-linejoin="round"/>
    <path d="M 77.64678955078125 139.107421875 C 32.61421203613281 185.28472900390625 61.31454086303711 154.08338928222656 45.0062255859375 176.32977294921875" stroke-width="3.0" fill="none" stroke="rgb(0, 1, -2)" stroke-opacity="0.1382248" stroke-linecap="round" stroke-linejoin="round"/>
    <path d="M 200.91563415527344 222.84320068359375 C 220.70787048339844 221.64175415039062 203.4753875732422 236.8310546875 191.41558837890625 229.1719512939453" stroke-width="3.0" fill="none" stroke="rgb(0, 0, 0)" stroke-opacity="0.014322296" stroke-linecap="round" stroke-linejoin="round"/>
    <path d="M 97.38394165039062 80.85396575927734 C 151.16444396972656 35.0560302734375 146.67347717285156 32.976402282714844 96.60344696044922 79.85417175292969" stroke-width="3.0" fill="none" stroke="rgb(1, -2, 2)" stroke-opacity="0.069459595" stroke-linecap="round" stroke-linejoin="round"/>
    <path d="M 19.463855743408203 87.99790954589844 C 87.43990325927734 53.614620208740234 46.88078689575195 100.02507781982422 50.72001647949219 39.74224853515625" stroke-width="3.0" fill="none" stroke="rgb(2, -2, 0)" stroke-opacity="0.0328448" stroke-linecap="round" stroke-linejoin="round"/>
    <path d="M 63.052330017089844 79.0820083618164 C 70.00909423828125 8.601073265075684 61.50050735473633 8.483000755310059 60.62454605102539 81.07868957519531" stroke-width="3.0" fill="none" stroke="rgb(2, -2, 1)" stroke-opacity="0.03256619" stroke-linecap="round" stroke-linejoin="round"/>
    <path d="M 20.026657104492188 245.40020751953125 C 12.812105178833008 162.07769775390625 38.935726165771484 116.16046142578125 28.83066177368164 241.5261993408203" stroke-width="3.0" fill="none" stroke="rgb(-1, -2, 2)" stroke-opacity="0.2106649" stroke-linecap="round" stroke-linejoin="round"/>
    <path d="M 62.0556640625 36.14372253417969 C 27.662006378173828 39.85596466064453 25.91794776916504 65.78285217285156 40.65556335449219 50.43577575683594" stroke-width="3.0" fill="none" stroke="rgb(-2, 0, 2)" stroke-opacity="0.12700388" stroke-linecap="round" stroke-linejoin="round"/>
    <path d="M 200.103515625 67.3389892578125 C 212.03077697753906 96.1273193359375 214.5257568359375 43.79737091064453 178.2665252685547 59.1574592590332" stroke-width="3.0" fill="none" stroke="rgb(-3, 2, 3)" stroke-opacity="0.12967923" stroke-linecap="round" stroke-linejoin="round"/>
    <path d="M 51.415077209472656 86.30448150634766 C 32.91031265258789 99.61235046386719 -15.523916244506836 113.89424133300781 53.02617645263672 84.54588317871094" stroke-width="3.0" fill="none" stroke="rgb(1, 0, 0)" stroke-opacity="0.061620496" stroke-linecap="round" stroke-linejoin="round"/>
    <path d="M 111.31871032714844 9.563607215881348 C 182.77896118164062 7.8241167068481445 63.67338943481445 -33.15479278564453 117.59601593017578 48.70011520385742" stroke-width="3.0" fill="none" stroke="rgb(3, -1, -2)" stroke-opacity="0.36314023" stroke-linecap="round" stroke-linejoin="round"/>
    <path d="M 131.0618133544922 28.625986099243164 C 97.32914733886719 47.359928131103516 168.1154022216797 42.45654296875 126.02750396728516 2.8999147415161133" stroke-width="3.0" fill="none" stroke="rgb(1, -2, 0)" stroke-opacity="0.32336074" stroke-linecap="round" stroke-linejoin="round"/>
    <path d="M 97.65534973144531 25.917062759399414 C 95.52178192138672 8.033223152160645 61.1173210144043 42.9405517578125 94.13323211669922 29.45371437072754" stroke-width="3.0" fill="none" stroke="rgb(0, 0, 0)" stroke-opacity="0.33460855" stroke-linecap="round" stroke-linejoin="round"/>
    <path d="M 192.53286743164062 89.87539672851562 C 206.43487548828125 217.83139038085938 210.42140197753906 116.35429382324219 195.43666076660156 197.27151489257812" stroke-width="3.0" fill="none" stroke="rgb(-1, 1, 1)" stroke-opacity="0.048530977" stroke-linecap="round" stroke-linejoin="round"/>
    <path d="M 149.65536499023438 51.17379379272461 C 176.08731079101562 66.42046356201172 122.20375061035156 71.64616394042969 157.8736114501953 33.871429443359375" stroke-width="3.0" fill="none" stroke="rgb(-3, 3, 2)" stroke-opacity="0.118595846" stroke-linecap="round" stroke-linejoin="round"/>
    <path d="M 114.25762176513672 36.083824157714844 C 171.98477172851562 73.0244140625 112.29766845703125 46.231502532958984 125.8614730834961 73.3909683227539" stroke-width="3.0" fill="none" stroke="rgb(0, 0, 1)" stroke-opacity="0.12265929" stroke-linecap="round" stroke-linejoin="round"/>
    <path d="M 178.01324462890625 9.442336082458496 C 259.7210998535156 -2.3966104984283447 208.80722045898438 0.23159068822860718 176.4858856201172 6.645980358123779" stroke-width="3.0" fill="none" stroke="rgb(0, 1, 1)" stroke-opacity="0.017537171" stroke-linecap="round" stroke-linejoin="round"/>
    <path d="M 131.17271423339844 110.86286926269531 C 135.7924041748047 128.55821228027344 144.06478881835938 134.9498748779297 158.55213928222656 163.0574188232422" stroke-width="3.0" fill="none" stroke="rgb(2, -3, 3)" stroke-opacity="0.25273642" stroke-linecap="round" stroke-linejoin="round"/>
    <path d="M 192.65882873535156 226.81173706054688 C 194.95672607421875 242.06185913085938 179.73277282714844 281.48138427734375 186.161376953125 199.15892028808594" stroke-width="3.0" fill="none" stroke="rgb(1, -1, 0)" stroke-opacity="0.084145024" stroke-linecap="round" stroke-linejoin="round"/>
    <path d="M 78.74214172363281 41.780982971191406 C 97.64004516601562 60.805416107177734 97.27731323242188 86.4593734741211 81.64954376220703 46.482421875" stroke-width="3.0" fill="none" stroke="rgb(-3, 3, 2)" stroke-opacity="0.41674885" stroke-linecap="round" stroke-linejoin="round"/>
  </g>
</svg>
