<?xml version="1.0" ?>
<svg xmlns="http://www.w3.org/2000/svg" version="1.1" width="224" height="224">
  <defs/>
  <g>
    <path d="M 180.53341674804688 136.48617553710938 C 198.46774291992188 102.31780242919922 190.94602966308594 124.17604064941406 168.57626342773438 121.36444091796875" stroke-width="3.0" fill="none" stroke="rgb(0, 0, 0)" stroke-opacity="0.007458316" stroke-linecap="round" stroke-linejoin="round"/>
    <path d="M 177.0459747314453 160.3970489501953 C 37.79165267944336 64.68587493896484 57.115081787109375 126.06578063964844 128.93081665039062 174.02175903320312" stroke-width="3.0" fill="none" stroke="rgb(0, -1, 2)" stroke-opacity="0.053450502" stroke-linecap="round" stroke-linejoin="round"/>
    <path d="M 112.20972442626953 44.30400848388672 C 51.70526123046875 52.69811248779297 116.69283294677734 8.199965476989746 147.93875122070312 41.332706451416016" stroke-width="3.0" fill="none" stroke="rgb(-1, 2, 0)" stroke-opacity="0.13857844" stroke-linecap="round" stroke-linejoin="round"/>
    <path d="M 95.35334014892578 53.14659118652344 C 196.8134765625 69.77159881591797 91.70909118652344 72.89056396484375 129.93560791015625 41.52326583862305" stroke-width="3.0" fill="none" stroke="rgb(0, 0, 1)" stroke-opacity="0.25144958" stroke-linecap="round" stroke-linejoin="round"/>
    <path d="M 83.58944702148438 65.64298248291016 C 77.81196594238281 71.38469696044922 41.80046081542969 30.454862594604492 80.12859344482422 59.58039855957031" stroke-width="3.0" fill="none" stroke="rgb(-1, 1, 1)" stroke-opacity="0.3035182" stroke-linecap="round" stroke-linejoin="round"/>
    <path d="M 170.83775329589844 51.659278869628906 C 147.49281311035156 67.40731811523438 185.2421417236328 32.45795440673828 128.998046875 57.31202697753906" stroke-width="3.0" fill="none" stroke="rgb(0, 0, 0)" stroke-opacity="0.091544524" stroke-linecap="round" stroke-linejoin="round"/>
    <path d="M 188.80606079101562 113.76092529296875 C 223.37887573242188 79.84117126464844 203.39007568359375 50.28477096557617 192.3336181640625 83.42194366455078" stroke-width="3.0" fill="none" stroke="rgb(0, 0, 1)" stroke-opacity="0.00445074" stroke-linecap="round" stroke-linejoin="round"/>
    <path d="M 93.87492370605469 66.99750518798828 C 128.53561401367188 38.276588439941406 115.48281860351562 88.98997497558594 153.41749572753906 70.474609375" stroke-width="3.0" fill="none" stroke="rgb(0, 1, -3)" stroke-opacity="0.124511324" stroke-linecap="round" stroke-linejoin="round"/>
    <path d="M 94.81816101074219 134.9525909423828 C 78.15909576416016 192.42018127441406 78.89839172363281 202.4676513671875 85.60205078125 125.17696380615234" stroke-width="3.0" fill="none" stroke="rgb(-1, 0, 1)" stroke-opacity="0.026954928" stroke-linecap="round" stroke-linejoin="round"/>
    <path d="M 109.14501190185547 87.57373809814453 C 82.60179901123047 104.84712219238281 47.36455154418945 115.9501724243164 113.70386505126953 74.26233673095703" stroke-width="3.0" fill="none" stroke="rgb(0, -3, 3)" stroke-opacity="0.13624913" stroke-linecap="round" stroke-linejoin="round"/>
    <path d="M 115.80101013183594 24.62233543395996 C 112.02711486816406 68.97016906738281 144.5663299560547 98.94381713867188 154.71250915527344 66.92066955566406" stroke-width="3.0" fill="none" stroke="rgb(0, 1, -2)" stroke-opacity="0.17022018" stroke-linecap="round" stroke-linejoin="round"/>
    <path d="M 119.45980834960938 121.5494155883789 C 102.05281066894531 126.9696044921875 109.68126678466797 91.59257507324219 144.69253540039062 134.0443115234375" stroke-width="3.0" fill="none" stroke="rgb(0, 0, 0)" stroke-opacity="0.2712546" stroke-linecap="round" stroke-linejoin="round"/>
    <path d="M 114.52101135253906 36.17028045654297 C 92.08235931396484 35.19691848754883 88.69867706298828 32.1708869934082 90.47974395751953 63.12466049194336" stroke-width="3.0" fill="none" stroke="rgb(1, 0, 0)" stroke-opacity="0.10817535" stroke-linecap="round" stroke-linejoin="round"/>
    <path d="M 38.255924224853516 176.0623016357422 C 36.53773498535156 167.39439392089844 25.08120346069336 152.5189208984375 76.39783477783203 111.67088317871094" stroke-width="3.0" fill="none" stroke="rgb(-2, 1, 2)" stroke-opacity="0.27465284" stroke-linecap="round" stroke-linejoin="round"/>
    <path d="M 144.01092529296875 106.42925262451172 C 112.67998504638672 116.65992736816406 102.67977142333984 125.66890716552734 86.24156951904297 114.0450439453125" stroke-width="3.0" fill="none" stroke="rgb(1, -2, 0)" stroke-opacity="0.2648264" stroke-linecap="round" stroke-linejoin="round"/>
    <path d="M 128.79702758789062 112.57304382324219 C 145.07676696777344 83.94478607177734 169.63584899902344 97.88214874267578 166.97792053222656 123.7354507446289" stroke-width="3.0" fill="none" stroke="rgb(2, -2, 0)" stroke-opacity="0.34815615" stroke-linecap="round" stroke-linejoin="round"/>
    <path d="M 109.23495483398438 28.558799743652344 C 108.21541595458984 44.50538635253906 127.7717514038086 71.39199829101562 102.44983673095703 39.719844818115234" stroke-width="3.0" fill="none" stroke="rgb(0, 1, -1)" stroke-opacity="0.2672074" stroke-linecap="round" stroke-linejoin="round"/>
    <path d="M 138.11924743652344 101.55367279052734 C 173.23158264160156 94.19194030761719 158.0890350341797 167.2104034423828 168.5191192626953 113.24334716796875" stroke-width="3.0" fill="none" stroke="rgb(1, -1, -1)" stroke-opacity="0.111976236" stroke-linecap="round" stroke-linejoin="round"/>
    <path d="M 155.61590576171875 71.62031555175781 C 102.64834594726562 94.19588470458984 65.59358215332031 62.07676315307617 138.75210571289062 67.13360595703125" stroke-width="3.0" fill="none" stroke="rgb(-1, 2, -2)" stroke-opacity="0.15605277" stroke-linecap="round" stroke-linejoin="round"/>
    <path d="M 163.95677185058594 175.49215698242188 C 151.3568115234375 191.8819580078125 135.32630920410156 176.42803955078125 129.9808349609375 175.7736053466797" stroke-width="3.0" fill="none" stroke="rgb(-2, 0, 3)" stroke-opacity="0.13342643" stroke-linecap="round" stroke-linejoin="round"/>
    <path d="M 148.33493041992188 53.147850036621094 C 201.60057067871094 33.780399322509766 184.72372436523438 38.20168685913086 171.475341796875 59.548484802246094" stroke-width="3.0" fill="none" stroke="rgb(-2, 3, -3)" stroke-opacity="0.15386507" stroke-linecap="round" stroke-linejoin="round"/>
    <path d="M 221.16580200195312 138.99658203125 C 173.22610473632812 180.3590850830078 252.2020263671875 118.07371520996094 211.26234436035156 153.57899475097656" stroke-width="3.0" fill="none" stroke="rgb(0, 0, 1)" stroke-opacity="0.007576104" stroke-linecap="round" stroke-linejoin="round"/>
    <path d="M 89.41792297363281 236.85377502441406 C 84.765380859375 84.88470458984375 106.53596496582031 190.22067260742188 100.25079345703125 225.9037322998047" stroke-width="3.0" fill="none" stroke="rgb(-2, 2, 2)" stroke-opacity="0.060737435" stroke-linecap="round" stroke-linejoin="round"/>
    <path d="M 65.9665298461914 113.68672943115234 C 107.1440658569336 111.32640075683594 55.05878448486328 119.78572845458984 139.83157348632812 138.38536071777344" stroke-width="3.0" fill="none" stroke="rgb(0, 0, 0)" stroke-opacity="0.052929346" stroke-linecap="round" stroke-linejoin="round"/>
    <path d="M 155.95101928710938 168.37567138671875 C 179.17367553710938 107.42780303955078 172.55662536621094 79.71022033691406 154.98646545410156 152.1185302734375" stroke-width="3.0" fill="none" stroke="rgb(-1, 0, 2)" stroke-opacity="0.047109034" stroke-linecap="round" stroke-linejoin="round"/>
    <path d="M 98.58545684814453 90.34878540039062 C 52.207672119140625 112.3955078125 101.32376098632812 87.20858764648438 65.69474792480469 131.99266052246094" stroke-width="3.0" fill="none" stroke="rgb(0, -2, 2)" stroke-opacity="0.18278153" stroke-linecap="round" stroke-linejoin="round"/>
    <path d="M -7.744431972503662 85.06697082519531 C -11.397965431213379 89.44828796386719 -15.325541496276855 94.33406829833984 -15.493338584899902 94.11894226074219" stroke-width="3.0" fill="none" stroke="rgb(0, 0, 0)" stroke-opacity="0.9279339" stroke-linecap="round" stroke-linejoin="round"/>
    <path d="M 117.16092681884766 55.72233581542969 C 160.09295654296875 38.98122024536133 90.59513854980469 72.13935089111328 123.48719787597656 24.689661026000977" stroke-width="3.0" fill="none" stroke="rgb(-4, 3, -1)" stroke-opacity="0.1324702" stroke-linecap="round" stroke-linejoin="round"/>
    <path d="M 171.4770965576172 33.57417297363281 C 136.68162536621094 56.051021575927734 204.2541961669922 60.4421501159668 119.25677490234375 49.413108825683594" stroke-width="3.0" fill="none" stroke="rgb(0, 1, -2)" stroke-opacity="0.06555644" stroke-linecap="round" stroke-linejoin="round"/>
    <path d="M 51.66813278198242 134.76535034179688 C 91.4854736328125 192.89212036132812 34.156494140625 174.85430908203125 57.695228576660156 133.76370239257812" stroke-width="3.0" fill="none" stroke="rgb(-1, 0, 1)" stroke-opacity="0.016750291" stroke-linecap="round" stroke-linejoin="round"/>
    <path d="M 5.218739032745361 0.7609429955482483 C 37.328250885009766 74.2346420288086 40.49387741088867 67.26622772216797 8.162970542907715 1.3371156454086304" stroke-width="3.0" fill="none" stroke="rgb(0, 0, 0)" stroke-opacity="0.004286491" stroke-linecap="round" stroke-linejoin="round"/>
    <path d="M 52.635250091552734 180.15093994140625 C 39.07884216308594 153.18841552734375 50.21979522705078 185.71287536621094 48.79695510864258 143.98947143554688" stroke-width="3.0" fill="none" stroke="rgb(0, 0, 0)" stroke-opacity="0.014991992" stroke-linecap="round" stroke-linejoin="round"/>
    <path d="M 164.8259735107422 23.083316802978516 C 243.5333251953125 -8.659430503845215 234.354736328125 -9.603550910949707 163.97145080566406 20.154300689697266" stroke-width="3.0" fill="none" stroke="rgb(0, 0, 2)" stroke-opacity="0.00532208" stroke-linecap="round" stroke-linejoin="round"/>
    <path d="M 157.38058471679688 73.61714172363281 C 66.16041564941406 98.41082000732422 129.46241760253906 41.0740966796875 82.8924789428711 112.41962432861328" stroke-width="3.0" fill="none" stroke="rgb(0, 0, 1)" stroke-opacity="0.103571676" stroke-linecap="round" stroke-linejoin="round"/>
    <path d="M 160.4204864501953 68.28313446044922 C 161.50694274902344 115.6568374633789 198.5255889892578 89.65559387207031 141.76121520996094 88.67896270751953" stroke-width="3.0" fill="none" stroke="rgb(-1, 0, 1)" stroke-opacity="0.078681074" stroke-linecap="round" stroke-linejoin="round"/>
    <path d="M 82.83819580078125 114.73302459716797 C 71.77484130859375 127.30611419677734 71.8604736328125 122.23545837402344 82.30000305175781 117.05738830566406" stroke-width="3.0" fill="none" stroke="rgb(0, 0, 0)" stroke-opacity="0.0031483765" stroke-linecap="round" stroke-linejoin="round"/>
    <path d="M 105.49700927734375 94.78709411621094 C 155.91046142578125 72.08987426757812 150.5351104736328 77.07134246826172 155.3016815185547 52.73516845703125" stroke-width="3.0" fill="none" stroke="rgb(1, -1, 1)" stroke-opacity="0.31553254" stroke-linecap="round" stroke-linejoin="round"/>
    <path d="M 67.01486206054688 85.88446044921875 C 75.3032455444336 108.47871398925781 64.12203216552734 118.08985900878906 75.72228240966797 120.9447250366211" stroke-width="3.0" fill="none" stroke="rgb(0, 0, 0)" stroke-opacity="-0.019043734" stroke-linecap="round" stroke-linejoin="round"/>
    <path d="M 88.89769744873047 112.56471252441406 C 130.0268096923828 156.7763671875 151.23048400878906 189.69100952148438 96.31351470947266 122.6361083984375" stroke-width="3.0" fill="none" stroke="rgb(2, -2, 0)" stroke-opacity="0.0794056" stroke-linecap="round" stroke-linejoin="round"/>
    <path d="M 203.35618591308594 70.85167694091797 C 184.85133361816406 96.46591186523438 161.8331756591797 143.6699981689453 205.75656127929688 73.24662780761719" stroke-width="3.0" fill="none" stroke="rgb(0, 0, 0)" stroke-opacity="0.002391169" stroke-linecap="round" stroke-linejoin="round"/>
    <path d="M 84.8733901977539 163.3810272216797 C 1.9223353862762451 268.1724853515625 54.627437591552734 258.5404052734375 80.55077362060547 155.41940307617188" stroke-width="3.0" fill="none" stroke="rgb(-12, 10, 12)" stroke-opacity="0.07620191" stroke-linecap="round" stroke-linejoin="round"/>
    <path d="M 114.88776397705078 52.004356384277344 C 217.15213012695312 -21.12799835205078 29.069538116455078 36.05279541015625 144.13551330566406 39.775875091552734" stroke-width="3.0" fill="none" stroke="rgb(-2, 2, 0)" stroke-opacity="0.06335043" stroke-linecap="round" stroke-linejoin="round"/>
    <path d="M 24.3908634185791 5.897791862487793 C 45.35843276977539 54.39864730834961 26.904314041137695 29.925758361816406 21.889869689941406 0.34621405601501465" stroke-width="3.0" fill="none" stroke="rgb(0, 1, 0)" stroke-opacity="0.014082842" stroke-linecap="round" stroke-linejoin="round"/>
    <path d="M 221.41744995117188 137.44378662109375 C 208.6699981689453 14.39481258392334 217.87489318847656 9.313048362731934 221.73670959472656 117.77192687988281" stroke-width="3.0" fill="none" stroke="rgb(0, 0, 1)" stroke-opacity="0.008463799" stroke-linecap="round" stroke-linejoin="round"/>
    <path d="M 141.53504943847656 -3.328627824783325 C 22.488025665283203 3.211556911468506 135.11740112304688 3.8647091388702393 145.90655517578125 -0.32959192991256714" stroke-width="3.0" fill="none" stroke="rgb(0, 0, 0)" stroke-opacity="0.027492868" stroke-linecap="round" stroke-linejoin="round"/>
    <path d="M 163.23167419433594 98.1661148071289 C 180.9378204345703 156.2898712158203 184.92945861816406 64.72863006591797 147.2307586669922 100.19410705566406" stroke-width="3.0" fill="none" stroke="rgb(0, 0, 1)" stroke-opacity="0.06557277" stroke-linecap="round" stroke-linejoin="round"/>
    <path d="M 80.105224609375 61.44453811645508 C 93.97996520996094 56.166263580322266 113.78095245361328 33.21479415893555 112.60266876220703 66.1808090209961" stroke-width="3.0" fill="none" stroke="rgb(0, 0, 1)" stroke-opacity="0.19644217" stroke-linecap="round" stroke-linejoin="round"/>
    <path d="M 223.21041870117188 126.66425323486328 C 161.70938110351562 182.64886474609375 140.1184539794922 211.01527404785156 222.91650390625 131.48570251464844" stroke-width="3.0" fill="none" stroke="rgb(0, 0, 2)" stroke-opacity="0.0064028273" stroke-linecap="round" stroke-linejoin="round"/>
    <path d="M -8.585025787353516 138.1092529296875 C -8.249618530273438 136.51702880859375 -9.474462509155273 136.15354919433594 -9.002552032470703 131.49525451660156" stroke-width="3.0" fill="none" stroke="rgb(0, 0, 0)" stroke-opacity="0.88851106" stroke-linecap="round" stroke-linejoin="round"/>
    <path d="M 108.3128890991211 71.32260131835938 C 118.7123794555664 47.3821907043457 119.3995590209961 100.48451232910156 150.769287109375 59.36130142211914" stroke-width="3.0" fill="none" stroke="rgb(-3, 2, -1)" stroke-opacity="0.15536517" stroke-linecap="round" stroke-linejoin="round"/>
    <path d="M 151.38121032714844 74.23204040527344 C 160.89443969726562 49.64959716796875 137.9709014892578 70.1723403930664 168.88780212402344 59.99818801879883" stroke-width="3.0" fill="none" stroke="rgb(-1, 2, -1)" stroke-opacity="0.28488415" stroke-linecap="round" stroke-linejoin="round"/>
    <path d="M 134.52899169921875 33.52293395996094 C 48.467323303222656 120.52777099609375 66.6987533569336 15.938005447387695 122.7487564086914 9.223690032958984" stroke-width="3.0" fill="none" stroke="rgb(-2, 2, 2)" stroke-opacity="0.07843985" stroke-linecap="round" stroke-linejoin="round"/>
    <path d="M 127.26339721679688 25.031057357788086 C 109.21758270263672 107.66899871826172 49.973323822021484 33.62651062011719 148.72146606445312 60.3748664855957" stroke-width="3.0" fill="none" stroke="rgb(-3, 3, 2)" stroke-opacity="0.112848476" stroke-linecap="round" stroke-linejoin="round"/>
    <path d="M 226.1255340576172 -9.095989227294922 C 180.061767578125 -19.97425079345703 135.14398193359375 -10.819907188415527 223.6700897216797 -9.276639938354492" stroke-width="3.0" fill="none" stroke="rgb(0, 0, 0)" stroke-opacity="-2.0319174e-08" stroke-linecap="round" stroke-linejoin="round"/>
    <path d="M 151.99472045898438 77.27887725830078 C 144.23013305664062 10.912522315979004 151.16261291503906 50.7103271484375 160.96725463867188 56.88861846923828" stroke-width="3.0" fill="none" stroke="rgb(-2, 2, 0)" stroke-opacity="0.094627626" stroke-linecap="round" stroke-linejoin="round"/>
    <path d="M 91.2661361694336 57.81582260131836 C 99.89254760742188 38.69518280029297 124.00395202636719 67.122314453125 96.94575500488281 56.28042984008789" stroke-width="3.0" fill="none" stroke="rgb(-4, 0, 4)" stroke-opacity="0.6177978" stroke-linecap="round" stroke-linejoin="round"/>
    <path d="M 92.08021545410156 123.84220886230469 C 136.7827606201172 168.6965789794922 116.12264251708984 158.42352294921875 97.15541076660156 124.76544189453125" stroke-width="3.0" fill="none" stroke="rgb(0, 0, 1)" stroke-opacity="0.0626749" stroke-linecap="round" stroke-linejoin="round"/>
    <path d="M 132.58193969726562 16.41547203063965 C 147.2506866455078 -1.491668701171875 72.13105773925781 25.251798629760742 117.9987564086914 14.056013107299805" stroke-width="3.0" fill="none" stroke="rgb(2, 0, -1)" stroke-opacity="0.08882185" stroke-linecap="round" stroke-linejoin="round"/>
    <path d="M 37.13840103149414 -13.417171478271484 C 68.98558807373047 81.19801330566406 74.95579528808594 64.60673522949219 56.40095520019531 44.47203063964844" stroke-width="3.0" fill="none" stroke="rgb(1, -1, -1)" stroke-opacity="0.28321415" stroke-linecap="round" stroke-linejoin="round"/>
    <path d="M 87.67320251464844 77.30108642578125 C 129.54681396484375 102.4065933227539 108.64098358154297 86.91614532470703 89.18998718261719 114.89513397216797" stroke-width="3.0" fill="none" stroke="rgb(-1, -2, 2)" stroke-opacity="0.23110957" stroke-linecap="round" stroke-linejoin="round"/>
    <path d="M 125.29276275634766 86.22138214111328 C 95.76966094970703 88.86742401123047 96.40196228027344 65.61671447753906 131.5181427001953 77.75809478759766" stroke-width="3.0" fill="none" stroke="rgb(-2, 0, 2)" stroke-opacity="0.16984399" stroke-linecap="round" stroke-linejoin="round"/>
    <path d="M 80.9309310913086 147.05508422851562 C 61.15909194946289 123.3471450805664 93.94371032714844 140.76544189453125 70.53028106689453 153.5235137939453" stroke-width="3.0" fill="none" stroke="rgb(-3, 0, 2)" stroke-opacity="0.288065" stroke-linecap="round" stroke-linejoin="round"/>
    <path d="M 74.32202911376953 186.3784637451172 C 74.36117553710938 194.99977111816406 50.41707992553711 197.7974853515625 67.72457885742188 192.0502471923828" stroke-width="3.0" fill="none" stroke="rgb(0, 0, 0)" stroke-opacity="-0.013118648" stroke-linecap="round" stroke-linejoin="round"/>
    <path d="M 154.83169555664062 73.50788116455078 C 97.59577941894531 106.9774398803711 60.838539123535156 112.1321029663086 150.31854248046875 70.6204605102539" stroke-width="3.0" fill="none" stroke="rgb(0, -1, 2)" stroke-opacity="0.17129166" stroke-linecap="round" stroke-linejoin="round"/>
    <path d="M 206.5290985107422 24.52510643005371 C 233.01513671875 -1.4594531059265137 205.46450805664062 13.841386795043945 203.67013549804688 28.033443450927734" stroke-width="3.0" fill="none" stroke="rgb(0, 0, 1)" stroke-opacity="0.0073443605" stroke-linecap="round" stroke-linejoin="round"/>
    <path d="M 99.01180267333984 54.756317138671875 C 62.06497573852539 66.21525573730469 194.23280334472656 28.216760635375977 103.01720428466797 85.83698272705078" stroke-width="3.0" fill="none" stroke="rgb(-1, 0, 2)" stroke-opacity="0.081188224" stroke-linecap="round" stroke-linejoin="round"/>
    <path d="M 159.61546325683594 36.891632080078125 C 115.36832427978516 -11.138175010681152 145.0770721435547 2.1239113807678223 159.49095153808594 33.760963439941406" stroke-width="3.0" fill="none" stroke="rgb(1, -1, 1)" stroke-opacity="0.01989882" stroke-linecap="round" stroke-linejoin="round"/>
    <path d="M 78.81629180908203 -4.339428424835205 C 78.33291625976562 -1.6069740056991577 82.09716033935547 -5.876286029815674 78.05850982666016 -5.216649532318115" stroke-width="3.0" fill="none" stroke="rgb(0, 0, 0)" stroke-opacity="0.33919927" stroke-linecap="round" stroke-linejoin="round"/>
    <path d="M 63.37588882446289 121.42814636230469 C 95.65647888183594 117.84760284423828 58.61544418334961 179.30406188964844 64.81485748291016 126.29730224609375" stroke-width="3.0" fill="none" stroke="rgb(-2, 0, 3)" stroke-opacity="0.19790399" stroke-linecap="round" stroke-linejoin="round"/>
    <path d="M 80.3565902709961 121.5239028930664 C 91.52091979980469 238.17921447753906 113.61248779296875 143.87510681152344 71.05487823486328 155.92074584960938" stroke-width="3.0" fill="none" stroke="rgb(-1, 0, 2)" stroke-opacity="0.062621556" stroke-linecap="round" stroke-linejoin="round"/>
    <path d="M 42.20903396606445 21.936832427978516 C 52.54535675048828 61.47753143310547 51.42801284790039 52.10110092163086 67.93026733398438 107.68433380126953" stroke-width="3.0" fill="none" stroke="rgb(1, -11, 6)" stroke-opacity="0.25575393" stroke-linecap="round" stroke-linejoin="round"/>
    <path d="M 155.68472290039062 27.57309913635254 C 154.49630737304688 41.380210876464844 190.133056640625 29.80536651611328 196.77915954589844 36.73191452026367" stroke-width="3.0" fill="none" stroke="rgb(-1, 0, 1)" stroke-opacity="0.14014593" stroke-linecap="round" stroke-linejoin="round"/>
    <path d="M 130.34194946289062 51.8266716003418 C 116.43084716796875 67.23731994628906 159.38983154296875 55.97067642211914 132.0792694091797 50.83622360229492" stroke-width="3.0" fill="none" stroke="rgb(2, -2, 2)" stroke-opacity="0.68430376" stroke-linecap="round" stroke-linejoin="round"/>
    <path d="M 142.6110076904297 149.1997528076172 C 95.51031494140625 78.91211700439453 92.65766143798828 136.3063201904297 152.53836059570312 153.23318481445312" stroke-width="3.0" fill="none" stroke="rgb(-1, 1, 0)" stroke-opacity="0.07022442" stroke-linecap="round" stroke-linejoin="round"/>
    <path d="M 165.706787109375 70.99757385253906 C 181.88975524902344 91.07010650634766 178.20208740234375 60.505977630615234 191.36386108398438 81.69519805908203" stroke-width="3.0" fill="none" stroke="rgb(0, 0, 0)" stroke-opacity="0.004728757" stroke-linecap="round" stroke-linejoin="round"/>
    <path d="M 209.7769012451172 48.79041290283203 C 165.1645965576172 70.08219909667969 153.745849609375 81.30924987792969 207.61639404296875 52.16981887817383" stroke-width="3.0" fill="none" stroke="rgb(0, 0, 1)" stroke-opacity="0.013217169" stroke-linecap="round" stroke-linejoin="round"/>
    <path d="M 136.8672637939453 15.370085716247559 C 176.27101135253906 50.64337158203125 156.62559509277344 40.36579895019531 132.08226013183594 15.903841972351074" stroke-width="3.0" fill="none" stroke="rgb(0, 0, 0)" stroke-opacity="-0.011677765" stroke-linecap="round" stroke-linejoin="round"/>
    <path d="M -5.712900161743164 73.2255630493164 C -6.851223945617676 71.51851654052734 -8.976297378540039 73.36783599853516 -7.702423095703125 73.38716125488281" stroke-width="3.0" fill="none" stroke="rgb(0, 0, 0)" stroke-opacity="0.77244055" stroke-linecap="round" stroke-linejoin="round"/>
    <path d="M 151.42311096191406 41.90342330932617 C 161.14100646972656 62.961158752441406 138.17652893066406 85.60321807861328 174.5175323486328 90.18922424316406" stroke-width="3.0" fill="none" stroke="rgb(0, 0, 0)" stroke-opacity="0.014618422" stroke-linecap="round" stroke-linejoin="round"/>
    <path d="M -10.253349304199219 90.4393310546875 C -8.949370384216309 179.51893615722656 -2.0896620750427246 191.0106201171875 9.767106056213379 92.83878326416016" stroke-width="3.0" fill="none" stroke="rgb(0, 0, 0)" stroke-opacity="0.004324319" stroke-linecap="round" stroke-linejoin="round"/>
    <path d="M 84.18900299072266 66.33837127685547 C 85.1269302368164 -2.953192949295044 57.6142692565918 115.81513214111328 157.83645629882812 76.30970001220703" stroke-width="3.0" fill="none" stroke="rgb(1, -2, 2)" stroke-opacity="0.17559631" stroke-linecap="round" stroke-linejoin="round"/>
    <path d="M 207.28758239746094 162.30227661132812 C 229.33001708984375 200.76123046875 229.62791442871094 192.94346618652344 210.41221618652344 161.39517211914062" stroke-width="3.0" fill="none" stroke="rgb(0, 0, 0)" stroke-opacity="0.007335235" stroke-linecap="round" stroke-linejoin="round"/>
    <path d="M 114.99943542480469 89.44005584716797 C 52.09687042236328 64.24002838134766 112.91676330566406 60.74184799194336 55.5568962097168 44.345436096191406" stroke-width="3.0" fill="none" stroke="rgb(2, -2, 3)" stroke-opacity="0.2895451" stroke-linecap="round" stroke-linejoin="round"/>
    <path d="M 119.21702575683594 136.6060028076172 C 226.27227783203125 178.201171875 63.81830596923828 105.58154296875 145.72337341308594 156.336669921875" stroke-width="3.0" fill="none" stroke="rgb(1, -1, 1)" stroke-opacity="0.09486504" stroke-linecap="round" stroke-linejoin="round"/>
    <path d="M 72.31412506103516 181.07492065429688 C 30.123380661010742 190.8505401611328 39.12300491333008 170.80804443359375 38.651180267333984 158.78289794921875" stroke-width="3.0" fill="none" stroke="rgb(-2, 0, 2)" stroke-opacity="0.10267739" stroke-linecap="round" stroke-linejoin="round"/>
    <path d="M -9.577984809875488 -7.75087308883667 C -5.9474310874938965 -8.323274612426758 1.8148818016052246 -10.264446258544922 14.16403579711914 -4.937309265136719" stroke-width="3.0" fill="none" stroke="rgb(0, 0, 0)" stroke-opacity="0.89307547" stroke-linecap="round" stroke-linejoin="round"/>
    <path d="M 158.71376037597656 54.267127990722656 C 161.99856567382812 60.840702056884766 147.0906982421875 54.90958023071289 178.12820434570312 41.21536636352539" stroke-width="3.0" fill="none" stroke="rgb(4, -4, -1)" stroke-opacity="0.23371375" stroke-linecap="round" stroke-linejoin="round"/>
    <path d="M 155.54612731933594 53.60639953613281 C 176.76190185546875 35.0439453125 174.2406768798828 43.866859436035156 189.03195190429688 39.66743850708008" stroke-width="3.0" fill="none" stroke="rgb(1, 0, -1)" stroke-opacity="0.4187347" stroke-linecap="round" stroke-linejoin="round"/>
    <path d="M 69.2625732421875 55.34434509277344 C 131.7540740966797 103.23088836669922 156.63168334960938 47.590179443359375 91.1857681274414 63.81112289428711" stroke-width="3.0" fill="none" stroke="rgb(-4, 4, 0)" stroke-opacity="0.13082263" stroke-linecap="round" stroke-linejoin="round"/>
    <path d="M 165.53297424316406 2.0222997665405273 C 214.66114807128906 -1.1039433479309082 207.1000518798828 9.042304992675781 172.71139526367188 2.2228806018829346" stroke-width="3.0" fill="none" stroke="rgb(0, 0, 2)" stroke-opacity="0.008781047" stroke-linecap="round" stroke-linejoin="round"/>
    <path d="M 193.32666015625 33.141056060791016 C 182.84585571289062 39.833370208740234 191.92446899414062 60.95041275024414 176.82247924804688 50.88449478149414" stroke-width="3.0" fill="none" stroke="rgb(0, 0, 0)" stroke-opacity="0.011554415" stroke-linecap="round" stroke-linejoin="round"/>
    <path d="M 124.78662872314453 60.12541580200195 C 121.5694351196289 23.026315689086914 173.89572143554688 70.52156066894531 125.33772277832031 55.22919845581055" stroke-width="3.0" fill="none" stroke="rgb(0, 0, 0)" stroke-opacity="0.25542685" stroke-linecap="round" stroke-linejoin="round"/>
    <path d="M 130.40087890625 35.38834762573242 C 156.47808837890625 47.70311737060547 145.76312255859375 50.852821350097656 173.36279296875 40.95905685424805" stroke-width="3.0" fill="none" stroke="rgb(-4, 3, 0)" stroke-opacity="0.11200048" stroke-linecap="round" stroke-linejoin="round"/>
    <path d="M 223.6913299560547 36.54492950439453 C 135.85548400878906 88.57125091552734 141.4798583984375 70.64248657226562 222.02908325195312 40.320098876953125" stroke-width="3.0" fill="none" stroke="rgb(0, 0, 1)" stroke-opacity="0.00901889" stroke-linecap="round" stroke-linejoin="round"/>
    <path d="M 118.05001068115234 54.85097122192383 C 101.15564727783203 30.869129180908203 65.15472412109375 60.780094146728516 103.2164535522461 61.3088264465332" stroke-width="3.0" fill="none" stroke="rgb(0, 0, 0)" stroke-opacity="0.24069951" stroke-linecap="round" stroke-linejoin="round"/>
    <path d="M 120.30648040771484 90.97798919677734 C 148.77090454101562 51.5673942565918 179.49546813964844 13.909154891967773 143.07077026367188 20.20297622680664" stroke-width="3.0" fill="none" stroke="rgb(0, 0, 0)" stroke-opacity="0.04937367" stroke-linecap="round" stroke-linejoin="round"/>
    <path d="M 162.040771484375 100.97205352783203 C 204.4920196533203 199.0609893798828 106.1883773803711 152.77317810058594 169.80856323242188 159.33087158203125" stroke-width="3.0" fill="none" stroke="rgb(0, 0, 1)" stroke-opacity="0.0884993" stroke-linecap="round" stroke-linejoin="round"/>
    <path d="M 70.6072998046875 129.6267547607422 C 67.69390106201172 121.54074096679688 90.34715270996094 138.76226806640625 68.49382781982422 142.02505493164062" stroke-width="3.0" fill="none" stroke="rgb(-1, 2, 0)" stroke-opacity="0.40716532" stroke-linecap="round" stroke-linejoin="round"/>
    <path d="M 218.15969848632812 127.89157104492188 C 174.56005859375 130.02626037597656 224.71449279785156 120.52415466308594 192.65435791015625 117.0459213256836" stroke-width="3.0" fill="none" stroke="rgb(0, 0, 0)" stroke-opacity="0.006270199" stroke-linecap="round" stroke-linejoin="round"/>
    <path d="M 185.6144561767578 43.82473373413086 C 206.71279907226562 35.31969451904297 196.65792846679688 38.2236213684082 199.6421356201172 40.06135177612305" stroke-width="3.0" fill="none" stroke="rgb(0, 0, 0)" stroke-opacity="0.0026645423" stroke-linecap="round" stroke-linejoin="round"/>
    <path d="M -7.872992992401123 200.96234130859375 C -6.957311630249023 201.6629638671875 -6.526764869689941 207.0863800048828 -5.052167892456055 213.0043182373047" stroke-width="3.0" fill="none" stroke="rgb(0, 0, 0)" stroke-opacity="0.8734791" stroke-linecap="round" stroke-linejoin="round"/>
    <path d="M 75.60664367675781 100.18067169189453 C 63.196292877197266 49.279842376708984 53.101993560791016 70.298095703125 29.495046615600586 -10.826090812683105" stroke-width="3.0" fill="none" stroke="rgb(3, -1, -3)" stroke-opacity="0.27065462" stroke-linecap="round" stroke-linejoin="round"/>
    <path d="M 104.5973129272461 39.13554000854492 C 106.6256332397461 9.310564994812012 84.7757797241211 82.33985137939453 94.09730529785156 78.22067260742188" stroke-width="3.0" fill="none" stroke="rgb(1, 0, -1)" stroke-opacity="0.10750594" stroke-linecap="round" stroke-linejoin="round"/>
    <path d="M 142.197021484375 55.45001220703125 C 61.012107849121094 60.152652740478516 98.42191314697266 100.63472747802734 152.64678955078125 74.73194122314453" stroke-width="3.0" fill="none" stroke="rgb(-1, 0, 2)" stroke-opacity="0.118574396" stroke-linecap="round" stroke-linejoin="round"/>
    <path d="M 84.84668731689453 231.27391052246094 C 91.36785125732422 231.22860717773438 77.09747314453125 230.16258239746094 79.18311309814453 233.74806213378906" stroke-width="3.0" fill="none" stroke="rgb(0, 0, 0)" stroke-opacity="0.89850545" stroke-linecap="round" stroke-linejoin="round"/>
    <path d="M 190.62353515625 126.37106323242188 C 218.91477966308594 104.32464599609375 169.48428344726562 154.61614990234375 193.0796356201172 120.70806884765625" stroke-width="3.0" fill="none" stroke="rgb(0, 0, 0)" stroke-opacity="0.009577554" stroke-linecap="round" stroke-linejoin="round"/>
    <path d="M 120.49166107177734 13.608920097351074 C 137.4209747314453 19.98333168029785 191.19671630859375 46.068702697753906 116.74872589111328 11.744894981384277" stroke-width="3.0" fill="none" stroke="rgb(3, 0, -4)" stroke-opacity="0.10014265" stroke-linecap="round" stroke-linejoin="round"/>
    <path d="M 129.29641723632812 158.57252502441406 C 158.27365112304688 186.95970153808594 183.8055419921875 153.8405303955078 173.86598205566406 162.572998046875" stroke-width="3.0" fill="none" stroke="rgb(0, 0, 1)" stroke-opacity="0.11528042" stroke-linecap="round" stroke-linejoin="round"/>
    <path d="M 121.86458587646484 64.59708404541016 C 171.87196350097656 54.460174560546875 184.13394165039062 35.7025146484375 195.59153747558594 41.198307037353516" stroke-width="3.0" fill="none" stroke="rgb(1, 1, -2)" stroke-opacity="0.11585864" stroke-linecap="round" stroke-linejoin="round"/>
    <path d="M 176.9522247314453 157.68959045410156 C 173.3159942626953 115.05267333984375 146.0166015625 202.9571990966797 169.21319580078125 152.42599487304688" stroke-width="3.0" fill="none" stroke="rgb(-1, 1, 1)" stroke-opacity="0.0807289" stroke-linecap="round" stroke-linejoin="round"/>
    <path d="M 147.3054656982422 117.39277648925781 C 195.34140014648438 126.46957397460938 175.74537658691406 104.55487823486328 209.05654907226562 119.77039337158203" stroke-width="3.0" fill="none" stroke="rgb(0, 0, 0)" stroke-opacity="0.0048054173" stroke-linecap="round" stroke-linejoin="round"/>
    <path d="M 148.31520080566406 16.182950973510742 C 129.1999053955078 6.25961446762085 167.96319580078125 41.59618377685547 160.18080139160156 23.743301391601562" stroke-width="3.0" fill="none" stroke="rgb(0, 0, 0)" stroke-opacity="0.035763934" stroke-linecap="round" stroke-linejoin="round"/>
    <path d="M 116.1369400024414 67.07197570800781 C 160.6035614013672 47.74957275390625 146.2620849609375 45.49863815307617 93.57410430908203 80.32308197021484" stroke-width="3.0" fill="none" stroke="rgb(0, 0, 2)" stroke-opacity="0.0788291" stroke-linecap="round" stroke-linejoin="round"/>
    <path d="M 199.0333251953125 43.856571197509766 C 252.42567443847656 15.857784271240234 244.00643920898438 23.507396697998047 200.9582977294922 45.75143051147461" stroke-width="3.0" fill="none" stroke="rgb(0, 0, 1)" stroke-opacity="0.012817938" stroke-linecap="round" stroke-linejoin="round"/>
    <path d="M 77.03167724609375 94.32457733154297 C 191.43310546875 67.16549682617188 152.61607360839844 67.56903839111328 90.30638885498047 116.43744659423828" stroke-width="3.0" fill="none" stroke="rgb(0, -2, 3)" stroke-opacity="0.09845345" stroke-linecap="round" stroke-linejoin="round"/>
    <path d="M 118.6468276977539 52.98878860473633 C 124.60708618164062 44.6116943359375 135.43035888671875 39.73701095581055 142.0198974609375 49.638092041015625" stroke-width="3.0" fill="none" stroke="rgb(0, 2, -2)" stroke-opacity="0.28773898" stroke-linecap="round" stroke-linejoin="round"/>
    <path d="M 93.48977661132812 -8.239669799804688 C 97.3987808227539 -8.675540924072266 107.21680450439453 -2.382979393005371 94.31241607666016 -8.327716827392578" stroke-width="3.0" fill="none" stroke="rgb(0, 0, 0)" stroke-opacity="0.8294239" stroke-linecap="round" stroke-linejoin="round"/>
    <path d="M 153.62477111816406 81.91693115234375 C 109.55911254882812 139.02244567871094 56.27916717529297 104.5937271118164 169.5532989501953 108.28108215332031" stroke-width="3.0" fill="none" stroke="rgb(0, 0, 0)" stroke-opacity="0.058081146" stroke-linecap="round" stroke-linejoin="round"/>
    <path d="M 158.2069854736328 232.00039672851562 C 143.06295776367188 143.5193634033203 158.6319122314453 208.73077392578125 162.69061279296875 172.85357666015625" stroke-width="3.0" fill="none" stroke="rgb(-1, 1, 2)" stroke-opacity="0.087727696" stroke-linecap="round" stroke-linejoin="round"/>
    <path d="M 86.5416030883789 -5.935058116912842 C 167.8060760498047 15.041604042053223 138.97633361816406 9.468976974487305 134.98497009277344 37.162532806396484" stroke-width="3.0" fill="none" stroke="rgb(0, 0, 0)" stroke-opacity="0.01771729" stroke-linecap="round" stroke-linejoin="round"/>
    <path d="M 70.7318115234375 113.27589416503906 C 74.05614471435547 117.85857391357422 86.14453887939453 106.64085388183594 78.53245544433594 113.54122924804688" stroke-width="3.0" fill="none" stroke="rgb(2, -2, -2)" stroke-opacity="0.3873651" stroke-linecap="round" stroke-linejoin="round"/>
    <path d="M 142.94854736328125 59.33694076538086 C 111.67086791992188 38.381229400634766 136.970947265625 91.51150512695312 153.79676818847656 61.661651611328125" stroke-width="3.0" fill="none" stroke="rgb(-1, 0, 1)" stroke-opacity="0.12215893" stroke-linecap="round" stroke-linejoin="round"/>
    <path d="M 59.02363967895508 50.851165771484375 C 98.2677230834961 43.72742462158203 72.35865020751953 67.65428161621094 79.47559356689453 47.24168014526367" stroke-width="3.0" fill="none" stroke="rgb(1, 2, 0)" stroke-opacity="0.25861567" stroke-linecap="round" stroke-linejoin="round"/>
    <path d="M 158.92832946777344 98.80718231201172 C 170.20870971679688 138.61700439453125 170.51512145996094 140.6446075439453 149.03936767578125 151.55850219726562" stroke-width="3.0" fill="none" stroke="rgb(1, 0, 0)" stroke-opacity="0.1597613" stroke-linecap="round" stroke-linejoin="round"/>
    <path d="M 130.86770629882812 233.7625732421875 C 134.54310607910156 231.31166076660156 142.47903442382812 232.8040771484375 138.10231018066406 230.55609130859375" stroke-width="3.0" fill="none" stroke="rgb(0, 0, 0)" stroke-opacity="0.83414596" stroke-linecap="round" stroke-linejoin="round"/>
    <path d="M 49.64358901977539 63.65927505493164 C 30.634445190429688 34.09685516357422 33.78425598144531 19.92882537841797 41.5790901184082 52.133243560791016" stroke-width="3.0" fill="none" stroke="rgb(0, 0, 0)" stroke-opacity="0.017497648" stroke-linecap="round" stroke-linejoin="round"/>
    <path d="M 151.28919982910156 141.12118530273438 C 192.41981506347656 108.85359954833984 -11.95564079284668 79.99156188964844 152.26951599121094 113.60791778564453" stroke-width="3.0" fill="none" stroke="rgb(-3, 3, 2)" stroke-opacity="0.08420962" stroke-linecap="round" stroke-linejoin="round"/>
    <path d="M 171.2587127685547 170.2506561279297 C 285.0013122558594 208.92823791503906 221.195068359375 180.79083251953125 169.08558654785156 167.33889770507812" stroke-width="3.0" fill="none" stroke="rgb(0, 0, 0)" stroke-opacity="0.007848464" stroke-linecap="round" stroke-linejoin="round"/>
  </g>
</svg>
