<?xml version="1.0" ?>
<svg xmlns="http://www.w3.org/2000/svg" version="1.1" width="224" height="224">
  <defs/>
  <g>
    <path d="M 30.243309020996094 222.32960510253906 C 24.324398040771484 222.27822875976562 24.665855407714844 221.30722045898438 40.31255340576172 224.04498291015625" stroke-width="6.136476039886475" fill="none" stroke="rgb(172, 43, 213)" stroke-opacity="0.21588331" stroke-linecap="round" stroke-linejoin="round"/>
    <path d="M 76.29547119140625 149.44923400878906 C 87.9145278930664 157.751708984375 91.52242279052734 161.15135192871094 98.51171112060547 172.95538330078125" stroke-width="4.065238952636719" fill="none" stroke="rgb(87, 116, 208)" stroke-opacity="0.26327917" stroke-linecap="round" stroke-linejoin="round"/>
    <path d="M 57.087825775146484 89.14972686767578 C 50.8785400390625 85.5607681274414 55.887821197509766 86.15541076660156 65.61132049560547 89.1099853515625" stroke-width="5.2882232666015625" fill="none" stroke="rgb(83, 103, 64)" stroke-opacity="0.4945262" stroke-linecap="round" stroke-linejoin="round"/>
    <path d="M 47.31368637084961 44.966407775878906 C 48.758514404296875 45.15451431274414 45.1083984375 44.26092529296875 47.35361862182617 45.01543426513672" stroke-width="1.9995521306991577" fill="none" stroke="rgb(168, 159, 206)" stroke-opacity="0.028454259" stroke-linecap="round" stroke-linejoin="round"/>
    <path d="M 132.52316284179688 158.8379364013672 C 141.39906311035156 162.7001953125 135.70033264160156 164.92767333984375 129.13784790039062 154.40798950195312" stroke-width="2.3560774326324463" fill="none" stroke="rgb(118, 116, 140)" stroke-opacity="0.34263307" stroke-linecap="round" stroke-linejoin="round"/>
    <path d="M 75.76954650878906 189.0635528564453 C 78.19084930419922 188.92733764648438 75.00550842285156 190.981689453125 74.3530044555664 183.19583129882812" stroke-width="3.7617604732513428" fill="none" stroke="rgb(178, 174, 137)" stroke-opacity="0.117015265" stroke-linecap="round" stroke-linejoin="round"/>
    <path d="M 27.243350982666016 179.7701416015625 C 24.258766174316406 191.4157257080078 35.05952835083008 193.44529724121094 47.934776306152344 191.28775024414062" stroke-width="10.998270034790039" fill="none" stroke="rgb(43, 131, -1)" stroke-opacity="0.3618634" stroke-linecap="round" stroke-linejoin="round"/>
    <path d="M 79.13041687011719 177.5855255126953 C 71.87995147705078 168.4208221435547 70.8447036743164 169.2600860595703 71.49810028076172 169.0384063720703" stroke-width="4.32560396194458" fill="none" stroke="rgb(96, 114, 212)" stroke-opacity="0.11623662" stroke-linecap="round" stroke-linejoin="round"/>
    <path d="M 55.480979919433594 189.15220642089844 C 48.88062286376953 174.7981719970703 44.5257682800293 173.20249938964844 45.375335693359375 173.13925170898438" stroke-width="13.009876251220703" fill="none" stroke="rgb(19, 160, 63)" stroke-opacity="0.3078016" stroke-linecap="round" stroke-linejoin="round"/>
    <path d="M 201.5616912841797 203.74510192871094 C 194.05902099609375 199.4241943359375 194.3577423095703 201.60890197753906 191.29006958007812 200.78265380859375" stroke-width="2.691695213317871" fill="none" stroke="rgb(140, 177, 211)" stroke-opacity="0.10418563" stroke-linecap="round" stroke-linejoin="round"/>
    <path d="M 45.874786376953125 42.694515228271484 C 46.11479949951172 43.22571563720703 43.70962905883789 45.39897918701172 44.67300033569336 45.08477783203125" stroke-width="1.9991106986999512" fill="none" stroke="rgb(131, 149, 103)" stroke-opacity="0.009410256" stroke-linecap="round" stroke-linejoin="round"/>
    <path d="M 165.4132843017578 177.820556640625 C 165.5920867919922 177.81533813476562 165.03045654296875 177.7906951904297 165.35171508789062 177.7541046142578" stroke-width="1.9991917610168457" fill="none" stroke="rgb(155, 177, 154)" stroke-opacity="-0.00011556661" stroke-linecap="round" stroke-linejoin="round"/>
    <path d="M 193.45608520507812 228.19886779785156 C 169.98158264160156 220.0857696533203 174.35227966308594 222.12110900878906 159.6033935546875 227.594482421875" stroke-width="17.058639526367188" fill="none" stroke="rgb(103, 71, 47)" stroke-opacity="0.49231452" stroke-linecap="round" stroke-linejoin="round"/>
    <path d="M 16.330501556396484 214.44033813476562 C 14.165018081665039 212.36578369140625 11.009184837341309 214.35757446289062 14.895600318908691 212.7949676513672" stroke-width="2.6061251163482666" fill="none" stroke="rgb(167, 140, 211)" stroke-opacity="0.06367751" stroke-linecap="round" stroke-linejoin="round"/>
    <path d="M 71.51936340332031 107.87347412109375 C 63.35616683959961 103.31046295166016 60.3729133605957 102.70866394042969 50.487693786621094 92.71029663085938" stroke-width="11.484807014465332" fill="none" stroke="rgb(136, 226, 16)" stroke-opacity="0.39916182" stroke-linecap="round" stroke-linejoin="round"/>
    <path d="M 188.60194396972656 72.873291015625 C 192.47850036621094 73.2651596069336 192.00167846679688 91.10067749023438 187.6210174560547 80.44696044921875" stroke-width="4.629161357879639" fill="none" stroke="rgb(121, 74, 141)" stroke-opacity="0.35604885" stroke-linecap="round" stroke-linejoin="round"/>
    <path d="M 9.955230712890625 0.9016143679618835 C 4.789100646972656 -0.3098040819168091 3.512028455734253 2.140624523162842 7.743624687194824 -1.2790707349777222" stroke-width="2.1603105068206787" fill="none" stroke="rgb(154, 140, 177)" stroke-opacity="0.22763625" stroke-linecap="round" stroke-linejoin="round"/>
    <path d="M 83.14131164550781 126.60994720458984 C 82.1017074584961 127.30389404296875 79.29995727539062 126.31732177734375 84.67400360107422 125.01429748535156" stroke-width="4.105199337005615" fill="none" stroke="rgb(87, 137, 140)" stroke-opacity="0.2208971" stroke-linecap="round" stroke-linejoin="round"/>
    <path d="M 65.3882064819336 23.07530975341797 C 64.9852294921875 23.534940719604492 66.02610778808594 22.273765563964844 65.50860595703125 23.124387741088867" stroke-width="1.9975804090499878" fill="none" stroke="rgb(161, 183, 150)" stroke-opacity="-0.00012529624" stroke-linecap="round" stroke-linejoin="round"/>
    <path d="M 211.05612182617188 101.93804931640625 C 217.050048828125 102.77202606201172 219.25885009765625 104.34207916259766 222.22935485839844 119.05538940429688" stroke-width="12.859737396240234" fill="none" stroke="rgb(93, 50, 201)" stroke-opacity="0.3557364" stroke-linecap="round" stroke-linejoin="round"/>
    <path d="M 1.1880464553833008 136.74929809570312 C 5.820953369140625 140.5493927001953 -1.993988037109375 143.34498596191406 1.6278412342071533 146.15341186523438" stroke-width="7.1443915367126465" fill="none" stroke="rgb(173, 141, 187)" stroke-opacity="0.07765501" stroke-linecap="round" stroke-linejoin="round"/>
    <path d="M 75.52207946777344 65.72371673583984 C 72.51434326171875 69.90250396728516 65.3415756225586 69.35031127929688 71.52124786376953 67.71803283691406" stroke-width="3.529752492904663" fill="none" stroke="rgb(206, 125, 228)" stroke-opacity="0.13665378" stroke-linecap="round" stroke-linejoin="round"/>
    <path d="M 224.02102661132812 81.01158142089844 C 224.51361083984375 85.98189544677734 223.7740020751953 82.17620086669922 223.85877990722656 92.82333374023438" stroke-width="9.359172821044922" fill="none" stroke="rgb(106, 52, 151)" stroke-opacity="0.31778008" stroke-linecap="round" stroke-linejoin="round"/>
    <path d="M 13.379349708557129 203.19776916503906 C 19.085664749145508 205.7422332763672 22.298063278198242 206.3870086669922 23.13207244873047 207.63504028320312" stroke-width="2.779463291168213" fill="none" stroke="rgb(130, 184, 95)" stroke-opacity="0.15002072" stroke-linecap="round" stroke-linejoin="round"/>
    <path d="M 141.74105834960938 4.16300630569458 C 140.74317932128906 3.363311290740967 138.8661346435547 4.277132987976074 132.32000732421875 5.636125564575195" stroke-width="2.8607053756713867" fill="none" stroke="rgb(185, 181, 146)" stroke-opacity="0.042168792" stroke-linecap="round" stroke-linejoin="round"/>
    <path d="M 213.4172821044922 27.52760124206543 C 213.2649383544922 27.692052841186523 214.74880981445312 29.242412567138672 212.5394287109375 27.249488830566406" stroke-width="2.0317165851593018" fill="none" stroke="rgb(185, 178, 182)" stroke-opacity="0.010613955" stroke-linecap="round" stroke-linejoin="round"/>
    <path d="M 222.54212951660156 59.50919723510742 C 222.0613250732422 68.33641815185547 221.20948791503906 69.71672821044922 202.70729064941406 84.60247039794922" stroke-width="8.73817253112793" fill="none" stroke="rgb(89, 232, -3)" stroke-opacity="0.3494521" stroke-linecap="round" stroke-linejoin="round"/>
    <path d="M 67.68862915039062 196.13243103027344 C 76.45803833007812 203.3475341796875 82.0313491821289 203.312255859375 79.07046508789062 202.063720703125" stroke-width="5.909228801727295" fill="none" stroke="rgb(157, 163, 121)" stroke-opacity="0.21041974" stroke-linecap="round" stroke-linejoin="round"/>
    <path d="M 205.3205108642578 105.87995910644531 C 200.8306121826172 97.4902572631836 196.86647033691406 94.59362030029297 186.30743408203125 93.9013671875" stroke-width="2.5223307609558105" fill="none" stroke="rgb(100, 132, 91)" stroke-opacity="0.34290898" stroke-linecap="round" stroke-linejoin="round"/>
    <path d="M 203.27076721191406 5.999645233154297 C 202.61972045898438 6.0185065269470215 205.42849731445312 5.956007480621338 203.48614501953125 5.993032932281494" stroke-width="1.9867061376571655" fill="none" stroke="rgb(203, 181, 205)" stroke-opacity="0.051745504" stroke-linecap="round" stroke-linejoin="round"/>
    <path d="M 40.87967300415039 176.6985626220703 C 38.44594192504883 175.09596252441406 38.710113525390625 177.63644409179688 39.37377166748047 176.50579833984375" stroke-width="2.712627649307251" fill="none" stroke="rgb(28, 3, 23)" stroke-opacity="0.97117084" stroke-linecap="round" stroke-linejoin="round"/>
    <path d="M 221.79083251953125 206.4894561767578 C 220.80523681640625 202.65191650390625 221.1643524169922 201.529541015625 217.378662109375 204.28762817382812" stroke-width="8.050392150878906" fill="none" stroke="rgb(149, 129, 108)" stroke-opacity="0.24530381" stroke-linecap="round" stroke-linejoin="round"/>
    <path d="M 118.34693145751953 7.904420852661133 C 119.95516204833984 7.806266784667969 113.9867172241211 7.2667694091796875 115.62763214111328 8.260963439941406" stroke-width="2.3575475215911865" fill="none" stroke="rgb(191, 193, 140)" stroke-opacity="0.03850567" stroke-linecap="round" stroke-linejoin="round"/>
    <path d="M 51.21753692626953 86.59687805175781 C 44.887672424316406 86.14805603027344 35.213417053222656 85.94063568115234 44.79106521606445 85.74344635009766" stroke-width="6.291987419128418" fill="none" stroke="rgb(74, 118, 0)" stroke-opacity="0.5485688" stroke-linecap="round" stroke-linejoin="round"/>
    <path d="M 163.29156494140625 88.14764404296875 C 160.71556091308594 89.29456329345703 158.0044403076172 91.03897094726562 168.54335021972656 86.07627868652344" stroke-width="1.9780218601226807" fill="none" stroke="rgb(99, 168, 105)" stroke-opacity="0.168026" stroke-linecap="round" stroke-linejoin="round"/>
    <path d="M 195.62911987304688 86.36969757080078 C 187.59872436523438 85.80988311767578 191.68875122070312 91.99681091308594 199.2030029296875 87.21817779541016" stroke-width="6.875161170959473" fill="none" stroke="rgb(75, 146, -1)" stroke-opacity="0.42569557" stroke-linecap="round" stroke-linejoin="round"/>
    <path d="M 19.768224716186523 96.50234985351562 C 18.906415939331055 94.04132843017578 21.32663917541504 86.97737884521484 16.33684539794922 85.92401123046875" stroke-width="1.9727067947387695" fill="none" stroke="rgb(182, 143, 189)" stroke-opacity="0.07266839" stroke-linecap="round" stroke-linejoin="round"/>
    <path d="M 86.5350112915039 107.15432739257812 C 88.83019256591797 107.71050262451172 91.46697998046875 111.30401611328125 87.30792236328125 98.17554473876953" stroke-width="4.53529167175293" fill="none" stroke="rgb(93, 143, 108)" stroke-opacity="0.28798997" stroke-linecap="round" stroke-linejoin="round"/>
    <path d="M 23.276052474975586 130.22216796875 C 28.185094833374023 140.55650329589844 28.679508209228516 141.44277954101562 30.28134536743164 144.53048706054688" stroke-width="3.605719566345215" fill="none" stroke="rgb(149, 175, 126)" stroke-opacity="0.09170238" stroke-linecap="round" stroke-linejoin="round"/>
    <path d="M 5.199064254760742 70.1195297241211 C 5.002392768859863 73.86754608154297 5.231570243835449 69.03287506103516 5.0887675285339355 69.44661712646484" stroke-width="2.2084643840789795" fill="none" stroke="rgb(187, 158, 122)" stroke-opacity="0.12824312" stroke-linecap="round" stroke-linejoin="round"/>
    <path d="M 144.56285095214844 177.93312072753906 C 145.4603271484375 179.93804931640625 143.2616729736328 176.4508056640625 145.3118133544922 177.87725830078125" stroke-width="2.068572759628296" fill="none" stroke="rgb(163, 184, 182)" stroke-opacity="-8.36266e-05" stroke-linecap="round" stroke-linejoin="round"/>
    <path d="M 129.0044403076172 104.10507202148438 C 123.43179321289062 98.5537338256836 123.98432159423828 108.15526580810547 138.90956115722656 102.73387908935547" stroke-width="3.588712692260742" fill="none" stroke="rgb(116, 95, 125)" stroke-opacity="0.39836106" stroke-linecap="round" stroke-linejoin="round"/>
    <path d="M 132.5596160888672 105.80284118652344 C 127.84304809570312 106.26102447509766 120.38025665283203 105.56182098388672 124.45149993896484 105.19703674316406" stroke-width="1.8476507663726807" fill="none" stroke="rgb(81, 111, 84)" stroke-opacity="0.48961395" stroke-linecap="round" stroke-linejoin="round"/>
    <path d="M 43.33408737182617 54.42316818237305 C 43.1228141784668 54.547550201416016 43.529747009277344 54.34471893310547 43.369510650634766 54.18093490600586" stroke-width="1.9941823482513428" fill="none" stroke="rgb(143, 169, 145)" stroke-opacity="-0.00093700225" stroke-linecap="round" stroke-linejoin="round"/>
    <path d="M 44.31724548339844 28.550756454467773 C 45.12123107910156 25.78517723083496 44.398372650146484 29.710195541381836 40.57564926147461 28.59018898010254" stroke-width="2.034947633743286" fill="none" stroke="rgb(187, 192, 177)" stroke-opacity="0.02225012" stroke-linecap="round" stroke-linejoin="round"/>
    <path d="M 74.74168395996094 116.54243469238281 C 89.30980682373047 110.96565246582031 86.1920394897461 112.95710754394531 84.81267547607422 111.06696319580078" stroke-width="5.035651206970215" fill="none" stroke="rgb(88, 156, 48)" stroke-opacity="0.4811055" stroke-linecap="round" stroke-linejoin="round"/>
    <path d="M 20.442537307739258 35.88844680786133 C 17.525535583496094 35.89968490600586 19.25811195373535 36.869503021240234 18.437238693237305 35.6689567565918" stroke-width="2.372932195663452" fill="none" stroke="rgb(195, 208, 191)" stroke-opacity="0.030699115" stroke-linecap="round" stroke-linejoin="round"/>
    <path d="M 44.48555374145508 6.645611763000488 C 45.482521057128906 6.7243218421936035 42.58901596069336 6.624588489532471 44.51062774658203 6.65468168258667" stroke-width="1.9842381477355957" fill="none" stroke="rgb(177, 175, 144)" stroke-opacity="0.036099277" stroke-linecap="round" stroke-linejoin="round"/>
    <path d="M 111.53106689453125 189.2730255126953 C 114.59967803955078 193.94732666015625 117.18482971191406 197.31472778320312 125.95110321044922 203.30357360839844" stroke-width="3.4097819328308105" fill="none" stroke="rgb(132, 131, 171)" stroke-opacity="0.21436916" stroke-linecap="round" stroke-linejoin="round"/>
    <path d="M 214.4029541015625 25.084491729736328 C 209.85427856445312 23.615806579589844 207.2193603515625 25.59670639038086 208.01661682128906 21.751256942749023" stroke-width="2.9274213314056396" fill="none" stroke="rgb(171, 182, 107)" stroke-opacity="0.01950874" stroke-linecap="round" stroke-linejoin="round"/>
    <path d="M 222.6648712158203 218.8694305419922 C 218.16148376464844 216.50416564941406 225.4838409423828 217.6046905517578 212.5618133544922 214.0159912109375" stroke-width="2.7425930500030518" fill="none" stroke="rgb(105, 113, 74)" stroke-opacity="0.2915998" stroke-linecap="round" stroke-linejoin="round"/>
    <path d="M 104.6584701538086 171.79495239257812 C 109.66004943847656 182.86785888671875 114.28623962402344 186.13182067871094 116.71538543701172 189.56460571289062" stroke-width="5.604131698608398" fill="none" stroke="rgb(149, 153, 236)" stroke-opacity="0.13962153" stroke-linecap="round" stroke-linejoin="round"/>
    <path d="M 129.6204376220703 48.00741195678711 C 121.66691589355469 47.71662521362305 126.34526062011719 52.2359504699707 122.29521942138672 43.881771087646484" stroke-width="1.9511394500732422" fill="none" stroke="rgb(112, 161, 99)" stroke-opacity="0.3034594" stroke-linecap="round" stroke-linejoin="round"/>
    <path d="M 70.78527069091797 63.567142486572266 C 67.51312255859375 61.7799072265625 73.19139862060547 65.4852523803711 80.12435913085938 64.98579406738281" stroke-width="1.9224721193313599" fill="none" stroke="rgb(153, 76, 176)" stroke-opacity="0.116510525" stroke-linecap="round" stroke-linejoin="round"/>
    <path d="M 164.5205078125 134.91525268554688 C 161.7871551513672 140.04344177246094 166.7277069091797 139.2818145751953 170.05349731445312 139.2998504638672" stroke-width="1.9998056888580322" fill="none" stroke="rgb(177, 172, 122)" stroke-opacity="0.0041502123" stroke-linecap="round" stroke-linejoin="round"/>
    <path d="M 50.29608917236328 135.93463134765625 C 47.956451416015625 129.1453399658203 49.843631744384766 127.7333984375 49.40202331542969 135.83375549316406" stroke-width="2.0607683658599854" fill="none" stroke="rgb(161, 174, 159)" stroke-opacity="0.018320372" stroke-linecap="round" stroke-linejoin="round"/>
    <path d="M -2.016390562057495 85.63629150390625 C -1.5339401960372925 86.26922607421875 -2.6889729499816895 83.49658966064453 -1.3396878242492676 83.51342010498047" stroke-width="2.0" fill="none" stroke="rgb(33, 31, 0)" stroke-opacity="0.8780232" stroke-linecap="round" stroke-linejoin="round"/>
    <path d="M 82.4479751586914 13.971442222595215 C 80.94524383544922 13.666520118713379 72.86198425292969 17.524803161621094 74.64273834228516 16.553627014160156" stroke-width="2.171095848083496" fill="none" stroke="rgb(217, 189, 238)" stroke-opacity="0.029314965" stroke-linecap="round" stroke-linejoin="round"/>
    <path d="M 3.2192397117614746 -0.13216662406921387 C 5.515673637390137 -0.5293290019035339 2.72697377204895 -3.952601909637451 6.4193596839904785 -6.362444877624512" stroke-width="2.047464609146118" fill="none" stroke="rgb(132, 129, 129)" stroke-opacity="0.4204112" stroke-linecap="round" stroke-linejoin="round"/>
    <path d="M 149.75729370117188 11.932483673095703 C 152.46376037597656 12.111488342285156 150.48800659179688 12.114656448364258 151.11024475097656 11.664694786071777" stroke-width="2.33604097366333" fill="none" stroke="rgb(195, 193, 214)" stroke-opacity="0.019130943" stroke-linecap="round" stroke-linejoin="round"/>
    <path d="M 178.64154052734375 32.11943435668945 C 178.7630157470703 32.16970443725586 179.49290466308594 31.541889190673828 178.14137268066406 32.87982940673828" stroke-width="1.9954944849014282" fill="none" stroke="rgb(165, 189, 150)" stroke-opacity="0.023625713" stroke-linecap="round" stroke-linejoin="round"/>
    <path d="M 38.55353546142578 169.90293884277344 C 43.54117965698242 180.63710021972656 26.943309783935547 181.07199096679688 25.368122100830078 170.98040771484375" stroke-width="3.1174564361572266" fill="none" stroke="rgb(52, 142, 62)" stroke-opacity="0.53800327" stroke-linecap="round" stroke-linejoin="round"/>
    <path d="M 55.065216064453125 89.27639770507812 C 49.49260330200195 89.77332305908203 50.790916442871094 83.74195861816406 55.576290130615234 84.31463623046875" stroke-width="2.5726804733276367" fill="none" stroke="rgb(141, 157, 117)" stroke-opacity="0.33846954" stroke-linecap="round" stroke-linejoin="round"/>
    <path d="M 17.022628784179688 174.70431518554688 C 16.947839736938477 173.67739868164062 17.09755516052246 174.48756408691406 16.900306701660156 176.67417907714844" stroke-width="2.0163021087646484" fill="none" stroke="rgb(184, 189, 156)" stroke-opacity="0.056467794" stroke-linecap="round" stroke-linejoin="round"/>
    <path d="M 212.71575927734375 204.5133056640625 C 213.33766174316406 199.86538696289062 210.88198852539062 198.89276123046875 215.63873291015625 199.8186492919922" stroke-width="2.099228858947754" fill="none" stroke="rgb(159, 149, 134)" stroke-opacity="0.17158258" stroke-linecap="round" stroke-linejoin="round"/>
    <path d="M 0.715942919254303 173.1156463623047 C 1.5510658025741577 182.58212280273438 -0.3898286521434784 184.01089477539062 0.8405863046646118 180.49154663085938" stroke-width="3.005232334136963" fill="none" stroke="rgb(156, 161, 118)" stroke-opacity="0.1889644" stroke-linecap="round" stroke-linejoin="round"/>
    <path d="M 93.54402923583984 155.720947265625 C 97.54927825927734 159.06202697753906 95.62491607666016 157.22154235839844 97.0385971069336 159.8211212158203" stroke-width="2.180088758468628" fill="none" stroke="rgb(139, 146, 163)" stroke-opacity="0.091175094" stroke-linecap="round" stroke-linejoin="round"/>
    <path d="M 167.24903869628906 136.7576904296875 C 158.6569366455078 137.2069854736328 155.7118682861328 137.2926788330078 158.15496826171875 135.6139373779297" stroke-width="2.5676066875457764" fill="none" stroke="rgb(182, 189, 176)" stroke-opacity="0.028165566" stroke-linecap="round" stroke-linejoin="round"/>
    <path d="M 26.116806030273438 69.50222778320312 C 27.137584686279297 69.37921905517578 20.79463005065918 69.96141052246094 22.403518676757812 70.21532440185547" stroke-width="1.9979989528656006" fill="none" stroke="rgb(173, 197, 150)" stroke-opacity="0.027428737" stroke-linecap="round" stroke-linejoin="round"/>
    <path d="M 72.4960708618164 138.68710327148438 C 73.32803344726562 142.59010314941406 76.64478302001953 143.9768524169922 74.06259155273438 141.72366333007812" stroke-width="1.9391714334487915" fill="none" stroke="rgb(96, 135, 102)" stroke-opacity="0.2553379" stroke-linecap="round" stroke-linejoin="round"/>
    <path d="M 43.945091247558594 179.81993103027344 C 48.240821838378906 173.56649780273438 45.584716796875 173.6126251220703 45.9805908203125 176.76840209960938" stroke-width="6.492096424102783" fill="none" stroke="rgb(42, 174, 15)" stroke-opacity="0.101310596" stroke-linecap="round" stroke-linejoin="round"/>
    <path d="M 107.9757080078125 114.30709075927734 C 105.53732299804688 114.3341293334961 110.89102935791016 113.37689208984375 116.36640930175781 106.93050384521484" stroke-width="6.5344743728637695" fill="none" stroke="rgb(98, 201, 104)" stroke-opacity="0.08192375" stroke-linecap="round" stroke-linejoin="round"/>
    <path d="M 24.65180778503418 207.8902587890625 C 33.613651275634766 212.3104705810547 33.02708435058594 211.39540100097656 32.33175277709961 211.30697631835938" stroke-width="2.6572017669677734" fill="none" stroke="rgb(114, 178, 84)" stroke-opacity="0.12618591" stroke-linecap="round" stroke-linejoin="round"/>
    <path d="M 21.467296600341797 97.8512954711914 C 14.328875541687012 94.21863555908203 14.515405654907227 89.83688354492188 11.563300132751465 80.83759307861328" stroke-width="10.303739547729492" fill="none" stroke="rgb(165, 84, 194)" stroke-opacity="0.088012636" stroke-linecap="round" stroke-linejoin="round"/>
    <path d="M 6.548868656158447 70.91643524169922 C 6.674702167510986 71.69337463378906 10.028270721435547 73.83036041259766 11.28618049621582 73.92353820800781" stroke-width="1.9954649209976196" fill="none" stroke="rgb(179, 151, 190)" stroke-opacity="0.004082843" stroke-linecap="round" stroke-linejoin="round"/>
    <path d="M 71.45425415039062 80.26216125488281 C 71.58311462402344 79.7773208618164 65.17520141601562 81.74405670166016 64.99337768554688 78.57243347167969" stroke-width="2.0303242206573486" fill="none" stroke="rgb(97, 137, 44)" stroke-opacity="0.33413306" stroke-linecap="round" stroke-linejoin="round"/>
    <path d="M 6.43867301940918 145.04457092285156 C 7.171498775482178 146.55691528320312 4.131274223327637 138.3679962158203 -0.9997959733009338 139.11444091796875" stroke-width="3.703266143798828" fill="none" stroke="rgb(209, 179, 197)" stroke-opacity="0.07541304" stroke-linecap="round" stroke-linejoin="round"/>
    <path d="M 34.200218200683594 212.29913330078125 C 34.27128601074219 212.22019958496094 31.164241790771484 211.54429626464844 36.670284271240234 212.9232177734375" stroke-width="2.303410291671753" fill="none" stroke="rgb(132, 181, 117)" stroke-opacity="0.102049455" stroke-linecap="round" stroke-linejoin="round"/>
    <path d="M 108.10489654541016 189.1199493408203 C 99.51492309570312 186.53939819335938 96.52359008789062 193.8125762939453 96.59993743896484 192.86984252929688" stroke-width="2.664785861968994" fill="none" stroke="rgb(137, 156, 182)" stroke-opacity="0.16466135" stroke-linecap="round" stroke-linejoin="round"/>
    <path d="M 140.42095947265625 91.4287109375 C 126.95445251464844 90.29183197021484 122.54862213134766 87.12167358398438 131.8658905029297 84.50032043457031" stroke-width="2.9401824474334717" fill="none" stroke="rgb(81, 129, 72)" stroke-opacity="0.43001625" stroke-linecap="round" stroke-linejoin="round"/>
    <path d="M 33.45132064819336 46.66240692138672 C 33.29842758178711 47.665504455566406 33.77554702758789 44.88533020019531 33.613914489746094 45.46370315551758" stroke-width="2.0033185482025146" fill="none" stroke="rgb(156, 149, 129)" stroke-opacity="0.024084086" stroke-linecap="round" stroke-linejoin="round"/>
    <path d="M 222.76217651367188 221.40879821777344 C 219.09158325195312 221.59095764160156 226.89669799804688 220.13929748535156 232.93142700195312 220.18862915039062" stroke-width="2.9325666427612305" fill="none" stroke="rgb(174, 126, 41)" stroke-opacity="0.18902573" stroke-linecap="round" stroke-linejoin="round"/>
    <path d="M 199.81431579589844 12.955977439880371 C 201.62228393554688 12.612899780273438 195.83328247070312 13.52966594696045 197.33572387695312 12.898600578308105" stroke-width="2.1592211723327637" fill="none" stroke="rgb(183, 176, 142)" stroke-opacity="0.034368962" stroke-linecap="round" stroke-linejoin="round"/>
    <path d="M 221.90342712402344 217.32566833496094 C 222.20236206054688 219.5048065185547 217.65731811523438 220.70164489746094 219.72300720214844 218.95799255371094" stroke-width="3.8561177253723145" fill="none" stroke="rgb(146, 121, 66)" stroke-opacity="0.08922808" stroke-linecap="round" stroke-linejoin="round"/>
    <path d="M 46.70701217651367 135.8087921142578 C 49.79291915893555 134.7282257080078 43.55344772338867 137.58721923828125 46.943389892578125 135.78749084472656" stroke-width="2.0843923091888428" fill="none" stroke="rgb(166, 173, 117)" stroke-opacity="0.0343335" stroke-linecap="round" stroke-linejoin="round"/>
    <path d="M 156.76547241210938 126.1578140258789 C 159.78965759277344 125.65263366699219 157.96875 126.0540771484375 157.16506958007812 125.99942016601562" stroke-width="1.995770812034607" fill="none" stroke="rgb(117, 171, 106)" stroke-opacity="-0.004225133" stroke-linecap="round" stroke-linejoin="round"/>
    <path d="M 32.44829559326172 121.00782775878906 C 32.81436538696289 119.73637390136719 34.56858825683594 125.2941665649414 34.482723236083984 123.40320587158203" stroke-width="2.0655555725097656" fill="none" stroke="rgb(171, 187, 183)" stroke-opacity="0.019554203" stroke-linecap="round" stroke-linejoin="round"/>
    <path d="M 51.2534065246582 114.23011016845703 C 50.16276168823242 113.92628479003906 55.97211456298828 114.08354949951172 56.5140495300293 114.72415924072266" stroke-width="2.008869171142578" fill="none" stroke="rgb(206, 161, 221)" stroke-opacity="0.015599489" stroke-linecap="round" stroke-linejoin="round"/>
    <path d="M 58.501827239990234 221.59848022460938 C 56.66245651245117 221.55239868164062 53.35499954223633 219.29083251953125 54.90114974975586 219.95547485351562" stroke-width="1.982714295387268" fill="none" stroke="rgb(135, 189, 123)" stroke-opacity="0.04336268" stroke-linecap="round" stroke-linejoin="round"/>
    <path d="M 12.618281364440918 11.295302391052246 C 13.698018074035645 11.497262001037598 14.67354965209961 11.615401268005371 13.920501708984375 11.46340560913086" stroke-width="2.2443315982818604" fill="none" stroke="rgb(159, 185, 135)" stroke-opacity="0.07940618" stroke-linecap="round" stroke-linejoin="round"/>
    <path d="M 183.4077911376953 10.334542274475098 C 183.86732482910156 8.502290725708008 184.2425537109375 10.62781047821045 181.254150390625 10.200005531311035" stroke-width="2.0146307945251465" fill="none" stroke="rgb(184, 191, 162)" stroke-opacity="0.033454303" stroke-linecap="round" stroke-linejoin="round"/>
    <path d="M 128.301513671875 94.35468292236328 C 131.52850341796875 83.55973052978516 128.07516479492188 86.37875366210938 118.07608795166016 74.62178802490234" stroke-width="6.19715690612793" fill="none" stroke="rgb(128, 148, 120)" stroke-opacity="0.45016772" stroke-linecap="round" stroke-linejoin="round"/>
    <path d="M 178.56471252441406 76.92770385742188 C 169.59930419921875 70.4954605102539 167.759521484375 70.60560607910156 169.97132873535156 76.91545867919922" stroke-width="3.8728413581848145" fill="none" stroke="rgb(60, 101, 49)" stroke-opacity="0.37855953" stroke-linecap="round" stroke-linejoin="round"/>
    <path d="M 87.26917266845703 68.31709289550781 C 89.54335021972656 65.85613250732422 91.55520629882812 65.13801574707031 90.26258087158203 65.8693618774414" stroke-width="2.481455087661743" fill="none" stroke="rgb(124, 184, 70)" stroke-opacity="0.04501403" stroke-linecap="round" stroke-linejoin="round"/>
    <path d="M 78.02713012695312 12.974790573120117 C 80.02031707763672 14.430068969726562 78.98920440673828 15.815581321716309 79.2879409790039 14.569437026977539" stroke-width="1.9989044666290283" fill="none" stroke="rgb(128, 144, 107)" stroke-opacity="0.0033987463" stroke-linecap="round" stroke-linejoin="round"/>
    <path d="M 72.27898406982422 140.5953369140625 C 70.68492889404297 137.89877319335938 66.59944152832031 137.16055297851562 71.68160247802734 128.68214416503906" stroke-width="2.516166925430298" fill="none" stroke="rgb(110, 118, 86)" stroke-opacity="0.31148314" stroke-linecap="round" stroke-linejoin="round"/>
    <path d="M 163.06565856933594 75.51790618896484 C 151.78294372558594 71.54454803466797 144.16656494140625 80.76709747314453 161.04605102539062 76.72712707519531" stroke-width="11.561457633972168" fill="none" stroke="rgb(16, 0, 29)" stroke-opacity="0.9770232" stroke-linecap="round" stroke-linejoin="round"/>
    <path d="M 182.54519653320312 151.014892578125 C 181.52928161621094 150.3822479248047 184.7635498046875 151.8492431640625 180.5448760986328 150.05067443847656" stroke-width="1.9993740320205688" fill="none" stroke="rgb(118, 154, 122)" stroke-opacity="-0.004554551" stroke-linecap="round" stroke-linejoin="round"/>
    <path d="M 207.41864013671875 213.7519073486328 C 200.86325073242188 212.2046356201172 200.99700927734375 213.5003204345703 190.72528076171875 211.00047302246094" stroke-width="2.5872838497161865" fill="none" stroke="rgb(109, 107, 63)" stroke-opacity="0.43555915" stroke-linecap="round" stroke-linejoin="round"/>
    <path d="M 215.65542602539062 37.37484359741211 C 218.04721069335938 37.03790283203125 218.7421112060547 33.558963775634766 215.9189910888672 34.354095458984375" stroke-width="2.4618470668792725" fill="none" stroke="rgb(196, 92, 214)" stroke-opacity="0.070775054" stroke-linecap="round" stroke-linejoin="round"/>
  </g>
</svg>
