<?xml version="1.0" ?>
<svg xmlns="http://www.w3.org/2000/svg" version="1.1" width="224" height="224">
  <defs/>
  <g>
    <path d="M 204.2982177734375 124.08235931396484 C 180.01441955566406 123.775390625 202.73304748535156 125.32478332519531 190.21583557128906 118.51905059814453" stroke-width="3.0" fill="none" stroke="rgb(0, 0, 0)" stroke-opacity="0.005593038" stroke-linecap="round" stroke-linejoin="round"/>
    <path d="M 65.7961196899414 138.24740600585938 C 132.21409606933594 173.24090576171875 225.77377319335938 256.0861511230469 74.52350616455078 126.32431030273438" stroke-width="3.0" fill="none" stroke="rgb(-1, 0, 2)" stroke-opacity="0.039675742" stroke-linecap="round" stroke-linejoin="round"/>
    <path d="M 126.21803283691406 33.60889434814453 C 63.53392791748047 54.99229431152344 111.97279357910156 5.059225559234619 151.55686950683594 43.723087310791016" stroke-width="3.0" fill="none" stroke="rgb(-2, 1, 1)" stroke-opacity="0.14070922" stroke-linecap="round" stroke-linejoin="round"/>
    <path d="M 114.74034118652344 58.663490295410156 C 140.0833282470703 19.053119659423828 142.2202606201172 71.02799224853516 156.93460083007812 46.985538482666016" stroke-width="3.0" fill="none" stroke="rgb(0, 3, -3)" stroke-opacity="0.25903207" stroke-linecap="round" stroke-linejoin="round"/>
    <path d="M 86.2713623046875 63.994384765625 C 28.199413299560547 45.08487319946289 77.1760025024414 37.221099853515625 87.028076171875 61.83891296386719" stroke-width="3.0" fill="none" stroke="rgb(0, 1, -1)" stroke-opacity="0.17569432" stroke-linecap="round" stroke-linejoin="round"/>
    <path d="M 128.9418182373047 58.63564682006836 C 116.53150177001953 41.55497360229492 166.43789672851562 59.06704330444336 126.27389526367188 60.275840759277344" stroke-width="3.0" fill="none" stroke="rgb(2, -2, 1)" stroke-opacity="0.6212615" stroke-linecap="round" stroke-linejoin="round"/>
    <path d="M 212.1635284423828 72.00172424316406 C 204.64869689941406 103.10877990722656 160.97117614746094 28.70033073425293 196.88580322265625 89.39884185791016" stroke-width="3.0" fill="none" stroke="rgb(0, 0, 1)" stroke-opacity="0.00463681" stroke-linecap="round" stroke-linejoin="round"/>
    <path d="M 126.54413604736328 70.75325775146484 C 49.410282135009766 40.3233642578125 152.2082977294922 62.25334548950195 94.21739959716797 79.43407440185547" stroke-width="3.0" fill="none" stroke="rgb(-4, 2, 2)" stroke-opacity="0.1687466" stroke-linecap="round" stroke-linejoin="round"/>
    <path d="M 40.045814514160156 245.13214111328125 C 62.48623275756836 185.52932739257812 55.888397216796875 209.21763610839844 66.2875747680664 191.82833862304688" stroke-width="3.0" fill="none" stroke="rgb(-2, 2, 1)" stroke-opacity="0.14691323" stroke-linecap="round" stroke-linejoin="round"/>
    <path d="M 113.9583511352539 53.208377838134766 C 57.27667236328125 23.28382682800293 113.66715240478516 102.3585205078125 54.91185760498047 45.20100402832031" stroke-width="3.0" fill="none" stroke="rgb(0, 0, 0)" stroke-opacity="0.27921817" stroke-linecap="round" stroke-linejoin="round"/>
    <path d="M 134.58056640625 37.999847412109375 C 105.23566436767578 32.1542854309082 179.94735717773438 5.980226039886475 100.49293518066406 74.22892761230469" stroke-width="3.0" fill="none" stroke="rgb(-2, 2, 0)" stroke-opacity="0.08507609" stroke-linecap="round" stroke-linejoin="round"/>
    <path d="M 92.47036743164062 116.85289764404297 C 130.79591369628906 125.5521011352539 106.94142150878906 95.802734375 146.74703979492188 131.83987426757812" stroke-width="3.0" fill="none" stroke="rgb(1, 0, 0)" stroke-opacity="0.23548964" stroke-linecap="round" stroke-linejoin="round"/>
    <path d="M 153.9237060546875 69.94977569580078 C 85.42195129394531 109.103759765625 41.7675666809082 12.883354187011719 87.19880676269531 54.79231643676758" stroke-width="3.0" fill="none" stroke="rgb(-1, 2, 0)" stroke-opacity="0.09428518" stroke-linecap="round" stroke-linejoin="round"/>
    <path d="M 29.48832130432129 173.63978576660156 C 19.97317886352539 150.82391357421875 21.00153350830078 168.00535583496094 69.72991180419922 116.2215805053711" stroke-width="3.0" fill="none" stroke="rgb(0, 0, 0)" stroke-opacity="0.006507416" stroke-linecap="round" stroke-linejoin="round"/>
    <path d="M 154.58697509765625 112.46571350097656 C 138.17481994628906 116.28321075439453 71.63382720947266 107.01907348632812 148.5651092529297 140.60809326171875" stroke-width="3.0" fill="none" stroke="rgb(2, -1, 0)" stroke-opacity="0.15258226" stroke-linecap="round" stroke-linejoin="round"/>
    <path d="M 124.8205795288086 113.85211944580078 C 177.7484588623047 75.18692016601562 185.9346466064453 195.94384765625 116.16747283935547 134.08934020996094" stroke-width="3.0" fill="none" stroke="rgb(0, 0, 0)" stroke-opacity="0.10679136" stroke-linecap="round" stroke-linejoin="round"/>
    <path d="M 74.22993469238281 38.71383285522461 C 137.5204315185547 -12.24655532836914 11.493552207946777 112.18382263183594 96.24649047851562 34.7624626159668" stroke-width="3.0" fill="none" stroke="rgb(-1, 1, 0)" stroke-opacity="0.044506893" stroke-linecap="round" stroke-linejoin="round"/>
    <path d="M 159.76983642578125 137.61766052246094 C 136.23109436035156 91.42399597167969 170.8683624267578 69.7052001953125 174.81585693359375 161.27406311035156" stroke-width="3.0" fill="none" stroke="rgb(-2, 1, 2)" stroke-opacity="0.07093272" stroke-linecap="round" stroke-linejoin="round"/>
    <path d="M 108.83567810058594 74.10857391357422 C 157.31834411621094 68.27887725830078 113.17777252197266 110.26484680175781 81.35513305664062 64.99583435058594" stroke-width="3.0" fill="none" stroke="rgb(-1, -1, 2)" stroke-opacity="0.23280245" stroke-linecap="round" stroke-linejoin="round"/>
    <path d="M 101.35626220703125 238.06109619140625 C 95.8558578491211 105.91481018066406 81.66726684570312 171.1014404296875 56.85704803466797 225.034423828125" stroke-width="3.0" fill="none" stroke="rgb(-4, 4, 4)" stroke-opacity="0.072284654" stroke-linecap="round" stroke-linejoin="round"/>
    <path d="M 196.6374053955078 38.461814880371094 C 190.56808471679688 29.734357833862305 141.43588256835938 42.8890266418457 157.70358276367188 26.42296600341797" stroke-width="3.0" fill="none" stroke="rgb(-1, 0, 1)" stroke-opacity="0.11146784" stroke-linecap="round" stroke-linejoin="round"/>
    <path d="M 223.8627471923828 158.685302734375 C 196.43167114257812 157.52230834960938 140.58900451660156 140.6981964111328 220.3039093017578 155.8541717529297" stroke-width="3.0" fill="none" stroke="rgb(0, 0, 0)" stroke-opacity="0.0082265455" stroke-linecap="round" stroke-linejoin="round"/>
    <path d="M 80.93025207519531 142.3353729248047 C 73.4994125366211 326.7569274902344 104.98052215576172 327.2291259765625 81.11154174804688 121.40721130371094" stroke-width="3.0" fill="none" stroke="rgb(0, 0, 1)" stroke-opacity="0.04406345" stroke-linecap="round" stroke-linejoin="round"/>
    <path d="M 158.72357177734375 88.1597671508789 C 60.4755973815918 140.77207946777344 119.75230407714844 109.91934204101562 66.75675201416016 109.33777618408203" stroke-width="3.0" fill="none" stroke="rgb(0, 0, 0)" stroke-opacity="0.08290148" stroke-linecap="round" stroke-linejoin="round"/>
    <path d="M 165.27127075195312 107.51618194580078 C 168.30076599121094 166.71498107910156 178.99502563476562 63.18283462524414 129.08676147460938 109.46021270751953" stroke-width="3.0" fill="none" stroke="rgb(4, -4, -3)" stroke-opacity="0.36395606" stroke-linecap="round" stroke-linejoin="round"/>
    <path d="M 66.06815338134766 133.70330810546875 C 82.01676177978516 72.80000305175781 115.75048065185547 75.36011505126953 87.58732604980469 111.10198974609375" stroke-width="3.0" fill="none" stroke="rgb(-2, 0, 4)" stroke-opacity="0.1414051" stroke-linecap="round" stroke-linejoin="round"/>
    <path d="M -8.071867942810059 84.9525146484375 C -11.4296236038208 89.41764831542969 -15.551758766174316 94.11410522460938 -15.607759475708008 94.00120544433594" stroke-width="3.0" fill="none" stroke="rgb(0, 0, 0)" stroke-opacity="0.9266837" stroke-linecap="round" stroke-linejoin="round"/>
    <path d="M 105.80610656738281 58.861141204833984 C 126.58428192138672 15.302506446838379 151.003173828125 -14.121766090393066 101.70763397216797 33.7418212890625" stroke-width="3.0" fill="none" stroke="rgb(0, 0, 0)" stroke-opacity="0.03165246" stroke-linecap="round" stroke-linejoin="round"/>
    <path d="M 189.29864501953125 39.61788558959961 C 158.33773803710938 38.295345306396484 134.45211791992188 72.69029998779297 170.28387451171875 56.906585693359375" stroke-width="3.0" fill="none" stroke="rgb(1, 3, -3)" stroke-opacity="0.3545285" stroke-linecap="round" stroke-linejoin="round"/>
    <path d="M 37.00205612182617 153.12057495117188 C 34.950828552246094 182.1026611328125 43.9196662902832 182.61407470703125 39.946250915527344 178.4377899169922" stroke-width="3.0" fill="none" stroke="rgb(-4, 2, 4)" stroke-opacity="0.136901" stroke-linecap="round" stroke-linejoin="round"/>
    <path d="M 21.709728240966797 -16.255062103271484 C 29.91143798828125 -21.779497146606445 27.55513572692871 -15.330768585205078 68.53996276855469 108.53401184082031" stroke-width="3.0" fill="none" stroke="rgb(4, -4, 2)" stroke-opacity="0.3392596" stroke-linecap="round" stroke-linejoin="round"/>
    <path d="M 69.72783660888672 181.9955291748047 C 33.71731185913086 191.5651397705078 39.359596252441406 167.4708251953125 40.764747619628906 177.4292755126953" stroke-width="3.0" fill="none" stroke="rgb(-2, 1, 2)" stroke-opacity="0.096425384" stroke-linecap="round" stroke-linejoin="round"/>
    <path d="M 179.711181640625 21.82221794128418 C 198.90621948242188 6.600076675415039 182.39854431152344 21.130979537963867 198.5725860595703 18.733112335205078" stroke-width="3.0" fill="none" stroke="rgb(0, 0, 0)" stroke-opacity="0.004252945" stroke-linecap="round" stroke-linejoin="round"/>
    <path d="M 139.354736328125 61.43880844116211 C 58.95840072631836 154.43698120117188 97.79410552978516 106.5482177734375 153.24343872070312 68.69451904296875" stroke-width="3.0" fill="none" stroke="rgb(-3, 1, 2)" stroke-opacity="0.10967489" stroke-linecap="round" stroke-linejoin="round"/>
    <path d="M 177.61338806152344 111.61540985107422 C 169.82701110839844 66.30645751953125 162.03929138183594 126.73690032958984 153.422119140625 39.45087432861328" stroke-width="3.0" fill="none" stroke="rgb(-1, 1, 1)" stroke-opacity="0.08260524" stroke-linecap="round" stroke-linejoin="round"/>
    <path d="M 36.0815315246582 159.08230590820312 C 57.36183166503906 112.7076644897461 76.29856872558594 117.6800537109375 78.68411254882812 111.84144592285156" stroke-width="3.0" fill="none" stroke="rgb(-3, 0, 3)" stroke-opacity="0.29926425" stroke-linecap="round" stroke-linejoin="round"/>
    <path d="M 153.83946228027344 60.117549896240234 C 124.69175720214844 110.83839416503906 169.8326873779297 56.35368728637695 160.82333374023438 89.80693817138672" stroke-width="3.0" fill="none" stroke="rgb(0, 0, 0)" stroke-opacity="0.072219856" stroke-linecap="round" stroke-linejoin="round"/>
    <path d="M 39.471519470214844 -12.738320350646973 C 72.81291961669922 93.73790740966797 80.35910034179688 117.13713073730469 70.56102752685547 86.10799407958984" stroke-width="3.0" fill="none" stroke="rgb(3, -2, -2)" stroke-opacity="0.3250571" stroke-linecap="round" stroke-linejoin="round"/>
    <path d="M 164.91653442382812 174.77088928222656 C 149.05722045898438 195.24996948242188 133.6405029296875 177.42630004882812 105.03825378417969 158.1016387939453" stroke-width="3.0" fill="none" stroke="rgb(-2, 1, 2)" stroke-opacity="0.10136806" stroke-linecap="round" stroke-linejoin="round"/>
    <path d="M 184.59706115722656 62.223167419433594 C 201.22348022460938 76.74412536621094 205.5054473876953 82.8343734741211 210.06478881835938 69.82024383544922" stroke-width="3.0" fill="none" stroke="rgb(0, 0, 0)" stroke-opacity="0.0060898564" stroke-linecap="round" stroke-linejoin="round"/>
    <path d="M 78.92947387695312 120.33125305175781 C 61.03007888793945 243.23439025878906 39.354705810546875 116.46160888671875 48.3958854675293 169.9457244873047" stroke-width="3.0" fill="none" stroke="rgb(0, 0, 0)" stroke-opacity="0.016006563" stroke-linecap="round" stroke-linejoin="round"/>
    <path d="M 116.1596450805664 25.160999298095703 C 117.52277374267578 88.68162536621094 99.70320892333984 9.481470108032227 112.7961196899414 31.83123779296875" stroke-width="3.0" fill="none" stroke="rgb(-1, 1, -2)" stroke-opacity="0.20726863" stroke-linecap="round" stroke-linejoin="round"/>
    <path d="M 31.016050338745117 -10.436441421508789 C 35.11043167114258 -0.09714851528406143 38.777679443359375 28.99738883972168 33.039127349853516 -5.6249823570251465" stroke-width="3.0" fill="none" stroke="rgb(0, 0, 0)" stroke-opacity="-0.00011552802" stroke-linecap="round" stroke-linejoin="round"/>
    <path d="M 226.06826782226562 100.42081451416016 C 228.53028869628906 96.84558868408203 225.9536590576172 98.42375946044922 225.78128051757812 99.75048828125" stroke-width="3.0" fill="none" stroke="rgb(0, 0, 0)" stroke-opacity="0.0" stroke-linecap="round" stroke-linejoin="round"/>
    <path d="M 153.32513427734375 6.368481159210205 C 158.66290283203125 6.5135674476623535 158.03846740722656 3.2411630153656006 150.26370239257812 5.481163024902344" stroke-width="3.0" fill="none" stroke="rgb(0, 0, 0)" stroke-opacity="0.0029804432" stroke-linecap="round" stroke-linejoin="round"/>
    <path d="M 164.12045288085938 101.70512390136719 C 188.21334838867188 145.40269470214844 160.45655822753906 92.28793334960938 139.781005859375 100.72640228271484" stroke-width="3.0" fill="none" stroke="rgb(4, -1, -4)" stroke-opacity="0.16773872" stroke-linecap="round" stroke-linejoin="round"/>
    <path d="M 96.60594940185547 61.1649284362793 C 130.1659393310547 55.41870880126953 79.8156967163086 45.26563262939453 99.6253890991211 59.743080139160156" stroke-width="3.0" fill="none" stroke="rgb(-1, -1, 2)" stroke-opacity="0.49501917" stroke-linecap="round" stroke-linejoin="round"/>
    <path d="M 228.95816040039062 134.27569580078125 C 225.68959045410156 136.66363525390625 228.02134704589844 136.97119140625 229.78048706054688 133.3927001953125" stroke-width="3.0" fill="none" stroke="rgb(0, 0, 0)" stroke-opacity="0.67721903" stroke-linecap="round" stroke-linejoin="round"/>
    <path d="M -7.33896541595459 125.56974792480469 C -5.6792893409729 124.73638916015625 -6.750126838684082 134.38302612304688 -9.533900260925293 143.32188415527344" stroke-width="3.0" fill="none" stroke="rgb(0, 0, 0)" stroke-opacity="0.88221675" stroke-linecap="round" stroke-linejoin="round"/>
    <path d="M 137.6935272216797 57.55073165893555 C 72.16032409667969 41.330665588378906 85.44015502929688 96.5556411743164 126.4422607421875 39.706016540527344" stroke-width="3.0" fill="none" stroke="rgb(-2, 0, 3)" stroke-opacity="0.17559014" stroke-linecap="round" stroke-linejoin="round"/>
    <path d="M 188.661865234375 39.85700607299805 C 172.31869506835938 60.198909759521484 153.19338989257812 70.20986938476562 175.68136596679688 39.966880798339844" stroke-width="3.0" fill="none" stroke="rgb(-2, 2, -2)" stroke-opacity="0.08234626" stroke-linecap="round" stroke-linejoin="round"/>
    <path d="M 96.88976287841797 40.92677688598633 C 160.46669006347656 55.7460823059082 50.65106964111328 45.130035400390625 107.42869567871094 35.181846618652344" stroke-width="3.0" fill="none" stroke="rgb(1, 0, -2)" stroke-opacity="0.15309596" stroke-linecap="round" stroke-linejoin="round"/>
    <path d="M 119.17981719970703 69.22663879394531 C 117.08029174804688 -33.18587875366211 90.22364044189453 71.9195556640625 84.73677062988281 76.02951049804688" stroke-width="3.0" fill="none" stroke="rgb(-1, 2, -2)" stroke-opacity="0.066287905" stroke-linecap="round" stroke-linejoin="round"/>
    <path d="M 209.04806518554688 -4.827850818634033 C 202.75411987304688 -6.840277671813965 203.36541748046875 -9.51968002319336 206.76368713378906 -5.843804836273193" stroke-width="3.0" fill="none" stroke="rgb(0, 0, 0)" stroke-opacity="0.7115423" stroke-linecap="round" stroke-linejoin="round"/>
    <path d="M 200.50509643554688 58.94806671142578 C 176.0701904296875 42.19895935058594 176.1823272705078 39.76821517944336 167.78482055664062 78.28125" stroke-width="3.0" fill="none" stroke="rgb(0, 0, 0)" stroke-opacity="0.0029719495" stroke-linecap="round" stroke-linejoin="round"/>
    <path d="M 97.93885803222656 52.204071044921875 C 67.3897705078125 76.39735412597656 103.28252410888672 24.98566246032715 114.12052154541016 55.447853088378906" stroke-width="3.0" fill="none" stroke="rgb(2, -1, 0)" stroke-opacity="0.3266093" stroke-linecap="round" stroke-linejoin="round"/>
    <path d="M 176.0968017578125 160.45018005371094 C 136.99246215820312 190.7886199951172 115.3237075805664 132.68919372558594 83.30084228515625 117.62187957763672" stroke-width="3.0" fill="none" stroke="rgb(-1, 2, 0)" stroke-opacity="0.08343842" stroke-linecap="round" stroke-linejoin="round"/>
    <path d="M 142.16082763671875 15.850041389465332 C 197.68150329589844 73.24010467529297 117.74933624267578 -24.96453094482422 82.08483123779297 38.54316711425781" stroke-width="3.0" fill="none" stroke="rgb(-2, 1, 0)" stroke-opacity="0.12568618" stroke-linecap="round" stroke-linejoin="round"/>
    <path d="M 150.83193969726562 89.57054138183594 C 60.516876220703125 99.02729034423828 36.49840545654297 113.1358871459961 158.2825927734375 76.34004974365234" stroke-width="3.0" fill="none" stroke="rgb(-1, -1, 2)" stroke-opacity="0.10437145" stroke-linecap="round" stroke-linejoin="round"/>
    <path d="M 110.18789672851562 88.45484924316406 C 32.06937026977539 55.08749771118164 170.9827423095703 117.35234832763672 154.67828369140625 48.789390563964844" stroke-width="3.0" fill="none" stroke="rgb(0, -2, 2)" stroke-opacity="0.20945947" stroke-linecap="round" stroke-linejoin="round"/>
    <path d="M 135.51226806640625 56.605491638183594 C 107.0138931274414 51.969398498535156 134.23342895507812 81.44617462158203 144.7841033935547 64.32275390625" stroke-width="3.0" fill="none" stroke="rgb(0, 1, -1)" stroke-opacity="0.28662223" stroke-linecap="round" stroke-linejoin="round"/>
    <path d="M 82.96489715576172 146.6417694091797 C 57.35047149658203 86.41584014892578 54.60367202758789 180.5778350830078 78.34136962890625 143.58218383789062" stroke-width="3.0" fill="none" stroke="rgb(-2, 0, 2)" stroke-opacity="0.20563246" stroke-linecap="round" stroke-linejoin="round"/>
    <path d="M 77.42855072021484 156.35826110839844 C 85.8006362915039 189.93685913085938 45.18622589111328 173.8069305419922 73.56031799316406 177.01327514648438" stroke-width="3.0" fill="none" stroke="rgb(0, 0, 1)" stroke-opacity="0.028663613" stroke-linecap="round" stroke-linejoin="round"/>
    <path d="M 111.96481323242188 56.83778762817383 C 205.04490661621094 142.6337890625 160.98533630371094 82.26654815673828 77.17212677001953 93.07796478271484" stroke-width="3.0" fill="none" stroke="rgb(-1, 2, 0)" stroke-opacity="0.05125141" stroke-linecap="round" stroke-linejoin="round"/>
  </g>
</svg>
