<?xml version="1.0" ?>
<svg xmlns="http://www.w3.org/2000/svg" version="1.1" width="224" height="224">
  <defs/>
  <g>
    <path d="M 146.181640625 64.13017272949219 C 232.11660766601562 69.6796875 76.81922912597656 63.93069076538086 227.22145080566406 83.03878021240234" stroke-width="3.0" fill="none" stroke="rgb(-2, 0, 4)" stroke-opacity="0.055704523" stroke-linecap="round" stroke-linejoin="round"/>
    <path d="M 66.56942749023438 119.44148254394531 C -158.47767639160156 134.66249084472656 66.14714813232422 89.57720184326172 88.38958740234375 117.36121368408203" stroke-width="3.0" fill="none" stroke="rgb(0, -1, 3)" stroke-opacity="0.07173765" stroke-linecap="round" stroke-linejoin="round"/>
    <path d="M 1.2658883333206177 202.46934509277344 C 38.32280349731445 205.10792541503906 -23.30735206604004 197.3324432373047 45.36412048339844 202.80352783203125" stroke-width="3.0" fill="none" stroke="rgb(0, 0, 0)" stroke-opacity="0.03574443" stroke-linecap="round" stroke-linejoin="round"/>
    <path d="M 160.006103515625 142.801025390625 C 136.19586181640625 61.7138786315918 107.41046905517578 85.52872467041016 151.5 118.8200912475586" stroke-width="3.0" fill="none" stroke="rgb(0, 2, -1)" stroke-opacity="0.22436367" stroke-linecap="round" stroke-linejoin="round"/>
    <path d="M 73.02154541015625 100.94005584716797 C 112.43359375 129.66900634765625 76.65394592285156 121.08881378173828 75.86735534667969 103.45222473144531" stroke-width="3.0" fill="none" stroke="rgb(2, -1, 0)" stroke-opacity="0.23335488" stroke-linecap="round" stroke-linejoin="round"/>
    <path d="M 207.71157836914062 24.348264694213867 C 249.89505004882812 23.458364486694336 105.41801452636719 36.48048782348633 215.07394409179688 10.043449401855469" stroke-width="3.0" fill="none" stroke="rgb(0, 0, 1)" stroke-opacity="0.017094912" stroke-linecap="round" stroke-linejoin="round"/>
    <path d="M 138.4675750732422 158.09271240234375 C 64.73416900634766 135.18309020996094 80.19206237792969 175.1675262451172 72.14805603027344 101.15715026855469" stroke-width="3.0" fill="none" stroke="rgb(-2, 1, 2)" stroke-opacity="0.0734211" stroke-linecap="round" stroke-linejoin="round"/>
    <path d="M 105.8516616821289 89.92730712890625 C 167.49456787109375 174.01925659179688 115.31155395507812 121.15048217773438 157.6788787841797 150.25733947753906" stroke-width="3.0" fill="none" stroke="rgb(-1, 2, -2)" stroke-opacity="0.41110846" stroke-linecap="round" stroke-linejoin="round"/>
    <path d="M 131.60211181640625 140.26756286621094 C 102.14501190185547 130.11903381347656 112.80011749267578 124.1473159790039 139.11813354492188 144.3914337158203" stroke-width="3.0" fill="none" stroke="rgb(-1, -1, 2)" stroke-opacity="0.43669048" stroke-linecap="round" stroke-linejoin="round"/>
    <path d="M 36.79950714111328 144.7705841064453 C 53.51141357421875 161.7710723876953 7.652429103851318 137.2118377685547 117.49778747558594 154.69422912597656" stroke-width="3.0" fill="none" stroke="rgb(0, 0, -1)" stroke-opacity="0.27137733" stroke-linecap="round" stroke-linejoin="round"/>
    <path d="M 100.43701934814453 147.17532348632812 C 17.81262969970703 135.03611755371094 -0.1824045181274414 162.40711975097656 111.76412200927734 161.213134765625" stroke-width="3.0" fill="none" stroke="rgb(-2, 1, 1)" stroke-opacity="0.257706" stroke-linecap="round" stroke-linejoin="round"/>
    <path d="M 12.258235931396484 177.76905822753906 C 453.5023193359375 190.43089294433594 369.9892578125 134.0033721923828 168.29238891601562 159.4485626220703" stroke-width="3.0" fill="none" stroke="rgb(-2, 2, 2)" stroke-opacity="0.34411553" stroke-linecap="round" stroke-linejoin="round"/>
    <path d="M 223.83827209472656 102.97382354736328 C 195.9684295654297 172.2533416748047 191.52223205566406 137.06680297851562 168.1001739501953 150.11474609375" stroke-width="3.0" fill="none" stroke="rgb(-4, 0, 4)" stroke-opacity="0.3417501" stroke-linecap="round" stroke-linejoin="round"/>
    <path d="M 238.8960723876953 169.16688537597656 C -12.265942573547363 171.26405334472656 -21.367137908935547 163.09483337402344 117.95883178710938 170.4514617919922" stroke-width="3.0" fill="none" stroke="rgb(-3, -1, 2)" stroke-opacity="0.2965592" stroke-linecap="round" stroke-linejoin="round"/>
    <path d="M 129.37576293945312 71.05989837646484 C -91.02965545654297 87.08997344970703 -35.239593505859375 109.51565551757812 103.98168182373047 81.91477966308594" stroke-width="3.0" fill="none" stroke="rgb(0, 1, 3)" stroke-opacity="0.043558214" stroke-linecap="round" stroke-linejoin="round"/>
    <path d="M 120.3776626586914 109.56591033935547 C 77.21586608886719 97.19902801513672 44.65538787841797 78.47050476074219 102.91268157958984 129.2112274169922" stroke-width="3.0" fill="none" stroke="rgb(-1, 0, 2)" stroke-opacity="0.14376107" stroke-linecap="round" stroke-linejoin="round"/>
    <path d="M 105.07203674316406 103.87335205078125 C 119.80890655517578 70.12947845458984 97.34676361083984 136.60299682617188 105.88410186767578 92.85273742675781" stroke-width="3.0" fill="none" stroke="rgb(2, 0, -2)" stroke-opacity="0.34268516" stroke-linecap="round" stroke-linejoin="round"/>
    <path d="M 223.40643310546875 71.429443359375 C 110.63887023925781 54.56779479980469 63.46935272216797 52.524051666259766 216.9773712158203 46.963035583496094" stroke-width="3.0" fill="none" stroke="rgb(0, 1, 1)" stroke-opacity="0.03929939" stroke-linecap="round" stroke-linejoin="round"/>
    <path d="M 152.57192993164062 157.3325958251953 C 108.63786315917969 36.5865364074707 134.79159545898438 55.1590690612793 162.0554962158203 151.29249572753906" stroke-width="3.0" fill="none" stroke="rgb(-2, 2, -1)" stroke-opacity="0.26858675" stroke-linecap="round" stroke-linejoin="round"/>
    <path d="M 13.002900123596191 219.9364013671875 C -14.887673377990723 224.17117309570312 -34.62717819213867 205.04327392578125 55.94349670410156 214.6771240234375" stroke-width="3.0" fill="none" stroke="rgb(1, 0, 1)" stroke-opacity="0.045204986" stroke-linecap="round" stroke-linejoin="round"/>
    <path d="M 226.87802124023438 92.31262969970703 C 140.45535278320312 78.98011016845703 205.74122619628906 111.96192932128906 164.38455200195312 73.9423828125" stroke-width="3.0" fill="none" stroke="rgb(0, 1, 0)" stroke-opacity="0.085461035" stroke-linecap="round" stroke-linejoin="round"/>
    <path d="M 221.24082946777344 33.63282012939453 C -49.612205505371094 60.25147247314453 -20.60634994506836 65.55741119384766 222.3219757080078 55.752010345458984" stroke-width="3.0" fill="none" stroke="rgb(1, 2, -1)" stroke-opacity="0.02632505" stroke-linecap="round" stroke-linejoin="round"/>
    <path d="M -16.152854919433594 155.58726501464844 C 144.40625 147.7112274169922 150.16207885742188 186.1736602783203 -10.255352973937988 164.9633026123047" stroke-width="3.0" fill="none" stroke="rgb(-3, 0, 2)" stroke-opacity="0.1549427" stroke-linecap="round" stroke-linejoin="round"/>
    <path d="M -5.760275840759277 57.87620162963867 C -4.422187328338623 62.36520767211914 -4.501709461212158 58.19923400878906 -2.5091633796691895 54.52460479736328" stroke-width="3.0" fill="none" stroke="rgb(0, 0, 0)" stroke-opacity="0.70353496" stroke-linecap="round" stroke-linejoin="round"/>
    <path d="M 53.02482223510742 139.76397705078125 C 153.98277282714844 142.87908935546875 54.83515167236328 134.42356872558594 140.10765075683594 171.34927368164062" stroke-width="3.0" fill="none" stroke="rgb(-1, 0, 2)" stroke-opacity="0.21665691" stroke-linecap="round" stroke-linejoin="round"/>
    <path d="M 11.798069953918457 173.3693084716797 C 75.77313232421875 173.7670135498047 102.58985137939453 182.17225646972656 -7.858561992645264 180.947021484375" stroke-width="3.0" fill="none" stroke="rgb(0, 0, 0)" stroke-opacity="0.11222193" stroke-linecap="round" stroke-linejoin="round"/>
    <path d="M 98.52252960205078 129.61166381835938 C 83.21607971191406 109.0713882446289 95.64668273925781 121.88875579833984 107.90345001220703 134.88668823242188" stroke-width="3.0" fill="none" stroke="rgb(-1, 0, 1)" stroke-opacity="0.32659495" stroke-linecap="round" stroke-linejoin="round"/>
    <path d="M 176.83526611328125 81.00473022460938 C 122.3807373046875 52.00581741333008 113.44275665283203 44.20505142211914 147.4575653076172 106.52789306640625" stroke-width="3.0" fill="none" stroke="rgb(-1, 0, 1)" stroke-opacity="0.11647392" stroke-linecap="round" stroke-linejoin="round"/>
    <path d="M 239.9378204345703 101.68978118896484 C 142.60150146484375 113.4271469116211 223.98121643066406 92.64837646484375 166.47276306152344 150.36807250976562" stroke-width="3.0" fill="none" stroke="rgb(-3, 2, 3)" stroke-opacity="0.23495176" stroke-linecap="round" stroke-linejoin="round"/>
    <path d="M 104.17439270019531 84.35011291503906 C 139.49945068359375 95.31355285644531 175.52294921875 136.06764221191406 112.94490051269531 87.36343383789062" stroke-width="3.0" fill="none" stroke="rgb(-2, 0, 2)" stroke-opacity="0.19213247" stroke-linecap="round" stroke-linejoin="round"/>
    <path d="M 129.53033447265625 136.21986389160156 C -55.303382873535156 116.3503189086914 212.4358673095703 149.0991668701172 49.03025817871094 133.32968139648438" stroke-width="3.0" fill="none" stroke="rgb(-2, 1, 3)" stroke-opacity="0.16374274" stroke-linecap="round" stroke-linejoin="round"/>
    <path d="M 128.2056427001953 133.04530334472656 C 38.934810638427734 43.426414489746094 161.3348846435547 150.95994567871094 77.53369140625 149.19200134277344" stroke-width="3.0" fill="none" stroke="rgb(-3, 2, 2)" stroke-opacity="0.15821455" stroke-linecap="round" stroke-linejoin="round"/>
  </g>
</svg>
