<?xml version="1.0" ?>
<svg xmlns="http://www.w3.org/2000/svg" version="1.1" width="224" height="224">
  <defs/>
  <g>
    <path d="M 233.61488342285156 93.18294525146484 C 149.29266357421875 103.36682891845703 203.87123107910156 89.97079467773438 147.0383758544922 64.55305480957031" stroke-width="3.0" fill="none" stroke="rgb(-4, -1, 4)" stroke-opacity="0.10330047" stroke-linecap="round" stroke-linejoin="round"/>
    <path d="M 48.54522705078125 135.7754669189453 C 113.94392395019531 117.09561920166016 35.72683334350586 120.22924041748047 -17.542383193969727 123.76228332519531" stroke-width="3.0" fill="none" stroke="rgb(-3, 0, 3)" stroke-opacity="0.0960233" stroke-linecap="round" stroke-linejoin="round"/>
    <path d="M -0.9280967116355896 194.4434814453125 C 91.69268798828125 194.2118377685547 81.58100891113281 179.00973510742188 -3.5416014194488525 185.36766052246094" stroke-width="3.0" fill="none" stroke="rgb(-2, 0, 4)" stroke-opacity="0.047312275" stroke-linecap="round" stroke-linejoin="round"/>
    <path d="M 116.2186050415039 72.90206146240234 C -106.9576644897461 36.622398376464844 36.79404067993164 40.283809661865234 221.35975646972656 70.70640563964844" stroke-width="3.0" fill="none" stroke="rgb(0, 2, -2)" stroke-opacity="0.02696064" stroke-linecap="round" stroke-linejoin="round"/>
    <path d="M 76.21117401123047 103.15345764160156 C 73.67755889892578 110.26651763916016 110.76535034179688 133.62838745117188 72.93781280517578 99.9892578125" stroke-width="3.0" fill="none" stroke="rgb(3, -2, 0)" stroke-opacity="0.3801046" stroke-linecap="round" stroke-linejoin="round"/>
    <path d="M 215.55718994140625 13.941044807434082 C 163.80007934570312 22.8531494140625 235.37657165527344 8.102141380310059 173.6831817626953 15.668438911437988" stroke-width="3.0" fill="none" stroke="rgb(0, 0, 0)" stroke-opacity="0.010789568" stroke-linecap="round" stroke-linejoin="round"/>
    <path d="M 90.09015655517578 116.37696075439453 C 91.68154907226562 135.99993896484375 146.2041473388672 151.50296020507812 34.151248931884766 146.1667022705078" stroke-width="3.0" fill="none" stroke="rgb(0, 0, 0)" stroke-opacity="0.2084526" stroke-linecap="round" stroke-linejoin="round"/>
    <path d="M 185.9552459716797 123.82617950439453 C 157.31541442871094 181.73007202148438 135.3195037841797 141.59815979003906 105.55038452148438 91.62886810302734" stroke-width="3.0" fill="none" stroke="rgb(-2, 2, 1)" stroke-opacity="0.26981425" stroke-linecap="round" stroke-linejoin="round"/>
    <path d="M 92.2493667602539 118.80513763427734 C 129.54733276367188 162.72552490234375 86.65167999267578 113.77581787109375 137.5626220703125 142.8994598388672" stroke-width="3.0" fill="none" stroke="rgb(-2, 0, 2)" stroke-opacity="0.37826896" stroke-linecap="round" stroke-linejoin="round"/>
    <path d="M 139.37371826171875 172.2162628173828 C 57.6945686340332 112.98297882080078 -17.853214263916016 156.0850067138672 95.1041488647461 170.69569396972656" stroke-width="3.0" fill="none" stroke="rgb(-1, 0, 2)" stroke-opacity="0.17168434" stroke-linecap="round" stroke-linejoin="round"/>
    <path d="M 31.268186569213867 163.68504333496094 C 47.31207275390625 170.17901611328125 -19.046850204467773 143.9537353515625 111.01856994628906 161.95046997070312" stroke-width="3.0" fill="none" stroke="rgb(-2, 3, 1)" stroke-opacity="0.27991185" stroke-linecap="round" stroke-linejoin="round"/>
    <path d="M 237.76585388183594 155.9004364013672 C 117.32400512695312 162.62725830078125 252.95518493652344 156.48594665527344 167.51568603515625 158.14910888671875" stroke-width="3.0" fill="none" stroke="rgb(-2, 0, 1)" stroke-opacity="0.47265035" stroke-linecap="round" stroke-linejoin="round"/>
    <path d="M 236.5352783203125 154.22915649414062 C 180.14598083496094 127.46784973144531 195.80410766601562 179.27099609375 186.928466796875 121.17951202392578" stroke-width="3.0" fill="none" stroke="rgb(-1, 1, 1)" stroke-opacity="0.40845296" stroke-linecap="round" stroke-linejoin="round"/>
    <path d="M 239.2327880859375 192.74884033203125 C -18.125865936279297 200.23455810546875 92.8150634765625 160.77468872070312 2.282329797744751 177.3531951904297" stroke-width="3.0" fill="none" stroke="rgb(-1, 1, 0)" stroke-opacity="0.07125246" stroke-linecap="round" stroke-linejoin="round"/>
    <path d="M -14.671469688415527 107.24600219726562 C -11.678343772888184 102.78351593017578 65.44788360595703 110.54997253417969 69.90390014648438 112.06678771972656" stroke-width="3.0" fill="none" stroke="rgb(0, 0, 0)" stroke-opacity="0.054953653" stroke-linecap="round" stroke-linejoin="round"/>
    <path d="M 151.9083709716797 160.56787109375 C 123.68799591064453 93.16424560546875 84.52799224853516 80.5667953491211 117.29071044921875 134.65074157714844" stroke-width="3.0" fill="none" stroke="rgb(-2, 2, 2)" stroke-opacity="0.17890656" stroke-linecap="round" stroke-linejoin="round"/>
    <path d="M 161.1842498779297 149.71774291992188 C 130.6076202392578 120.03451538085938 155.48858642578125 113.04251861572266 105.77164459228516 84.3325424194336" stroke-width="3.0" fill="none" stroke="rgb(-2, 1, 1)" stroke-opacity="0.28500602" stroke-linecap="round" stroke-linejoin="round"/>
    <path d="M 229.41146850585938 83.607666015625 C 67.57454681396484 65.3963851928711 279.7644348144531 81.06832885742188 140.69956970214844 63.071170806884766" stroke-width="3.0" fill="none" stroke="rgb(-2, 0, 4)" stroke-opacity="0.047231983" stroke-linecap="round" stroke-linejoin="round"/>
    <path d="M 161.03976440429688 150.44796752929688 C 152.28956604003906 111.21734619140625 140.58631896972656 85.81526947021484 128.9331512451172 67.91460418701172" stroke-width="3.0" fill="none" stroke="rgb(0, 2, -3)" stroke-opacity="0.42422783" stroke-linecap="round" stroke-linejoin="round"/>
    <path d="M -3.6053731441497803 217.3067626953125 C 118.11625671386719 188.5067596435547 103.2843246459961 177.49708557128906 -13.047172546386719 212.19863891601562" stroke-width="3.0" fill="none" stroke="rgb(-2, 1, 2)" stroke-opacity="0.03443076" stroke-linecap="round" stroke-linejoin="round"/>
    <path d="M 128.79261779785156 58.22956085205078 C 231.1352081298828 93.44854736328125 139.9254608154297 122.05502319335938 231.2975616455078 98.33711242675781" stroke-width="3.0" fill="none" stroke="rgb(-1, 0, 2)" stroke-opacity="0.11044896" stroke-linecap="round" stroke-linejoin="round"/>
    <path d="M 231.9701385498047 48.2703971862793 C 95.494384765625 46.652191162109375 56.696659088134766 52.282936096191406 226.641845703125 60.00830078125" stroke-width="3.0" fill="none" stroke="rgb(1, 1, -3)" stroke-opacity="0.029550042" stroke-linecap="round" stroke-linejoin="round"/>
    <path d="M -10.263060569763184 166.33114624023438 C 420.34619140625 167.10693359375 369.32196044921875 180.6137237548828 11.114553451538086 178.62399291992188" stroke-width="3.0" fill="none" stroke="rgb(-2, 0, 2)" stroke-opacity="0.30280477" stroke-linecap="round" stroke-linejoin="round"/>
    <path d="M -4.500407695770264 59.50392150878906 C -7.120683670043945 68.29545593261719 -7.000097751617432 61.707393646240234 -3.7925405502319336 53.793922424316406" stroke-width="3.0" fill="none" stroke="rgb(0, 0, 0)" stroke-opacity="0.76586324" stroke-linecap="round" stroke-linejoin="round"/>
  </g>
</svg>
