<?xml version="1.0" ?>
<svg xmlns="http://www.w3.org/2000/svg" version="1.1" width="224" height="224">
  <defs/>
  <g>
    <path d="M 128.9305419921875 60.91495132446289 C 286.7447204589844 100.18680572509766 223.31817626953125 129.1089630126953 156.48193359375 69.0811538696289" stroke-width="3.0" fill="none" stroke="rgb(-3, 1, 3)" stroke-opacity="0.06846567" stroke-linecap="round" stroke-linejoin="round"/>
    <path d="M -10.37800121307373 112.09872436523438 C 159.49742126464844 156.87876892089844 126.84708404541016 118.496337890625 -5.684706687927246 107.1747055053711" stroke-width="3.0" fill="none" stroke="rgb(-1, 0, 1)" stroke-opacity="0.061645" stroke-linecap="round" stroke-linejoin="round"/>
    <path d="M 67.3949966430664 203.88133239746094 C -19.316753387451172 199.6229705810547 -71.06234741210938 215.41317749023438 62.18210983276367 214.78271484375" stroke-width="3.0" fill="none" stroke="rgb(0, 0, 1)" stroke-opacity="0.049978644" stroke-linecap="round" stroke-linejoin="round"/>
    <path d="M 164.27978515625 153.4329071044922 C 125.95113372802734 41.4793586730957 134.0679168701172 77.44760131835938 128.83985900878906 94.76272583007812" stroke-width="3.0" fill="none" stroke="rgb(-1, 3, -3)" stroke-opacity="0.35189718" stroke-linecap="round" stroke-linejoin="round"/>
    <path d="M 77.97833251953125 107.18598175048828 C 102.7486801147461 126.10433197021484 70.11605834960938 157.06637573242188 73.72269439697266 101.96135711669922" stroke-width="3.0" fill="none" stroke="rgb(-1, 1, 1)" stroke-opacity="0.13467924" stroke-linecap="round" stroke-linejoin="round"/>
    <path d="M 163.37887573242188 6.40210485458374 C 240.82452392578125 19.54796028137207 138.4180908203125 -4.387233257293701 222.1273193359375 7.545193195343018" stroke-width="3.0" fill="none" stroke="rgb(0, 0, 1)" stroke-opacity="0.014230781" stroke-linecap="round" stroke-linejoin="round"/>
    <path d="M 37.635780334472656 145.10989379882812 C 152.25418090820312 156.0346221923828 106.65975189208984 110.20954895019531 49.75825881958008 137.64657592773438" stroke-width="3.0" fill="none" stroke="rgb(-3, 0, 2)" stroke-opacity="0.20426568" stroke-linecap="round" stroke-linejoin="round"/>
    <path d="M 101.1590576171875 103.90929412841797 C 180.81454467773438 176.10357666015625 111.9666519165039 123.5445785522461 111.18146514892578 134.2198486328125" stroke-width="3.0" fill="none" stroke="rgb(-2, 2, 1)" stroke-opacity="0.3417586" stroke-linecap="round" stroke-linejoin="round"/>
    <path d="M 71.43932342529297 100.50162506103516 C 115.37725067138672 136.58551025390625 109.8797378540039 134.3141326904297 78.25891876220703 104.14320373535156" stroke-width="3.0" fill="none" stroke="rgb(1, 0, -1)" stroke-opacity="0.35092732" stroke-linecap="round" stroke-linejoin="round"/>
    <path d="M 141.49806213378906 168.41647338867188 C 82.90526580810547 139.8753662109375 84.74002075195312 167.20338439941406 34.2977180480957 149.89633178710938" stroke-width="3.0" fill="none" stroke="rgb(-2, 2, 1)" stroke-opacity="0.31218284" stroke-linecap="round" stroke-linejoin="round"/>
    <path d="M 102.29586791992188 165.22714233398438 C -12.265467643737793 142.1611328125 -73.14667510986328 176.78392028808594 107.69400787353516 186.33168029785156" stroke-width="3.0" fill="none" stroke="rgb(-1, 1, 0)" stroke-opacity="0.091318846" stroke-linecap="round" stroke-linejoin="round"/>
    <path d="M 241.534423828125 164.13381958007812 C -131.04421997070312 164.78887939453125 -111.67706298828125 183.09527587890625 235.32896423339844 176.7789306640625" stroke-width="3.0" fill="none" stroke="rgb(-2, 0, 2)" stroke-opacity="0.2751107" stroke-linecap="round" stroke-linejoin="round"/>
    <path d="M 190.57662963867188 156.8335723876953 C 193.0411376953125 120.14855194091797 115.62772369384766 172.56776428222656 215.8424530029297 145.03134155273438" stroke-width="3.0" fill="none" stroke="rgb(-2, 0, 2)" stroke-opacity="0.38874716" stroke-linecap="round" stroke-linejoin="round"/>
    <path d="M 43.19062423706055 134.30931091308594 C -145.50454711914062 201.36927795410156 -95.75922393798828 195.77066040039062 229.3321075439453 193.1623077392578" stroke-width="3.0" fill="none" stroke="rgb(-2, 2, 1)" stroke-opacity="0.046838697" stroke-linecap="round" stroke-linejoin="round"/>
    <path d="M 4.907720565795898 91.15919494628906 C 163.17018127441406 72.408203125 199.22024536132812 140.55238342285156 -9.861676216125488 93.31412506103516" stroke-width="3.0" fill="none" stroke="rgb(1, 2, -3)" stroke-opacity="0.03834971" stroke-linecap="round" stroke-linejoin="round"/>
    <path d="M 159.67713928222656 150.16439819335938 C 56.75834274291992 37.54018020629883 141.68968200683594 123.6105728149414 80.63098907470703 96.40087890625" stroke-width="3.0" fill="none" stroke="rgb(-2, 2, 2)" stroke-opacity="0.26101816" stroke-linecap="round" stroke-linejoin="round"/>
  </g>
</svg>
