<?xml version="1.0" ?>
<svg xmlns="http://www.w3.org/2000/svg" version="1.1" width="224" height="224">
  <defs/>
  <g>
    <path d="M 124.42162322998047 36.38475799560547 C 99.04143524169922 -13.115964889526367 142.21060180664062 65.96187591552734 129.91798400878906 24.700153350830078" stroke-width="3.0" fill="none" stroke="rgb(1, -1, 0)" stroke-opacity="0.48522735" stroke-linecap="round" stroke-linejoin="round"/>
    <path d="M 37.48280715942383 47.33599090576172 C 119.55708312988281 63.2685546875 123.1189956665039 81.24342346191406 29.997440338134766 58.57406997680664" stroke-width="3.0" fill="none" stroke="rgb(2, -2, 1)" stroke-opacity="0.07559063" stroke-linecap="round" stroke-linejoin="round"/>
    <path d="M 129.41806030273438 54.19091796875 C 112.05860137939453 6.025083065032959 107.58467102050781 53.52644348144531 139.347412109375 56.35116195678711" stroke-width="3.0" fill="none" stroke="rgb(2, -3, 3)" stroke-opacity="0.340197" stroke-linecap="round" stroke-linejoin="round"/>
    <path d="M 192.28431701660156 54.3883056640625 C 145.81419372558594 103.7844467163086 182.3010711669922 76.3087387084961 181.64390563964844 156.90362548828125" stroke-width="3.0" fill="none" stroke="rgb(-3, 0, 3)" stroke-opacity="0.21953823" stroke-linecap="round" stroke-linejoin="round"/>
    <path d="M 22.091650009155273 -8.746498107910156 C 27.287092208862305 -9.068704605102539 27.459884643554688 -7.559991359710693 19.141752243041992 -5.135823726654053" stroke-width="3.0" fill="none" stroke="rgb(0, 0, 0)" stroke-opacity="0.7722212" stroke-linecap="round" stroke-linejoin="round"/>
    <path d="M 97.2413101196289 61.93661117553711 C 83.57237243652344 62.63816452026367 101.40937805175781 92.17267608642578 78.08174896240234 45.34157943725586" stroke-width="3.0" fill="none" stroke="rgb(-1, 0, 1)" stroke-opacity="0.34003" stroke-linecap="round" stroke-linejoin="round"/>
    <path d="M 181.7835235595703 247.13084411621094 C 190.90533447265625 145.9131317138672 161.09783935546875 131.41226196289062 178.50128173828125 235.58282470703125" stroke-width="3.0" fill="none" stroke="rgb(-2, 2, 2)" stroke-opacity="0.121983945" stroke-linecap="round" stroke-linejoin="round"/>
    <path d="M 201.3572998046875 61.854862213134766 C 237.79835510253906 175.21849060058594 174.07518005371094 104.1365966796875 196.14678955078125 229.94223022460938" stroke-width="3.0" fill="none" stroke="rgb(-2, 1, 2)" stroke-opacity="0.27342564" stroke-linecap="round" stroke-linejoin="round"/>
    <path d="M 166.7903594970703 244.94244384765625 C 165.72682189941406 154.2669677734375 135.21780395507812 92.66748809814453 152.7790069580078 237.3317108154297" stroke-width="3.0" fill="none" stroke="rgb(-1, 0, 2)" stroke-opacity="0.25329363" stroke-linecap="round" stroke-linejoin="round"/>
    <path d="M 154.89755249023438 58.760704040527344 C 95.27005767822266 62.702789306640625 208.3797149658203 10.309779167175293 136.0168914794922 59.50294494628906" stroke-width="3.0" fill="none" stroke="rgb(-3, 2, 2)" stroke-opacity="0.100515604" stroke-linecap="round" stroke-linejoin="round"/>
    <path d="M 115.8184585571289 50.297420501708984 C 67.30899810791016 -49.72064208984375 201.0511474609375 31.608949661254883 85.59375 14.115842819213867" stroke-width="3.0" fill="none" stroke="rgb(0, -1, 2)" stroke-opacity="0.25077832" stroke-linecap="round" stroke-linejoin="round"/>
    <path d="M 87.29834747314453 139.84681701660156 C 111.0586166381836 146.81442260742188 89.73006439208984 224.63133239746094 105.38291931152344 250.2465057373047" stroke-width="3.0" fill="none" stroke="rgb(-1, -2, 2)" stroke-opacity="0.27908564" stroke-linecap="round" stroke-linejoin="round"/>
    <path d="M 186.33726501464844 199.14576721191406 C 234.3898162841797 112.45209503173828 190.11611938476562 144.6329345703125 199.27281188964844 198.73939514160156" stroke-width="3.0" fill="none" stroke="rgb(0, -1, 1)" stroke-opacity="0.03809396" stroke-linecap="round" stroke-linejoin="round"/>
    <path d="M 46.593746185302734 37.099483489990234 C 21.79388427734375 48.31413650512695 75.85072326660156 -2.420553684234619 98.48272705078125 19.875295639038086" stroke-width="3.0" fill="none" stroke="rgb(-2, -3, 2)" stroke-opacity="0.36790994" stroke-linecap="round" stroke-linejoin="round"/>
    <path d="M 82.5742416381836 46.52708053588867 C 92.74393463134766 84.98686981201172 110.76040649414062 60.549312591552734 112.77224731445312 46.915531158447266" stroke-width="3.0" fill="none" stroke="rgb(-1, 0, 2)" stroke-opacity="0.3696702" stroke-linecap="round" stroke-linejoin="round"/>
    <path d="M 28.074867248535156 106.36396789550781 C 29.940797805786133 115.7903060913086 27.327800750732422 140.91053771972656 40.21730041503906 166.20822143554688" stroke-width="3.0" fill="none" stroke="rgb(-1, 2, -2)" stroke-opacity="0.35492557" stroke-linecap="round" stroke-linejoin="round"/>
    <path d="M 12.158864974975586 0.720374584197998 C -4.769423961639404 42.05690383911133 -7.69558572769165 66.86605072021484 15.324311256408691 -0.024457894265651703" stroke-width="3.0" fill="none" stroke="rgb(0, 0, 1)" stroke-opacity="0.006620895" stroke-linecap="round" stroke-linejoin="round"/>
    <path d="M 95.52312469482422 56.033653259277344 C 41.43185806274414 21.47166633605957 130.70712280273438 33.13491439819336 81.93438720703125 36.60662078857422" stroke-width="3.0" fill="none" stroke="rgb(-2, 2, 2)" stroke-opacity="0.31460306" stroke-linecap="round" stroke-linejoin="round"/>
    <path d="M 51.72132110595703 87.85584259033203 C 35.647857666015625 126.73579406738281 53.080894470214844 148.2489471435547 40.92369079589844 176.80128479003906" stroke-width="3.0" fill="none" stroke="rgb(-2, -1, 2)" stroke-opacity="0.22397266" stroke-linecap="round" stroke-linejoin="round"/>
    <path d="M 67.77481079101562 75.32022094726562 C 4.987954616546631 183.0118865966797 28.017711639404297 139.92501831054688 68.37600708007812 36.50788497924805" stroke-width="3.0" fill="none" stroke="rgb(1, -3, 3)" stroke-opacity="0.036819868" stroke-linecap="round" stroke-linejoin="round"/>
    <path d="M 195.4625701904297 152.8021697998047 C 170.8296356201172 208.04034423828125 102.82999420166016 102.67858123779297 126.64125061035156 54.920989990234375" stroke-width="3.0" fill="none" stroke="rgb(2, -3, 2)" stroke-opacity="0.3446351" stroke-linecap="round" stroke-linejoin="round"/>
    <path d="M 168.45761108398438 87.76302337646484 C 95.7263412475586 11.493107795715332 185.7750701904297 20.968421936035156 106.14830017089844 6.31451940536499" stroke-width="3.0" fill="none" stroke="rgb(1, -2, 1)" stroke-opacity="0.2723221" stroke-linecap="round" stroke-linejoin="round"/>
    <path d="M 80.51434326171875 30.511234283447266 C 105.60726928710938 -1.0198745727539062 121.54573059082031 72.5612564086914 102.45382690429688 30.90340232849121" stroke-width="3.0" fill="none" stroke="rgb(1, -1, -1)" stroke-opacity="0.34552547" stroke-linecap="round" stroke-linejoin="round"/>
    <path d="M -5.5983967781066895 163.07583618164062 C -5.701610565185547 168.92904663085938 -8.744627952575684 164.52444458007812 -9.43636703491211 163.2517547607422" stroke-width="3.0" fill="none" stroke="rgb(0, 0, 0)" stroke-opacity="0.8327359" stroke-linecap="round" stroke-linejoin="round"/>
    <path d="M 99.82117462158203 56.75927734375 C 90.47246551513672 26.773839950561523 90.02714538574219 64.30004119873047 101.41816711425781 54.255977630615234" stroke-width="3.0" fill="none" stroke="rgb(0, 3, -4)" stroke-opacity="0.53517246" stroke-linecap="round" stroke-linejoin="round"/>
    <path d="M 83.87732696533203 72.73910522460938 C 41.8726921081543 75.73611450195312 42.234493255615234 105.06766510009766 77.47813415527344 61.25511169433594" stroke-width="3.0" fill="none" stroke="rgb(-2, -1, 2)" stroke-opacity="0.07636951" stroke-linecap="round" stroke-linejoin="round"/>
    <path d="M 46.87572479248047 51.2744255065918 C -15.864509582519531 80.41270446777344 21.786903381347656 154.18881225585938 36.0217399597168 182.23651123046875" stroke-width="3.0" fill="none" stroke="rgb(-2, 1, 2)" stroke-opacity="0.31607825" stroke-linecap="round" stroke-linejoin="round"/>
    <path d="M 87.48307800292969 74.65858459472656 C 97.85319519042969 141.42466735839844 54.8120231628418 192.23533630371094 88.00495147705078 119.37247467041016" stroke-width="3.0" fill="none" stroke="rgb(3, -3, 2)" stroke-opacity="0.469914" stroke-linecap="round" stroke-linejoin="round"/>
    <path d="M 13.915660858154297 37.31425857543945 C 30.473163604736328 -18.156753540039062 11.409735679626465 41.29154968261719 38.48507308959961 6.1895527839660645" stroke-width="3.0" fill="none" stroke="rgb(0, 0, 0)" stroke-opacity="0.009153683" stroke-linecap="round" stroke-linejoin="round"/>
    <path d="M 130.6088104248047 76.53570556640625 C 148.4804229736328 166.39625549316406 111.17698669433594 -182.86563110351562 167.20188903808594 207.40223693847656" stroke-width="3.0" fill="none" stroke="rgb(-3, 2, 3)" stroke-opacity="0.0858555" stroke-linecap="round" stroke-linejoin="round"/>
    <path d="M 151.77828979492188 1.1093802452087402 C 238.9757080078125 44.882625579833984 177.88687133789062 318.7977294921875 183.37542724609375 55.21038055419922" stroke-width="3.0" fill="none" stroke="rgb(-2, 2, 3)" stroke-opacity="0.13352306" stroke-linecap="round" stroke-linejoin="round"/>
    <path d="M 123.3218765258789 65.3867416381836 C 137.79205322265625 36.4786491394043 145.20213317871094 95.0718994140625 132.65196228027344 22.89674186706543" stroke-width="3.0" fill="none" stroke="rgb(1, -2, 3)" stroke-opacity="0.38310918" stroke-linecap="round" stroke-linejoin="round"/>
  </g>
</svg>
