<svg width="1920" height="360" viewBox="0 0 1920 360" fill="none" xmlns="http://www.w3.org/2000/svg">
<g clip-path="url(#clip0)">
<rect width="1920" height="360" fill="url(#paint0_linear)"/>
<g opacity="0.2">
<path opacity="0.4" d="M459.796 145.334L460.068 145.606C460.612 145.606 460.883 145.334 460.883 144.791L461.427 142.072C461.699 140.169 462.243 137.451 463.058 133.917L463.602 131.742C464.146 128.48 465.233 125.218 466.048 121.684C466.864 118.151 467.951 114.889 469.039 111.083C469.582 109.452 470.126 107.821 470.67 105.646C475.291 92.3262 480.999 79.5499 487.523 68.1328C495.135 54.541 504.649 41.221 514.979 29.2602C525.309 17.2994 537.269 5.88224 549.774 -3.90386C560.104 -12.0589 572.065 -19.6703 584.569 -26.1944C586.472 -27.0099 588.647 -28.0972 590.278 -29.1846C593.54 -30.8156 596.53 -32.1748 599.248 -33.2621C600.335 -33.8058 601.151 -34.0776 602.238 -34.6213C603.326 -35.165 604.413 -35.7086 605.5 -36.2523L621.539 -41.9608C621.81 -42.2327 622.082 -42.5046 622.082 -43.0482L621.811 -43.3201C621.539 -43.5919 621.267 -43.8637 620.995 -43.5919L604.957 -37.8833C603.869 -37.3396 602.782 -36.796 601.423 -36.5242C600.335 -35.9805 599.52 -35.7086 598.433 -35.1649C595.714 -34.0776 592.724 -32.7184 589.462 -31.0874C587.287 -30 585.384 -29.1845 583.482 -28.369C570.705 -21.5731 559.288 -13.9617 548.415 -5.80666C535.91 3.97944 523.95 15.3965 513.62 27.3573C503.29 39.3181 493.776 52.6381 486.164 66.2299C479.368 77.9189 473.66 90.6952 469.039 104.015C468.495 105.646 467.951 107.277 467.408 108.908C466.32 112.714 464.961 116.248 464.146 119.782C463.058 123.587 462.243 127.121 461.427 130.111L460.884 132.286C460.068 135.82 459.524 138.538 459.253 140.441L458.709 143.16C459.252 144.791 459.524 145.062 459.796 145.334Z" fill="white"/>
<path d="M410.047 235.31C410.319 235.582 410.319 235.582 410.862 235.582C411.406 235.582 411.406 235.038 411.678 234.766L410.862 231.233C410.591 230.417 410.591 229.33 410.319 228.514C410.047 226.611 409.503 224.437 409.231 221.447C409.231 219.815 408.96 218.456 408.688 216.553C408.144 213.291 407.872 209.758 407.872 205.952C407.6 204.593 407.6 203.505 407.6 201.874C407.329 199.971 407.329 198.34 407.329 196.166L407.057 185.564C406.785 168.438 408.416 151.585 411.134 135.274C414.125 116.518 419.561 97.4892 426.357 79.8198C433.153 62.1505 442.124 44.4811 452.453 28.7146C461.152 15.1228 471.754 1.80279 483.443 -10.9735L490.782 -18.8567L497.85 -25.3808C500.84 -28.371 503.83 -30.8175 506.549 -32.9922C507.636 -34.0795 508.724 -34.6232 509.811 -35.7105C513.073 -38.4289 515.519 -40.3318 517.15 -41.9628L520.141 -44.4093C520.412 -44.6812 520.412 -45.2247 520.141 -45.4966C519.869 -45.7684 519.325 -45.7685 519.053 -45.4967L516.335 -43.322C514.16 -41.691 511.714 -39.7881 508.452 -37.0697C507.636 -36.2542 506.549 -35.1669 505.461 -34.6232C502.743 -32.4485 499.753 -30.002 496.763 -27.0118L489.695 -20.4877L482.355 -12.6045C470.666 0.171837 460.065 14.0354 451.366 27.6273C441.036 43.3938 432.066 61.6069 425.27 79.2762C418.474 96.9456 413.037 116.518 410.047 135.274C407.329 151.585 405.969 168.71 405.969 186.108L406.241 196.709C406.513 198.612 406.513 200.787 406.513 202.418C406.513 204.049 406.513 205.136 406.785 206.496C407.057 210.573 407.329 214.107 407.872 217.369L407.872 217.913C408.144 219.272 408.144 220.903 408.416 222.262C408.688 225.252 408.96 227.699 409.503 229.33C409.503 230.417 409.775 231.233 410.047 232.048L410.862 235.582C410.319 235.038 410.047 235.31 410.047 235.31Z" fill="white"/>
<circle cx="412" cy="236.001" r="2" fill="white"/>
<circle cx="460" cy="50.001" r="2" fill="white"/>
<circle cx="303" cy="272.001" r="2" fill="white"/>
<circle cx="340" cy="328.001" r="3" fill="white"/>
<path d="M339.909 235.85C340.181 236.122 340.724 236.122 340.996 235.85C340.996 235.85 341.268 235.578 341.268 235.034C341.268 234.491 340.996 233.131 340.724 230.685L339.093 218.18C338.55 212.744 338.278 206.492 337.734 198.88C337.734 196.705 337.462 194.803 337.462 192.628C337.462 186.648 337.19 180.395 337.19 173.871C337.734 152.668 340.181 131.737 343.986 111.621C348.608 88.5147 355.947 64.8649 365.19 43.118C374.432 21.3711 386.393 -0.3758 399.713 -19.6762C411.673 -37.0737 425.537 -53.6557 439.673 -67.7912C451.633 -79.752 463.594 -90.0817 472.837 -97.1495L482.623 -104.761L486.157 -107.207C486.428 -107.479 486.428 -108.023 486.157 -108.295C485.885 -108.567 485.341 -108.567 485.069 -108.295L481.535 -105.848L471.749 -98.2368C462.507 -91.1691 450.818 -80.5675 438.313 -68.6067C424.178 -54.4712 410.043 -37.6174 398.082 -20.2199C384.49 -0.64767 372.529 21.0993 363.287 42.8462C354.044 64.593 346.433 88.5146 341.812 111.621C337.734 132.008 335.288 152.94 334.744 174.143C334.472 180.939 334.744 187.191 334.744 193.172C334.744 195.346 334.744 197.521 335.016 199.424C335.559 207.035 336.103 213.559 336.375 218.724L338.006 231.229C338.278 233.675 338.55 235.034 338.55 235.578C339.637 235.578 339.637 235.578 339.909 235.85Z" fill="white"/>
<path d="M572.877 -167.824C573.149 -167.552 573.149 -167.552 573.692 -167.552L578.042 -169.183C578.857 -169.455 580.217 -169.727 581.576 -170.542C584.022 -171.358 587.012 -172.173 590.275 -173.261L592.449 -173.804C603.051 -176.794 617.73 -180.6 635.127 -183.318C656.874 -186.58 678.621 -188.212 700.096 -187.94C724.562 -187.396 750.386 -184.406 774.036 -179.241C797.957 -173.804 822.694 -165.921 844.713 -155.863C864.285 -147.164 883.042 -136.563 901.527 -124.058L912.672 -116.175L922.458 -108.564C926.536 -105.573 930.07 -102.583 933.332 -99.8647C934.963 -98.2337 936.594 -97.1464 937.953 -95.7873C940.943 -93.3407 943.39 -90.8942 945.292 -88.9914C946.108 -88.1759 950.457 -83.8265 950.457 -83.8265C950.729 -83.5547 951.273 -83.5547 951.545 -83.8265C951.817 -84.0983 951.817 -84.642 951.545 -84.9138C951.545 -84.9138 947.195 -89.2632 946.38 -90.0787C944.477 -91.9815 942.03 -94.428 938.768 -97.1464C937.409 -98.5055 935.778 -99.593 934.419 -100.952C931.157 -103.671 927.351 -106.933 923.274 -109.923L913.488 -117.534L902.342 -125.417C883.857 -137.922 864.557 -148.524 845.529 -157.222C822.966 -167.28 798.501 -175.435 774.308 -180.6C750.386 -186.037 724.561 -189.027 699.824 -189.299C678.349 -189.571 656.331 -188.212 634.584 -184.949C616.914 -182.503 602.507 -178.425 591.905 -175.435L589.731 -174.892C586.197 -174.076 583.479 -172.989 581.032 -172.173C579.673 -171.901 578.586 -171.358 577.77 -171.086L573.421 -169.455C573.421 -169.455 573.149 -169.183 572.877 -168.911C572.605 -168.639 572.877 -168.368 572.877 -167.824Z" fill="white"/>
<path d="M301.584 271.464C301.856 271.735 301.856 271.735 302.4 271.735C302.943 271.735 302.943 271.192 302.943 270.648L300.225 257.056L297.779 242.105C297.235 239.931 297.235 237.756 296.691 235.038C296.691 233.407 296.419 232.047 296.147 230.145C295.332 223.892 294.788 216.825 294.245 209.213L293.701 202.145C292.614 178.224 293.701 154.846 296.691 131.74C300.225 105.372 306.205 78.1881 314.904 53.1792C323.331 27.8985 335.02 2.61761 348.612 -20.2166C360.301 -40.0607 374.164 -59.361 389.659 -77.5741C402.707 -93.3406 415.212 -104.758 424.182 -113.185C427.172 -116.175 429.891 -118.349 432.065 -119.98C433.153 -121.068 434.24 -121.611 435.056 -122.427L438.861 -125.689C439.133 -125.961 439.133 -126.505 438.861 -126.776C438.59 -127.048 438.046 -127.048 437.774 -126.776L433.968 -123.514C433.153 -122.699 432.337 -121.883 430.978 -121.068C428.804 -119.437 426.357 -116.99 423.367 -114.544C414.124 -105.845 401.892 -94.156 388.572 -78.6613C373.077 -60.4483 359.214 -41.1479 347.525 -21.3039C333.933 1.53037 322.516 27.083 313.817 52.0919C305.39 77.3727 298.866 104.556 295.604 131.196C292.614 154.302 291.798 177.952 292.885 201.874L293.429 208.941C293.973 216.009 294.245 223.349 295.332 229.873C295.604 231.232 295.604 232.863 295.876 234.222C296.147 236.669 296.419 239.115 296.691 241.562L299.953 260.59L301.856 270.104C301.312 271.192 301.312 271.192 301.584 271.464Z" fill="white"/>
<path opacity="0.4" d="M310.824 368.779C311.096 369.051 311.64 369.05 311.64 369.05C311.912 368.779 311.912 368.779 312.183 368.507C312.455 368.235 312.183 367.963 312.183 367.963L309.737 363.342C308.921 361.439 307.562 358.993 306.475 355.731C305.659 353.828 304.844 351.925 303.756 349.75C300.223 341.867 293.427 324.741 286.087 300.004C279.563 277.714 274.67 252.161 272.223 226.88C269.233 198.337 269.233 168.979 272.223 141.524C275.214 113.525 280.922 84.4381 289.077 57.7982C296.689 33.3329 306.475 9.41127 317.348 -11.2483C326.319 -28.374 336.105 -44.6841 344.532 -56.373L348.337 -61.8099C349.969 -64.5283 351.871 -66.9746 352.959 -68.6056L355.949 -72.6833C356.221 -72.9551 356.221 -73.4988 355.949 -73.7706C355.677 -74.0424 355.133 -74.0425 354.862 -73.7707L351.6 -69.4213C350.24 -67.5184 348.609 -65.3437 346.978 -62.6253L343.173 -57.1886C334.474 -45.2278 324.96 -29.1895 315.717 -11.792C304.844 8.86756 295.058 32.7891 287.446 57.2544C279.019 84.1662 273.311 113.253 270.321 141.252C267.602 168.979 267.602 198.337 270.592 226.88C273.311 252.433 277.932 277.714 284.728 300.276C291.796 325.285 298.863 342.139 302.397 350.022C303.485 352.197 304.3 354.1 304.844 355.731C306.475 358.993 307.29 361.439 308.106 363.342L310.824 368.779Z" fill="white"/>
<path d="M350.515 -119.979C350.787 -119.707 351.331 -119.707 351.603 -119.979C351.603 -119.979 352.69 -121.61 355.408 -124.328L366.282 -135.745C374.437 -144.444 388.301 -157.764 408.145 -173.802C427.717 -189.569 450.823 -205.064 475.016 -218.384C501.384 -232.791 530.743 -245.295 559.829 -254.266C588.916 -263.237 620.177 -269.489 650.079 -272.207C676.447 -274.654 703.359 -274.925 730.542 -272.751C736.251 -272.479 741.959 -271.663 747.396 -271.12C749.299 -270.848 750.93 -270.848 752.561 -270.304C756.095 -270.032 759.357 -269.489 762.619 -268.945L790.346 -264.052L802.579 -261.606L808.016 -259.974L808.559 -259.974C808.831 -260.246 808.831 -260.246 809.103 -260.518C809.375 -260.79 809.103 -261.062 808.831 -261.334L808.559 -261.606L803.123 -263.236L776.211 -268.945L763.163 -271.12C759.901 -271.663 756.91 -271.935 753.648 -272.479C751.745 -272.751 749.843 -273.023 748.212 -273.023C743.047 -273.838 737.066 -274.382 731.358 -274.654C704.718 -276.828 677.534 -276.828 650.894 -274.11C620.721 -271.12 589.459 -264.867 560.373 -255.897C531.286 -246.926 501.928 -234.422 475.288 -220.286C451.095 -206.967 427.717 -191.744 408.145 -175.433C388.301 -159.395 374.165 -145.803 366.01 -137.105L355.137 -125.688C352.418 -122.969 351.331 -121.338 351.331 -121.338C350.244 -120.794 350.243 -120.251 350.515 -119.979Z" fill="white"/>
<path d="M267.329 395.961C267.601 396.233 268.145 396.233 268.145 396.233C268.417 395.961 268.417 395.961 268.689 395.689C268.96 395.418 268.688 395.146 268.688 395.146L262.98 383.457L254.281 363.885C253.194 361.166 252.106 358.448 251.019 355.729C250.475 354.098 249.932 352.467 249.116 351.108C245.854 342.953 242.864 333.439 239.602 323.653L238.243 319.575C230.36 292.664 224.651 265.208 221.661 237.753C218.127 206.491 217.583 173.327 220.302 142.338C223.02 110.805 229 78.1847 237.971 48.5545C245.854 22.1864 256.184 -3.90978 268.688 -28.9187L272.766 -36.802L284.727 -58.0052C286.358 -60.7236 287.989 -62.8983 289.348 -65.3448C292.61 -70.7816 295.6 -75.4027 298.319 -79.7521L307.561 -93.3439C309.736 -96.606 311.095 -97.9652 311.095 -97.9652C311.367 -98.237 311.367 -98.7806 311.095 -99.0524C310.823 -99.3243 310.279 -99.3243 310.008 -99.0524C310.008 -99.0524 308.92 -97.4214 306.746 -94.1594L297.503 -80.5676C294.513 -76.49 291.795 -71.597 288.533 -66.1603C287.173 -63.7138 285.27 -61.2672 283.911 -58.8207L271.951 -37.6175L267.873 -29.7342C255.369 -4.72526 244.767 21.6429 237.156 48.2828C228.185 78.4566 222.204 111.077 219.486 142.61C216.768 174.143 217.311 207.307 220.845 238.568C223.836 266.024 229.544 293.479 237.699 320.663L239.058 324.74C242.049 334.798 245.311 344.04 248.573 352.196C248.844 353.555 250.476 356.817 250.476 356.817C251.835 359.807 252.65 362.797 254.009 365.244L262.708 384.816L267.329 395.961Z" fill="white"/>
<path d="M297.509 -83.8227C297.781 -83.5509 298.325 -83.5509 298.597 -83.8227L301.859 -88.7159C302.674 -89.5314 303.49 -90.8904 304.305 -92.2496C306.208 -95.2398 308.383 -98.5018 311.645 -102.308C319.528 -112.365 332.304 -129.491 350.246 -147.432C370.09 -167.82 391.021 -186.577 413.04 -202.615C438.32 -221.372 467.135 -238.226 495.95 -251.274C524.764 -264.322 556.026 -274.924 587.015 -281.991C613.927 -288.244 642.741 -292.049 669.925 -293.68L676.177 -293.952C685.963 -294.496 695.206 -294.496 703.633 -294.224L717.496 -293.952L729.185 -293.137C736.797 -292.593 742.233 -292.049 745.767 -291.777L751.748 -291.234C752.291 -291.234 752.563 -291.506 752.563 -292.049C752.563 -292.049 752.563 -292.593 752.291 -292.865L752.019 -293.137L746.311 -293.952C742.777 -294.224 737.612 -295.039 729.729 -295.311L718.04 -296.127L704.176 -296.399C695.749 -296.67 686.507 -296.671 676.721 -296.127L670.469 -295.855C643.013 -294.496 614.47 -290.418 587.287 -284.438C556.297 -277.37 524.764 -266.497 495.95 -253.449C467.135 -240.4 438.32 -223.547 412.496 -204.79C390.477 -188.752 369.002 -169.995 349.43 -149.335C331.761 -131.122 318.713 -114.268 310.829 -104.21C307.839 -100.133 305.393 -96.599 303.49 -94.1524L302.946 -93.6088C302.402 -92.5215 301.315 -91.4342 301.043 -90.6187L297.781 -85.7255C297.238 -84.6381 297.238 -84.0945 297.509 -83.8227Z" fill="white"/>
<path d="M247.216 407.38C247.488 407.652 248.031 407.652 248.031 407.652C248.303 407.38 248.303 407.38 248.575 407.108C248.847 406.837 248.575 406.565 248.575 406.565L245.857 401.128C243.682 396.778 241.507 391.886 238.789 385.361L237.702 383.187C234.983 376.663 231.449 369.323 228.731 360.624C228.187 358.993 227.644 357.906 227.1 356.275L226.828 355.459C225.469 351.926 224.11 348.392 223.294 344.858L217.586 327.189C209.159 299.189 203.45 270.103 199.916 241.56C196.111 208.94 195.567 174.145 198.285 141.524C201.004 108.36 207.256 74.3807 216.498 42.8477C224.653 15.1205 235.255 -12.3349 248.575 -38.703C252.653 -47.1299 256.73 -54.4695 260.536 -61.5372C262.167 -64.2556 263.798 -66.9739 265.157 -69.4204L265.701 -69.9641C271.138 -78.6629 275.759 -86.0025 279.836 -92.2547L293.156 -111.555C293.428 -111.827 293.428 -112.371 293.156 -112.642C292.884 -112.914 292.341 -112.914 292.069 -112.642L278.749 -93.3421C274.671 -87.0899 270.05 -79.7503 264.885 -71.3234L264.613 -70.5079C263.526 -68.3332 262.167 -65.8866 260.808 -63.44L260.264 -62.3528C256.458 -55.2851 252.109 -47.6736 248.031 -39.2467C234.711 -12.8786 224.11 14.5769 215.955 42.3042C206.712 73.8372 200.188 108.089 197.47 141.253C194.48 174.145 195.295 208.668 199.101 241.832C202.363 270.647 208.343 299.461 217.042 327.732L222.751 345.401C223.838 349.207 225.197 352.741 226.556 355.731C227.372 357.634 227.916 359.265 228.459 360.896C231.721 369.595 234.712 376.934 237.702 383.73L238.789 385.905C241.507 392.429 243.954 397.594 246.128 401.943L247.216 407.38Z" fill="white"/>
<path d="M320.88 -204.525C321.152 -204.254 321.696 -204.254 321.968 -204.525L327.676 -209.69C330.666 -212.681 335.016 -216.486 340.452 -221.379C341.54 -222.467 344.802 -225.185 344.802 -225.185C349.967 -229.806 355.947 -234.699 362.743 -239.864L366.549 -242.582C369.811 -245.301 373.345 -247.747 377.15 -250.466L393.46 -261.883C419.828 -279.552 447.828 -295.047 476.099 -307.551C508.447 -321.959 544.058 -333.648 578.853 -341.259C613.648 -348.871 650.617 -353.22 686.228 -353.492C717.217 -354.035 749.022 -351.589 780.011 -346.696C807.467 -342.618 830.301 -336.094 845.252 -332.017C850.689 -330.386 855.31 -329.026 858.844 -327.667L869.174 -324.405L869.717 -324.405C869.717 -324.405 869.989 -324.677 870.261 -324.949C870.533 -325.221 870.261 -325.493 869.989 -325.764L859.388 -329.298C855.582 -330.386 851.233 -332.017 845.796 -333.648C830.845 -337.725 808.011 -344.249 780.555 -348.327C749.294 -353.492 717.761 -355.666 686.228 -355.123C650.617 -354.851 613.376 -350.23 578.581 -342.618C543.786 -335.007 508.175 -323.318 475.283 -308.911C446.74 -296.134 419.013 -280.911 392.373 -262.97L376.063 -251.553C372.257 -248.835 368.995 -246.116 365.461 -243.67L361.384 -240.68C354.588 -235.515 348.607 -230.622 343.443 -226.001L339.093 -222.195C333.385 -217.574 329.307 -213.496 326.045 -210.234L320.336 -205.069C320.608 -205.341 320.608 -204.797 320.88 -204.525Z" fill="white"/>
<path d="M273.043 -199.082C273.315 -198.81 273.859 -198.81 274.131 -199.082L292.344 -218.382L295.606 -221.644C301.042 -227.081 307.295 -232.79 314.362 -239.314C316.809 -241.217 318.984 -243.391 321.43 -245.294C328.498 -251.274 336.381 -258.07 345.08 -264.594C371.72 -285.254 399.991 -303.739 428.805 -318.962C462.241 -336.631 498.939 -351.582 534.822 -361.912C570.704 -372.242 609.576 -379.581 647.09 -382.3C679.71 -385.018 714.233 -384.746 746.582 -381.756L750.388 -381.212C763.164 -379.853 775.397 -378.494 785.998 -376.591L802.308 -373.873L816.172 -370.882C825.143 -368.98 831.395 -367.62 835.472 -366.261L842.268 -364.358L842.812 -364.358C843.084 -364.63 843.084 -364.63 843.356 -364.902C843.627 -365.174 843.356 -365.446 843.084 -365.717L842.812 -365.989L836.016 -367.892C831.667 -368.98 825.686 -370.611 816.716 -372.513L802.852 -375.504L786.27 -378.494C775.668 -380.397 763.436 -381.756 750.659 -383.115L746.854 -383.659C714.505 -386.649 679.982 -386.921 647.09 -383.931C609.576 -380.668 570.704 -373.872 534.55 -363.271C498.396 -352.669 461.698 -338.262 427.99 -320.321C399.175 -305.098 370.632 -286.885 343.993 -265.682C335.294 -259.158 327.411 -252.362 320.071 -246.11C317.624 -244.207 315.45 -242.032 313.003 -240.129C305.935 -233.605 299.683 -227.897 294.246 -222.46L290.713 -218.926L272.228 -199.354C272.771 -199.897 272.772 -199.354 273.043 -199.082Z" fill="white"/>
<path opacity="0.4" d="M82.4862 457.946C82.758 458.218 83.3017 458.218 83.3017 458.218C83.5735 457.946 83.8453 457.674 83.8453 457.13L80.5834 449.519C79.7679 448.16 79.2242 446.529 78.6806 444.898L78.4087 444.626C76.5059 440.005 74.0593 434.84 71.6127 428.044L65.6323 412.277C63.7294 407.112 61.5549 401.132 59.1083 393.792L59.1082 393.249C56.9336 386.725 54.759 379.657 52.5843 372.589L46.0601 348.668C36.274 310.611 30.0219 271.738 27.0317 232.865C23.7697 188.828 24.8569 142.616 30.2936 98.5783C35.7303 54.5408 46.3319 9.14427 60.4674 -32.7185C72.9719 -69.6882 89.0102 -105.842 108.311 -140.366C123.533 -168.637 138.756 -190.927 153.164 -210.771C157.513 -216.752 161.59 -221.917 164.309 -225.722L172.464 -236.052C172.736 -236.324 172.736 -236.867 172.464 -237.139C172.192 -237.411 172.192 -237.411 171.648 -237.411L171.377 -237.139L163.222 -226.81C160.231 -222.732 156.426 -217.839 152.076 -211.859C137.941 -191.743 122.99 -169.724 107.223 -141.453C87.9228 -106.93 72.1564 -70.5037 59.6519 -33.534C45.5165 8.32879 34.9148 53.7253 29.4781 97.7628C24.0414 141.8 22.6822 188.284 25.9443 232.322C28.9345 271.194 35.1868 310.067 44.701 348.396L51.225 372.317C53.3997 379.385 55.5743 386.453 57.749 392.977L58.0209 393.792C60.4674 401.132 62.6421 407.112 64.545 412.277L70.5254 428.044C72.9719 434.84 75.4185 440.005 77.3213 444.626L77.5932 444.898C78.4087 446.8 79.2242 448.16 79.496 449.519L82.4862 457.946Z" fill="white"/>
<path d="M44.9701 504.156C45.2419 504.427 45.7858 504.427 45.7858 504.427C46.0576 504.156 46.0575 504.156 46.3293 503.884C46.6011 503.612 46.3294 503.34 46.3294 503.34L42.5236 495.185C40.0771 490.564 36.5432 482.681 32.1939 472.351L24.8543 455.769L17.2429 436.196C11.5343 421.789 6.36936 404.664 1.20447 388.082C-10.7563 347.306 -19.1831 305.715 -23.8043 263.581C-29.241 216.281 -29.513 165.991 -25.4354 118.42C-21.3579 70.8488 -11.8436 21.6463 2.02003 -24.294C13.9808 -64.5257 30.291 -105.301 49.3195 -142.271C53.6689 -150.97 58.0183 -159.125 61.824 -165.649L64.8143 -170.814C67.8045 -176.522 70.7947 -181.687 74.0567 -186.58L78.1342 -193.376C84.3865 -203.434 89.8231 -212.133 94.988 -219.472L109.667 -240.132C111.298 -242.306 112.657 -244.209 113.473 -245.569L114.832 -247.471C115.104 -247.743 115.104 -248.287 114.832 -248.559C114.56 -248.831 114.56 -248.831 114.016 -248.831L113.745 -248.559L112.386 -246.656C111.298 -245.569 109.939 -243.666 108.58 -241.219L93.9006 -220.56C88.7357 -213.22 83.2991 -204.521 77.0468 -194.463L72.6974 -187.396C69.9791 -182.503 66.9889 -177.338 63.7269 -171.901L60.4649 -166.464C56.6592 -159.94 52.3097 -151.785 47.9603 -142.543C29.2036 -105.301 12.6216 -64.2539 0.932618 -24.294C-12.931 21.6463 -22.4453 70.8488 -26.5229 118.42C-30.6004 165.991 -30.3285 216.281 -24.8917 263.581C-20.2705 305.715 -11.8436 347.306 0.117226 388.081C5.28211 404.663 10.447 421.789 16.4274 436.468L24.0388 456.041L31.3783 472.623C35.9995 483.224 39.2615 490.836 41.9799 495.729L44.9701 504.156Z" fill="white"/>
<path d="M19.4133 404.657C19.6852 404.929 19.6851 404.929 20.2288 404.929C20.2288 404.929 20.5007 404.657 20.7725 404.385L20.7724 403.842L14.792 385.357C13.9765 382.367 13.1611 379.376 12.3456 375.843L6.90877 354.639C5.54959 350.018 4.73411 345.397 3.37493 340.232L2.01567 334.524C-1.5182 319.573 -4.23636 302.175 -6.95473 285.865C-12.9351 244.546 -15.3817 202.955 -14.0226 161.907C-12.9352 115.152 -6.41111 66.2212 4.1905 20.8246C14.7921 -25.1157 31.1023 -71.8715 50.6745 -114.278C68.072 -151.791 88.7315 -188.217 112.925 -222.197C121.624 -235.245 130.594 -246.39 138.478 -256.448L142.827 -261.885C150.982 -271.671 158.322 -280.098 164.846 -287.71L167.564 -290.971C181.971 -306.466 190.398 -314.893 190.398 -314.893C190.67 -315.165 190.67 -315.709 190.398 -315.98C190.126 -316.252 189.583 -316.252 189.311 -315.981C189.311 -315.981 180.612 -307.282 166.477 -292.059L163.758 -288.797C157.234 -281.185 149.895 -272.759 141.74 -262.972L137.39 -257.536C129.507 -247.478 120.536 -235.789 111.566 -223.012C87.6442 -188.761 66.441 -152.335 49.3153 -114.55C29.7431 -72.1433 13.4329 -25.3875 2.83132 20.5528C-8.04213 66.2213 -14.2945 114.88 -15.6537 161.908C-17.0129 202.955 -14.5662 244.546 -8.58584 285.865C-6.13932 302.447 -2.87723 319.844 0.3848 335.067L1.74398 340.776C3.10316 345.941 3.91872 350.562 5.2779 355.183L10.9864 375.571C12.0737 379.377 12.8892 382.91 13.7047 385.901L19.4133 404.657Z" fill="white"/>
<path d="M79.2219 404.121C79.4938 404.392 79.4937 404.393 80.0374 404.393C80.3092 404.121 80.5812 403.849 80.5812 403.305L79.7656 401.402C79.2219 400.315 78.6783 398.14 77.8628 395.694L70.7951 373.947C68.3486 366.607 66.1739 358.452 63.7274 348.394L61.2808 339.967C59.9216 334.802 58.8342 329.366 57.475 323.657L54.2131 307.347L52.0383 295.386C45.5143 257.873 41.9803 219.544 42.2521 181.759C42.2521 138.809 46.8734 93.9555 55.5722 51.549C64.2709 9.14259 77.8627 -33.8075 94.9884 -73.7674C109.939 -108.834 128.153 -142.814 149.356 -174.89L152.618 -179.783C160.773 -191.744 168.384 -202.618 175.724 -212.132L187.413 -227.083C190.131 -230.345 192.578 -233.335 195.024 -236.325L197.743 -239.587C199.374 -241.762 201.276 -243.665 202.636 -245.568C206.713 -250.189 209.975 -253.995 212.422 -256.441L217.859 -262.422C218.13 -262.694 218.13 -263.237 217.858 -263.509C217.587 -263.781 217.043 -263.781 216.771 -263.509L211.334 -257.529C208.888 -255.082 205.626 -251.277 201.548 -246.655C199.917 -244.481 198.014 -242.578 196.383 -240.403L193.665 -237.141C191.219 -234.151 188.772 -231.16 186.054 -227.898L174.365 -212.948C166.753 -203.705 159.414 -192.56 151.259 -180.599L147.725 -175.434C126.521 -143.358 108.309 -109.378 93.3576 -74.311C76.5037 -34.6229 62.64 8.59905 53.9412 51.0055C45.2425 93.4119 40.3494 138.537 40.3494 181.487C40.3494 219.544 43.3395 257.873 50.1354 295.658L52.3102 307.619L55.5723 323.929C56.9315 329.637 58.0187 335.074 59.3778 340.239L61.8244 348.666C64.5428 358.452 66.7174 367.151 68.8921 374.219L75.96 395.966C76.7755 398.412 77.591 400.315 77.8628 401.674L79.2219 404.121Z" fill="white"/>
<path d="M142.559 416.35C142.831 416.622 143.102 416.894 143.374 416.622C143.646 416.35 143.918 416.078 143.918 415.535L140.928 408.739C139.297 404.389 136.578 397.865 133.588 389.438C127.879 374.487 119.724 350.022 112.385 318.217C104.502 285.325 99.6084 249.443 97.7055 214.376C95.5309 174.688 97.7056 133.369 103.414 94.4961C109.395 55.3517 119.724 15.12 133.044 -22.1216C145.277 -55.5574 160.772 -88.4496 177.625 -117.264C196.11 -148.254 211.605 -169.185 219.216 -178.971L222.478 -183.32C226.556 -188.485 229.546 -192.563 231.993 -195.553L236.614 -201.262C236.886 -201.533 236.886 -202.077 236.614 -202.349C236.342 -202.621 235.798 -202.621 235.527 -202.349L230.905 -196.64C228.459 -193.65 225.469 -189.573 221.391 -184.408L218.129 -180.058C210.518 -170.272 195.023 -149.341 176.81 -118.08C159.684 -88.9933 144.19 -56.1011 131.957 -22.6653C118.365 14.3044 108.035 55.0799 102.055 94.2243C96.3465 133.097 94.1717 174.416 96.0746 214.376C97.9775 249.443 102.87 285.325 110.754 318.217C118.365 350.294 126.52 374.759 131.957 389.438C134.947 397.865 137.666 404.389 139.568 409.011L142.559 416.35Z" fill="white"/>
<path d="M255.645 -139.278C255.917 -139.007 256.461 -139.007 256.732 -139.278L272.499 -159.394L276.033 -163.472C280.654 -168.637 285.819 -174.889 291.799 -181.957C293.974 -184.131 296.149 -186.306 298.051 -188.753C304.304 -195.549 310.828 -202.073 318.439 -209.14C341.273 -231.431 366.282 -251.547 392.65 -268.672C422.552 -288.788 455.988 -306.458 489.152 -320.05C522.316 -333.641 558.471 -344.243 594.081 -350.495C625.886 -356.204 658.506 -359.466 688.952 -359.466C721.844 -359.738 745.222 -357.019 756.095 -355.932C768.872 -354.573 777.571 -352.942 780.561 -352.67L780.289 -352.942L780.561 -354.301C777.299 -354.845 768.872 -356.204 756.095 -357.563C744.95 -358.922 721.572 -361.097 688.408 -361.097C657.963 -361.097 625.342 -357.835 593.266 -351.854C557.655 -345.058 521.229 -334.729 488.065 -321.137C454.901 -307.545 421.193 -289.604 391.019 -269.76C364.923 -252.362 339.914 -232.246 316.536 -209.956C308.925 -202.888 302.401 -195.82 296.149 -189.568L295.605 -189.024C293.43 -186.85 291.527 -184.947 289.896 -182.772C283.644 -175.976 278.207 -169.452 273.858 -164.016L270.868 -160.482L255.101 -140.366C255.373 -140.094 255.373 -139.55 255.645 -139.278Z" fill="white"/>
<path d="M321.976 -140.363C322.247 -140.091 322.791 -140.091 323.063 -140.363L327.141 -144.984C328.772 -147.159 331.218 -149.605 334.208 -152.596C335.839 -154.227 341.548 -160.479 341.548 -160.479C343.451 -162.382 345.354 -164.284 347.528 -166.459L357.858 -176.245C363.295 -181.682 369.547 -186.847 376.343 -192.555C379.061 -194.73 381.236 -196.905 383.954 -199.08C406.789 -217.564 430.71 -233.875 455.719 -247.466C483.99 -263.233 515.523 -276.825 546.784 -286.339C577.773 -296.125 611.481 -303.193 643.558 -306.455C672.101 -309.445 701.187 -309.717 729.73 -307.814C739.516 -307.27 748.215 -306.183 756.37 -305.096L756.914 -305.096C759.36 -304.824 761.807 -304.552 764.253 -304.28L766.156 -304.008C775.942 -302.377 783.825 -301.018 790.621 -299.659L807.475 -295.853C811.009 -295.038 813.184 -294.494 813.184 -294.494L813.727 -294.494L813.999 -294.766C814.271 -295.038 814.271 -295.581 813.999 -295.853C813.184 -296.125 811.553 -296.669 807.747 -297.212L790.893 -301.018C784.097 -302.377 775.67 -303.736 766.428 -305.367L764.525 -305.639C762.078 -305.911 759.36 -306.455 756.642 -306.455C748.487 -307.542 739.516 -308.358 730.002 -309.173C701.187 -311.348 671.829 -310.804 643.286 -307.814C610.666 -304.552 577.23 -297.756 545.969 -287.698C514.979 -277.912 482.903 -264.32 454.632 -248.554C429.895 -234.69 405.429 -218.38 382.595 -199.895C380.149 -197.992 377.974 -195.818 375.527 -193.915L374.984 -193.371C368.188 -187.662 361.664 -182.226 356.227 -176.789L345.897 -167.003C343.722 -164.828 341.82 -162.925 339.917 -161.023C339.101 -160.207 338.014 -159.12 337.198 -158.304C335.567 -156.673 333.936 -155.042 332.577 -153.683C329.315 -150.421 327.141 -148.246 325.51 -146.071L321.432 -141.45C321.704 -141.178 321.704 -140.635 321.976 -140.363Z" fill="white"/>
<path d="M389.932 -100.679C390.204 -100.407 390.748 -100.407 391.019 -100.679L396.184 -105.844C398.631 -108.291 401.077 -111.281 404.883 -114.543C406.242 -115.902 407.601 -117.261 409.232 -118.892C412.766 -122.426 416.844 -125.96 421.465 -130.038L432.067 -139.008L444.299 -148.522C464.143 -163.473 484.803 -176.522 506.278 -187.123C530.743 -199.628 557.383 -209.957 584.295 -217.297C610.663 -224.637 639.206 -229.258 666.661 -231.161C690.583 -232.792 715.048 -232.248 739.513 -229.53L754.736 -227.899L768.328 -225.724C772.949 -224.908 777.027 -224.093 780.289 -223.549L790.619 -221.374C794.696 -220.559 797.958 -219.472 800.677 -218.928C802.036 -218.656 803.395 -218.384 804.482 -217.841L809.647 -216.481C810.191 -216.481 810.463 -216.753 810.734 -217.025C811.006 -217.297 810.734 -217.569 810.463 -217.841L810.191 -218.112L805.026 -219.472C804.21 -219.743 802.851 -220.015 801.22 -220.559C798.23 -221.374 794.968 -222.462 790.89 -223.277L780.561 -225.452C777.57 -226.267 773.493 -227.083 768.6 -227.627L755.008 -229.801L739.513 -231.704C715.048 -234.423 690.311 -234.694 666.39 -233.063C638.934 -231.161 610.391 -226.539 583.751 -218.928C557.111 -211.86 530.2 -201.259 505.734 -188.754C484.531 -177.881 463.6 -165.104 443.756 -150.153L431.523 -140.639L420.921 -131.669C416.3 -128.135 412.223 -124.057 408.961 -120.795C407.33 -119.164 405.971 -117.805 404.611 -116.446C400.806 -113.184 398.087 -109.922 395.913 -107.747L390.748 -102.582C389.66 -101.495 389.66 -100.951 389.932 -100.679Z" fill="white"/>
<path d="M339.1 328.552C339.372 328.824 339.644 329.095 339.915 328.824C340.187 328.552 340.459 328.28 340.459 327.736C340.459 327.736 339.1 324.746 338.828 323.387L333.935 310.882C332.304 305.446 330.129 298.922 327.411 291.31C326.867 289.136 326.052 286.689 325.508 284.514C323.877 278.534 321.974 272.282 320.615 265.486C315.994 243.467 312.732 221.176 312.188 198.886C311.101 173.877 312.732 147.237 316.809 121.956C320.615 96.9474 327.683 71.3948 336.653 47.745C344.537 27.3573 354.051 6.9696 365.74 -12.3308L373.351 -24.2915C374.71 -26.7381 376.341 -28.9128 377.973 -31.0875C378.788 -32.4466 379.875 -33.534 380.419 -34.6214C381.235 -35.9806 382.05 -36.7961 382.866 -38.1553C384.497 -40.33 385.584 -41.9609 386.943 -43.8638L397.273 -57.4556L404.069 -65.3388C404.341 -65.6107 404.341 -66.1543 404.069 -66.4262C403.797 -66.698 403.253 -66.6981 402.981 -66.4262L396.457 -58.8148L386.128 -45.223C384.768 -43.3201 383.409 -41.4172 382.05 -39.5144C381.234 -38.1552 380.419 -37.3397 379.604 -35.9806C378.788 -34.6214 377.701 -33.5341 377.157 -32.4467C375.526 -30.272 373.895 -28.0973 372.536 -25.6507L364.924 -13.69C353.235 6.15409 343.449 26.2699 335.838 46.9295C326.867 70.5792 320.071 96.4037 315.722 121.413C311.644 146.693 310.013 173.333 311.101 198.342C312.188 220.633 314.906 242.923 319.8 265.214C321.159 272.01 322.79 278.534 324.421 284.514L324.421 285.058C324.964 287.233 325.508 289.407 326.052 291.582C328.498 299.465 330.673 305.989 332.304 311.426L337.197 323.931C338.284 326.649 339.1 328.008 339.1 328.552Z" fill="white"/>
<path d="M539.988 -127.316C540.26 -127.044 540.803 -127.044 540.803 -127.044L544.881 -128.947C547.327 -130.306 551.133 -131.937 555.754 -133.84L564.453 -137.646L573.152 -140.908C577.773 -142.811 583.21 -144.442 588.918 -146.345C591.365 -147.16 593.811 -147.976 596.258 -148.791C615.558 -154.5 635.674 -158.306 655.79 -160.48C678.624 -163.199 702.546 -163.199 725.652 -161.296C767.515 -158.034 814.27 -144.442 850.425 -125.685C854.502 -123.782 858.036 -121.88 861.842 -119.705C863.201 -118.889 864.56 -118.074 865.919 -117.258C868.094 -116.171 869.997 -114.812 871.9 -113.996C874.346 -112.637 876.521 -111.006 878.967 -109.647C882.229 -107.472 885.22 -105.569 887.938 -103.938L897.996 -97.1424C900.171 -95.5114 901.53 -94.696 901.53 -94.696C901.53 -94.696 901.802 -94.4241 902.073 -94.696C902.073 -94.696 902.617 -94.696 902.345 -94.9678C902.617 -95.2397 902.617 -95.7832 902.345 -96.0551C902.345 -96.0551 901.258 -97.1425 898.811 -98.5017L888.754 -105.298C886.307 -107.2 883.317 -109.103 879.783 -111.006C877.336 -112.365 875.434 -113.724 872.715 -115.355C870.812 -116.715 868.909 -117.53 866.735 -118.618C865.376 -119.433 864.016 -120.249 862.657 -121.064C858.852 -123.239 855.318 -125.142 851.24 -127.044C814.814 -146.073 768.058 -159.121 725.924 -162.655C703.089 -164.83 678.896 -164.558 656.062 -161.84C635.946 -159.665 615.558 -155.587 596.258 -149.879C593.811 -149.063 591.365 -148.248 588.918 -147.432C583.21 -145.529 577.773 -143.898 573.152 -141.995L562.822 -138.19L555.754 -134.928C550.861 -132.753 547.055 -131.122 544.609 -129.763L540.803 -128.132C539.988 -128.404 539.716 -127.588 539.988 -127.316Z" fill="white"/>
<path d="M475.011 -56.3764C475.282 -56.1045 475.826 -56.1045 476.098 -56.3764C476.098 -56.3764 477.185 -57.4637 479.088 -58.8229L487.515 -66.1625C489.418 -68.0654 492.408 -69.9682 495.126 -72.1429C497.301 -73.7739 499.476 -75.4049 501.651 -77.036C503.282 -78.1233 504.912 -79.2106 506.815 -80.5698C508.174 -81.3853 509.262 -82.4726 510.621 -83.2882L511.98 -84.1036C514.699 -86.2783 517.417 -87.9093 520.407 -89.8122C551.94 -110.472 594.075 -127.597 633.219 -134.665C654.151 -138.743 676.713 -140.646 698.188 -140.374C717.488 -140.102 737.332 -138.199 755.002 -134.665C757.448 -134.393 759.895 -133.578 762.07 -133.034C763.701 -132.49 765.06 -132.219 766.691 -132.219L772.127 -131.131L786.263 -127.326C787.894 -126.782 789.525 -126.238 791.156 -125.695C791.971 -125.423 793.059 -124.879 793.874 -124.607C795.505 -124.064 796.865 -123.792 797.952 -123.248C800.67 -122.161 802.845 -121.617 804.476 -121.073L808.282 -119.442L808.825 -119.442C808.825 -119.442 809.097 -119.714 809.369 -119.986C809.641 -120.258 809.369 -120.53 809.097 -120.802L805.291 -122.433C803.66 -122.976 801.214 -123.792 798.767 -124.607C797.408 -124.879 793.059 -126.51 791.7 -126.782C790.069 -127.326 788.438 -127.869 786.807 -128.413L772.671 -132.219L767.234 -133.306C765.875 -133.578 764.516 -133.85 762.885 -134.393C760.438 -135.209 757.992 -135.481 755.545 -135.753C737.876 -139.286 718.304 -140.917 698.46 -141.189C676.985 -141.461 654.422 -139.558 632.947 -135.481C593.531 -128.141 551.396 -111.015 519.863 -90.3559C516.873 -88.4531 513.883 -86.5502 511.437 -84.6473L510.077 -83.8319C508.718 -83.0163 507.631 -81.9289 506.544 -81.3853C504.641 -80.0261 503.01 -78.9388 501.107 -77.5797C498.932 -75.9486 496.757 -74.3176 494.855 -72.9584C492.136 -70.7837 489.418 -68.609 487.243 -66.978L478.816 -59.6384C476.913 -58.2792 475.826 -57.1919 475.554 -56.9201C474.195 -57.1919 474.467 -56.9201 475.011 -56.3764Z" fill="white"/>
<path opacity="0.4" d="M392.379 248.087C392.651 248.359 392.651 248.359 393.194 248.359C393.466 248.087 393.738 247.815 393.738 247.272C393.738 247.272 392.379 242.107 391.02 233.136C389.389 223.35 387.758 209.758 387.214 195.079C385.583 158.653 391.835 115.975 404.34 81.1799C416.844 45.2975 438.591 8.32778 462.241 -18.0403L467.678 -24.0208L477.192 -34.0786L489.153 -45.4958L500.298 -55.0101C500.57 -55.2819 500.57 -55.8256 500.298 -56.0974C500.026 -56.3692 499.482 -56.3692 499.21 -56.0974L488.065 -46.5831L475.833 -34.8942L464.959 -23.4771L461.153 -19.1277C437.232 7.51229 415.213 44.7538 402.709 80.6362C390.204 115.975 383.952 158.653 385.583 195.079C386.398 210.03 387.758 223.35 389.389 233.136C390.748 242.107 392.107 247.272 392.107 247.272C392.107 247.815 392.379 248.087 392.379 248.087Z" fill="white"/>
<path d="M525.036 -81.3765C525.308 -81.1047 525.852 -81.1047 526.124 -81.3765L529.386 -83.5513C529.929 -84.0949 530.745 -84.3668 531.288 -84.9105C533.191 -86.2696 535.638 -87.6288 538.9 -89.2598C540.259 -90.0753 541.618 -90.8909 543.521 -91.7064C546.511 -93.6092 550.045 -95.5121 553.851 -97.1431L563.365 -101.764L573.967 -106.385C591.364 -113.453 608.762 -118.89 626.431 -122.968C646.547 -127.317 668.294 -130.035 689.225 -130.307C710.157 -130.579 731.904 -128.948 752.019 -125.142C769.961 -121.88 787.63 -116.715 804.756 -110.463C810.464 -108.56 815.357 -106.385 819.978 -104.483L820.25 -104.211C821.881 -103.667 823.24 -102.852 825.143 -102.036C828.405 -100.405 831.396 -99.046 834.386 -97.6868C836.56 -96.5995 838.735 -95.512 840.638 -94.6965L853.414 -87.357C853.686 -87.0851 854.23 -87.0852 854.23 -87.6288C854.502 -87.9007 854.23 -88.1725 853.958 -88.4443L840.638 -95.7839C838.735 -96.5994 836.56 -97.6867 834.386 -98.774C831.396 -100.133 828.677 -101.764 825.143 -103.123C823.512 -103.667 822.153 -104.483 820.522 -105.026L820.25 -105.298C815.629 -107.201 810.464 -109.648 804.756 -111.55C787.358 -118.074 769.417 -122.968 751.476 -126.23C730.816 -130.035 709.069 -131.666 688.138 -131.394C667.207 -131.123 645.46 -128.404 625.072 -123.783C607.403 -119.705 589.733 -114.541 572.608 -107.201L560.103 -101.764L552.492 -97.9586C548.414 -96.0557 544.88 -94.1529 542.162 -92.5218C540.531 -91.4345 539.172 -90.619 537.541 -90.0753C534.551 -88.7161 532.376 -87.0851 530.473 -85.7259C529.386 -85.1823 528.842 -84.6386 528.026 -84.3668L524.764 -82.1921C524.764 -82.1921 524.764 -81.6484 525.036 -81.3765Z" fill="white"/>
<path d="M460.336 49.6457C461.152 48.2865 463.055 44.7525 466.317 39.8595C470.122 33.3354 476.375 24.3649 485.889 12.676C495.675 0.715159 507.092 -10.702 519.325 -21.3037C532.645 -32.9926 548.139 -43.5942 563.634 -52.0211C579.129 -60.448 596.254 -67.7876 613.108 -73.2243C628.059 -77.8455 643.554 -81.3794 659.32 -83.5541C671.281 -85.1851 681.611 -85.7288 689.222 -85.7288L692.756 -86.0006L705.532 -85.7288C706.076 -85.7288 706.348 -86.0007 706.348 -86.5443V-87.088C706.076 -87.3599 706.076 -87.3598 705.804 -87.088L689.494 -87.088C681.883 -87.088 671.553 -86.5443 659.592 -84.9133C643.554 -83.0104 628.059 -79.4765 613.108 -74.8553C596.254 -69.4186 578.857 -62.3509 563.362 -53.3803C547.596 -44.6815 532.373 -33.808 518.781 -22.3909C506.548 -11.7893 494.859 -0.100416 485.345 11.5885C476.103 23.5493 469.579 32.2482 465.773 38.7722C462.783 43.3935 460.88 46.9273 459.793 48.5583L460.336 49.6457Z" fill="white"/>
<path opacity="0.4" d="M1274.21 359.342L1273.91 359.037C1273.91 358.427 1274.21 358.122 1274.82 358.122L1277.87 357.512C1280 357.207 1283.05 356.597 1287.02 355.683L1289.46 355.073C1293.12 354.463 1296.78 353.243 1300.74 352.328C1304.7 351.413 1308.36 350.194 1312.63 348.974C1314.46 348.364 1316.29 347.754 1318.73 347.144C1333.67 341.96 1348.01 335.557 1360.81 328.238C1376.06 319.7 1391 309.027 1404.42 297.439C1417.84 285.852 1430.64 272.434 1441.62 258.407C1450.77 246.82 1459.31 233.402 1466.63 219.375C1467.54 217.241 1468.76 214.801 1469.98 212.971C1471.81 209.312 1473.34 205.958 1474.55 202.909C1475.16 201.689 1475.47 200.774 1476.08 199.554C1476.69 198.335 1477.3 197.115 1477.91 195.895L1484.31 177.904C1484.62 177.599 1484.92 177.294 1485.53 177.294L1485.84 177.599C1486.14 177.904 1486.45 178.209 1486.14 178.513L1479.74 196.505C1479.13 197.725 1478.52 198.944 1478.21 200.469C1477.6 201.689 1477.3 202.604 1476.69 203.823C1475.47 206.873 1473.94 210.227 1472.12 213.886C1470.9 216.326 1469.98 218.46 1469.07 220.595C1461.44 234.927 1452.9 247.734 1443.76 259.932C1432.78 273.959 1419.97 287.376 1406.55 298.964C1393.14 310.552 1378.19 321.225 1362.95 329.763C1349.84 337.386 1335.5 343.79 1320.56 348.974C1318.73 349.584 1316.9 350.194 1315.07 350.804C1310.8 352.023 1306.84 353.548 1302.87 354.463C1298.61 355.683 1294.64 356.597 1291.29 357.512L1288.85 358.122C1284.88 359.037 1281.83 359.647 1279.7 359.952L1276.65 360.562C1274.82 359.952 1274.52 359.647 1274.21 359.342Z" fill="white"/>
<path opacity="0.4" d="M1173.28 415.149C1172.97 414.844 1172.97 414.844 1172.97 414.235C1172.97 413.625 1173.58 413.625 1173.89 413.32L1177.85 414.235C1178.77 414.539 1179.99 414.539 1180.9 414.844C1183.04 415.149 1185.48 415.759 1188.83 416.064C1190.66 416.064 1192.18 416.369 1194.32 416.674C1197.98 417.284 1201.94 417.589 1206.21 417.589C1207.74 417.894 1208.96 417.894 1210.79 417.894C1212.92 418.199 1214.75 418.199 1217.19 418.199L1229.08 418.504C1248.29 418.809 1267.2 416.979 1285.5 413.93C1306.54 410.575 1327.88 404.476 1347.7 396.853C1367.52 389.23 1387.34 379.167 1405.03 367.579C1420.28 357.821 1435.22 345.928 1449.55 332.816L1458.4 324.583L1465.71 316.654C1469.07 313.3 1471.81 309.946 1474.25 306.896C1475.47 305.676 1476.08 304.457 1477.3 303.237C1480.35 299.578 1482.49 296.833 1484.32 295.004L1487.06 291.649C1487.36 291.344 1487.97 291.344 1488.28 291.649C1488.58 291.954 1488.58 292.564 1488.28 292.869L1485.84 295.918C1484.01 298.358 1481.88 301.102 1478.83 304.762C1477.91 305.676 1476.69 306.896 1476.08 308.116C1473.64 311.165 1470.9 314.52 1467.54 317.874L1460.23 325.802L1451.38 334.036C1437.05 347.148 1421.5 359.041 1406.25 368.799C1388.56 380.386 1368.13 390.449 1348.31 398.073C1328.49 405.696 1306.54 411.795 1285.5 415.149C1267.2 418.199 1247.99 419.723 1228.47 419.723L1216.58 419.419C1214.44 419.114 1212.01 419.114 1210.18 419.114C1208.35 419.114 1207.13 419.113 1205.6 418.809C1201.03 418.504 1197.06 418.199 1193.4 417.589L1192.79 417.589C1191.27 417.284 1189.44 417.284 1187.92 416.979C1184.56 416.674 1181.82 416.369 1179.99 415.759C1178.77 415.759 1177.85 415.454 1176.94 415.149L1172.97 414.235C1173.58 414.844 1173.28 415.149 1173.28 415.149Z" fill="white"/>
<path d="M1172.67 493.828C1172.37 493.523 1172.37 492.914 1172.67 492.609C1172.67 492.609 1172.98 492.304 1173.59 492.304C1174.2 492.304 1175.72 492.609 1178.47 492.914L1192.49 494.743C1198.59 495.353 1205.61 495.658 1214.14 496.268C1216.58 496.268 1218.72 496.573 1221.16 496.573C1227.87 496.573 1234.88 496.878 1242.2 496.878C1265.98 496.268 1289.46 493.523 1312.03 489.254C1337.95 484.07 1364.48 475.837 1388.87 465.469C1413.27 455.101 1437.66 441.684 1459.31 426.742C1478.83 413.325 1497.43 397.773 1513.29 381.916C1526.71 368.499 1538.29 355.081 1546.22 344.713L1554.76 333.736L1557.5 329.771C1557.81 329.467 1558.42 329.467 1558.72 329.771C1559.03 330.076 1559.03 330.686 1558.72 330.991L1555.98 334.955L1547.44 345.933C1539.51 356.301 1527.62 369.413 1514.2 383.441C1498.35 399.297 1479.44 415.154 1459.92 428.571C1437.97 443.818 1413.57 457.236 1389.18 467.604C1364.78 477.971 1337.95 486.51 1312.03 491.694C1289.16 496.268 1265.68 499.012 1241.89 499.622C1234.27 499.927 1227.26 499.622 1220.55 499.622C1218.11 499.622 1215.67 499.622 1213.53 499.317C1205 498.707 1197.68 498.097 1191.88 497.793L1177.86 495.963C1175.11 495.658 1173.59 495.353 1172.98 495.353C1172.98 494.133 1172.98 494.133 1172.67 493.828Z" fill="white"/>
<path opacity="0.4" d="M1625.5 232.491C1625.2 232.186 1625.2 232.186 1625.2 231.577L1627.03 226.698C1627.33 225.783 1627.64 224.258 1628.55 222.733C1629.47 219.989 1630.38 216.635 1631.6 212.975L1632.21 210.536C1635.57 198.643 1639.83 182.177 1642.88 162.661C1646.54 138.266 1648.37 113.87 1648.07 89.7803C1647.46 62.3358 1644.1 33.3667 1638.31 6.83711C1632.21 -19.9975 1623.37 -47.7468 1612.09 -72.4468C1602.33 -94.4024 1590.43 -115.443 1576.41 -136.179L1567.56 -148.681L1559.03 -159.659C1555.67 -164.233 1552.32 -168.197 1549.27 -171.857C1547.44 -173.686 1546.22 -175.516 1544.69 -177.041C1541.95 -180.395 1539.21 -183.139 1537.07 -185.274C1536.16 -186.189 1531.28 -191.068 1531.28 -191.068C1530.97 -191.373 1530.97 -191.983 1531.28 -192.288C1531.58 -192.593 1532.19 -192.592 1532.5 -192.288C1532.5 -192.288 1537.38 -187.409 1538.29 -186.494C1540.42 -184.359 1543.17 -181.615 1546.22 -177.956C1547.74 -176.431 1548.96 -174.601 1550.49 -173.077C1553.54 -169.417 1557.2 -165.148 1560.55 -160.574L1569.09 -149.596L1577.93 -137.094C1591.96 -116.358 1603.85 -94.7074 1613.61 -73.3617C1624.89 -48.0518 1634.04 -20.6074 1639.83 6.53215C1645.93 33.3667 1649.29 62.3359 1649.59 90.0853C1649.9 114.175 1648.37 138.875 1644.71 163.27C1641.97 183.091 1637.4 199.253 1634.04 211.146L1633.43 213.585C1632.52 217.549 1631.3 220.599 1630.38 223.343C1630.08 224.868 1629.47 226.088 1629.16 227.002L1627.33 231.882C1627.33 231.882 1627.03 232.186 1626.72 232.491C1626.42 232.796 1626.11 232.491 1625.5 232.491Z" fill="white"/>
<path d="M1132.72 536.82C1132.42 536.515 1132.42 536.515 1132.42 535.905C1132.42 535.295 1133.03 535.295 1133.64 535.295L1148.88 538.345L1165.66 541.089C1168.09 541.699 1170.53 541.699 1173.58 542.309C1175.41 542.309 1176.94 542.614 1179.07 542.919C1186.09 543.834 1194.01 544.444 1202.55 545.053L1210.48 545.663C1237.32 546.883 1263.54 545.663 1289.46 542.309C1319.04 538.345 1349.53 531.636 1377.59 521.878C1405.95 512.425 1434.31 499.313 1459.92 484.066C1482.18 470.953 1503.83 455.402 1524.26 438.02C1541.95 423.383 1554.76 409.356 1564.21 399.293C1567.56 395.939 1570 392.889 1571.83 390.45C1573.05 389.23 1573.66 388.01 1574.58 387.095L1578.24 382.826C1578.54 382.521 1579.15 382.521 1579.46 382.826C1579.76 383.131 1579.76 383.741 1579.46 384.046L1575.8 388.315C1574.88 389.23 1573.97 390.145 1573.05 391.669C1571.22 394.109 1568.48 396.853 1565.73 400.208C1555.98 410.576 1542.86 424.298 1525.48 439.24C1505.05 456.621 1483.4 472.173 1461.14 485.285C1435.53 500.532 1406.86 513.34 1378.81 523.098C1350.45 532.551 1319.95 539.869 1290.07 543.529C1264.15 546.883 1237.62 547.798 1210.79 546.578L1202.86 545.968C1194.93 545.358 1186.7 545.053 1179.38 543.834C1177.85 543.529 1176.02 543.529 1174.5 543.224C1171.75 542.919 1169.01 542.614 1166.27 542.309L1144.92 538.65L1134.25 536.515C1133.03 537.125 1133.03 537.125 1132.72 536.82Z" fill="white"/>
<path d="M1023.56 526.455C1023.25 526.15 1023.25 525.54 1023.25 525.54C1023.56 525.235 1023.56 525.235 1023.86 524.93C1024.17 524.625 1024.47 524.93 1024.47 524.93L1029.66 527.675C1031.79 528.59 1034.53 530.114 1038.19 531.334C1040.33 532.249 1042.46 533.164 1044.9 534.383C1053.75 538.348 1072.96 545.971 1100.71 554.204C1125.71 561.523 1154.38 567.012 1182.73 569.756C1214.75 573.11 1247.69 573.111 1278.49 569.756C1309.89 566.402 1342.52 559.998 1372.41 550.85C1399.85 542.312 1426.69 531.334 1449.86 519.136C1469.07 509.073 1487.37 498.096 1500.48 488.643L1506.58 484.373C1509.63 482.544 1512.37 480.409 1514.2 479.189L1518.78 475.835C1519.08 475.53 1519.69 475.53 1520 475.835C1520.3 476.14 1520.3 476.75 1520 477.055L1515.12 480.714C1512.98 482.239 1510.54 484.068 1507.49 485.898L1501.4 490.167C1487.98 499.925 1469.99 510.598 1450.47 520.966C1427.3 533.164 1400.46 544.141 1373.02 552.68C1342.83 562.133 1310.2 568.536 1278.79 571.891C1247.69 574.94 1214.75 574.94 1182.73 571.586C1154.07 568.536 1125.71 563.352 1100.4 555.729C1072.35 547.801 1053.44 539.872 1044.6 535.908C1042.16 534.688 1040.02 533.774 1038.19 533.164C1034.53 531.334 1031.79 530.419 1029.66 529.504L1023.56 526.455Z" fill="white"/>
<path d="M1571.83 481.93C1571.53 481.625 1571.53 481.015 1571.83 480.71C1571.83 480.71 1573.66 479.491 1576.71 476.441L1589.52 464.244C1599.28 455.096 1614.22 439.544 1632.21 417.283C1649.9 395.328 1667.28 369.408 1682.22 342.269C1698.38 312.689 1712.41 279.756 1722.47 247.128C1732.53 214.499 1739.55 179.431 1742.6 145.888C1745.34 116.309 1745.65 86.1203 1743.21 55.6264C1742.9 49.2227 1741.99 42.819 1741.38 36.7202C1741.07 34.5857 1741.07 32.756 1740.46 30.9264C1740.16 26.9622 1739.55 23.3029 1738.94 19.6437L1733.45 -11.4601L1730.7 -25.1822L1728.87 -31.2811V-31.8908C1729.18 -32.1957 1729.18 -32.1958 1729.48 -32.5007C1729.79 -32.8056 1730.09 -32.5008 1730.4 -32.1958L1730.7 -31.8909L1732.53 -25.7921L1738.94 4.39675L1741.38 19.0338C1741.99 22.6931 1742.29 26.0474 1742.9 29.7067C1743.21 31.8413 1743.51 33.9758 1743.51 35.8054C1744.43 41.5993 1745.04 48.308 1745.34 54.7117C1747.78 84.5956 1747.78 115.089 1744.73 144.973C1741.38 178.821 1734.36 213.889 1724.3 246.518C1714.24 279.146 1700.21 312.08 1684.35 341.963C1669.41 369.103 1652.34 395.328 1634.04 417.283C1616.05 439.544 1600.8 455.401 1591.04 464.549L1578.24 476.746C1575.19 479.796 1573.36 481.015 1573.36 481.015C1572.75 482.235 1572.14 482.235 1571.83 481.93Z" fill="white"/>
<path d="M993.064 575.246C992.759 574.941 992.759 574.331 992.759 574.331C993.064 574.026 993.064 574.026 993.369 573.721C993.674 573.416 993.979 573.721 993.979 573.721L1007.09 580.125L1029.05 589.883C1032.1 591.103 1035.15 592.323 1038.2 593.542C1040.02 594.152 1041.85 594.762 1043.38 595.677C1052.53 599.336 1063.2 602.691 1074.18 606.35L1078.75 607.875C1108.94 616.718 1139.74 623.122 1170.54 626.476C1205.61 630.44 1242.81 631.05 1277.57 628C1312.94 624.951 1349.54 618.243 1382.78 608.18C1412.35 599.336 1441.63 587.749 1469.68 573.721L1478.53 569.147L1502.31 555.73C1505.36 553.901 1507.8 552.071 1510.54 550.546C1516.64 546.887 1521.83 543.533 1526.71 540.483L1541.95 530.115C1545.61 527.676 1547.14 526.151 1547.14 526.151C1547.44 525.846 1548.05 525.846 1548.36 526.151C1548.66 526.456 1548.66 527.066 1548.36 527.371C1548.36 527.371 1546.53 528.591 1542.87 531.03L1527.62 541.398C1523.05 544.752 1517.56 547.802 1511.46 551.461C1508.71 552.986 1505.97 555.12 1503.23 556.645L1479.44 570.062L1470.6 574.636C1442.54 588.663 1412.96 600.556 1383.08 609.094C1349.23 619.157 1312.64 625.866 1277.27 628.915C1241.89 631.965 1204.69 631.355 1169.62 627.391C1138.82 624.036 1108.03 617.633 1077.53 608.484L1072.96 606.96C1061.68 603.605 1051.31 599.946 1042.16 596.287C1040.63 595.982 1036.98 594.152 1036.98 594.152C1033.62 592.628 1030.27 591.713 1027.52 590.188L1005.57 580.43L993.064 575.246Z" fill="white"/>
<path opacity="0.4" d="M1531.27 541.391C1530.97 541.086 1530.97 540.476 1531.27 540.171L1536.76 536.512C1537.68 535.597 1539.2 534.682 1540.73 533.767C1544.08 531.633 1547.74 529.193 1552.01 525.534C1563.29 516.691 1582.5 502.359 1602.63 482.233C1625.5 459.972 1646.54 436.492 1664.53 411.792C1685.57 383.433 1704.48 351.109 1719.11 318.786C1733.75 286.462 1745.64 251.395 1753.57 216.632C1760.59 186.443 1764.86 154.119 1766.68 123.626L1766.99 116.612C1767.6 105.634 1767.6 95.2663 1767.29 85.8132L1766.99 70.2614L1766.07 57.149C1765.47 48.6107 1764.86 42.5119 1764.55 38.5477L1763.94 31.8391C1763.94 31.2292 1764.25 30.9243 1764.86 30.9243C1764.86 30.9243 1765.47 30.9243 1765.77 31.2292L1766.08 31.5342L1766.99 37.9378C1767.29 41.902 1768.21 47.696 1768.51 56.5392L1769.43 69.6515L1769.73 85.2034C1770.04 94.6564 1770.04 105.024 1769.43 116.002L1769.12 123.016C1767.6 153.814 1763.03 185.833 1756.32 216.327C1748.39 251.09 1736.19 286.463 1721.55 318.786C1706.92 351.109 1688.01 383.433 1666.97 412.402C1648.98 437.102 1627.94 461.192 1604.76 483.148C1584.33 502.969 1565.43 517.606 1554.14 526.449C1549.57 529.803 1545.6 532.548 1542.86 534.682L1542.25 535.292C1541.03 535.902 1539.81 537.122 1538.9 537.427L1533.41 541.086C1532.19 541.696 1531.58 541.696 1531.27 541.391Z" fill="white"/>
<path d="M980.255 597.808C979.95 597.504 979.95 596.894 979.95 596.894C980.255 596.589 980.255 596.589 980.56 596.284C980.865 595.979 981.17 596.284 981.17 596.284L987.268 599.333C992.147 601.773 997.636 604.212 1004.95 607.262L1007.39 608.481C1014.71 611.531 1022.95 615.495 1032.7 618.544C1034.53 619.154 1035.75 619.764 1037.58 620.374L1038.5 620.679C1042.46 622.204 1046.43 623.728 1050.39 624.643L1070.21 631.047C1101.62 640.5 1134.25 646.903 1166.27 650.868C1202.86 655.137 1241.89 655.747 1278.48 652.697C1315.69 649.648 1353.8 642.634 1389.18 632.267C1420.28 623.118 1451.08 611.226 1480.66 596.284C1490.11 591.71 1498.35 587.136 1506.27 582.866C1509.32 581.037 1512.37 579.207 1515.12 577.682L1515.73 577.073C1525.48 570.974 1533.72 565.79 1540.73 561.216L1562.38 546.274C1562.69 545.969 1563.3 545.969 1563.6 546.274C1563.91 546.579 1563.91 547.189 1563.6 547.494L1541.95 562.436C1534.94 567.01 1526.7 572.194 1517.25 577.987L1516.34 578.292C1513.9 579.512 1511.15 581.037 1508.41 582.562L1507.19 583.171C1499.26 587.441 1490.72 592.32 1481.27 596.894C1451.69 611.836 1420.89 623.728 1389.79 632.876C1354.41 643.244 1315.99 650.563 1278.79 653.612C1241.89 656.966 1203.16 656.052 1165.96 651.783C1133.64 648.123 1101.32 641.415 1069.6 631.656L1049.78 625.253C1045.51 624.033 1041.55 622.508 1038.19 620.984C1036.06 620.069 1034.23 619.459 1032.4 618.849C1022.64 615.19 1014.41 611.835 1006.78 608.481L1004.35 607.262C997.027 604.212 991.233 601.468 986.354 599.028L980.255 597.808Z" fill="white"/>
<path d="M1666.67 515.174C1666.37 514.869 1666.37 514.259 1666.67 513.954L1672.47 507.551C1675.82 504.196 1680.09 499.317 1685.58 493.219C1686.8 491.999 1689.85 488.34 1689.85 488.34C1695.03 482.546 1700.52 475.837 1706.31 468.214L1709.36 463.945C1712.41 460.285 1715.16 456.321 1718.21 452.052L1731.01 433.756C1750.84 404.177 1768.22 372.768 1782.24 341.054C1798.41 304.767 1811.52 264.82 1820.06 225.788C1828.59 186.756 1833.47 145.284 1833.78 105.337C1834.39 70.5741 1831.64 34.8963 1826.16 0.133376C1821.58 -30.6654 1814.26 -56.2801 1809.69 -73.0517C1807.86 -79.1505 1806.33 -84.3345 1804.81 -88.2987L1801.15 -99.8863L1801.15 -100.496C1801.15 -100.496 1801.46 -100.801 1801.76 -101.106C1802.07 -101.411 1802.37 -101.106 1802.67 -100.801L1806.64 -88.9086C1807.86 -84.6394 1809.69 -79.7605 1811.52 -73.6617C1816.09 -56.8901 1823.41 -31.2752 1827.98 -0.476444C1833.78 34.5915 1836.22 69.9643 1835.61 105.337C1835.3 145.284 1830.12 187.061 1821.58 226.093C1813.04 265.125 1799.93 305.072 1783.77 341.969C1769.44 373.988 1752.36 405.091 1732.23 434.975L1719.43 453.272C1716.38 457.541 1713.33 461.2 1710.58 465.164L1707.23 469.738C1701.44 477.362 1695.95 484.07 1690.76 489.864L1686.49 494.743C1681.31 501.147 1676.74 505.721 1673.08 509.38L1667.28 515.784C1667.59 515.479 1666.98 515.479 1666.67 515.174Z" fill="white"/>
<path opacity="0.4" d="M1660.57 568.836C1660.26 568.531 1660.26 567.921 1660.57 567.616L1682.22 547.185L1685.88 543.526C1691.97 537.427 1698.38 530.414 1705.7 522.485C1707.83 519.741 1710.27 517.301 1712.41 514.557C1719.11 506.628 1726.74 497.785 1734.06 488.027C1757.23 458.143 1777.97 426.43 1795.04 394.106C1814.86 356.599 1831.64 315.432 1843.22 275.18C1854.81 234.928 1863.05 191.322 1866.09 149.241C1869.14 112.648 1868.84 73.9212 1865.48 37.6335L1864.87 33.3644C1863.35 19.0323 1861.83 5.30996 1859.69 -6.58263L1856.64 -24.8789L1853.29 -40.4307C1851.15 -50.4937 1849.63 -57.5073 1848.1 -62.0813L1845.97 -69.7048L1845.97 -70.3146C1846.27 -70.6196 1846.27 -70.6196 1846.58 -70.9245C1846.88 -71.2295 1847.19 -70.9246 1847.49 -70.6197L1847.8 -70.3147L1849.93 -62.6913C1851.15 -57.8122 1852.98 -51.1036 1855.12 -41.0406L1858.47 -25.4888L1861.83 -6.8875C1863.96 5.0051 1865.48 18.7273 1867.01 33.0594L1867.62 37.3285C1870.97 73.6161 1871.28 112.343 1867.92 149.241C1864.26 191.322 1856.64 234.928 1844.75 275.485C1832.86 316.042 1816.69 357.209 1796.57 395.021C1779.49 427.345 1759.06 459.363 1735.28 489.247C1727.96 499.005 1720.33 507.848 1713.32 516.082C1711.19 518.826 1708.75 521.266 1706.61 524.01C1699.29 531.938 1692.89 538.952 1686.79 545.051L1682.83 549.015L1660.87 569.751C1661.48 569.141 1660.87 569.141 1660.57 568.836Z" fill="white"/>
<path d="M923.532 782.598C923.227 782.293 923.227 781.683 923.227 781.683C923.532 781.378 923.837 781.073 924.446 781.073L932.985 784.733C934.51 785.647 936.339 786.257 938.169 786.867L938.474 787.172C943.658 789.307 949.452 792.051 957.075 794.796L974.761 801.504C980.555 803.639 987.264 806.078 995.497 808.823L996.107 808.823C1003.43 811.262 1011.35 813.702 1019.28 816.141L1046.12 823.46C1088.81 834.438 1132.41 841.451 1176.02 844.805C1225.42 848.465 1277.26 847.245 1326.66 841.146C1376.06 835.047 1426.98 823.155 1473.95 807.298C1515.42 793.271 1555.97 775.28 1594.7 753.629C1626.41 736.552 1651.42 719.476 1673.68 703.314C1680.39 698.435 1686.18 693.861 1690.45 690.812L1702.04 681.663C1702.34 681.359 1702.95 681.359 1703.26 681.663C1703.56 681.968 1703.56 681.968 1703.56 682.578L1703.26 682.883L1691.67 692.031C1687.1 695.386 1681.61 699.655 1674.9 704.534C1652.33 720.391 1627.63 737.162 1595.92 754.849C1557.19 776.499 1516.33 794.186 1474.86 808.213C1427.9 824.07 1376.97 835.962 1327.57 842.061C1278.17 848.16 1226.03 849.684 1176.63 846.025C1133.02 842.671 1089.42 835.657 1046.42 824.984L1019.59 817.666C1011.66 815.226 1003.73 812.787 996.412 810.347L995.497 810.042C987.264 807.298 980.555 804.859 974.761 802.724L957.075 796.015C949.451 793.271 943.658 790.526 938.474 788.392L938.169 788.087C936.034 787.172 934.509 786.257 932.985 785.952L923.532 782.598Z" fill="white"/>
<path d="M983.309 853.351C983.004 853.046 983.004 853.046 983.004 852.436C983.004 852.436 983.309 852.131 983.614 851.827L984.224 851.827L1004.96 858.535C1008.31 859.45 1011.67 860.365 1015.63 861.28L1039.42 867.379C1044.6 868.903 1049.79 869.818 1055.58 871.343L1061.98 872.867C1078.75 876.832 1098.27 879.881 1116.57 882.93C1162.92 889.639 1209.57 892.383 1255.62 890.859C1308.07 889.639 1362.96 882.32 1413.88 870.428C1465.42 858.535 1517.87 840.239 1565.44 818.283C1607.52 798.767 1648.38 775.592 1686.5 748.453C1701.13 738.695 1713.64 728.631 1724.92 719.788L1731.02 714.909C1742 705.761 1751.45 697.528 1759.99 690.209L1763.65 687.16C1781.03 670.998 1790.48 661.545 1790.48 661.545C1790.79 661.24 1791.4 661.24 1791.7 661.545C1792.01 661.85 1792.01 662.46 1791.7 662.765C1791.7 662.765 1781.94 672.523 1764.87 688.38L1761.21 691.429C1752.67 698.747 1743.22 706.981 1732.24 716.129L1726.14 721.008C1714.86 729.851 1701.74 739.914 1687.41 749.977C1648.99 776.812 1608.13 800.597 1565.74 819.808C1518.17 841.764 1465.72 860.06 1414.19 871.952C1362.96 884.15 1308.37 891.164 1255.62 892.688C1209.57 894.213 1162.92 891.469 1116.57 884.76C1097.97 882.015 1078.45 878.356 1061.37 874.697L1054.97 873.172C1049.18 871.648 1043.99 870.733 1038.81 869.208L1015.94 862.804C1011.67 861.585 1007.7 860.67 1004.35 859.755L983.309 853.351Z" fill="white"/>
<path d="M983.911 786.26C983.606 785.955 983.606 785.955 983.606 785.345C983.911 785.04 984.216 784.735 984.826 784.735L986.961 785.65C988.18 786.26 990.62 786.87 993.364 787.785L1017.76 795.713C1025.99 798.458 1035.14 800.897 1046.42 803.641L1055.88 806.386C1061.67 807.911 1067.77 809.131 1074.17 810.655L1092.47 814.314L1105.89 816.754C1147.97 824.072 1190.96 828.037 1233.35 827.732C1281.53 827.732 1331.85 822.548 1379.42 812.79C1426.99 803.032 1475.17 787.785 1519.99 768.574C1559.33 751.802 1597.45 731.371 1633.43 707.586L1638.92 703.927C1652.34 694.779 1664.53 686.24 1675.21 678.007L1691.98 664.895C1695.64 661.845 1698.99 659.101 1702.35 656.356L1706.01 653.307C1708.44 651.477 1710.58 649.343 1712.71 647.818C1717.9 643.244 1722.17 639.585 1724.91 636.84L1731.62 630.741C1731.92 630.437 1732.53 630.437 1732.84 630.742C1733.14 631.047 1733.14 631.656 1732.84 631.961L1726.13 638.06C1723.39 640.804 1719.12 644.464 1713.93 649.038C1711.49 650.868 1709.36 653.002 1706.92 654.832L1703.26 657.881C1699.91 660.625 1696.55 663.37 1692.89 666.419L1676.12 679.532C1665.75 688.07 1653.25 696.303 1639.83 705.451L1634.04 709.416C1598.06 733.201 1559.94 753.632 1520.6 770.403C1476.08 789.309 1427.6 804.861 1380.03 814.619C1332.46 824.377 1281.84 829.866 1233.66 829.866C1190.96 829.866 1147.97 826.512 1105.58 818.889L1092.16 816.449L1073.87 812.79C1067.46 811.265 1061.37 810.045 1055.57 808.521L1046.12 805.776C1035.14 802.727 1025.38 800.287 1017.45 797.848L993.059 789.919C990.315 789.004 988.18 788.09 986.656 787.785L983.911 786.26Z" fill="white"/>
<path d="M1831.95 453.576C1834.39 449.916 1836.83 445.037 1840.18 438.634L1843.54 432.23C1850.86 419.423 1864.88 392.588 1880.74 353.556C1895.38 317.573 1907.27 277.016 1915.5 235.85C1924.65 190.719 1929.53 142.539 1929.53 96.1879C1929.53 49.8373 1924.65 1.65718 1915.5 -43.4737C1907.27 -84.6404 1895.07 -124.892 1880.74 -161.18C1865.49 -199.602 1850.86 -227.047 1843.54 -239.854L1840.79 -245.038C1836.83 -252.052 1834.08 -257.235 1831.64 -260.895L1827.38 -268.213C1827.07 -268.518 1827.07 -269.128 1827.68 -269.128C1827.99 -269.433 1828.59 -269.433 1828.9 -269.128L1833.47 -261.505C1835.61 -257.54 1838.96 -252.356 1842.93 -245.343L1845.67 -240.159C1852.99 -227.351 1867.02 -199.907 1882.57 -161.18C1897.21 -125.197 1909.1 -84.6404 1917.64 -43.1688C1927.09 2.26698 1931.66 50.7522 1931.97 96.7978C1931.97 143.148 1927.09 191.329 1917.64 236.765C1909.4 277.931 1897.21 318.793 1882.57 354.776C1867.02 393.503 1852.38 420.947 1845.37 433.45L1841.71 440.158C1838.05 446.257 1835.61 451.136 1833.17 454.795L1829.2 461.199L1827.68 460.284L1831.95 453.576Z" fill="white"/>
<path d="M970.192 715.21C969.888 714.905 969.583 714.6 969.888 714.295C970.192 713.99 970.497 713.686 971.107 713.686L978.731 717.04C983.61 718.869 990.928 721.919 1000.38 725.273C1017.15 731.677 1044.6 740.825 1080.28 749.058C1117.17 757.901 1157.42 763.39 1196.76 765.525C1241.28 767.965 1287.63 765.525 1331.24 759.121C1375.15 752.413 1420.28 740.825 1462.06 725.883C1499.57 712.161 1536.46 694.779 1568.79 675.873C1603.55 655.137 1627.03 637.756 1638.01 629.218L1642.89 625.558C1648.68 620.984 1653.25 617.63 1656.61 614.886L1663.01 609.701C1663.32 609.397 1663.93 609.397 1664.23 609.701C1664.54 610.006 1664.54 610.616 1664.23 610.921L1657.83 616.105C1654.47 618.85 1649.9 622.204 1644.11 626.778L1639.23 630.437C1628.25 638.976 1604.77 656.357 1569.7 676.788C1537.07 695.999 1500.18 713.38 1462.67 727.103C1421.2 742.35 1375.46 753.937 1331.54 760.646C1287.94 767.05 1241.59 769.489 1196.76 767.355C1157.42 765.22 1117.17 759.731 1080.28 750.888C1044.29 742.35 1016.85 733.201 1000.38 727.103C990.928 723.748 983.61 720.699 978.426 718.564L970.192 715.21Z" fill="white"/>
<path d="M1593.48 588.353C1593.18 588.048 1593.18 587.438 1593.48 587.133L1616.05 569.447L1620.62 565.483C1626.41 560.299 1633.43 554.505 1641.36 547.797C1643.8 545.357 1646.24 542.917 1648.98 540.783C1656.6 533.769 1663.92 526.451 1671.85 517.913C1696.86 492.298 1719.42 464.243 1738.63 434.664C1761.2 401.121 1781.02 363.614 1796.27 326.411C1811.51 289.209 1823.4 248.652 1830.42 208.705C1836.82 173.027 1840.48 136.435 1840.48 102.282C1840.79 65.384 1837.74 39.1594 1836.52 26.9619C1834.99 12.6298 1833.16 2.87164 1832.86 -0.482683L1833.16 -0.177726L1834.69 -0.48259C1835.3 3.17667 1836.82 12.6297 1838.35 26.9618C1839.87 39.4642 1842.31 65.689 1842.31 102.891C1842.31 137.045 1838.65 173.637 1831.94 209.62C1824.32 249.567 1812.73 290.429 1797.49 327.631C1782.24 364.834 1762.11 402.646 1739.85 436.494C1720.34 465.768 1697.77 493.822 1672.77 520.047C1664.84 528.585 1656.91 535.904 1649.89 542.917L1649.28 543.527C1646.85 545.967 1644.71 548.101 1642.27 549.931C1634.65 556.945 1627.33 563.043 1621.23 567.922L1617.27 571.277L1594.7 588.963C1594.4 588.658 1593.79 588.658 1593.48 588.353Z" fill="white"/>
<path d="M1594.7 513.945C1594.39 513.64 1594.39 513.03 1594.7 512.725L1599.88 508.151C1602.32 506.321 1605.07 503.577 1608.42 500.222C1610.25 498.393 1617.26 491.989 1617.26 491.989C1619.4 489.854 1621.53 487.72 1623.97 485.28L1634.95 473.693C1641.05 467.594 1646.84 460.58 1653.25 452.957C1655.69 449.908 1658.12 447.468 1660.56 444.419C1681.3 418.804 1699.6 391.969 1714.84 363.915C1732.53 332.201 1747.78 296.829 1758.45 261.761C1769.43 226.998 1777.36 189.185 1781.02 153.203C1784.37 121.184 1784.67 88.5557 1782.54 56.5372C1781.93 45.5594 1780.71 35.8014 1779.49 26.6533L1779.49 26.0433C1779.19 23.2989 1778.88 20.5545 1778.58 17.8101L1778.27 15.6755C1776.44 4.69769 1774.92 -4.14553 1773.39 -11.769L1769.12 -30.6752C1768.21 -34.6394 1767.6 -37.0788 1767.6 -37.0788L1767.6 -37.6887L1767.9 -37.9937C1768.21 -38.2986 1768.82 -38.2986 1769.12 -37.9937C1769.43 -37.0789 1770.04 -35.2492 1770.65 -30.9801L1774.92 -12.0739C1776.44 -4.45048 1777.97 5.00261 1779.8 15.3705L1780.1 17.5051C1780.41 20.2496 1781.01 23.2989 1781.01 26.3483C1782.23 35.4965 1783.15 45.5595 1784.06 56.2323C1786.5 88.5558 1785.89 121.489 1782.54 153.508C1778.88 190.1 1771.26 227.607 1759.97 262.675C1749 297.438 1733.75 333.421 1716.06 365.135C1700.51 392.884 1682.22 420.329 1661.48 445.943C1659.34 448.688 1656.91 451.127 1654.77 453.872L1654.16 454.482C1647.76 462.105 1641.66 469.424 1635.56 475.522L1624.58 487.11C1622.14 489.55 1620.01 491.684 1617.87 493.819C1616.96 494.734 1615.74 495.953 1614.82 496.868C1612.99 498.698 1611.16 500.527 1609.64 502.052C1605.98 505.711 1603.54 508.151 1601.1 509.98L1595.92 514.555C1595.61 514.25 1595 514.25 1594.7 513.945Z" fill="white"/>
<path d="M1550.18 437.714C1549.88 437.409 1549.88 436.799 1550.18 436.494L1555.98 430.7C1558.72 427.956 1562.07 425.211 1565.73 420.942C1567.26 419.417 1568.78 417.893 1570.61 416.063C1574.58 412.099 1578.54 407.525 1583.11 402.341L1593.18 390.448L1603.85 376.726C1620.62 354.466 1635.26 331.29 1647.15 307.2C1661.18 279.756 1672.77 249.872 1681 219.683C1689.23 190.104 1694.42 158.085 1696.55 127.287C1698.38 100.452 1697.77 73.0074 1694.72 45.563L1692.89 28.4865L1690.45 13.2395C1689.54 8.05557 1688.62 3.4816 1688.01 -0.177657L1685.57 -11.7654C1684.66 -16.3394 1683.44 -19.9986 1682.83 -23.048C1682.52 -24.5727 1682.22 -26.0974 1681.61 -27.3171L1680.09 -33.1111C1680.09 -33.7209 1680.39 -34.0258 1680.7 -34.3308C1681 -34.6357 1681.31 -34.3308 1681.61 -34.0258L1681.91 -33.7209L1683.44 -27.9272C1683.74 -27.0123 1684.05 -25.4877 1684.66 -23.658C1685.57 -20.3037 1686.79 -16.6443 1687.71 -12.0702L1690.15 -0.482614C1691.06 2.87171 1691.98 7.44576 1692.59 12.9347L1695.03 28.1816L1697.16 45.5631C1700.21 73.0075 1700.52 100.757 1698.69 127.591C1696.55 158.39 1691.37 190.409 1682.83 220.293C1674.9 250.177 1663.01 280.365 1648.98 307.81C1636.78 331.595 1622.45 355.075 1605.68 377.336L1595.01 391.058L1584.94 402.951C1580.98 408.135 1576.41 412.709 1572.75 416.368C1570.92 418.198 1569.39 419.722 1567.87 421.247C1564.21 425.516 1560.55 428.565 1558.11 431.005L1552.32 436.799C1551.1 438.019 1550.49 438.019 1550.18 437.714Z" fill="white"/>
<path d="M1068.68 494.735C1068.38 494.43 1068.07 494.125 1068.38 493.82C1068.68 493.515 1068.99 493.21 1069.6 493.21C1069.6 493.21 1072.95 494.735 1074.48 495.04L1088.5 500.529C1094.6 502.359 1101.92 504.798 1110.46 507.847C1112.9 508.457 1115.64 509.372 1118.08 509.982C1124.79 511.812 1131.8 513.946 1139.43 515.471C1164.13 520.655 1189.13 524.314 1214.14 524.924C1242.19 526.144 1272.08 524.314 1300.44 519.74C1328.49 515.471 1357.15 507.543 1383.68 497.48C1406.55 488.636 1429.42 477.964 1451.07 464.851L1464.49 456.313C1467.24 454.788 1469.68 452.959 1472.12 451.129C1473.64 450.214 1474.86 448.994 1476.08 448.384C1477.6 447.47 1478.52 446.555 1480.04 445.64C1482.48 443.81 1484.31 442.591 1486.45 441.066L1501.69 429.478L1510.54 421.855C1510.84 421.55 1511.45 421.55 1511.76 421.855C1512.06 422.16 1512.06 422.77 1511.76 423.075L1503.22 430.393L1487.97 441.981C1485.84 443.505 1483.7 445.03 1481.57 446.555C1480.04 447.47 1479.13 448.384 1477.6 449.299C1476.08 450.214 1474.86 451.434 1473.64 452.044C1471.2 453.873 1468.76 455.703 1466.02 457.228L1452.6 465.766C1430.34 478.878 1407.77 489.856 1384.6 498.394C1358.07 508.457 1329.1 516.081 1301.05 520.96C1272.69 525.534 1242.8 527.363 1214.75 526.144C1189.74 524.924 1164.74 521.875 1139.73 516.386C1132.11 514.861 1124.79 513.031 1118.08 511.202H1117.47C1115.03 510.592 1112.59 509.982 1110.15 509.372C1101.31 506.628 1093.99 504.188 1087.89 502.359L1073.87 496.87C1070.82 495.65 1069.29 494.735 1068.68 494.735Z" fill="white"/>
<path d="M1580.06 269.385C1579.76 269.08 1579.76 268.47 1579.76 268.47L1581.89 263.896C1583.42 261.152 1585.25 256.883 1587.38 251.699L1591.65 241.941L1595.31 232.183C1597.44 226.999 1599.27 220.9 1601.41 214.496C1602.32 211.752 1603.24 209.008 1604.15 206.263C1610.56 184.612 1614.83 162.047 1617.26 139.482C1620.31 113.867 1620.31 87.0322 1618.18 61.1125C1614.52 14.152 1599.27 -38.2974 1578.23 -78.8542C1576.1 -83.4283 1573.96 -87.3924 1571.52 -91.6615C1570.61 -93.1862 1569.69 -94.711 1568.78 -96.2357C1567.56 -98.6752 1566.04 -100.81 1565.12 -102.944C1563.6 -105.689 1561.77 -108.128 1560.24 -110.873C1557.8 -114.532 1555.67 -117.886 1553.84 -120.936L1546.21 -132.218C1544.38 -134.658 1543.47 -136.183 1543.47 -136.183C1543.47 -136.183 1543.16 -136.488 1543.47 -136.792C1543.47 -136.792 1543.47 -137.402 1543.77 -137.097C1544.08 -137.402 1544.69 -137.402 1544.99 -137.097C1544.99 -137.097 1546.21 -135.878 1547.74 -133.133L1555.36 -121.851C1557.5 -119.106 1559.63 -115.752 1561.77 -111.787C1563.29 -109.043 1564.82 -106.909 1566.65 -103.859C1568.17 -101.725 1569.08 -99.59 1570.3 -97.1505C1571.22 -95.6258 1572.13 -94.1011 1573.05 -92.5764C1575.49 -88.3073 1577.62 -84.3431 1579.76 -79.7691C1601.1 -38.9073 1615.74 13.5421 1619.7 60.8075C1622.14 86.4223 1621.84 113.562 1618.79 139.177C1616.35 161.742 1611.78 184.612 1605.37 206.263C1604.46 209.008 1603.54 211.752 1602.63 214.496C1600.49 220.9 1598.66 226.999 1596.53 232.183L1592.26 243.77L1588.6 251.699C1586.16 257.188 1584.33 261.457 1582.81 264.201L1580.98 268.471C1581.28 269.385 1580.37 269.69 1580.06 269.385Z" fill="white"/>
<path opacity="0.4" d="M1500.48 342.275C1500.18 341.97 1500.18 341.36 1500.48 341.055C1500.48 341.055 1501.7 339.835 1503.23 337.7L1511.46 328.247C1513.6 326.113 1515.73 322.758 1518.17 319.709C1520 317.27 1521.83 314.83 1523.66 312.391C1524.88 310.561 1526.1 308.731 1527.62 306.597C1528.54 305.072 1529.76 303.852 1530.67 302.328L1531.59 300.803C1534.03 297.754 1535.86 294.704 1537.99 291.35C1561.17 255.977 1580.38 208.712 1588.31 164.8C1592.88 141.32 1595.01 116.01 1594.71 91.9202C1594.41 70.2696 1592.27 48.0091 1588.31 28.1881C1588 25.4437 1587.09 22.6992 1586.48 20.2597C1585.87 18.4301 1585.56 16.9054 1585.56 15.0757L1584.34 8.97705L1580.07 -6.87978C1579.46 -8.70941 1578.85 -10.539 1578.24 -12.3686C1577.94 -13.2834 1577.33 -14.5033 1577.02 -15.4181C1576.41 -17.2477 1576.11 -18.7724 1575.5 -19.9922C1574.28 -23.0416 1573.67 -25.4811 1573.06 -27.3107L1571.23 -31.5798L1571.23 -32.1897C1571.23 -32.1897 1571.53 -32.4947 1571.84 -32.7996C1572.14 -33.1046 1572.45 -32.7995 1572.75 -32.4946L1574.58 -28.2255C1575.19 -26.3958 1576.11 -23.6514 1577.02 -20.907C1577.33 -19.3823 1579.16 -14.5033 1579.46 -12.9786C1580.07 -11.149 1580.68 -9.31932 1581.29 -7.48969L1585.56 8.36704L1586.78 14.4659C1587.09 15.9906 1587.39 17.5153 1588 19.3449C1588.92 22.0894 1589.22 24.8338 1589.53 27.5782C1593.49 47.3992 1595.32 69.3548 1595.62 91.6153C1595.93 115.705 1593.8 141.015 1589.22 165.105C1580.99 209.321 1561.78 256.587 1538.6 291.96C1536.47 295.314 1534.33 298.668 1532.2 301.413L1531.28 302.938C1530.37 304.462 1529.15 305.682 1528.54 306.902C1527.01 309.036 1525.79 310.866 1524.27 313C1522.44 315.44 1520.61 317.879 1519.09 320.014C1516.65 323.063 1514.21 326.113 1512.38 328.552L1504.14 338.005C1502.62 340.14 1501.4 341.36 1501.09 341.665C1501.4 343.189 1501.09 342.884 1500.48 342.275Z" fill="white"/>
<path d="M1158.95 434.969C1158.64 434.664 1158.64 434.664 1158.64 434.054C1158.95 433.749 1159.25 433.444 1159.86 433.444C1159.86 433.444 1165.65 434.969 1175.72 436.494C1186.69 438.323 1201.94 440.153 1218.41 440.763C1259.27 442.592 1307.15 435.579 1346.18 421.552C1386.43 407.524 1427.9 383.129 1457.48 356.6L1464.19 350.501L1475.47 339.828L1488.28 326.411L1498.95 313.908C1499.26 313.604 1499.87 313.603 1500.17 313.908C1500.48 314.213 1500.48 314.823 1500.17 315.128L1489.5 327.631L1476.39 341.353L1463.58 353.55L1458.7 357.819C1428.82 384.654 1387.04 409.354 1346.79 423.381C1307.15 437.408 1259.27 444.422 1218.41 442.592C1201.64 441.678 1186.69 440.153 1175.72 438.323C1165.65 436.799 1159.86 435.274 1159.86 435.274C1159.25 435.274 1158.95 434.969 1158.95 434.969Z" fill="white"/>
<path d="M1528.53 286.158C1528.22 285.853 1528.22 285.243 1528.53 284.938L1530.97 281.279C1531.58 280.669 1531.88 279.754 1532.49 279.144C1534.02 277.01 1535.54 274.265 1537.37 270.606C1538.29 269.081 1539.2 267.557 1540.12 265.422C1542.25 262.068 1544.39 258.103 1546.21 253.834L1551.4 243.162L1556.58 231.269C1564.51 211.753 1570.61 192.237 1575.18 172.416C1580.06 149.85 1583.11 125.455 1583.42 101.975C1583.72 78.4948 1581.89 54.0997 1577.62 31.5343C1573.96 11.4083 1568.17 -8.41263 1561.16 -27.6237C1559.02 -34.0274 1556.58 -39.5163 1554.45 -44.7002L1554.14 -45.0052C1553.53 -46.8348 1552.62 -48.3594 1551.7 -50.494C1549.87 -54.1533 1548.35 -57.5077 1546.82 -60.862C1545.61 -63.3015 1544.39 -65.741 1543.47 -67.8755L1535.24 -82.2076C1534.93 -82.5125 1534.93 -83.1224 1535.54 -83.1224C1535.85 -83.4274 1536.15 -83.1225 1536.46 -82.8176L1544.69 -67.8755C1545.61 -65.741 1546.82 -63.3015 1548.04 -60.862C1549.57 -57.5077 1551.4 -54.4583 1552.92 -50.4941C1553.53 -48.6645 1554.45 -47.1398 1555.06 -45.3101L1555.36 -45.0052C1557.5 -39.8212 1560.24 -34.0273 1562.38 -27.6236C1569.7 -8.1076 1575.18 12.0183 1578.84 32.1442C1583.11 55.3195 1584.94 79.7146 1584.64 103.195C1584.33 126.675 1581.28 151.07 1576.1 173.94C1571.52 193.761 1565.73 213.583 1557.5 232.794L1551.4 246.821L1547.13 255.359C1545 259.933 1542.86 263.897 1541.03 266.947C1539.81 268.776 1538.9 270.301 1538.29 272.131C1536.76 275.485 1534.93 277.924 1533.41 280.059C1532.8 281.279 1532.19 281.889 1531.88 282.803L1529.44 286.463C1529.44 286.463 1528.83 286.463 1528.53 286.158Z" fill="white"/>
<path d="M1381.55 358.736C1383.08 357.821 1387.04 355.687 1392.53 352.028C1399.85 347.758 1409.91 340.745 1423.02 330.072C1436.44 319.094 1449.25 306.287 1461.14 292.565C1474.25 277.623 1486.15 260.241 1495.6 242.86C1505.05 225.478 1513.28 206.267 1519.38 187.361C1524.57 170.589 1528.53 153.208 1530.97 135.521C1532.8 122.104 1533.41 110.516 1533.41 101.978L1533.72 98.014L1533.41 83.6819C1533.41 83.0721 1533.72 82.7671 1534.33 82.7671H1534.94C1535.24 83.072 1535.24 83.0719 1534.94 83.3769L1534.94 101.673C1534.94 110.211 1534.33 121.799 1532.5 135.216C1530.36 153.208 1526.4 170.589 1521.21 187.361C1515.11 206.267 1507.19 225.783 1497.12 243.165C1487.37 260.851 1475.17 277.928 1462.36 293.174C1450.47 306.897 1437.36 320.009 1424.24 330.682C1410.83 341.05 1401.07 348.368 1393.75 352.637C1388.56 355.992 1384.6 358.126 1382.77 359.346L1381.55 358.736Z" fill="white"/>
<circle cx="1534" cy="83.001" r="2" fill="white"/>
<circle cx="1559" cy="329.001" r="3" fill="white"/>
<circle opacity="0.4" cx="1489" cy="291.001" r="3" fill="white"/>
<circle opacity="0.4" cx="1764" cy="29.001" r="4" fill="white"/>
</g>
</g>
<defs>
<linearGradient id="paint0_linear" x1="-81.3641" y1="-23.8971" x2="1740.59" y2="771.141" gradientUnits="userSpaceOnUse">
<stop stop-color="#FFBB6A"/>
<stop offset="0.161458" stop-color="#FF4949"/>
<stop offset="0.739583" stop-color="#FF365A"/>
<stop offset="1" stop-color="#FF6838"/>
</linearGradient>
<clipPath id="clip0">
<rect width="1920" height="360" fill="white"/>
</clipPath>
</defs>
</svg>
