<svg data-v-6805eed4="" version="1.0" xmlns="http://www.w3.org/2000/svg" xmlns:xlink="http://www.w3.org/1999/xlink" width="100%" height="100%" viewBox="0 0 340.000000 250.000000" preserveAspectRatio="xMidYMid meet" color-interpolation-filters="sRGB" style="margin: auto;"> <rect data-v-6805eed4="" x="0" y="0" width="100%" height="100%" fill="#0a0a37" fill-opacity="1" class="background"></rect> <!----> <g data-v-6805eed4="" fill="#cfe2f3" class="icon-text-wrapper icon-svg-group iconsvg" transform="translate(86.35719299316406,89.15482330322266)"><g class="iconsvg-imagesvg" transform="translate(0,0)"><g><rect fill="#cfe2f3" fill-opacity="0" stroke-width="2" x="0" y="0" width="68.04561767578126" height="71.69035534133471" class="image-rect"></rect> <svg x="0" y="0" width="68.04561767578126" height="71.69035534133471" filtersec="colorsb5675186052" class="image-svg-svg primary" style="overflow: visible;"><svg xmlns="http://www.w3.org/2000/svg" viewBox="0.006116670090705156 0.006116670090705156 94.90999603271484 99.99388885498047"><defs><linearGradient id="d28c5474-5d95-4d73-a32a-477c1e2c6e31" x1="34.93" y1="68.73" x2="94.92" y2="68.73" gradientUnits="userSpaceOnUse"><stop offset="0" stop-color="#cfe2f3"></stop><stop offset="1" stop-color="#1891db"></stop></linearGradient><linearGradient id="17be9b46-6225-4de0-9b29-cde96238916d" x1="16.82" y1="45.25" x2="48.77" y2="87.85" gradientUnits="userSpaceOnUse"><stop offset="0" stop-color="#1891db"></stop><stop offset="1" stop-color="#cfe2f3"></stop></linearGradient><linearGradient id="11b7c330-a8a6-4c5e-8345-819929b8e8e6" x1="50.23" y1="22.05" x2="102.44" y2="79.48" gradientUnits="userSpaceOnUse"><stop offset="0" stop-color="#1891db"></stop><stop offset="1" stop-color="#cfe2f3"></stop></linearGradient><linearGradient id="b0c019dd-befe-4188-8bff-c6d76d045cb3" x1="38.39" y1="22.98" x2="18.96" y2="53.89" gradientUnits="userSpaceOnUse"><stop offset="0" stop-color="#cfe2f3"></stop><stop offset="1" stop-color="#1891db"></stop></linearGradient></defs><g><g><path d="M47.46 100a12.53 12.53 0 0 1-12.53-12.53c0-13 5.39-25.52 15.17-35.34 9.28-9.32 21.05-14.66 32.28-14.66a12.53 12.53 0 1 1 0 25.06C73.54 62.53 60 73.7 60 87.47A12.53 12.53 0 0 1 47.46 100z" opacity=".8" fill="url(#d28c5474-5d95-4d73-a32a-477c1e2c6e31)"></path><path d="M47.46 100a12.53 12.53 0 0 1-12.53-12.53c0-13.77-13.56-24.94-22.4-24.94a12.53 12.53 0 0 1 0-25.06c11.24 0 23 5.34 32.28 14.66C54.6 62 60 74.5 60 87.47A12.53 12.53 0 0 1 47.46 100z" opacity=".8" fill="url(#17be9b46-6225-4de0-9b29-cde96238916d)"></path><path d="M82.38 62.53c-11.23 0-23-5.34-32.28-14.66-9.78-9.82-15.17-22.37-15.17-35.34a12.53 12.53 0 0 1 25.06 0C60 26.3 73.54 37.47 82.38 37.47a12.53 12.53 0 1 1 0 25.06z" opacity=".8" fill="url(#11b7c330-a8a6-4c5e-8345-819929b8e8e6)"></path><path d="M12.53 62.53a12.53 12.53 0 0 1 0-25.06c8.84 0 22.4-11.17 22.4-24.94a12.53 12.53 0 0 1 25.06 0c0 13-5.39 25.52-15.18 35.34-9.27 9.32-21.04 14.66-32.28 14.66z" opacity=".8" fill="url(#b0c019dd-befe-4188-8bff-c6d76d045cb3)"></path></g></g></svg></svg> <!----></g></g> <g transform="translate(81.04561614990234,10.460176467895508)"><g data-gra="path-name" fill-rule="" class="tp-name iconsvg-namesvg"><g transform="scale(1)"><g><path d="M25.63-36.52L25.36-34.32 43.78-34.32 42.95-25.91 37.62-25.91 38.01-29.92 8.8-29.92 8.42-25.91 3.08-25.91 3.96-34.32 19.86-34.32 20.63-41.91 26.18-41.91 25.96-40.04 42.08-40.04 41.74-36.52 25.63-36.52ZM10.95-27.94L35.53-27.94 35.15-24.14 10.51-24.14 10.95-27.94ZM6.54-18.48L1.81-18.48 7.65-22.82 15.23-22.82 6.54-18.48ZM38.17-18.48L30.36-22.82 37.95-22.82 42.84-18.48 38.17-18.48ZM0.88-13.7L17.93-22.5 27.34-22.5 42.63-13.7 42.19-10.01 38.55-11.66 36.47 8.09 2.37 8.09 4.4-11.61 0.49-10.01 0.88-13.7ZM22.33-18.92L12.65-14.96 31.13-14.96 22.33-18.92ZM9.68-8.42L32.62-8.42 32.89-11.17 9.9-11.17 9.68-8.42ZM9.02-2.31L31.96-2.31 32.29-4.95 9.35-4.95 9.02-2.31ZM8.3 4.24L31.3 4.24 31.63 1.16 8.63 1.16 8.3 4.24ZM50.93-40.76L86.73-40.76 82.06 3.35 85.09 3.35 83.16 8.86 76.17 8.86 80.74-35.26 55.66-35.26 53.68-15.84 46.15 8.86 42.3 8.86 48.23-14.69 50.93-40.76ZM70.89-32.51L76.78-32.51 68.64-17.49 74.47 2.37 69.96 2.37 65.39-11.49 57.86 2.37 53.35 2.37 63.36-17.55 58.41-32.51 64.24-32.51 66.72-24.14 70.89-32.51Z" transform="translate(-0.49000000953674316, 41.90999984741211)"></path></g> <!----> <!----> <!----> <!----> <!----> <!----> <!----></g></g> <!----></g></g><defs v-gra="od"></defs></svg>